%TF.GenerationSoftware,KiCad,Pcbnew,8.0.5*%
%TF.CreationDate,2024-10-31T16:18:24-07:00*%
%TF.ProjectId,CustomMotorshield,43757374-6f6d-44d6-9f74-6f7273686965,rev?*%
%TF.SameCoordinates,Original*%
%TF.FileFunction,Copper,L1,Top*%
%TF.FilePolarity,Positive*%
%FSLAX46Y46*%
G04 Gerber Fmt 4.6, Leading zero omitted, Abs format (unit mm)*
G04 Created by KiCad (PCBNEW 8.0.5) date 2024-10-31 16:18:24*
%MOMM*%
%LPD*%
G01*
G04 APERTURE LIST*
G04 Aperture macros list*
%AMRoundRect*
0 Rectangle with rounded corners*
0 $1 Rounding radius*
0 $2 $3 $4 $5 $6 $7 $8 $9 X,Y pos of 4 corners*
0 Add a 4 corners polygon primitive as box body*
4,1,4,$2,$3,$4,$5,$6,$7,$8,$9,$2,$3,0*
0 Add four circle primitives for the rounded corners*
1,1,$1+$1,$2,$3*
1,1,$1+$1,$4,$5*
1,1,$1+$1,$6,$7*
1,1,$1+$1,$8,$9*
0 Add four rect primitives between the rounded corners*
20,1,$1+$1,$2,$3,$4,$5,0*
20,1,$1+$1,$4,$5,$6,$7,0*
20,1,$1+$1,$6,$7,$8,$9,0*
20,1,$1+$1,$8,$9,$2,$3,0*%
G04 Aperture macros list end*
%TA.AperFunction,EtchedComponent*%
%ADD10C,0.000000*%
%TD*%
%TA.AperFunction,ComponentPad*%
%ADD11O,1.980000X3.960000*%
%TD*%
%TA.AperFunction,ComponentPad*%
%ADD12R,1.980000X3.960000*%
%TD*%
%TA.AperFunction,SMDPad,CuDef*%
%ADD13RoundRect,0.250000X0.550000X-1.500000X0.550000X1.500000X-0.550000X1.500000X-0.550000X-1.500000X0*%
%TD*%
%TA.AperFunction,SMDPad,CuDef*%
%ADD14R,0.609600X1.168400*%
%TD*%
%TA.AperFunction,SMDPad,CuDef*%
%ADD15R,0.800000X0.300000*%
%TD*%
%TA.AperFunction,SMDPad,CuDef*%
%ADD16R,3.049999X1.300000*%
%TD*%
%TA.AperFunction,SMDPad,CuDef*%
%ADD17RoundRect,0.150000X-0.825000X-0.150000X0.825000X-0.150000X0.825000X0.150000X-0.825000X0.150000X0*%
%TD*%
%TA.AperFunction,SMDPad,CuDef*%
%ADD18RoundRect,0.375000X0.375000X-0.625000X0.375000X0.625000X-0.375000X0.625000X-0.375000X-0.625000X0*%
%TD*%
%TA.AperFunction,SMDPad,CuDef*%
%ADD19RoundRect,0.500000X1.400000X-0.500000X1.400000X0.500000X-1.400000X0.500000X-1.400000X-0.500000X0*%
%TD*%
%TA.AperFunction,SMDPad,CuDef*%
%ADD20RoundRect,0.150000X0.512500X0.150000X-0.512500X0.150000X-0.512500X-0.150000X0.512500X-0.150000X0*%
%TD*%
%TA.AperFunction,SMDPad,CuDef*%
%ADD21RoundRect,0.237500X-0.250000X-0.237500X0.250000X-0.237500X0.250000X0.237500X-0.250000X0.237500X0*%
%TD*%
%TA.AperFunction,SMDPad,CuDef*%
%ADD22RoundRect,0.237500X0.250000X0.237500X-0.250000X0.237500X-0.250000X-0.237500X0.250000X-0.237500X0*%
%TD*%
%TA.AperFunction,SMDPad,CuDef*%
%ADD23RoundRect,0.237500X0.237500X-0.250000X0.237500X0.250000X-0.237500X0.250000X-0.237500X-0.250000X0*%
%TD*%
%TA.AperFunction,SMDPad,CuDef*%
%ADD24RoundRect,0.237500X-0.237500X0.250000X-0.237500X-0.250000X0.237500X-0.250000X0.237500X0.250000X0*%
%TD*%
%TA.AperFunction,SMDPad,CuDef*%
%ADD25RoundRect,0.237500X-0.237500X0.300000X-0.237500X-0.300000X0.237500X-0.300000X0.237500X0.300000X0*%
%TD*%
%TA.AperFunction,SMDPad,CuDef*%
%ADD26RoundRect,0.237500X0.300000X0.237500X-0.300000X0.237500X-0.300000X-0.237500X0.300000X-0.237500X0*%
%TD*%
%TA.AperFunction,SMDPad,CuDef*%
%ADD27RoundRect,0.237500X-0.300000X-0.237500X0.300000X-0.237500X0.300000X0.237500X-0.300000X0.237500X0*%
%TD*%
%TA.AperFunction,ComponentPad*%
%ADD28O,1.950000X1.700000*%
%TD*%
%TA.AperFunction,ComponentPad*%
%ADD29RoundRect,0.250000X-0.725000X0.600000X-0.725000X-0.600000X0.725000X-0.600000X0.725000X0.600000X0*%
%TD*%
%TA.AperFunction,SMDPad,CuDef*%
%ADD30RoundRect,0.237500X-0.287500X-0.237500X0.287500X-0.237500X0.287500X0.237500X-0.287500X0.237500X0*%
%TD*%
%TA.AperFunction,ComponentPad*%
%ADD31R,1.700000X1.700000*%
%TD*%
%TA.AperFunction,ComponentPad*%
%ADD32O,1.700000X1.700000*%
%TD*%
%TA.AperFunction,SMDPad,CuDef*%
%ADD33RoundRect,0.237500X0.287500X0.237500X-0.287500X0.237500X-0.287500X-0.237500X0.287500X-0.237500X0*%
%TD*%
%TA.AperFunction,ViaPad*%
%ADD34C,0.600000*%
%TD*%
%TA.AperFunction,Conductor*%
%ADD35C,0.300000*%
%TD*%
%TA.AperFunction,Conductor*%
%ADD36C,1.270000*%
%TD*%
%TA.AperFunction,Conductor*%
%ADD37C,0.500000*%
%TD*%
%TA.AperFunction,Conductor*%
%ADD38C,0.400000*%
%TD*%
G04 APERTURE END LIST*
D10*
%TA.AperFunction,EtchedComponent*%
%TO.C,J3*%
G36*
X92675000Y-135900000D02*
G01*
X90475000Y-135900000D01*
X90475000Y-134800000D01*
X92675000Y-134800000D01*
X92675000Y-135900000D01*
G37*
%TD.AperFunction*%
%TA.AperFunction,EtchedComponent*%
G36*
X92675000Y-118200000D02*
G01*
X90475000Y-118200000D01*
X90475000Y-117100000D01*
X92675000Y-117100000D01*
X92675000Y-118200000D01*
G37*
%TD.AperFunction*%
%TD*%
D11*
%TO.P,J4,3,Pin_3*%
%TO.N,GND*%
X93500000Y-146500000D03*
%TO.P,J4,2,Pin_2*%
%TO.N,3V3*%
X88500000Y-146500000D03*
D12*
%TO.P,J4,1,Pin_1*%
%TO.N,5V*%
X83500000Y-146500000D03*
%TD*%
D13*
%TO.P,C8,1*%
%TO.N,3V3*%
X68000000Y-77500000D03*
%TO.P,C8,2*%
%TO.N,GND*%
X68000000Y-71900000D03*
%TD*%
D14*
%TO.P,Q1,1,G*%
%TO.N,Net-(Q1-G)*%
X81599998Y-83700000D03*
%TO.P,Q1,2,S*%
%TO.N,3V3*%
X83500000Y-83700000D03*
%TO.P,Q1,3,D*%
%TO.N,Net-(Q1-D)*%
X82549999Y-81210800D03*
%TD*%
D15*
%TO.P,J3,1,1*%
%TO.N,unconnected-(J3-Pad1)*%
X90075000Y-132249988D03*
%TO.P,J3,2,2*%
%TO.N,unconnected-(J3-Pad2)*%
X90075000Y-131749990D03*
%TO.P,J3,3,3*%
%TO.N,CSI_D2*%
X90075000Y-131249988D03*
%TO.P,J3,4,4*%
%TO.N,CSI_D1*%
X90075000Y-130749989D03*
%TO.P,J3,5,5*%
%TO.N,CSI_D3*%
X90075000Y-130249987D03*
%TO.P,J3,6,6*%
%TO.N,CSI_D0*%
X90075000Y-129749988D03*
%TO.P,J3,7,7*%
%TO.N,CSI_D4*%
X90075000Y-129249989D03*
%TO.P,J3,8,8*%
%TO.N,CSI_PCLK*%
X90075000Y-128749988D03*
%TO.P,J3,9,9*%
%TO.N,CSI_D5*%
X90075000Y-128249989D03*
%TO.P,J3,10,10*%
%TO.N,GND*%
X90075000Y-127749987D03*
%TO.P,J3,11,11*%
%TO.N,CSI_D6*%
X90075000Y-127249988D03*
%TO.P,J3,12,12*%
%TO.N,CSI_MCLK*%
X90075000Y-126749989D03*
%TO.P,J3,13,13*%
%TO.N,CSI_D7*%
X90075000Y-126249988D03*
%TO.P,J3,14,14*%
%TO.N,3V3*%
X90075000Y-125749989D03*
%TO.P,J3,15,15*%
%TO.N,CSI_1.2V*%
X90075000Y-125249987D03*
%TO.P,J3,16,16*%
%TO.N,CSI_HSYNC*%
X90075000Y-124749988D03*
%TO.P,J3,17,17*%
%TO.N,Net-(J3-Pad17)*%
X90075000Y-124249989D03*
%TO.P,J3,18,18*%
%TO.N,CSI_VSYNC*%
X90075000Y-123749988D03*
%TO.P,J3,19,19*%
%TO.N,CAM_RST*%
X90075000Y-123249989D03*
%TO.P,J3,20,20*%
%TO.N,TWI_SCK*%
X90075000Y-122749990D03*
%TO.P,J3,21,21*%
%TO.N,CSI_2.8V*%
X90075000Y-122249988D03*
%TO.P,J3,22,22*%
%TO.N,TWI_SDA*%
X90075000Y-121749989D03*
%TO.P,J3,23,23*%
%TO.N,GND*%
X90075000Y-121249988D03*
%TO.P,J3,24,24*%
%TO.N,unconnected-(J3-Pad24)*%
X90075000Y-120749989D03*
D16*
%TO.P,J3,P1,P1*%
%TO.N,GND*%
X92000000Y-134149989D03*
%TO.P,J3,P2,P2*%
X92000000Y-118850011D03*
%TD*%
D17*
%TO.P,U4,1,~{CE}*%
%TO.N,IO16*%
X89550000Y-105500000D03*
%TO.P,U4,2,SO/SIO*%
%TO.N,SD0*%
X89550000Y-106770000D03*
%TO.P,U4,3,SIO2*%
%TO.N,SD3*%
X89550000Y-108040000D03*
%TO.P,U4,4,VSS*%
%TO.N,GND*%
X89550000Y-109310000D03*
%TO.P,U4,5,SI/SIO*%
%TO.N,SD1*%
X94500000Y-109310000D03*
%TO.P,U4,6,SCLK*%
%TO.N,PSRAM_CLK*%
X94500000Y-108040000D03*
%TO.P,U4,7,SIO3*%
%TO.N,SD2*%
X94500000Y-106770000D03*
%TO.P,U4,8,VCC*%
%TO.N,3V3*%
X94500000Y-105500000D03*
%TD*%
D18*
%TO.P,U3,3,VI*%
%TO.N,5V*%
X70500000Y-87700000D03*
D19*
%TO.P,U3,2,VO*%
%TO.N,3V3*%
X68200000Y-81400000D03*
D18*
X68200000Y-87700000D03*
%TO.P,U3,1,GND*%
%TO.N,GND*%
X65900000Y-87700000D03*
%TD*%
D20*
%TO.P,U2,3,VI*%
%TO.N,Net-(Q1-D)*%
X89725000Y-90250000D03*
%TO.P,U2,2,VO*%
%TO.N,CSI_1.2V*%
X92000000Y-89300000D03*
%TO.P,U2,1,GND*%
%TO.N,GND*%
X92000000Y-91200000D03*
%TD*%
%TO.P,U1,3,VI*%
%TO.N,Net-(Q1-D)*%
X89725000Y-80750000D03*
%TO.P,U1,2,VO*%
%TO.N,CSI_2.8V*%
X92000000Y-79800000D03*
%TO.P,U1,1,GND*%
%TO.N,GND*%
X92000000Y-81700000D03*
%TD*%
D21*
%TO.P,R15,2*%
%TO.N,3V3*%
X89000000Y-114000000D03*
%TO.P,R15,1*%
%TO.N,CSI_MCLK*%
X87175000Y-114000000D03*
%TD*%
D22*
%TO.P,R14,2*%
%TO.N,GND*%
X82087500Y-130500000D03*
%TO.P,R14,1*%
%TO.N,Net-(J3-Pad17)*%
X83912500Y-130500000D03*
%TD*%
D23*
%TO.P,R13,1*%
%TO.N,IO16*%
X89500000Y-102500000D03*
%TO.P,R13,2*%
%TO.N,3V3*%
X89500000Y-100675000D03*
%TD*%
D22*
%TO.P,R12,1*%
%TO.N,TWI_SDA*%
X83912500Y-114000000D03*
%TO.P,R12,2*%
%TO.N,3V3*%
X82087500Y-114000000D03*
%TD*%
%TO.P,R11,1*%
%TO.N,TWI_SCK*%
X83912500Y-118000000D03*
%TO.P,R11,2*%
%TO.N,3V3*%
X82087500Y-118000000D03*
%TD*%
%TO.P,R10,1*%
%TO.N,CAM_RST*%
X83912500Y-126500000D03*
%TO.P,R10,2*%
%TO.N,3V3*%
X82087500Y-126500000D03*
%TD*%
D24*
%TO.P,R9,2*%
%TO.N,CAM_PWR*%
X74500000Y-92025000D03*
%TO.P,R9,1*%
%TO.N,Net-(Q1-G)*%
X74500000Y-90200000D03*
%TD*%
D22*
%TO.P,R8,2*%
%TO.N,Net-(Q1-G)*%
X81587500Y-87700000D03*
%TO.P,R8,1*%
%TO.N,3V3*%
X83412500Y-87700000D03*
%TD*%
D21*
%TO.P,R7,2*%
%TO.N,GND*%
X92412500Y-75980000D03*
%TO.P,R7,1*%
%TO.N,Net-(D7-K)*%
X90587500Y-75980000D03*
%TD*%
%TO.P,R6,2*%
%TO.N,GND*%
X84400000Y-76090000D03*
%TO.P,R6,1*%
%TO.N,Net-(D6-K)*%
X82575000Y-76090000D03*
%TD*%
%TO.P,R5,2*%
%TO.N,GND*%
X76012500Y-76200000D03*
%TO.P,R5,1*%
%TO.N,Net-(D5-K)*%
X74187500Y-76200000D03*
%TD*%
D22*
%TO.P,R4,1*%
%TO.N,Net-(D4-K)*%
X78825000Y-114050000D03*
%TO.P,R4,2*%
%TO.N,GND*%
X77000000Y-114050000D03*
%TD*%
%TO.P,R3,2*%
%TO.N,GND*%
X77000000Y-125660000D03*
%TO.P,R3,1*%
%TO.N,Net-(D3-K)*%
X78825000Y-125660000D03*
%TD*%
%TO.P,R2,2*%
%TO.N,GND*%
X76962500Y-137000000D03*
%TO.P,R2,1*%
%TO.N,Net-(D2-K)*%
X78787500Y-137000000D03*
%TD*%
%TO.P,R1,2*%
%TO.N,GND*%
X77000000Y-148720000D03*
%TO.P,R1,1*%
%TO.N,Net-(D1-K)*%
X78825000Y-148720000D03*
%TD*%
D25*
%TO.P,C12,2*%
%TO.N,GND*%
X93862500Y-102500000D03*
%TO.P,C12,1*%
%TO.N,3V3*%
X93862500Y-100775000D03*
%TD*%
D26*
%TO.P,C11,2*%
%TO.N,GND*%
X82137500Y-122000000D03*
%TO.P,C11,1*%
%TO.N,CAM_RST*%
X83862500Y-122000000D03*
%TD*%
D27*
%TO.P,C10,1*%
%TO.N,Net-(Q1-D)*%
X90275000Y-96700000D03*
%TO.P,C10,2*%
%TO.N,GND*%
X92000000Y-96700000D03*
%TD*%
%TO.P,C9,2*%
%TO.N,GND*%
X76000000Y-80700000D03*
%TO.P,C9,1*%
%TO.N,3V3*%
X74275000Y-80700000D03*
%TD*%
D26*
%TO.P,C7,2*%
%TO.N,GND*%
X65775000Y-91200000D03*
%TO.P,C7,1*%
%TO.N,5V*%
X67500000Y-91200000D03*
%TD*%
D27*
%TO.P,C6,2*%
%TO.N,GND*%
X99500000Y-94200000D03*
%TO.P,C6,1*%
%TO.N,CSI_1.2V*%
X97775000Y-94200000D03*
%TD*%
%TO.P,C5,2*%
%TO.N,GND*%
X99500000Y-89700000D03*
%TO.P,C5,1*%
%TO.N,CSI_1.2V*%
X97775000Y-89700000D03*
%TD*%
%TO.P,C4,2*%
%TO.N,GND*%
X99500000Y-84700000D03*
%TO.P,C4,1*%
%TO.N,CSI_2.8V*%
X97775000Y-84700000D03*
%TD*%
%TO.P,C3,1*%
%TO.N,CSI_2.8V*%
X97775000Y-80200000D03*
%TO.P,C3,2*%
%TO.N,GND*%
X99500000Y-80200000D03*
%TD*%
D26*
%TO.P,C2,2*%
%TO.N,GND*%
X82137500Y-134500000D03*
%TO.P,C2,1*%
%TO.N,3V3*%
X83862500Y-134500000D03*
%TD*%
%TO.P,C1,1*%
%TO.N,CSI_PCLK*%
X83862500Y-138000000D03*
%TO.P,C1,2*%
%TO.N,GND*%
X82137500Y-138000000D03*
%TD*%
D28*
%TO.P,Motor4,3,Pin_3*%
%TO.N,GND*%
X72000000Y-114220000D03*
%TO.P,Motor4,2,Pin_2*%
%TO.N,5V*%
X72000000Y-111720000D03*
D29*
%TO.P,Motor4,1,Pin_1*%
%TO.N,IO33*%
X72000000Y-109220000D03*
%TD*%
D28*
%TO.P,Motor2,3,Pin_3*%
%TO.N,GND*%
X72000000Y-137220000D03*
%TO.P,Motor2,2,Pin_2*%
%TO.N,5V*%
X72000000Y-134720000D03*
D29*
%TO.P,Motor2,1,Pin_1*%
%TO.N,IO26*%
X72000000Y-132220000D03*
%TD*%
D28*
%TO.P,Motor1,3,Pin_3*%
%TO.N,GND*%
X72000000Y-148720000D03*
%TO.P,Motor1,2,Pin_2*%
%TO.N,5V*%
X72000000Y-146220000D03*
D29*
%TO.P,Motor1,1,Pin_1*%
%TO.N,IO21*%
X72000000Y-143720000D03*
%TD*%
D30*
%TO.P,D7,2,A*%
%TO.N,IO34*%
X92375000Y-71200000D03*
%TO.P,D7,1,K*%
%TO.N,Net-(D7-K)*%
X90625000Y-71200000D03*
%TD*%
%TO.P,D6,2,A*%
%TO.N,IO48*%
X84300000Y-71200000D03*
%TO.P,D6,1,K*%
%TO.N,Net-(D6-K)*%
X82550000Y-71200000D03*
%TD*%
D31*
%TO.P,J1,1,Pin_1*%
%TO.N,CSI_D1*%
X99837500Y-100080000D03*
D32*
%TO.P,J1,2,Pin_2*%
%TO.N,CSI_D2*%
X99837500Y-102620000D03*
%TO.P,J1,3,Pin_3*%
%TO.N,CSI_D3*%
X99837500Y-105160000D03*
%TO.P,J1,4,Pin_4*%
%TO.N,CSI_D4*%
X99837500Y-107700000D03*
%TO.P,J1,5,Pin_5*%
%TO.N,CSI_D5*%
X99837500Y-110240000D03*
%TO.P,J1,6,Pin_6*%
%TO.N,CSI_D6*%
X99837500Y-112780000D03*
%TO.P,J1,7,Pin_7*%
%TO.N,CSI_D7*%
X99837500Y-115320000D03*
%TO.P,J1,8,Pin_8*%
%TO.N,CSI_D0*%
X99837500Y-117860000D03*
%TO.P,J1,9,Pin_9*%
%TO.N,CSI_MCLK*%
X99837500Y-120400000D03*
%TO.P,J1,10,Pin_10*%
%TO.N,CSI_PCLK*%
X99837500Y-122940000D03*
%TO.P,J1,11,Pin_11*%
%TO.N,TWI_SDA*%
X99837500Y-125480000D03*
%TO.P,J1,12,Pin_12*%
%TO.N,TWI_SCK*%
X99837500Y-128020000D03*
%TO.P,J1,13,Pin_13*%
%TO.N,CSI_VSYNC*%
X99837500Y-130560000D03*
%TO.P,J1,14,Pin_14*%
%TO.N,PSRAM_CLK*%
X99837500Y-133100000D03*
%TO.P,J1,15,Pin_15*%
%TO.N,unconnected-(J1-Pin_15-Pad15)*%
X99837500Y-135640000D03*
%TO.P,J1,16,Pin_16*%
%TO.N,IO16*%
X99837500Y-138180000D03*
%TO.P,J1,17,Pin_17*%
%TO.N,unconnected-(J1-Pin_17-Pad17)*%
X99837500Y-140720000D03*
%TO.P,J1,18,Pin_18*%
%TO.N,unconnected-(J1-Pin_18-Pad18)*%
X99837500Y-143260000D03*
%TO.P,J1,19,Pin_19*%
%TO.N,3V3*%
X99837500Y-145800000D03*
%TO.P,J1,20,Pin_20*%
%TO.N,GND*%
X99837500Y-148340000D03*
%TD*%
D33*
%TO.P,D4,1,K*%
%TO.N,Net-(D4-K)*%
X78850000Y-109720000D03*
%TO.P,D4,2,A*%
%TO.N,IO33*%
X77100000Y-109720000D03*
%TD*%
D28*
%TO.P,Motor3,3,Pin_3*%
%TO.N,GND*%
X72000000Y-125720000D03*
%TO.P,Motor3,2,Pin_2*%
%TO.N,5V*%
X72000000Y-123220000D03*
D29*
%TO.P,Motor3,1,Pin_1*%
%TO.N,IO47*%
X72000000Y-120720000D03*
%TD*%
D33*
%TO.P,D1,2,A*%
%TO.N,IO21*%
X77000000Y-144220000D03*
%TO.P,D1,1,K*%
%TO.N,Net-(D1-K)*%
X78750000Y-144220000D03*
%TD*%
%TO.P,D3,2,A*%
%TO.N,IO47*%
X77100000Y-121220000D03*
%TO.P,D3,1,K*%
%TO.N,Net-(D3-K)*%
X78850000Y-121220000D03*
%TD*%
%TO.P,D2,2,A*%
%TO.N,IO26*%
X77000000Y-132500000D03*
%TO.P,D2,1,K*%
%TO.N,Net-(D2-K)*%
X78750000Y-132500000D03*
%TD*%
D31*
%TO.P,J2,1,Pin_1*%
%TO.N,unconnected-(J2-Pin_1-Pad1)*%
X66500000Y-100080000D03*
D32*
%TO.P,J2,2,Pin_2*%
%TO.N,unconnected-(J2-Pin_2-Pad2)*%
X66500000Y-102620000D03*
%TO.P,J2,3,Pin_3*%
%TO.N,unconnected-(J2-Pin_3-Pad3)*%
X66500000Y-105160000D03*
%TO.P,J2,4,Pin_4*%
%TO.N,unconnected-(J2-Pin_4-Pad4)*%
X66500000Y-107700000D03*
%TO.P,J2,5,Pin_5*%
%TO.N,unconnected-(J2-Pin_5-Pad5)*%
X66500000Y-110240000D03*
%TO.P,J2,6,Pin_6*%
%TO.N,unconnected-(J2-Pin_6-Pad6)*%
X66500000Y-112780000D03*
%TO.P,J2,7,Pin_7*%
%TO.N,SD3*%
X66500000Y-115320000D03*
%TO.P,J2,8,Pin_8*%
%TO.N,SD2*%
X66500000Y-117860000D03*
%TO.P,J2,9,Pin_9*%
%TO.N,SD1*%
X66500000Y-120400000D03*
%TO.P,J2,10,Pin_10*%
%TO.N,SD0*%
X66500000Y-122940000D03*
%TO.P,J2,11,Pin_11*%
%TO.N,CAM_PWR*%
X66500000Y-125480000D03*
%TO.P,J2,12,Pin_12*%
%TO.N,IO35*%
X66500000Y-128020000D03*
%TO.P,J2,13,Pin_13*%
%TO.N,IO48*%
X66500000Y-130560000D03*
%TO.P,J2,14,Pin_14*%
%TO.N,IO34*%
X66500000Y-133100000D03*
%TO.P,J2,15,Pin_15*%
%TO.N,IO33*%
X66500000Y-135640000D03*
%TO.P,J2,16,Pin_16*%
%TO.N,IO47*%
X66500000Y-138180000D03*
%TO.P,J2,17,Pin_17*%
%TO.N,IO26*%
X66500000Y-140720000D03*
%TO.P,J2,18,Pin_18*%
%TO.N,IO21*%
X66500000Y-143260000D03*
%TO.P,J2,19,Pin_19*%
%TO.N,5V*%
X66500000Y-145800000D03*
%TO.P,J2,20,Pin_20*%
%TO.N,GND*%
X66500000Y-148340000D03*
%TD*%
D30*
%TO.P,D5,2,A*%
%TO.N,IO35*%
X76037500Y-71200000D03*
%TO.P,D5,1,K*%
%TO.N,Net-(D5-K)*%
X74287500Y-71200000D03*
%TD*%
D34*
%TO.N,GND*%
X88500000Y-130500000D03*
X94000000Y-117000000D03*
X75000000Y-127000000D03*
X85500000Y-121000000D03*
X87500000Y-124500000D03*
X65500000Y-73500000D03*
X61500000Y-78500000D03*
X65500000Y-79500000D03*
X92000000Y-108500000D03*
X92000000Y-132500000D03*
X89000000Y-121000000D03*
X74500000Y-108000000D03*
X76000000Y-111500000D03*
X103500000Y-132500000D03*
X102500000Y-115000000D03*
X79000000Y-119500000D03*
%TO.N,3V3*%
X85500000Y-115500000D03*
%TO.N,GND*%
X70500000Y-76000000D03*
X82500000Y-123500000D03*
X94500000Y-119000000D03*
X94000000Y-136500000D03*
X82000000Y-109500000D03*
X89500000Y-118000000D03*
%TO.N,CSI_MCLK*%
X97000000Y-124000000D03*
X96500000Y-122500000D03*
X96500000Y-127500000D03*
X102000000Y-120000000D03*
%TO.N,GND*%
X91500000Y-103000000D03*
X88000000Y-73000000D03*
%TO.N,3V3*%
X81500000Y-119000000D03*
X82000000Y-124500000D03*
X82000000Y-116000000D03*
%TO.N,GND*%
X86500000Y-129000000D03*
%TO.N,CSI_PCLK*%
X93500000Y-129000000D03*
%TO.N,CSI_D7*%
X91000000Y-126000000D03*
X91000000Y-128000000D03*
X95000000Y-127500000D03*
X95000000Y-129000000D03*
%TO.N,SD1*%
X93000000Y-109500000D03*
X80500000Y-117000000D03*
X71500000Y-129000000D03*
%TO.N,GND*%
X80000000Y-100000000D03*
X78000000Y-100000000D03*
X81000000Y-101500000D03*
X77000000Y-101500000D03*
X80500000Y-102500000D03*
X79500000Y-103000000D03*
X78500000Y-103000000D03*
X98000000Y-135500000D03*
X85500000Y-127000000D03*
X85500000Y-123000000D03*
X93500000Y-121000000D03*
X102500000Y-127500000D03*
X77500000Y-102500000D03*
X83000000Y-133000000D03*
%TO.N,IO33*%
X76250000Y-108250000D03*
X80500000Y-115500000D03*
%TO.N,IO35*%
X78000000Y-71500000D03*
%TO.N,TWI_SDA*%
X92000000Y-121500000D03*
%TO.N,3V3*%
X92500000Y-105500000D03*
X95000000Y-104000000D03*
X85500000Y-130500000D03*
%TO.N,CSI_D1*%
X105500000Y-112000000D03*
%TO.N,CSI_D3*%
X103500000Y-111500000D03*
%TO.N,TWI_SCK*%
X82000000Y-120500000D03*
%TO.N,CSI_2.8V*%
X96500000Y-85500000D03*
X93500000Y-122500000D03*
%TO.N,CSI_D4*%
X92000000Y-129000000D03*
%TO.N,CSI_VSYNC*%
X92500000Y-123500000D03*
%TO.N,CSI_1.2V*%
X97775000Y-92000000D03*
X92500000Y-125000000D03*
%TO.N,5V*%
X69500000Y-91500000D03*
%TO.N,SD2*%
X96500000Y-107000000D03*
%TD*%
D35*
%TO.N,GND*%
X88500000Y-130500000D02*
X88500000Y-131987568D01*
X88500000Y-131987568D02*
X82975000Y-137512568D01*
X82975000Y-138487432D02*
X83487568Y-139000000D01*
X90175001Y-134149989D02*
X92000000Y-134149989D01*
X82975000Y-137512568D02*
X82975000Y-138487432D01*
X83487568Y-139000000D02*
X85324990Y-139000000D01*
X85324990Y-139000000D02*
X90175001Y-134149989D01*
X93350000Y-117650000D02*
X94000000Y-117000000D01*
X91575000Y-117650000D02*
X93350000Y-117650000D01*
X92000000Y-118850011D02*
X94350011Y-118850011D01*
X94350011Y-118850011D02*
X94500000Y-119000000D01*
X92000000Y-134149989D02*
X92000000Y-132500000D01*
X90075000Y-121249988D02*
X89249988Y-121249988D01*
X89249988Y-121249988D02*
X89000000Y-121000000D01*
%TO.N,TWI_SDA*%
X84412432Y-117175000D02*
X84750000Y-117512568D01*
X83912500Y-116874994D02*
X84212506Y-117175000D01*
X84750000Y-117512568D02*
X84750000Y-117712494D01*
X84212506Y-117175000D02*
X84412432Y-117175000D01*
X83912500Y-114000000D02*
X83912500Y-116874994D01*
X84750000Y-117712494D02*
X88787495Y-121749989D01*
X88787495Y-121749989D02*
X90075000Y-121749989D01*
D36*
%TO.N,Net-(D4-K)*%
X78850000Y-109720000D02*
X80500000Y-111370000D01*
X80500000Y-112375000D02*
X78825000Y-114050000D01*
X80500000Y-111370000D02*
X80500000Y-112375000D01*
D37*
%TO.N,Net-(Q1-G)*%
X81599998Y-83700000D02*
X81500000Y-83799998D01*
X81500000Y-83799998D02*
X81500000Y-87612500D01*
X81500000Y-87612500D02*
X81587500Y-87700000D01*
D35*
%TO.N,3V3*%
X85500000Y-114350068D02*
X85500000Y-115500000D01*
X86675068Y-113175000D02*
X85500000Y-114350068D01*
X88175000Y-113175000D02*
X86675068Y-113175000D01*
X89000000Y-114000000D02*
X88175000Y-113175000D01*
%TO.N,GND*%
X82137500Y-134500000D02*
X82137500Y-133862500D01*
X82137500Y-133862500D02*
X83000000Y-133000000D01*
X82137500Y-122000000D02*
X82137500Y-123137500D01*
X82137500Y-123137500D02*
X82500000Y-123500000D01*
%TO.N,3V3*%
X88532105Y-125749989D02*
X90075000Y-125749989D01*
X88532105Y-125749989D02*
X85500000Y-128782094D01*
X85500000Y-128782094D02*
X85500000Y-130500000D01*
%TO.N,CSI_MCLK*%
X97000000Y-124000000D02*
X97000000Y-127000000D01*
X97000000Y-127000000D02*
X96500000Y-127500000D01*
%TO.N,CSI_D6*%
X98137500Y-121781739D02*
X98137500Y-114480000D01*
X92457118Y-127249988D02*
X96557106Y-123150000D01*
X96557106Y-123150000D02*
X96769239Y-123150000D01*
X90075000Y-127249988D02*
X92457118Y-127249988D01*
X96769239Y-123150000D02*
X98137500Y-121781739D01*
X98137500Y-114480000D02*
X99837500Y-112780000D01*
%TO.N,CSI_MCLK*%
X95000000Y-124000000D02*
X96500000Y-122500000D01*
%TO.N,CSI_D0*%
X90075000Y-129749988D02*
X93750012Y-129749988D01*
X98137500Y-124775837D02*
X98637500Y-124275837D01*
X93750012Y-129749988D02*
X94350000Y-129150000D01*
X94350000Y-129150000D02*
X94350000Y-128730761D01*
X97150000Y-128350000D02*
X98137500Y-127362500D01*
X94730761Y-128350000D02*
X97150000Y-128350000D01*
X94350000Y-128730761D02*
X94730761Y-128350000D01*
X98637500Y-124275837D02*
X98637500Y-119060000D01*
X98137500Y-127362500D02*
X98137500Y-124775837D01*
X98637500Y-119060000D02*
X99837500Y-117860000D01*
%TO.N,CSI_D7*%
X95000000Y-129000000D02*
X97500000Y-129000000D01*
X97500000Y-129000000D02*
X98637500Y-127862500D01*
X100194557Y-124280000D02*
X103361091Y-121113466D01*
X98637500Y-127862500D02*
X98637500Y-124982943D01*
X103361091Y-121113466D02*
X103361091Y-118843591D01*
X99340443Y-124280000D02*
X100194557Y-124280000D01*
X98637500Y-124982943D02*
X99340443Y-124280000D01*
X103361091Y-118843591D02*
X99837500Y-115320000D01*
%TO.N,CSI_MCLK*%
X101600000Y-120400000D02*
X102000000Y-120000000D01*
X99837500Y-120400000D02*
X101600000Y-120400000D01*
%TO.N,3V3*%
X81500000Y-119000000D02*
X81500000Y-118587500D01*
X81500000Y-118587500D02*
X82087500Y-118000000D01*
X82087500Y-124587500D02*
X82000000Y-124500000D01*
X82087500Y-126500000D02*
X82087500Y-124587500D01*
D38*
X82000000Y-116000000D02*
X82000000Y-117912500D01*
X82000000Y-117912500D02*
X82087500Y-118000000D01*
X82000000Y-116000000D02*
X82000000Y-114087500D01*
X82000000Y-114087500D02*
X82087500Y-114000000D01*
D35*
%TO.N,GND*%
X90075000Y-127749987D02*
X87448243Y-127749987D01*
X87448243Y-127749987D02*
X86500000Y-128698230D01*
X86500000Y-128698230D02*
X86500000Y-129000000D01*
%TO.N,3V3*%
X83862500Y-134500000D02*
X86368716Y-131993784D01*
X86368716Y-131993784D02*
X86368716Y-131368716D01*
X86368716Y-131368716D02*
X85500000Y-130500000D01*
%TO.N,CSI_PCLK*%
X93500000Y-129000000D02*
X92769239Y-128269239D01*
X92769239Y-128269239D02*
X91730761Y-128269239D01*
X91730761Y-128269239D02*
X91250012Y-128749988D01*
X91250012Y-128749988D02*
X90075000Y-128749988D01*
%TO.N,CSI_D7*%
X90075000Y-126249988D02*
X90750012Y-126249988D01*
X90750012Y-126249988D02*
X91000000Y-126000000D01*
X91250012Y-127749988D02*
X91000000Y-128000000D01*
X94750012Y-127749988D02*
X91250012Y-127749988D01*
X95000000Y-127500000D02*
X94750012Y-127749988D01*
D38*
%TO.N,SD1*%
X94500000Y-109310000D02*
X93190000Y-109310000D01*
X93190000Y-109310000D02*
X93000000Y-109500000D01*
X80500000Y-127500000D02*
X80500000Y-117000000D01*
X79000000Y-129000000D02*
X80500000Y-127500000D01*
X71500000Y-129000000D02*
X79000000Y-129000000D01*
%TO.N,IO21*%
X66500000Y-143260000D02*
X71540000Y-143260000D01*
X71540000Y-143260000D02*
X72000000Y-143720000D01*
%TO.N,IO26*%
X66500000Y-140720000D02*
X70130000Y-137090000D01*
X70130000Y-137090000D02*
X70130000Y-134090000D01*
X70130000Y-134090000D02*
X72000000Y-132220000D01*
%TO.N,IO47*%
X66500000Y-138180000D02*
X69530000Y-135150000D01*
X69530000Y-135150000D02*
X69530000Y-123190000D01*
X69530000Y-123190000D02*
X72000000Y-120720000D01*
%TO.N,IO33*%
X76500000Y-109220000D02*
X76600000Y-109220000D01*
X72000000Y-109220000D02*
X76500000Y-109220000D01*
X76500000Y-109220000D02*
X76500000Y-108500000D01*
X76500000Y-108500000D02*
X76250000Y-108250000D01*
X76600000Y-109220000D02*
X77100000Y-109720000D01*
D35*
X76250000Y-108250000D02*
X76250000Y-108870000D01*
X76250000Y-108870000D02*
X77100000Y-109720000D01*
X68980000Y-119540000D02*
X72500000Y-116020000D01*
X68980000Y-133160000D02*
X68980000Y-119540000D01*
X79980000Y-116020000D02*
X80500000Y-115500000D01*
X72500000Y-116020000D02*
X79980000Y-116020000D01*
X66500000Y-135640000D02*
X68980000Y-133160000D01*
D37*
%TO.N,Net-(Q1-D)*%
X89725000Y-90250000D02*
X89725000Y-90725000D01*
X90275000Y-91275000D02*
X90275000Y-96700000D01*
X89725000Y-90725000D02*
X90275000Y-91275000D01*
X89725000Y-80750000D02*
X89725000Y-90250000D01*
%TO.N,3V3*%
X83412500Y-87700000D02*
X83412500Y-94587500D01*
X83412500Y-94587500D02*
X89500000Y-100675000D01*
D35*
%TO.N,IO35*%
X77700000Y-71200000D02*
X78000000Y-71500000D01*
X76037500Y-71200000D02*
X77700000Y-71200000D01*
%TO.N,IO34*%
X75162500Y-71687432D02*
X75162500Y-70712568D01*
X82012568Y-70375000D02*
X81675000Y-70712568D01*
X64000000Y-130600000D02*
X66500000Y-133100000D01*
X81675000Y-70712568D02*
X81675000Y-70825000D01*
X92375000Y-71200000D02*
X91550000Y-70375000D01*
X78500000Y-74000000D02*
X77475068Y-74000000D01*
X81675000Y-70825000D02*
X78500000Y-74000000D01*
X91550000Y-70375000D02*
X82012568Y-70375000D01*
X67600000Y-75400000D02*
X65600000Y-75400000D01*
X74824932Y-70375000D02*
X72625000Y-70375000D01*
X77475068Y-74000000D02*
X75162500Y-71687432D01*
X65600000Y-75400000D02*
X64000000Y-77000000D01*
X64000000Y-77000000D02*
X64000000Y-130600000D01*
X75162500Y-70712568D02*
X74824932Y-70375000D01*
X72625000Y-70375000D02*
X67600000Y-75400000D01*
%TO.N,IO48*%
X84300000Y-71200000D02*
X89905000Y-76805000D01*
X91087432Y-76805000D02*
X91425000Y-76467432D01*
X66002943Y-134300000D02*
X66997057Y-134300000D01*
X66997057Y-134300000D02*
X67700000Y-133597057D01*
X89905000Y-76805000D02*
X91087432Y-76805000D01*
X91425000Y-76467432D02*
X91425000Y-75075000D01*
X91425000Y-75075000D02*
X94000000Y-72500000D01*
X94000000Y-72500000D02*
X94000000Y-71462568D01*
X94000000Y-71462568D02*
X92337432Y-69800000D01*
X92337432Y-69800000D02*
X67194544Y-69800000D01*
X67194544Y-69800000D02*
X63500000Y-73494544D01*
X63500000Y-73494544D02*
X63500000Y-131797057D01*
X63500000Y-131797057D02*
X66002943Y-134300000D01*
X67700000Y-133597057D02*
X67700000Y-131760000D01*
X67700000Y-131760000D02*
X66500000Y-130560000D01*
D37*
%TO.N,3V3*%
X74275000Y-80700000D02*
X76240800Y-82665800D01*
X76240800Y-82665800D02*
X82465800Y-82665800D01*
X82465800Y-82665800D02*
X83500000Y-83700000D01*
D35*
%TO.N,TWI_SDA*%
X90075000Y-121749989D02*
X91750011Y-121749989D01*
X91750011Y-121749989D02*
X92000000Y-121500000D01*
D38*
%TO.N,3V3*%
X94500000Y-105500000D02*
X92500000Y-105500000D01*
X93862500Y-100775000D02*
X95000000Y-101912500D01*
X89600000Y-100775000D02*
X89500000Y-100675000D01*
D35*
X85625011Y-130374989D02*
X84750000Y-130374989D01*
X84750000Y-130374989D02*
X85374989Y-130374989D01*
X85374989Y-130374989D02*
X85500000Y-130500000D01*
%TO.N,CSI_D2*%
X90075000Y-131249988D02*
X90825000Y-131249989D01*
X92204546Y-131249989D02*
X98637500Y-137682943D01*
X90825000Y-131249989D02*
X92204546Y-131249989D01*
X98637500Y-137682943D02*
X98637500Y-138677057D01*
X98637500Y-138677057D02*
X99340443Y-139380000D01*
X107000000Y-132714557D02*
X107000000Y-109782500D01*
X99340443Y-139380000D02*
X100334557Y-139380000D01*
X100334557Y-139380000D02*
X107000000Y-132714557D01*
X107000000Y-109782500D02*
X99837500Y-102620000D01*
%TO.N,CSI_D1*%
X90075000Y-130749989D02*
X93163352Y-130749989D01*
X93163352Y-130749989D02*
X96713363Y-134300000D01*
X100334557Y-134300000D02*
X105500000Y-129134557D01*
X96713363Y-134300000D02*
X100334557Y-134300000D01*
X105500000Y-129134557D02*
X105500000Y-112000000D01*
%TO.N,IO16*%
X89550000Y-105500000D02*
X90200000Y-104850000D01*
X106500000Y-131517500D02*
X99837500Y-138180000D01*
X96350000Y-104850000D02*
X98000000Y-106500000D01*
X90200000Y-104850000D02*
X96350000Y-104850000D01*
X98000000Y-106500000D02*
X101500000Y-106500000D01*
X101500000Y-106500000D02*
X106500000Y-111500000D01*
X106500000Y-111500000D02*
X106500000Y-131517500D01*
%TO.N,CSI_D3*%
X93370456Y-130249987D02*
X94880469Y-131760000D01*
X100334557Y-131760000D02*
X103861091Y-128233466D01*
X90075000Y-130249987D02*
X93370456Y-130249987D01*
X94880469Y-131760000D02*
X100334557Y-131760000D01*
X103861091Y-128233466D02*
X103861091Y-111861091D01*
X103861091Y-111861091D02*
X103500000Y-111500000D01*
%TO.N,TWI_SCK*%
X83912500Y-118587500D02*
X82000000Y-120500000D01*
X83912500Y-118000000D02*
X83912500Y-118587500D01*
D37*
%TO.N,CSI_2.8V*%
X97775000Y-84700000D02*
X97300000Y-84700000D01*
X97300000Y-84700000D02*
X96500000Y-85500000D01*
D35*
X93249988Y-122249988D02*
X93500000Y-122500000D01*
X90075000Y-122249988D02*
X93249988Y-122249988D01*
%TO.N,CSI_D4*%
X91750011Y-129249989D02*
X92000000Y-129000000D01*
X90075000Y-129249989D02*
X91750011Y-129249989D01*
%TO.N,CSI_D5*%
X90075000Y-128249989D02*
X87655348Y-128249989D01*
X87655348Y-128249989D02*
X87655348Y-132082084D01*
X87655348Y-132082084D02*
X84237432Y-135500000D01*
X81250000Y-134987432D02*
X81250000Y-120237432D01*
X84237432Y-135500000D02*
X81762568Y-135500000D01*
X83075000Y-113512568D02*
X86347568Y-110240000D01*
X81762568Y-135500000D02*
X81250000Y-134987432D01*
X81250000Y-120237432D02*
X83075000Y-118412432D01*
X86347568Y-110240000D02*
X99837500Y-110240000D01*
X83075000Y-118412432D02*
X83075000Y-113512568D01*
%TO.N,3V3*%
X84750000Y-130374989D02*
X84750000Y-130987432D01*
X84750000Y-130987432D02*
X84412432Y-131325000D01*
X83412568Y-131325000D02*
X83000000Y-130912432D01*
X84412432Y-131325000D02*
X83412568Y-131325000D01*
X83000000Y-130912432D02*
X83000000Y-127412500D01*
X83000000Y-127412500D02*
X82087500Y-126500000D01*
%TO.N,CSI_MCLK*%
X87175000Y-114000000D02*
X87175000Y-118099989D01*
X95000000Y-124000000D02*
X92250011Y-126749989D01*
X89325000Y-120249989D02*
X94249989Y-120249989D01*
X94249989Y-120249989D02*
X95000000Y-121000000D01*
X87175000Y-118099989D02*
X89325000Y-120249989D01*
X95000000Y-121000000D02*
X95000000Y-124000000D01*
X92250011Y-126749989D02*
X90075000Y-126749989D01*
D38*
%TO.N,PSRAM_CLK*%
X94500000Y-108040000D02*
X98409733Y-108040000D01*
X98409733Y-108040000D02*
X99319733Y-108950000D01*
X99319733Y-108950000D02*
X102450000Y-108950000D01*
X104500000Y-111000000D02*
X104500000Y-128437500D01*
X102450000Y-108950000D02*
X104500000Y-111000000D01*
X104500000Y-128437500D02*
X99837500Y-133100000D01*
D35*
%TO.N,CSI_VSYNC*%
X92250012Y-123749988D02*
X92500000Y-123500000D01*
X90075000Y-123749988D02*
X92250012Y-123749988D01*
D37*
%TO.N,CSI_1.2V*%
X97775000Y-92000000D02*
X97775000Y-89700000D01*
D35*
X92250013Y-125249987D02*
X92500000Y-125000000D01*
X90075000Y-125249987D02*
X92250013Y-125249987D01*
D37*
X97775000Y-94200000D02*
X97775000Y-92000000D01*
X92000000Y-89300000D02*
X97375000Y-89300000D01*
X97375000Y-89300000D02*
X97775000Y-89700000D01*
%TO.N,CAM_PWR*%
X74500000Y-92025000D02*
X71955000Y-92025000D01*
X71955000Y-92025000D02*
X64600000Y-99380000D01*
X64600000Y-99380000D02*
X64600000Y-123580000D01*
X64600000Y-123580000D02*
X66500000Y-125480000D01*
%TO.N,Net-(Q1-G)*%
X74500000Y-90200000D02*
X79087500Y-90200000D01*
X79087500Y-90200000D02*
X81587500Y-87700000D01*
%TO.N,CSI_2.8V*%
X97775000Y-80200000D02*
X97775000Y-84700000D01*
X92000000Y-79800000D02*
X97375000Y-79800000D01*
X97375000Y-79800000D02*
X97775000Y-80200000D01*
%TO.N,Net-(Q1-D)*%
X82549999Y-81210800D02*
X89264200Y-81210800D01*
X89264200Y-81210800D02*
X89725000Y-80750000D01*
%TO.N,3V3*%
X83500000Y-83700000D02*
X83500000Y-87612500D01*
X83500000Y-87612500D02*
X83412500Y-87700000D01*
%TO.N,Net-(D7-K)*%
X90587500Y-75980000D02*
X90587500Y-71237500D01*
X90587500Y-71237500D02*
X90625000Y-71200000D01*
%TO.N,Net-(D6-K)*%
X82575000Y-76075000D02*
X82500000Y-76000000D01*
X82550000Y-76050000D02*
X82550000Y-71200000D01*
X82575000Y-76090000D02*
X82575000Y-76075000D01*
X82575000Y-76075000D02*
X82550000Y-76050000D01*
%TO.N,Net-(D5-K)*%
X74187500Y-76200000D02*
X74187500Y-71300000D01*
X74187500Y-71300000D02*
X74287500Y-71200000D01*
%TO.N,3V3*%
X74275000Y-80700000D02*
X68900000Y-80700000D01*
X68900000Y-80700000D02*
X68200000Y-81400000D01*
X68200000Y-81400000D02*
X68200000Y-77700000D01*
X68200000Y-77700000D02*
X68000000Y-77500000D01*
X68200000Y-87700000D02*
X68200000Y-81400000D01*
%TO.N,5V*%
X69500000Y-91500000D02*
X69500000Y-88700000D01*
X69500000Y-88700000D02*
X70500000Y-87700000D01*
X69500000Y-91500000D02*
X67800000Y-91500000D01*
X67800000Y-91500000D02*
X67500000Y-91200000D01*
D38*
%TO.N,SD2*%
X96500000Y-107000000D02*
X94730000Y-107000000D01*
X94730000Y-107000000D02*
X94500000Y-106770000D01*
D35*
%TO.N,IO16*%
X89550000Y-105500000D02*
X89550000Y-102550000D01*
X89550000Y-102550000D02*
X89500000Y-102500000D01*
D38*
%TO.N,SD0*%
X89550000Y-106770000D02*
X72198834Y-106770000D01*
X72198834Y-106770000D02*
X70625000Y-108343834D01*
X70625000Y-108343834D02*
X70625000Y-110462767D01*
X70625000Y-110462767D02*
X67017767Y-114070000D01*
X67017767Y-114070000D02*
X65982233Y-114070000D01*
X68000000Y-121440000D02*
X66500000Y-122940000D01*
X65982233Y-114070000D02*
X65250000Y-114802233D01*
X65250000Y-114802233D02*
X65250000Y-115837767D01*
X65250000Y-115837767D02*
X65982233Y-116570000D01*
X65982233Y-116570000D02*
X67351166Y-116570000D01*
X67351166Y-116570000D02*
X68000000Y-117218834D01*
X68000000Y-117218834D02*
X68000000Y-121440000D01*
%TO.N,SD3*%
X89550000Y-108040000D02*
X86298712Y-108040000D01*
X86298712Y-108040000D02*
X78868712Y-115470000D01*
X78868712Y-115470000D02*
X66650000Y-115470000D01*
X66650000Y-115470000D02*
X66500000Y-115320000D01*
D35*
%TO.N,TWI_SCK*%
X83912500Y-118000000D02*
X88662490Y-122749990D01*
X88662490Y-122749990D02*
X90075000Y-122749990D01*
%TO.N,CAM_RST*%
X83862500Y-122000000D02*
X85912522Y-122000000D01*
X85912522Y-122000000D02*
X87162511Y-123249989D01*
%TO.N,CSI_PCLK*%
X83862500Y-138000000D02*
X89325000Y-132537500D01*
X89325000Y-132537500D02*
X89325000Y-128749989D01*
X89325000Y-128749989D02*
X89325001Y-128749988D01*
X89325001Y-128749988D02*
X90075000Y-128749988D01*
%TO.N,3V3*%
X83862500Y-134500000D02*
X84400000Y-134500000D01*
%TO.N,Net-(J3-Pad17)*%
X83912500Y-130500000D02*
X83912500Y-129662488D01*
X83912500Y-129662488D02*
X89324999Y-124249989D01*
X89324999Y-124249989D02*
X90075000Y-124249989D01*
%TO.N,CAM_RST*%
X83912500Y-126500000D02*
X87162511Y-123249989D01*
X87162511Y-123249989D02*
X90075000Y-123249989D01*
D36*
%TO.N,IO47*%
X77100000Y-121220000D02*
X72500000Y-121220000D01*
X72500000Y-121220000D02*
X72000000Y-120720000D01*
%TO.N,Net-(D3-K)*%
X78850000Y-121220000D02*
X78850000Y-125635000D01*
X78850000Y-125635000D02*
X78825000Y-125660000D01*
%TO.N,Net-(D1-K)*%
X78750000Y-144220000D02*
X78750000Y-148645000D01*
X78750000Y-148645000D02*
X78825000Y-148720000D01*
%TO.N,Net-(D2-K)*%
X78750000Y-132500000D02*
X78750000Y-136962500D01*
X78750000Y-136962500D02*
X78787500Y-137000000D01*
%TO.N,IO26*%
X77000000Y-132500000D02*
X72280000Y-132500000D01*
X72280000Y-132500000D02*
X72000000Y-132220000D01*
%TO.N,IO21*%
X77000000Y-144220000D02*
X72500000Y-144220000D01*
X72500000Y-144220000D02*
X72000000Y-143720000D01*
%TO.N,GND*%
X77000000Y-114050000D02*
X72170000Y-114050000D01*
X72170000Y-114050000D02*
X72000000Y-114220000D01*
D38*
%TO.N,3V3*%
X95000000Y-101912500D02*
X95000000Y-104000000D01*
X93862500Y-100775000D02*
X89600000Y-100775000D01*
%TD*%
%TA.AperFunction,Conductor*%
%TO.N,GND*%
G36*
X98541305Y-134970185D02*
G01*
X98587060Y-135022989D01*
X98597004Y-135092147D01*
X98586648Y-135126905D01*
X98563597Y-135176335D01*
X98563594Y-135176344D01*
X98502438Y-135404586D01*
X98502436Y-135404596D01*
X98481841Y-135639999D01*
X98481841Y-135640000D01*
X98502436Y-135875403D01*
X98502438Y-135875413D01*
X98563594Y-136103655D01*
X98563596Y-136103659D01*
X98563597Y-136103663D01*
X98622991Y-136231034D01*
X98663465Y-136317830D01*
X98663467Y-136317834D01*
X98799001Y-136511395D01*
X98799006Y-136511402D01*
X98966097Y-136678493D01*
X98966103Y-136678498D01*
X99151658Y-136808425D01*
X99195283Y-136863002D01*
X99202477Y-136932500D01*
X99170954Y-136994855D01*
X99151658Y-137011575D01*
X99080684Y-137061271D01*
X99014478Y-137083598D01*
X98946710Y-137066588D01*
X98921880Y-137047377D01*
X97036684Y-135162181D01*
X97003199Y-135100858D01*
X97008183Y-135031166D01*
X97050055Y-134975233D01*
X97115519Y-134950816D01*
X97124365Y-134950500D01*
X98474266Y-134950500D01*
X98541305Y-134970185D01*
G37*
%TD.AperFunction*%
%TA.AperFunction,Conductor*%
G36*
X105768834Y-129888182D02*
G01*
X105824767Y-129930054D01*
X105849184Y-129995518D01*
X105849500Y-130004364D01*
X105849500Y-131196691D01*
X105829815Y-131263730D01*
X105813181Y-131284372D01*
X101402462Y-135695090D01*
X101341139Y-135728575D01*
X101271447Y-135723591D01*
X101215514Y-135681719D01*
X101191253Y-135618217D01*
X101189641Y-135599792D01*
X101172563Y-135404592D01*
X101111403Y-135176337D01*
X101011535Y-134962171D01*
X101011534Y-134962169D01*
X100898571Y-134800840D01*
X100876244Y-134734634D01*
X100893254Y-134666867D01*
X100912461Y-134642040D01*
X105637821Y-129916681D01*
X105699142Y-129883198D01*
X105768834Y-129888182D01*
G37*
%TD.AperFunction*%
%TA.AperFunction,Conductor*%
G36*
X82158730Y-127495184D02*
G01*
X82179372Y-127511818D01*
X82313181Y-127645627D01*
X82346666Y-127706950D01*
X82349500Y-127733308D01*
X82349500Y-129461638D01*
X82337500Y-129502505D01*
X82337500Y-131474999D01*
X82386640Y-131474999D01*
X82386654Y-131474998D01*
X82487643Y-131464681D01*
X82487653Y-131464679D01*
X82523695Y-131452736D01*
X82593523Y-131450333D01*
X82650382Y-131482760D01*
X82997892Y-131830271D01*
X82997895Y-131830274D01*
X83084573Y-131888190D01*
X83104440Y-131901464D01*
X83104443Y-131901466D01*
X83131260Y-131912574D01*
X83222824Y-131950501D01*
X83222828Y-131950501D01*
X83222829Y-131950502D01*
X83348496Y-131975500D01*
X83348499Y-131975500D01*
X84476503Y-131975500D01*
X84561047Y-131958682D01*
X84602176Y-131950501D01*
X84720559Y-131901465D01*
X84740427Y-131888190D01*
X84740428Y-131888190D01*
X84805285Y-131844853D01*
X84827101Y-131830277D01*
X85255276Y-131402102D01*
X85262208Y-131391726D01*
X85315820Y-131346922D01*
X85385145Y-131338215D01*
X85448172Y-131368369D01*
X85452991Y-131372937D01*
X85673622Y-131593568D01*
X85707107Y-131654891D01*
X85702123Y-131724583D01*
X85673622Y-131768930D01*
X83954371Y-133488181D01*
X83893048Y-133521666D01*
X83866690Y-133524500D01*
X83513330Y-133524500D01*
X83513312Y-133524501D01*
X83412247Y-133534825D01*
X83248484Y-133589092D01*
X83248481Y-133589093D01*
X83101648Y-133679661D01*
X83087325Y-133693984D01*
X83026001Y-133727468D01*
X82956309Y-133722482D01*
X82911965Y-133693982D01*
X82898038Y-133680055D01*
X82898034Y-133680052D01*
X82751311Y-133589551D01*
X82751300Y-133589546D01*
X82587652Y-133535319D01*
X82486654Y-133525000D01*
X82387500Y-133525000D01*
X82387500Y-134626000D01*
X82367815Y-134693039D01*
X82315011Y-134738794D01*
X82263500Y-134750000D01*
X82024500Y-134750000D01*
X81957461Y-134730315D01*
X81911706Y-134677511D01*
X81900500Y-134626000D01*
X81900500Y-127599499D01*
X81920185Y-127532460D01*
X81972989Y-127486705D01*
X82024500Y-127475499D01*
X82091691Y-127475499D01*
X82158730Y-127495184D01*
G37*
%TD.AperFunction*%
%TA.AperFunction,Conductor*%
G36*
X88617539Y-128920174D02*
G01*
X88663294Y-128972978D01*
X88674500Y-129024489D01*
X88674500Y-132216691D01*
X88654815Y-132283730D01*
X88638181Y-132304372D01*
X88445967Y-132496586D01*
X88384644Y-132530071D01*
X88314952Y-132525087D01*
X88259019Y-132483215D01*
X88234602Y-132417751D01*
X88243725Y-132361452D01*
X88280849Y-132271828D01*
X88289448Y-132228599D01*
X88305848Y-132146153D01*
X88305848Y-129024489D01*
X88325533Y-128957450D01*
X88378337Y-128911695D01*
X88429848Y-128900489D01*
X88550500Y-128900489D01*
X88617539Y-128920174D01*
G37*
%TD.AperFunction*%
%TA.AperFunction,Conductor*%
G36*
X86924182Y-128380372D02*
G01*
X86980115Y-128422244D01*
X87004532Y-128487708D01*
X87004848Y-128496554D01*
X87004848Y-130785539D01*
X86985163Y-130852578D01*
X86932359Y-130898333D01*
X86863201Y-130908277D01*
X86799645Y-130879252D01*
X86793167Y-130873220D01*
X86321722Y-130401776D01*
X86288237Y-130340453D01*
X86286182Y-130327972D01*
X86285368Y-130320747D01*
X86285368Y-130320745D01*
X86269928Y-130276623D01*
X86265357Y-130259876D01*
X86250512Y-130185245D01*
X86201476Y-130066862D01*
X86171396Y-130021844D01*
X86150520Y-129955167D01*
X86150500Y-129952955D01*
X86150500Y-129102902D01*
X86170185Y-129035863D01*
X86186819Y-129015221D01*
X86793167Y-128408873D01*
X86854490Y-128375388D01*
X86924182Y-128380372D01*
G37*
%TD.AperFunction*%
%TA.AperFunction,Conductor*%
G36*
X103129925Y-122367091D02*
G01*
X103185858Y-122408963D01*
X103210275Y-122474427D01*
X103210591Y-122483273D01*
X103210591Y-127912657D01*
X103190906Y-127979696D01*
X103174272Y-128000338D01*
X101226088Y-129948521D01*
X101164765Y-129982006D01*
X101095073Y-129977022D01*
X101039140Y-129935150D01*
X101026025Y-129913245D01*
X101011535Y-129882171D01*
X101011532Y-129882167D01*
X101011532Y-129882166D01*
X100875994Y-129688597D01*
X100708902Y-129521506D01*
X100708896Y-129521501D01*
X100523342Y-129391575D01*
X100479717Y-129336998D01*
X100472523Y-129267500D01*
X100504046Y-129205145D01*
X100523342Y-129188425D01*
X100645481Y-129102902D01*
X100708901Y-129058495D01*
X100875995Y-128891401D01*
X101011535Y-128697830D01*
X101111403Y-128483663D01*
X101172563Y-128255408D01*
X101193159Y-128020000D01*
X101172563Y-127784592D01*
X101111403Y-127556337D01*
X101011535Y-127342171D01*
X100996248Y-127320338D01*
X100875994Y-127148597D01*
X100708902Y-126981506D01*
X100708896Y-126981501D01*
X100523342Y-126851575D01*
X100479717Y-126796998D01*
X100472523Y-126727500D01*
X100504046Y-126665145D01*
X100523342Y-126648425D01*
X100593265Y-126599464D01*
X100708901Y-126518495D01*
X100875995Y-126351401D01*
X101011535Y-126157830D01*
X101111403Y-125943663D01*
X101172563Y-125715408D01*
X101193159Y-125480000D01*
X101172563Y-125244592D01*
X101111403Y-125016337D01*
X101011535Y-124802171D01*
X101011534Y-124802169D01*
X100898571Y-124640840D01*
X100876244Y-124574634D01*
X100893254Y-124506867D01*
X100912461Y-124482040D01*
X102998912Y-122395590D01*
X103060233Y-122362107D01*
X103129925Y-122367091D01*
G37*
%TD.AperFunction*%
%TA.AperFunction,Conductor*%
G36*
X88522230Y-123920174D02*
G01*
X88567985Y-123972978D01*
X88577929Y-124042136D01*
X88548904Y-124105692D01*
X88542872Y-124112170D01*
X83862181Y-128792861D01*
X83800858Y-128826346D01*
X83731166Y-128821362D01*
X83675233Y-128779490D01*
X83650816Y-128714026D01*
X83650500Y-128705180D01*
X83650500Y-127599499D01*
X83670185Y-127532460D01*
X83722989Y-127486705D01*
X83774500Y-127475499D01*
X84211670Y-127475499D01*
X84211676Y-127475499D01*
X84312753Y-127465174D01*
X84476516Y-127410908D01*
X84623350Y-127320340D01*
X84745340Y-127198350D01*
X84835908Y-127051516D01*
X84890174Y-126887753D01*
X84900500Y-126786677D01*
X84900499Y-126483306D01*
X84920183Y-126416268D01*
X84936813Y-126395631D01*
X87395638Y-123936808D01*
X87456961Y-123903323D01*
X87483319Y-123900489D01*
X88455191Y-123900489D01*
X88522230Y-123920174D01*
G37*
%TD.AperFunction*%
%TA.AperFunction,Conductor*%
G36*
X82330539Y-121769685D02*
G01*
X82376294Y-121822489D01*
X82387500Y-121874000D01*
X82387500Y-122974999D01*
X82486640Y-122974999D01*
X82486654Y-122974998D01*
X82587652Y-122964680D01*
X82751300Y-122910453D01*
X82751311Y-122910448D01*
X82898035Y-122819947D01*
X82911960Y-122806021D01*
X82973282Y-122772533D01*
X83042973Y-122777514D01*
X83087327Y-122806017D01*
X83101650Y-122820340D01*
X83248484Y-122910908D01*
X83412247Y-122965174D01*
X83513323Y-122975500D01*
X84211676Y-122975499D01*
X84211684Y-122975498D01*
X84211687Y-122975498D01*
X84267030Y-122969844D01*
X84312753Y-122965174D01*
X84476516Y-122910908D01*
X84623350Y-122820340D01*
X84745340Y-122698350D01*
X84745341Y-122698347D01*
X84745344Y-122698345D01*
X84745945Y-122697586D01*
X84746489Y-122697200D01*
X84750447Y-122693243D01*
X84751123Y-122693919D01*
X84802968Y-122657211D01*
X84843208Y-122650500D01*
X85591714Y-122650500D01*
X85658753Y-122670185D01*
X85679395Y-122686819D01*
X86154883Y-123162307D01*
X86188368Y-123223630D01*
X86183384Y-123293322D01*
X86154883Y-123337669D01*
X84004371Y-125488181D01*
X83943048Y-125521666D01*
X83916690Y-125524500D01*
X83613331Y-125524500D01*
X83613312Y-125524501D01*
X83512247Y-125534825D01*
X83348484Y-125589092D01*
X83348481Y-125589093D01*
X83201651Y-125679659D01*
X83087681Y-125793629D01*
X83026358Y-125827113D01*
X82956666Y-125822129D01*
X82912319Y-125793628D01*
X82798351Y-125679660D01*
X82798345Y-125679655D01*
X82796900Y-125678764D01*
X82796117Y-125677893D01*
X82792684Y-125675179D01*
X82793147Y-125674592D01*
X82750177Y-125626815D01*
X82738000Y-125573228D01*
X82738000Y-124835691D01*
X82744959Y-124794736D01*
X82785368Y-124679255D01*
X82797156Y-124574634D01*
X82805565Y-124500003D01*
X82805565Y-124499996D01*
X82785369Y-124320750D01*
X82785368Y-124320745D01*
X82751343Y-124223507D01*
X82725789Y-124150478D01*
X82701718Y-124112170D01*
X82635253Y-124006391D01*
X82629816Y-123997738D01*
X82502262Y-123870184D01*
X82469379Y-123849522D01*
X82349523Y-123774211D01*
X82179254Y-123714631D01*
X82179250Y-123714630D01*
X82010616Y-123695630D01*
X81946202Y-123668563D01*
X81906647Y-123610968D01*
X81900500Y-123572410D01*
X81900500Y-121874000D01*
X81920185Y-121806961D01*
X81972989Y-121761206D01*
X82024500Y-121750000D01*
X82263500Y-121750000D01*
X82330539Y-121769685D01*
G37*
%TD.AperFunction*%
%TA.AperFunction,Conductor*%
G36*
X93996220Y-120920174D02*
G01*
X94016862Y-120936808D01*
X94313181Y-121233127D01*
X94346666Y-121294450D01*
X94349500Y-121320808D01*
X94349500Y-121918841D01*
X94329815Y-121985880D01*
X94277011Y-122031635D01*
X94207853Y-122041579D01*
X94144297Y-122012554D01*
X94134770Y-122002631D01*
X94134740Y-122002662D01*
X94002262Y-121870184D01*
X93849521Y-121774210D01*
X93738833Y-121735479D01*
X93679255Y-121714632D01*
X93665346Y-121713064D01*
X93637493Y-121709926D01*
X93582491Y-121689810D01*
X93558114Y-121673522D01*
X93439732Y-121624487D01*
X93439726Y-121624485D01*
X93314059Y-121599488D01*
X93314057Y-121599488D01*
X92927588Y-121599488D01*
X92860549Y-121579803D01*
X92814794Y-121526999D01*
X92804368Y-121489371D01*
X92785369Y-121320750D01*
X92785368Y-121320745D01*
X92741012Y-121193984D01*
X92725789Y-121150478D01*
X92696193Y-121103377D01*
X92688078Y-121090461D01*
X92669078Y-121023224D01*
X92689446Y-120956389D01*
X92742714Y-120911175D01*
X92793072Y-120900489D01*
X93929181Y-120900489D01*
X93996220Y-120920174D01*
G37*
%TD.AperFunction*%
%TA.AperFunction,Conductor*%
G36*
X98646817Y-110910185D02*
G01*
X98681353Y-110943377D01*
X98799001Y-111111396D01*
X98799006Y-111111402D01*
X98966097Y-111278493D01*
X98966103Y-111278498D01*
X99151658Y-111408425D01*
X99195283Y-111463002D01*
X99202477Y-111532500D01*
X99170954Y-111594855D01*
X99151658Y-111611575D01*
X98966097Y-111741505D01*
X98799005Y-111908597D01*
X98663465Y-112102169D01*
X98663464Y-112102171D01*
X98563598Y-112316335D01*
X98563594Y-112316344D01*
X98502438Y-112544586D01*
X98502436Y-112544596D01*
X98481841Y-112779999D01*
X98481841Y-112780000D01*
X98502436Y-113015403D01*
X98502439Y-113015416D01*
X98521884Y-113087989D01*
X98520221Y-113157839D01*
X98489790Y-113207762D01*
X97632225Y-114065328D01*
X97632224Y-114065329D01*
X97583005Y-114138993D01*
X97583003Y-114138995D01*
X97561039Y-114171864D01*
X97561033Y-114171875D01*
X97511999Y-114290255D01*
X97511997Y-114290261D01*
X97487000Y-114415928D01*
X97487000Y-121460930D01*
X97467315Y-121527969D01*
X97450681Y-121548611D01*
X97150084Y-121849207D01*
X97088761Y-121882692D01*
X97019069Y-121877708D01*
X96996431Y-121866520D01*
X96849523Y-121774211D01*
X96679254Y-121714631D01*
X96679249Y-121714630D01*
X96500004Y-121694435D01*
X96499996Y-121694435D01*
X96320750Y-121714630D01*
X96320745Y-121714631D01*
X96150476Y-121774211D01*
X95997737Y-121870184D01*
X95865260Y-122002662D01*
X95863989Y-122001391D01*
X95814245Y-122036299D01*
X95744433Y-122039140D01*
X95684167Y-122003788D01*
X95652581Y-121941465D01*
X95650500Y-121918841D01*
X95650500Y-120935928D01*
X95625502Y-120810261D01*
X95625501Y-120810260D01*
X95625501Y-120810256D01*
X95576465Y-120691873D01*
X95576464Y-120691872D01*
X95576460Y-120691864D01*
X95553043Y-120656819D01*
X95553041Y-120656817D01*
X95535000Y-120629816D01*
X95505277Y-120585331D01*
X95505275Y-120585329D01*
X95505273Y-120585326D01*
X94664662Y-119744715D01*
X94664658Y-119744712D01*
X94558116Y-119673524D01*
X94502473Y-119650476D01*
X94439733Y-119624488D01*
X94439727Y-119624486D01*
X94314060Y-119599489D01*
X94314058Y-119599489D01*
X94149000Y-119599489D01*
X94081961Y-119579804D01*
X94036206Y-119527000D01*
X94025000Y-119475489D01*
X94025000Y-119100011D01*
X89975000Y-119100011D01*
X89975000Y-119475489D01*
X89955315Y-119542528D01*
X89902511Y-119588283D01*
X89851000Y-119599489D01*
X89645807Y-119599489D01*
X89578768Y-119579804D01*
X89558126Y-119563170D01*
X87861819Y-117866862D01*
X87828334Y-117805539D01*
X87825500Y-117779181D01*
X87825500Y-117099999D01*
X89969500Y-117099999D01*
X89969500Y-118200002D01*
X89974684Y-118272486D01*
X89975000Y-118281332D01*
X89975000Y-118600011D01*
X90126324Y-118600011D01*
X90193363Y-118619696D01*
X90195217Y-118621083D01*
X90201703Y-118625251D01*
X90201706Y-118625254D01*
X90248275Y-118646521D01*
X90332580Y-118685023D01*
X90332583Y-118685023D01*
X90332584Y-118685024D01*
X90475000Y-118705500D01*
X90475003Y-118705500D01*
X92675000Y-118705500D01*
X92746940Y-118700355D01*
X92884992Y-118659819D01*
X92947424Y-118619695D01*
X93014463Y-118600011D01*
X94025000Y-118600011D01*
X94025000Y-118152183D01*
X94024999Y-118152166D01*
X94018598Y-118092638D01*
X94018596Y-118092631D01*
X93968354Y-117957924D01*
X93968350Y-117957917D01*
X93882190Y-117842823D01*
X93882187Y-117842820D01*
X93767093Y-117756660D01*
X93767086Y-117756656D01*
X93632379Y-117706414D01*
X93632372Y-117706412D01*
X93572844Y-117700011D01*
X93304500Y-117700011D01*
X93237461Y-117680326D01*
X93191706Y-117627522D01*
X93180500Y-117576011D01*
X93180500Y-117100000D01*
X93180500Y-117099999D01*
X93175355Y-117028060D01*
X93134819Y-116890008D01*
X93090306Y-116820745D01*
X93057032Y-116768969D01*
X93057028Y-116768965D01*
X92948299Y-116674750D01*
X92948297Y-116674748D01*
X92948294Y-116674746D01*
X92948290Y-116674744D01*
X92817419Y-116614976D01*
X92817414Y-116614975D01*
X92675000Y-116594500D01*
X90475000Y-116594500D01*
X90474997Y-116594500D01*
X90403059Y-116599644D01*
X90265005Y-116640182D01*
X90143969Y-116717967D01*
X90143965Y-116717971D01*
X90049750Y-116826700D01*
X90049744Y-116826709D01*
X89989976Y-116957580D01*
X89989975Y-116957585D01*
X89969500Y-117099999D01*
X87825500Y-117099999D01*
X87825500Y-114926771D01*
X87845185Y-114859732D01*
X87880429Y-114825132D01*
X87880183Y-114824821D01*
X87883082Y-114822528D01*
X87884401Y-114821233D01*
X87885850Y-114820340D01*
X87999819Y-114706371D01*
X88061142Y-114672886D01*
X88130834Y-114677870D01*
X88175181Y-114706371D01*
X88289150Y-114820340D01*
X88435984Y-114910908D01*
X88599747Y-114965174D01*
X88700823Y-114975500D01*
X89299176Y-114975499D01*
X89299184Y-114975498D01*
X89299187Y-114975498D01*
X89354530Y-114969844D01*
X89400253Y-114965174D01*
X89564016Y-114910908D01*
X89710850Y-114820340D01*
X89832840Y-114698350D01*
X89923408Y-114551516D01*
X89977674Y-114387753D01*
X89988000Y-114286677D01*
X89987999Y-113713324D01*
X89987769Y-113711076D01*
X89977674Y-113612247D01*
X89923408Y-113448484D01*
X89832840Y-113301650D01*
X89710850Y-113179660D01*
X89619629Y-113123395D01*
X89564018Y-113089093D01*
X89564013Y-113089091D01*
X89521486Y-113074999D01*
X89400253Y-113034826D01*
X89400251Y-113034825D01*
X89299184Y-113024500D01*
X89299177Y-113024500D01*
X88995808Y-113024500D01*
X88928769Y-113004815D01*
X88908127Y-112988181D01*
X88589674Y-112669727D01*
X88589673Y-112669726D01*
X88484999Y-112599786D01*
X88483127Y-112598535D01*
X88364744Y-112549499D01*
X88364738Y-112549497D01*
X88239071Y-112524500D01*
X88239069Y-112524500D01*
X86610999Y-112524500D01*
X86610997Y-112524500D01*
X86485329Y-112549497D01*
X86485323Y-112549499D01*
X86366942Y-112598534D01*
X86260394Y-112669726D01*
X86260393Y-112669727D01*
X85112180Y-113817941D01*
X85050857Y-113851426D01*
X84981165Y-113846442D01*
X84925232Y-113804570D01*
X84900815Y-113739106D01*
X84900499Y-113730260D01*
X84900499Y-113713330D01*
X84900498Y-113713313D01*
X84890174Y-113612247D01*
X84835908Y-113448484D01*
X84745340Y-113301650D01*
X84623350Y-113179660D01*
X84623349Y-113179659D01*
X84574058Y-113149256D01*
X84527334Y-113097308D01*
X84516113Y-113028345D01*
X84543956Y-112964263D01*
X84551463Y-112956049D01*
X86580695Y-110926819D01*
X86642018Y-110893334D01*
X86668376Y-110890500D01*
X98579778Y-110890500D01*
X98646817Y-110910185D01*
G37*
%TD.AperFunction*%
%TA.AperFunction,Conductor*%
G36*
X79660472Y-116690185D02*
G01*
X79706227Y-116742989D01*
X79716171Y-116812147D01*
X79714718Y-116819969D01*
X79694435Y-116999996D01*
X79694435Y-117000003D01*
X79714630Y-117179249D01*
X79714631Y-117179254D01*
X79774212Y-117349525D01*
X79780492Y-117359519D01*
X79799500Y-117425493D01*
X79799500Y-120264299D01*
X79779815Y-120331338D01*
X79727011Y-120377093D01*
X79657853Y-120387037D01*
X79594297Y-120358012D01*
X79591439Y-120355350D01*
X79589729Y-120353890D01*
X79445132Y-120248833D01*
X79285881Y-120167691D01*
X79285878Y-120167689D01*
X79115899Y-120112460D01*
X78998209Y-120093820D01*
X78939366Y-120084500D01*
X78760634Y-120084500D01*
X78701790Y-120093820D01*
X78584101Y-120112460D01*
X78584098Y-120112460D01*
X78414121Y-120167689D01*
X78414118Y-120167691D01*
X78254867Y-120248833D01*
X78110270Y-120353890D01*
X78062680Y-120401480D01*
X78001357Y-120434964D01*
X77931665Y-120429979D01*
X77887320Y-120401480D01*
X77839731Y-120353892D01*
X77839729Y-120353890D01*
X77695132Y-120248833D01*
X77535881Y-120167691D01*
X77535878Y-120167689D01*
X77365899Y-120112460D01*
X77248209Y-120093820D01*
X77189366Y-120084500D01*
X77189365Y-120084500D01*
X73588960Y-120084500D01*
X73521921Y-120064815D01*
X73476166Y-120012011D01*
X73465602Y-119973106D01*
X73465600Y-119973086D01*
X73464999Y-119967203D01*
X73409814Y-119800666D01*
X73317712Y-119651344D01*
X73193656Y-119527288D01*
X73044334Y-119435186D01*
X72877797Y-119380001D01*
X72877795Y-119380000D01*
X72775010Y-119369500D01*
X71224998Y-119369500D01*
X71224981Y-119369501D01*
X71122203Y-119380000D01*
X71122200Y-119380001D01*
X70955668Y-119435185D01*
X70955663Y-119435187D01*
X70806342Y-119527289D01*
X70682289Y-119651342D01*
X70590187Y-119800663D01*
X70590185Y-119800668D01*
X70570257Y-119860808D01*
X70535001Y-119967203D01*
X70535001Y-119967204D01*
X70535000Y-119967204D01*
X70524500Y-120069983D01*
X70524500Y-121153480D01*
X70504815Y-121220519D01*
X70488181Y-121241161D01*
X69842181Y-121887161D01*
X69780858Y-121920646D01*
X69711166Y-121915662D01*
X69655233Y-121873790D01*
X69630816Y-121808326D01*
X69630500Y-121799480D01*
X69630500Y-119860808D01*
X69650185Y-119793769D01*
X69666819Y-119773127D01*
X72733127Y-116706819D01*
X72794450Y-116673334D01*
X72820808Y-116670500D01*
X79593433Y-116670500D01*
X79660472Y-116690185D01*
G37*
%TD.AperFunction*%
%TA.AperFunction,Conductor*%
G36*
X84249583Y-119272875D02*
G01*
X84293930Y-119301376D01*
X86143753Y-121151199D01*
X86177238Y-121212522D01*
X86172254Y-121282214D01*
X86130382Y-121338147D01*
X86064918Y-121362564D01*
X86031881Y-121360497D01*
X85976595Y-121349500D01*
X85976591Y-121349500D01*
X84843208Y-121349500D01*
X84776169Y-121329815D01*
X84750584Y-121306619D01*
X84750447Y-121306757D01*
X84747647Y-121303957D01*
X84745945Y-121302414D01*
X84745344Y-121301654D01*
X84623351Y-121179661D01*
X84623350Y-121179660D01*
X84478736Y-121090461D01*
X84476518Y-121089093D01*
X84476513Y-121089091D01*
X84468685Y-121086497D01*
X84312753Y-121034826D01*
X84312751Y-121034825D01*
X84211678Y-121024500D01*
X83513330Y-121024500D01*
X83513312Y-121024501D01*
X83412247Y-121034825D01*
X83248484Y-121089092D01*
X83248481Y-121089093D01*
X83101648Y-121179661D01*
X83087325Y-121193984D01*
X83026001Y-121227468D01*
X82956309Y-121222482D01*
X82911965Y-121193982D01*
X82898038Y-121180055D01*
X82898034Y-121180052D01*
X82751311Y-121089551D01*
X82744760Y-121086497D01*
X82745815Y-121084232D01*
X82698057Y-121051169D01*
X82671232Y-120986654D01*
X82683544Y-120917878D01*
X82689510Y-120907259D01*
X82690756Y-120905277D01*
X82725789Y-120849522D01*
X82785368Y-120679255D01*
X82786182Y-120672025D01*
X82813245Y-120607611D01*
X82821712Y-120598232D01*
X84118572Y-119301373D01*
X84179891Y-119267891D01*
X84249583Y-119272875D01*
G37*
%TD.AperFunction*%
%TA.AperFunction,Conductor*%
G36*
X102175520Y-109670185D02*
G01*
X102196162Y-109686819D01*
X103122253Y-110612910D01*
X103155738Y-110674233D01*
X103150754Y-110743925D01*
X103108882Y-110799858D01*
X103100545Y-110805584D01*
X102997740Y-110870182D01*
X102997737Y-110870184D01*
X102870184Y-110997737D01*
X102774211Y-111150476D01*
X102714631Y-111320745D01*
X102714630Y-111320750D01*
X102694435Y-111499996D01*
X102694435Y-111500003D01*
X102714630Y-111679249D01*
X102714631Y-111679254D01*
X102774211Y-111849523D01*
X102843743Y-111960181D01*
X102870184Y-112002262D01*
X102997738Y-112129816D01*
X103046608Y-112160523D01*
X103152563Y-112227099D01*
X103198854Y-112279434D01*
X103210591Y-112332093D01*
X103210591Y-117473783D01*
X103190906Y-117540822D01*
X103138102Y-117586577D01*
X103068944Y-117596521D01*
X103005388Y-117567496D01*
X102998910Y-117561464D01*
X101185209Y-115747763D01*
X101151724Y-115686440D01*
X101153115Y-115627989D01*
X101160028Y-115602190D01*
X101172563Y-115555408D01*
X101193159Y-115320000D01*
X101172563Y-115084592D01*
X101111403Y-114856337D01*
X101011535Y-114642171D01*
X101011533Y-114642167D01*
X100875994Y-114448597D01*
X100708902Y-114281506D01*
X100708896Y-114281501D01*
X100523342Y-114151575D01*
X100479717Y-114096998D01*
X100472523Y-114027500D01*
X100504046Y-113965145D01*
X100523342Y-113948425D01*
X100586973Y-113903870D01*
X100708901Y-113818495D01*
X100875995Y-113651401D01*
X101011535Y-113457830D01*
X101111403Y-113243663D01*
X101172563Y-113015408D01*
X101193159Y-112780000D01*
X101172563Y-112544592D01*
X101111403Y-112316337D01*
X101011535Y-112102171D01*
X101011533Y-112102167D01*
X100875994Y-111908597D01*
X100708902Y-111741506D01*
X100708896Y-111741501D01*
X100523342Y-111611575D01*
X100479717Y-111556998D01*
X100472523Y-111487500D01*
X100504046Y-111425145D01*
X100523342Y-111408425D01*
X100545526Y-111392891D01*
X100708901Y-111278495D01*
X100875995Y-111111401D01*
X101011535Y-110917830D01*
X101111403Y-110703663D01*
X101172563Y-110475408D01*
X101193159Y-110240000D01*
X101190440Y-110208928D01*
X101189039Y-110192918D01*
X101172563Y-110004592D01*
X101119510Y-109806593D01*
X101121173Y-109736743D01*
X101160336Y-109678881D01*
X101224564Y-109651377D01*
X101239285Y-109650500D01*
X102108481Y-109650500D01*
X102175520Y-109670185D01*
G37*
%TD.AperFunction*%
%TA.AperFunction,Conductor*%
G36*
X70446191Y-111734745D02*
G01*
X70502124Y-111776617D01*
X70525330Y-111831529D01*
X70537536Y-111908597D01*
X70557754Y-112036243D01*
X70620477Y-112229285D01*
X70623444Y-112238414D01*
X70719951Y-112427820D01*
X70844890Y-112599786D01*
X70995209Y-112750105D01*
X70995214Y-112750109D01*
X71160218Y-112869991D01*
X71202884Y-112925320D01*
X71208863Y-112994934D01*
X71176258Y-113056729D01*
X71160218Y-113070627D01*
X70995540Y-113190272D01*
X70995535Y-113190276D01*
X70845276Y-113340535D01*
X70845272Y-113340540D01*
X70720379Y-113512442D01*
X70623904Y-113701782D01*
X70558242Y-113903870D01*
X70558242Y-113903873D01*
X70547769Y-113970000D01*
X71595854Y-113970000D01*
X71557370Y-114036657D01*
X71525000Y-114157465D01*
X71525000Y-114282535D01*
X71557370Y-114403343D01*
X71595854Y-114470000D01*
X70547769Y-114470000D01*
X70558242Y-114536126D01*
X70558242Y-114536129D01*
X70581329Y-114607182D01*
X70583324Y-114677023D01*
X70547244Y-114736856D01*
X70484543Y-114767684D01*
X70463398Y-114769500D01*
X67812407Y-114769500D01*
X67745368Y-114749815D01*
X67700025Y-114697906D01*
X67674033Y-114642167D01*
X67635787Y-114587547D01*
X67613459Y-114521341D01*
X67630469Y-114453574D01*
X67649676Y-114428746D01*
X70315178Y-111763244D01*
X70376499Y-111729761D01*
X70446191Y-111734745D01*
G37*
%TD.AperFunction*%
%TA.AperFunction,Conductor*%
G36*
X76020758Y-109940185D02*
G01*
X76066513Y-109992989D01*
X76077077Y-110031898D01*
X76084826Y-110107753D01*
X76128648Y-110239999D01*
X76139092Y-110271515D01*
X76139093Y-110271518D01*
X76173395Y-110327129D01*
X76229660Y-110418350D01*
X76351650Y-110540340D01*
X76498484Y-110630908D01*
X76662247Y-110685174D01*
X76763323Y-110695500D01*
X77436676Y-110695499D01*
X77436684Y-110695498D01*
X77436687Y-110695498D01*
X77492030Y-110689844D01*
X77537753Y-110685174D01*
X77701516Y-110630908D01*
X77848350Y-110540340D01*
X77868744Y-110519945D01*
X77930062Y-110486461D01*
X77999754Y-110491443D01*
X78044106Y-110519945D01*
X79308980Y-111784819D01*
X79342465Y-111846142D01*
X79337481Y-111915834D01*
X79308980Y-111960181D01*
X77962503Y-113306657D01*
X77901180Y-113340142D01*
X77831488Y-113335158D01*
X77787141Y-113306658D01*
X77710534Y-113230052D01*
X77563811Y-113139551D01*
X77563800Y-113139546D01*
X77400152Y-113085319D01*
X77299154Y-113075000D01*
X77250000Y-113075000D01*
X77250000Y-114176000D01*
X77230315Y-114243039D01*
X77177511Y-114288794D01*
X77126000Y-114300000D01*
X76012501Y-114300000D01*
X76012501Y-114336654D01*
X76022819Y-114437652D01*
X76078768Y-114606496D01*
X76081170Y-114676325D01*
X76045438Y-114736366D01*
X75982917Y-114767559D01*
X75961062Y-114769500D01*
X73536602Y-114769500D01*
X73469563Y-114749815D01*
X73423808Y-114697011D01*
X73413864Y-114627853D01*
X73418671Y-114607182D01*
X73441757Y-114536129D01*
X73441757Y-114536126D01*
X73452231Y-114470000D01*
X72404146Y-114470000D01*
X72442630Y-114403343D01*
X72475000Y-114282535D01*
X72475000Y-114157465D01*
X72442630Y-114036657D01*
X72404146Y-113970000D01*
X73452231Y-113970000D01*
X73441757Y-113903873D01*
X73441757Y-113903870D01*
X73396098Y-113763345D01*
X76012500Y-113763345D01*
X76012500Y-113800000D01*
X76750000Y-113800000D01*
X76750000Y-113075000D01*
X76749999Y-113074999D01*
X76700861Y-113075000D01*
X76700843Y-113075001D01*
X76599847Y-113085319D01*
X76436199Y-113139546D01*
X76436188Y-113139551D01*
X76289465Y-113230052D01*
X76289461Y-113230055D01*
X76167555Y-113351961D01*
X76167552Y-113351965D01*
X76077051Y-113498688D01*
X76077046Y-113498699D01*
X76022819Y-113662347D01*
X76012500Y-113763345D01*
X73396098Y-113763345D01*
X73376095Y-113701782D01*
X73279620Y-113512442D01*
X73154727Y-113340540D01*
X73154723Y-113340535D01*
X73004464Y-113190276D01*
X73004459Y-113190272D01*
X72839781Y-113070627D01*
X72797115Y-113015297D01*
X72791136Y-112945684D01*
X72823741Y-112883889D01*
X72839776Y-112869994D01*
X73004792Y-112750104D01*
X73155104Y-112599792D01*
X73155106Y-112599788D01*
X73155109Y-112599786D01*
X73280048Y-112427820D01*
X73280047Y-112427820D01*
X73280051Y-112427816D01*
X73376557Y-112238412D01*
X73442246Y-112036243D01*
X73475500Y-111826287D01*
X73475500Y-111613713D01*
X73442246Y-111403757D01*
X73376557Y-111201588D01*
X73280051Y-111012184D01*
X73280049Y-111012181D01*
X73280048Y-111012179D01*
X73155109Y-110840213D01*
X73016294Y-110701398D01*
X72982809Y-110640075D01*
X72987793Y-110570383D01*
X73029665Y-110514450D01*
X73038879Y-110508178D01*
X73044331Y-110504814D01*
X73044334Y-110504814D01*
X73193656Y-110412712D01*
X73317712Y-110288656D01*
X73409814Y-110139334D01*
X73454164Y-110005494D01*
X73493936Y-109948051D01*
X73558451Y-109921228D01*
X73571869Y-109920500D01*
X75953719Y-109920500D01*
X76020758Y-109940185D01*
G37*
%TD.AperFunction*%
%TA.AperFunction,Conductor*%
G36*
X82543334Y-88377870D02*
G01*
X82587681Y-88406371D01*
X82625681Y-88444371D01*
X82659166Y-88505694D01*
X82662000Y-88532052D01*
X82662000Y-94661418D01*
X82662000Y-94661420D01*
X82661999Y-94661420D01*
X82690840Y-94806407D01*
X82690843Y-94806417D01*
X82747412Y-94942990D01*
X82752428Y-94950495D01*
X82752429Y-94950500D01*
X82752431Y-94950500D01*
X82799094Y-95020338D01*
X82829551Y-95065920D01*
X82829552Y-95065921D01*
X88488181Y-100724549D01*
X88521666Y-100785872D01*
X88524500Y-100812229D01*
X88524500Y-100974168D01*
X88524501Y-100974187D01*
X88534825Y-101075252D01*
X88566994Y-101172328D01*
X88589092Y-101239016D01*
X88672223Y-101373793D01*
X88679661Y-101385851D01*
X88793629Y-101499819D01*
X88827114Y-101561142D01*
X88822130Y-101630834D01*
X88793629Y-101675181D01*
X88679661Y-101789148D01*
X88589093Y-101935981D01*
X88589092Y-101935984D01*
X88534826Y-102099747D01*
X88534826Y-102099748D01*
X88534825Y-102099748D01*
X88524500Y-102200815D01*
X88524500Y-102799169D01*
X88524501Y-102799187D01*
X88534825Y-102900252D01*
X88551361Y-102950152D01*
X88589092Y-103064016D01*
X88679660Y-103210850D01*
X88801650Y-103332840D01*
X88840597Y-103356862D01*
X88887320Y-103408807D01*
X88899500Y-103462400D01*
X88899500Y-104575500D01*
X88879815Y-104642539D01*
X88827011Y-104688294D01*
X88775500Y-104699500D01*
X88659298Y-104699500D01*
X88622432Y-104702401D01*
X88622426Y-104702402D01*
X88464606Y-104748254D01*
X88464603Y-104748255D01*
X88323137Y-104831917D01*
X88323129Y-104831923D01*
X88206923Y-104948129D01*
X88206917Y-104948137D01*
X88123255Y-105089603D01*
X88123254Y-105089606D01*
X88077402Y-105247426D01*
X88077401Y-105247432D01*
X88074500Y-105284298D01*
X88074500Y-105715701D01*
X88077401Y-105752567D01*
X88077402Y-105752573D01*
X88123403Y-105910905D01*
X88123204Y-105980774D01*
X88085262Y-106039444D01*
X88021624Y-106068288D01*
X88004327Y-106069500D01*
X72129837Y-106069500D01*
X72021424Y-106091065D01*
X72021423Y-106091065D01*
X72005213Y-106094289D01*
X71994503Y-106096420D01*
X71955211Y-106112696D01*
X71867025Y-106149223D01*
X71799362Y-106194435D01*
X71763886Y-106218140D01*
X71752546Y-106225717D01*
X71752442Y-106225786D01*
X71752293Y-106225885D01*
X71752285Y-106225891D01*
X70080888Y-107897287D01*
X70080887Y-107897288D01*
X70004222Y-108012026D01*
X69951421Y-108139501D01*
X69951418Y-108139513D01*
X69928309Y-108255691D01*
X69928309Y-108255695D01*
X69924500Y-108274841D01*
X69924500Y-110121247D01*
X69904815Y-110188286D01*
X69888181Y-110208928D01*
X67901308Y-112195800D01*
X67839985Y-112229285D01*
X67770293Y-112224301D01*
X67714360Y-112182429D01*
X67701249Y-112160531D01*
X67674035Y-112102171D01*
X67674034Y-112102169D01*
X67674033Y-112102167D01*
X67538494Y-111908597D01*
X67371402Y-111741506D01*
X67371396Y-111741501D01*
X67185842Y-111611575D01*
X67142217Y-111556998D01*
X67135023Y-111487500D01*
X67166546Y-111425145D01*
X67185842Y-111408425D01*
X67208026Y-111392891D01*
X67371401Y-111278495D01*
X67538495Y-111111401D01*
X67674035Y-110917830D01*
X67773903Y-110703663D01*
X67835063Y-110475408D01*
X67855659Y-110240000D01*
X67852940Y-110208928D01*
X67851539Y-110192918D01*
X67835063Y-110004592D01*
X67773903Y-109776337D01*
X67674035Y-109562171D01*
X67661171Y-109543798D01*
X67538494Y-109368597D01*
X67371402Y-109201506D01*
X67371396Y-109201501D01*
X67185842Y-109071575D01*
X67142217Y-109016998D01*
X67135023Y-108947500D01*
X67166546Y-108885145D01*
X67185842Y-108868425D01*
X67241824Y-108829226D01*
X67371401Y-108738495D01*
X67538495Y-108571401D01*
X67674035Y-108377830D01*
X67773903Y-108163663D01*
X67835063Y-107935408D01*
X67855659Y-107700000D01*
X67835063Y-107464592D01*
X67773903Y-107236337D01*
X67674035Y-107022171D01*
X67538495Y-106828599D01*
X67538494Y-106828597D01*
X67371402Y-106661506D01*
X67371396Y-106661501D01*
X67185842Y-106531575D01*
X67142217Y-106476998D01*
X67135023Y-106407500D01*
X67166546Y-106345145D01*
X67185842Y-106328425D01*
X67247332Y-106285369D01*
X67371401Y-106198495D01*
X67538495Y-106031401D01*
X67674035Y-105837830D01*
X67773903Y-105623663D01*
X67835063Y-105395408D01*
X67855659Y-105160000D01*
X67835063Y-104924592D01*
X67773903Y-104696337D01*
X67674035Y-104482171D01*
X67577796Y-104344726D01*
X67538494Y-104288597D01*
X67371402Y-104121506D01*
X67371396Y-104121501D01*
X67185842Y-103991575D01*
X67142217Y-103936998D01*
X67135023Y-103867500D01*
X67166546Y-103805145D01*
X67185842Y-103788425D01*
X67341908Y-103679146D01*
X67371401Y-103658495D01*
X67538495Y-103491401D01*
X67674035Y-103297830D01*
X67773903Y-103083663D01*
X67835063Y-102855408D01*
X67855659Y-102620000D01*
X67835063Y-102384592D01*
X67773903Y-102156337D01*
X67674035Y-101942171D01*
X67669704Y-101935986D01*
X67538496Y-101748600D01*
X67498064Y-101708168D01*
X67416567Y-101626671D01*
X67383084Y-101565351D01*
X67388068Y-101495659D01*
X67429939Y-101439725D01*
X67460915Y-101422810D01*
X67592331Y-101373796D01*
X67707546Y-101287546D01*
X67793796Y-101172331D01*
X67844091Y-101037483D01*
X67850500Y-100977873D01*
X67850499Y-99182128D01*
X67844091Y-99122517D01*
X67793796Y-98987669D01*
X67793795Y-98987668D01*
X67793793Y-98987664D01*
X67707547Y-98872455D01*
X67707544Y-98872452D01*
X67592335Y-98786206D01*
X67592328Y-98786202D01*
X67457482Y-98735908D01*
X67457483Y-98735908D01*
X67397883Y-98729501D01*
X67397881Y-98729500D01*
X67397873Y-98729500D01*
X67397865Y-98729500D01*
X66611229Y-98729500D01*
X66544190Y-98709815D01*
X66498435Y-98657011D01*
X66488491Y-98587853D01*
X66517516Y-98524297D01*
X66523548Y-98517819D01*
X69306049Y-95735319D01*
X72229549Y-92811819D01*
X72290872Y-92778334D01*
X72317230Y-92775500D01*
X73667948Y-92775500D01*
X73734987Y-92795185D01*
X73755629Y-92811819D01*
X73801650Y-92857840D01*
X73948484Y-92948408D01*
X74112247Y-93002674D01*
X74213323Y-93013000D01*
X74786676Y-93012999D01*
X74786684Y-93012998D01*
X74786687Y-93012998D01*
X74842030Y-93007344D01*
X74887753Y-93002674D01*
X75051516Y-92948408D01*
X75198350Y-92857840D01*
X75320340Y-92735850D01*
X75410908Y-92589016D01*
X75465174Y-92425253D01*
X75475500Y-92324177D01*
X75475499Y-91725824D01*
X75465174Y-91624747D01*
X75410908Y-91460984D01*
X75320340Y-91314150D01*
X75206371Y-91200181D01*
X75172886Y-91138858D01*
X75177870Y-91069166D01*
X75206371Y-91024819D01*
X75244371Y-90986819D01*
X75305694Y-90953334D01*
X75332052Y-90950500D01*
X79161420Y-90950500D01*
X79258962Y-90931096D01*
X79306413Y-90921658D01*
X79442995Y-90865084D01*
X79492229Y-90832186D01*
X79565916Y-90782952D01*
X81637049Y-88711817D01*
X81698372Y-88678333D01*
X81724730Y-88675499D01*
X81886670Y-88675499D01*
X81886676Y-88675499D01*
X81987753Y-88665174D01*
X82151516Y-88610908D01*
X82298350Y-88520340D01*
X82412319Y-88406371D01*
X82473642Y-88372886D01*
X82543334Y-88377870D01*
G37*
%TD.AperFunction*%
%TA.AperFunction,Conductor*%
G36*
X85645231Y-107490185D02*
G01*
X85690986Y-107542989D01*
X85700930Y-107612147D01*
X85671905Y-107675703D01*
X85665873Y-107682181D01*
X81847181Y-111500873D01*
X81785858Y-111534358D01*
X81716166Y-111529374D01*
X81660233Y-111487502D01*
X81635816Y-111422038D01*
X81635500Y-111413192D01*
X81635500Y-111280634D01*
X81626116Y-111221386D01*
X81607540Y-111104103D01*
X81607539Y-111104099D01*
X81607539Y-111104098D01*
X81552310Y-110934121D01*
X81552308Y-110934118D01*
X81519733Y-110870184D01*
X81471167Y-110774868D01*
X81383837Y-110654669D01*
X81383837Y-110654668D01*
X81383835Y-110654666D01*
X81366111Y-110630271D01*
X79589728Y-108853889D01*
X79445131Y-108748833D01*
X79431155Y-108741712D01*
X79285884Y-108667692D01*
X79222090Y-108646964D01*
X79115897Y-108612459D01*
X79115891Y-108612458D01*
X78939370Y-108584500D01*
X78939366Y-108584500D01*
X78760634Y-108584500D01*
X78760630Y-108584500D01*
X78584108Y-108612458D01*
X78584106Y-108612458D01*
X78584103Y-108612459D01*
X78523711Y-108632082D01*
X78414115Y-108667692D01*
X78254868Y-108748833D01*
X78110273Y-108853888D01*
X78044106Y-108920055D01*
X77982782Y-108953539D01*
X77913091Y-108948554D01*
X77868744Y-108920054D01*
X77848351Y-108899661D01*
X77848350Y-108899660D01*
X77747732Y-108837598D01*
X77701518Y-108809093D01*
X77701513Y-108809091D01*
X77700069Y-108808612D01*
X77537753Y-108754826D01*
X77537751Y-108754825D01*
X77436684Y-108744500D01*
X77436677Y-108744500D01*
X77324500Y-108744500D01*
X77257461Y-108724815D01*
X77211706Y-108672011D01*
X77200500Y-108620500D01*
X77200500Y-108431004D01*
X77178219Y-108318996D01*
X77178219Y-108318992D01*
X77175098Y-108303304D01*
X77173580Y-108295671D01*
X77128124Y-108185931D01*
X77128124Y-108185930D01*
X77120778Y-108168195D01*
X77120771Y-108168182D01*
X77044114Y-108053458D01*
X77044111Y-108053454D01*
X77041368Y-108050711D01*
X77012007Y-108003984D01*
X76988011Y-107935408D01*
X76975789Y-107900478D01*
X76973786Y-107897291D01*
X76904757Y-107787431D01*
X76879816Y-107747738D01*
X76814259Y-107682181D01*
X76780774Y-107620858D01*
X76785758Y-107551166D01*
X76827630Y-107495233D01*
X76893094Y-107470816D01*
X76901940Y-107470500D01*
X85578192Y-107470500D01*
X85645231Y-107490185D01*
G37*
%TD.AperFunction*%
%TA.AperFunction,Conductor*%
G36*
X91650717Y-105520185D02*
G01*
X91696472Y-105572989D01*
X91706898Y-105610617D01*
X91714630Y-105679249D01*
X91774210Y-105849521D01*
X91820716Y-105923534D01*
X91870184Y-106002262D01*
X91997738Y-106129816D01*
X92034188Y-106152719D01*
X92150474Y-106225787D01*
X92150478Y-106225789D01*
X92306816Y-106280494D01*
X92320745Y-106285368D01*
X92320750Y-106285369D01*
X92499996Y-106305565D01*
X92500000Y-106305565D01*
X92500004Y-106305565D01*
X92679249Y-106285369D01*
X92679252Y-106285368D01*
X92679255Y-106285368D01*
X92849522Y-106225789D01*
X92850488Y-106225181D01*
X92859523Y-106219506D01*
X92925494Y-106200500D01*
X92954327Y-106200500D01*
X93021366Y-106220185D01*
X93067121Y-106272989D01*
X93077065Y-106342147D01*
X93073403Y-106359095D01*
X93027402Y-106517426D01*
X93027401Y-106517432D01*
X93024500Y-106554298D01*
X93024500Y-106985701D01*
X93027401Y-107022567D01*
X93027402Y-107022573D01*
X93073254Y-107180393D01*
X93073255Y-107180396D01*
X93156917Y-107321862D01*
X93161702Y-107328031D01*
X93159256Y-107329927D01*
X93185857Y-107378642D01*
X93180873Y-107448334D01*
X93160069Y-107480703D01*
X93161702Y-107481969D01*
X93156917Y-107488137D01*
X93073255Y-107629603D01*
X93073254Y-107629606D01*
X93027402Y-107787426D01*
X93027401Y-107787432D01*
X93024500Y-107824298D01*
X93024500Y-108255691D01*
X93027401Y-108292567D01*
X93027402Y-108292573D01*
X93073254Y-108450393D01*
X93073254Y-108450394D01*
X93073255Y-108450396D01*
X93073256Y-108450398D01*
X93073405Y-108450650D01*
X93073462Y-108450874D01*
X93076353Y-108457554D01*
X93075275Y-108458020D01*
X93090587Y-108518373D01*
X93068426Y-108584635D01*
X93013960Y-108628398D01*
X92990873Y-108635384D01*
X92985684Y-108636416D01*
X92985671Y-108636420D01*
X92858188Y-108689225D01*
X92832605Y-108706318D01*
X92804675Y-108720254D01*
X92650476Y-108774211D01*
X92650475Y-108774212D01*
X92497737Y-108870184D01*
X92370184Y-108997737D01*
X92274211Y-109150476D01*
X92214631Y-109320745D01*
X92214630Y-109320749D01*
X92196757Y-109479384D01*
X92169690Y-109543798D01*
X92112096Y-109583353D01*
X92073537Y-109589500D01*
X91103804Y-109589500D01*
X91036765Y-109569815D01*
X91025063Y-109560000D01*
X88069985Y-109560000D01*
X88027290Y-109585538D01*
X87996196Y-109589500D01*
X86283497Y-109589500D01*
X86157829Y-109614497D01*
X86157823Y-109614499D01*
X86039442Y-109663534D01*
X85960326Y-109716397D01*
X85893648Y-109737274D01*
X85826268Y-109718789D01*
X85779578Y-109666809D01*
X85768403Y-109597839D01*
X85796289Y-109533776D01*
X85803746Y-109525622D01*
X86552550Y-108776819D01*
X86613873Y-108743334D01*
X86640231Y-108740500D01*
X88004847Y-108740500D01*
X88071886Y-108760185D01*
X88117641Y-108812989D01*
X88127585Y-108882147D01*
X88123923Y-108899095D01*
X88077900Y-109057505D01*
X88077899Y-109057511D01*
X88077704Y-109059998D01*
X88077705Y-109060000D01*
X91022295Y-109060000D01*
X91022295Y-109059998D01*
X91022100Y-109057513D01*
X90976281Y-108899801D01*
X90892685Y-108758447D01*
X90887900Y-108752278D01*
X90890366Y-108750364D01*
X90863802Y-108701776D01*
X90868749Y-108632082D01*
X90889856Y-108599232D01*
X90888301Y-108598026D01*
X90893077Y-108591868D01*
X90893081Y-108591865D01*
X90976744Y-108450398D01*
X91020246Y-108300666D01*
X91022597Y-108292573D01*
X91022598Y-108292567D01*
X91025500Y-108255691D01*
X91025500Y-107824313D01*
X91025499Y-107824298D01*
X91022598Y-107787432D01*
X91022597Y-107787426D01*
X90976745Y-107629606D01*
X90976744Y-107629603D01*
X90976744Y-107629602D01*
X90893081Y-107488135D01*
X90893078Y-107488132D01*
X90888298Y-107481969D01*
X90890750Y-107480066D01*
X90864155Y-107431421D01*
X90869104Y-107361726D01*
X90889940Y-107329304D01*
X90888298Y-107328031D01*
X90893075Y-107321870D01*
X90893081Y-107321865D01*
X90976744Y-107180398D01*
X91022598Y-107022569D01*
X91025500Y-106985694D01*
X91025500Y-106554306D01*
X91022598Y-106517431D01*
X90976744Y-106359602D01*
X90893081Y-106218135D01*
X90893078Y-106218132D01*
X90888298Y-106211969D01*
X90890750Y-106210066D01*
X90864155Y-106161421D01*
X90869104Y-106091726D01*
X90889940Y-106059304D01*
X90888298Y-106058031D01*
X90893075Y-106051870D01*
X90893081Y-106051865D01*
X90976744Y-105910398D01*
X91022598Y-105752569D01*
X91025500Y-105715694D01*
X91025500Y-105624500D01*
X91045185Y-105557461D01*
X91097989Y-105511706D01*
X91149500Y-105500500D01*
X91583678Y-105500500D01*
X91650717Y-105520185D01*
G37*
%TD.AperFunction*%
%TA.AperFunction,Conductor*%
G36*
X75665099Y-107490185D02*
G01*
X75710854Y-107542989D01*
X75720798Y-107612147D01*
X75691773Y-107675703D01*
X75685741Y-107682181D01*
X75620184Y-107747737D01*
X75524211Y-107900476D01*
X75464631Y-108070745D01*
X75464630Y-108070750D01*
X75444435Y-108249996D01*
X75444435Y-108250003D01*
X75459264Y-108381617D01*
X75447209Y-108450439D01*
X75399860Y-108501818D01*
X75336044Y-108519500D01*
X73571870Y-108519500D01*
X73504831Y-108499815D01*
X73459076Y-108447011D01*
X73454164Y-108434505D01*
X73446994Y-108412869D01*
X73409814Y-108300666D01*
X73317712Y-108151344D01*
X73193656Y-108027288D01*
X73044334Y-107935186D01*
X72877797Y-107880001D01*
X72877795Y-107880000D01*
X72775016Y-107869500D01*
X72775009Y-107869500D01*
X72389352Y-107869500D01*
X72322313Y-107849815D01*
X72276558Y-107797011D01*
X72266614Y-107727853D01*
X72295639Y-107664297D01*
X72301671Y-107657819D01*
X72452671Y-107506819D01*
X72513994Y-107473334D01*
X72540352Y-107470500D01*
X75598060Y-107470500D01*
X75665099Y-107490185D01*
G37*
%TD.AperFunction*%
%TA.AperFunction,Conductor*%
G36*
X93002768Y-101495185D02*
G01*
X93037367Y-101530429D01*
X93037679Y-101530183D01*
X93039971Y-101533082D01*
X93041266Y-101534401D01*
X93042160Y-101535850D01*
X93042161Y-101535851D01*
X93056482Y-101550172D01*
X93089967Y-101611495D01*
X93084983Y-101681187D01*
X93056485Y-101725532D01*
X93042552Y-101739465D01*
X92952051Y-101886188D01*
X92952046Y-101886199D01*
X92897819Y-102049847D01*
X92887500Y-102150845D01*
X92887500Y-102250000D01*
X93988500Y-102250000D01*
X94055539Y-102269685D01*
X94101294Y-102322489D01*
X94112500Y-102374000D01*
X94112500Y-103537499D01*
X94138982Y-103537499D01*
X94206021Y-103557184D01*
X94251776Y-103609988D01*
X94261720Y-103679146D01*
X94256023Y-103702454D01*
X94214633Y-103820737D01*
X94214630Y-103820750D01*
X94194435Y-103999996D01*
X94194435Y-104000003D01*
X94201377Y-104061617D01*
X94189322Y-104130439D01*
X94141973Y-104181818D01*
X94078157Y-104199500D01*
X90324500Y-104199500D01*
X90257461Y-104179815D01*
X90211706Y-104127011D01*
X90200500Y-104075500D01*
X90200500Y-103382052D01*
X90220185Y-103315013D01*
X90236819Y-103294371D01*
X90270656Y-103260534D01*
X90320340Y-103210850D01*
X90410908Y-103064016D01*
X90465174Y-102900253D01*
X90470394Y-102849154D01*
X92887501Y-102849154D01*
X92897819Y-102950152D01*
X92952046Y-103113800D01*
X92952051Y-103113811D01*
X93042552Y-103260534D01*
X93042555Y-103260538D01*
X93164461Y-103382444D01*
X93164465Y-103382447D01*
X93311188Y-103472948D01*
X93311199Y-103472953D01*
X93474847Y-103527180D01*
X93575852Y-103537499D01*
X93612500Y-103537499D01*
X93612500Y-102750000D01*
X92887501Y-102750000D01*
X92887501Y-102849154D01*
X90470394Y-102849154D01*
X90475500Y-102799177D01*
X90475499Y-102200824D01*
X90470955Y-102156344D01*
X90465174Y-102099747D01*
X90410908Y-101935984D01*
X90320340Y-101789150D01*
X90218371Y-101687181D01*
X90184886Y-101625858D01*
X90189870Y-101556166D01*
X90231742Y-101500233D01*
X90297206Y-101475816D01*
X90306052Y-101475500D01*
X92935729Y-101475500D01*
X93002768Y-101495185D01*
G37*
%TD.AperFunction*%
%TA.AperFunction,Conductor*%
G36*
X66642539Y-76070185D02*
G01*
X66688294Y-76122989D01*
X66699500Y-76174500D01*
X66699500Y-79050001D01*
X66699501Y-79050018D01*
X66710000Y-79152796D01*
X66710001Y-79152799D01*
X66755164Y-79289091D01*
X66765186Y-79319334D01*
X66857288Y-79468656D01*
X66981344Y-79592712D01*
X67106586Y-79669961D01*
X67153311Y-79721909D01*
X67164534Y-79790871D01*
X67136691Y-79854953D01*
X67078622Y-79893810D01*
X67041490Y-79899500D01*
X66741971Y-79899500D01*
X66741965Y-79899500D01*
X66741964Y-79899501D01*
X66730316Y-79900536D01*
X66622584Y-79910113D01*
X66426954Y-79966089D01*
X66336772Y-80013196D01*
X66246593Y-80060302D01*
X66246591Y-80060303D01*
X66246590Y-80060304D01*
X66088890Y-80188890D01*
X65966004Y-80339600D01*
X65960302Y-80346593D01*
X65940624Y-80384265D01*
X65866089Y-80526954D01*
X65810114Y-80722583D01*
X65810113Y-80722586D01*
X65799500Y-80841966D01*
X65799500Y-81958028D01*
X65799501Y-81958034D01*
X65810113Y-82077415D01*
X65866089Y-82273045D01*
X65866090Y-82273048D01*
X65866091Y-82273049D01*
X65960302Y-82453407D01*
X65960304Y-82453409D01*
X66088890Y-82611109D01*
X66163570Y-82672002D01*
X66246593Y-82739698D01*
X66426951Y-82833909D01*
X66622582Y-82889886D01*
X66741963Y-82900500D01*
X67325500Y-82900499D01*
X67392539Y-82920183D01*
X67438294Y-82972987D01*
X67449500Y-83024499D01*
X67449500Y-86207057D01*
X67429815Y-86274096D01*
X67380595Y-86318145D01*
X67350704Y-86332969D01*
X67202280Y-86452276D01*
X67202278Y-86452278D01*
X67174625Y-86486678D01*
X67146326Y-86521885D01*
X67088982Y-86561803D01*
X67019160Y-86564383D01*
X66959027Y-86528804D01*
X66953031Y-86521884D01*
X66897364Y-86452630D01*
X66749025Y-86333392D01*
X66749022Y-86333390D01*
X66578523Y-86248831D01*
X66393824Y-86202897D01*
X66351097Y-86200000D01*
X66150000Y-86200000D01*
X66150000Y-89200000D01*
X66351097Y-89200000D01*
X66393824Y-89197102D01*
X66578523Y-89151168D01*
X66749022Y-89066609D01*
X66749025Y-89066607D01*
X66897366Y-88947367D01*
X66897367Y-88947366D01*
X66953033Y-88878115D01*
X67010376Y-88838196D01*
X67080198Y-88835616D01*
X67140331Y-88871194D01*
X67146305Y-88878089D01*
X67202278Y-88947722D01*
X67202280Y-88947724D01*
X67350704Y-89067030D01*
X67350707Y-89067032D01*
X67521302Y-89151639D01*
X67521303Y-89151639D01*
X67521307Y-89151641D01*
X67706111Y-89197600D01*
X67748877Y-89200500D01*
X68625500Y-89200499D01*
X68692539Y-89220183D01*
X68738294Y-89272987D01*
X68749500Y-89324499D01*
X68749500Y-90625500D01*
X68729815Y-90692539D01*
X68677011Y-90738294D01*
X68625500Y-90749500D01*
X68596423Y-90749500D01*
X68529384Y-90729815D01*
X68483629Y-90677011D01*
X68478718Y-90664507D01*
X68473408Y-90648485D01*
X68473408Y-90648484D01*
X68382840Y-90501650D01*
X68260850Y-90379660D01*
X68169629Y-90323395D01*
X68114018Y-90289093D01*
X68114013Y-90289091D01*
X68112569Y-90288612D01*
X67950253Y-90234826D01*
X67950251Y-90234825D01*
X67849178Y-90224500D01*
X67150830Y-90224500D01*
X67150812Y-90224501D01*
X67049747Y-90234825D01*
X66885984Y-90289092D01*
X66885981Y-90289093D01*
X66739148Y-90379661D01*
X66724825Y-90393984D01*
X66663501Y-90427468D01*
X66593809Y-90422482D01*
X66549465Y-90393982D01*
X66535538Y-90380055D01*
X66535534Y-90380052D01*
X66388811Y-90289551D01*
X66388800Y-90289546D01*
X66225152Y-90235319D01*
X66124154Y-90225000D01*
X66025000Y-90225000D01*
X66025000Y-92174999D01*
X66124140Y-92174999D01*
X66124154Y-92174998D01*
X66225152Y-92164680D01*
X66388800Y-92110453D01*
X66388811Y-92110448D01*
X66535535Y-92019947D01*
X66549460Y-92006021D01*
X66610782Y-91972533D01*
X66680473Y-91977514D01*
X66724827Y-92006017D01*
X66739150Y-92020340D01*
X66885984Y-92110908D01*
X67049747Y-92165174D01*
X67150823Y-92175500D01*
X67444984Y-92175499D01*
X67492437Y-92184938D01*
X67519516Y-92196154D01*
X67581087Y-92221658D01*
X67581091Y-92221658D01*
X67581092Y-92221659D01*
X67726079Y-92250500D01*
X67726082Y-92250500D01*
X67726083Y-92250500D01*
X67873917Y-92250500D01*
X69200028Y-92250500D01*
X69240983Y-92257458D01*
X69320745Y-92285368D01*
X69320750Y-92285369D01*
X69499996Y-92305565D01*
X69500000Y-92305565D01*
X69500004Y-92305565D01*
X69679249Y-92285369D01*
X69679252Y-92285368D01*
X69679255Y-92285368D01*
X69849522Y-92225789D01*
X70002262Y-92129816D01*
X70129816Y-92002262D01*
X70225789Y-91849522D01*
X70285368Y-91679255D01*
X70295678Y-91587753D01*
X70305565Y-91500003D01*
X70305565Y-91499996D01*
X70285368Y-91320746D01*
X70285368Y-91320745D01*
X70257458Y-91240982D01*
X70250500Y-91200028D01*
X70250500Y-89324499D01*
X70270185Y-89257460D01*
X70322989Y-89211705D01*
X70374500Y-89200499D01*
X70951123Y-89200499D01*
X70951123Y-89200498D01*
X70993889Y-89197600D01*
X71178693Y-89151641D01*
X71349296Y-89067030D01*
X71497722Y-88947722D01*
X71617030Y-88799296D01*
X71701641Y-88628693D01*
X71747600Y-88443889D01*
X71750500Y-88401123D01*
X71750499Y-86998878D01*
X71747600Y-86956111D01*
X71701641Y-86771307D01*
X71650000Y-86667182D01*
X71617032Y-86600707D01*
X71617030Y-86600704D01*
X71497722Y-86452278D01*
X71497721Y-86452277D01*
X71349295Y-86332969D01*
X71349292Y-86332967D01*
X71178697Y-86248360D01*
X70993892Y-86202400D01*
X70972506Y-86200950D01*
X70951123Y-86199500D01*
X70951120Y-86199500D01*
X70048877Y-86199500D01*
X70048874Y-86199501D01*
X70006113Y-86202399D01*
X70006112Y-86202399D01*
X69821303Y-86248360D01*
X69650707Y-86332967D01*
X69650704Y-86332969D01*
X69502278Y-86452277D01*
X69502277Y-86452278D01*
X69446647Y-86521486D01*
X69389304Y-86561405D01*
X69319482Y-86563985D01*
X69259349Y-86528406D01*
X69253353Y-86521486D01*
X69197722Y-86452278D01*
X69197721Y-86452277D01*
X69049295Y-86332969D01*
X69019405Y-86318145D01*
X68968092Y-86270723D01*
X68950500Y-86207057D01*
X68950500Y-83024499D01*
X68970185Y-82957460D01*
X69022989Y-82911705D01*
X69074500Y-82900499D01*
X69658028Y-82900499D01*
X69658036Y-82900499D01*
X69777418Y-82889886D01*
X69973049Y-82833909D01*
X70153407Y-82739698D01*
X70311109Y-82611109D01*
X70439698Y-82453407D01*
X70533909Y-82273049D01*
X70589886Y-82077418D01*
X70600500Y-81958037D01*
X70600500Y-81574500D01*
X70620185Y-81507461D01*
X70672989Y-81461706D01*
X70724500Y-81450500D01*
X73392948Y-81450500D01*
X73459987Y-81470185D01*
X73480629Y-81486819D01*
X73514150Y-81520340D01*
X73660984Y-81610908D01*
X73824747Y-81665174D01*
X73925823Y-81675500D01*
X74137768Y-81675499D01*
X74204808Y-81695183D01*
X74225450Y-81711818D01*
X75762386Y-83248754D01*
X75791858Y-83268445D01*
X75836070Y-83297986D01*
X75885305Y-83330884D01*
X75885306Y-83330884D01*
X75885307Y-83330885D01*
X75885309Y-83330886D01*
X76021882Y-83387456D01*
X76021887Y-83387458D01*
X76021891Y-83387458D01*
X76021892Y-83387459D01*
X76166879Y-83416300D01*
X76166882Y-83416300D01*
X76166883Y-83416300D01*
X76314717Y-83416300D01*
X80661134Y-83416300D01*
X80728173Y-83435985D01*
X80773928Y-83488789D01*
X80783872Y-83557947D01*
X80779795Y-83576293D01*
X80778342Y-83581083D01*
X80749500Y-83726077D01*
X80749500Y-86974848D01*
X80731039Y-87039944D01*
X80664095Y-87148477D01*
X80664092Y-87148484D01*
X80609826Y-87312247D01*
X80609826Y-87312248D01*
X80609825Y-87312248D01*
X80599500Y-87413315D01*
X80599500Y-87575269D01*
X80579815Y-87642308D01*
X80563181Y-87662950D01*
X78812951Y-89413181D01*
X78751628Y-89446666D01*
X78725270Y-89449500D01*
X75332052Y-89449500D01*
X75265013Y-89429815D01*
X75244371Y-89413181D01*
X75198351Y-89367161D01*
X75198350Y-89367160D01*
X75051516Y-89276592D01*
X74887753Y-89222326D01*
X74887751Y-89222325D01*
X74786678Y-89212000D01*
X74213330Y-89212000D01*
X74213312Y-89212001D01*
X74112247Y-89222325D01*
X73948484Y-89276592D01*
X73948481Y-89276593D01*
X73801648Y-89367161D01*
X73679661Y-89489148D01*
X73589093Y-89635981D01*
X73589092Y-89635984D01*
X73534826Y-89799747D01*
X73534826Y-89799748D01*
X73534825Y-89799748D01*
X73524500Y-89900815D01*
X73524500Y-90499169D01*
X73524501Y-90499187D01*
X73534825Y-90600252D01*
X73589092Y-90764015D01*
X73589093Y-90764018D01*
X73618841Y-90812247D01*
X73631141Y-90832189D01*
X73679661Y-90910851D01*
X73793629Y-91024819D01*
X73827114Y-91086142D01*
X73822130Y-91155834D01*
X73793629Y-91200181D01*
X73755629Y-91238181D01*
X73694306Y-91271666D01*
X73667948Y-91274500D01*
X71881076Y-91274500D01*
X71852242Y-91280234D01*
X71852243Y-91280235D01*
X71736092Y-91303339D01*
X71736086Y-91303341D01*
X71694071Y-91320745D01*
X71599508Y-91359914D01*
X71599499Y-91359919D01*
X71558517Y-91387303D01*
X71558516Y-91387304D01*
X71476579Y-91442051D01*
X71476578Y-91442052D01*
X64862181Y-98056450D01*
X64800858Y-98089935D01*
X64731166Y-98084951D01*
X64675233Y-98043079D01*
X64650816Y-97977615D01*
X64650500Y-97968769D01*
X64650500Y-91942842D01*
X64670185Y-91875803D01*
X64722989Y-91830048D01*
X64792147Y-91820104D01*
X64855703Y-91849129D01*
X64880039Y-91877746D01*
X64892554Y-91898037D01*
X65014461Y-92019944D01*
X65014465Y-92019947D01*
X65161188Y-92110448D01*
X65161199Y-92110453D01*
X65324847Y-92164680D01*
X65425851Y-92174999D01*
X65525000Y-92174998D01*
X65525000Y-90224999D01*
X65425860Y-90225000D01*
X65425844Y-90225001D01*
X65324847Y-90235319D01*
X65161199Y-90289546D01*
X65161188Y-90289551D01*
X65014465Y-90380052D01*
X65014461Y-90380055D01*
X64892554Y-90501962D01*
X64880038Y-90522255D01*
X64828090Y-90568979D01*
X64759127Y-90580200D01*
X64695045Y-90552357D01*
X64656190Y-90494288D01*
X64650500Y-90457157D01*
X64650500Y-88985883D01*
X64670185Y-88918844D01*
X64722989Y-88873089D01*
X64792147Y-88863145D01*
X64855703Y-88892170D01*
X64871148Y-88908197D01*
X64902633Y-88947367D01*
X65050974Y-89066607D01*
X65050977Y-89066609D01*
X65221476Y-89151168D01*
X65406175Y-89197102D01*
X65448903Y-89200000D01*
X65650000Y-89200000D01*
X65650000Y-86200000D01*
X65448903Y-86200000D01*
X65406175Y-86202897D01*
X65221476Y-86248831D01*
X65050977Y-86333390D01*
X65050974Y-86333392D01*
X64902635Y-86452631D01*
X64871147Y-86491804D01*
X64813804Y-86531722D01*
X64743982Y-86534302D01*
X64683849Y-86498723D01*
X64652497Y-86436282D01*
X64650500Y-86414116D01*
X64650500Y-77320808D01*
X64670185Y-77253769D01*
X64686819Y-77233127D01*
X65833127Y-76086819D01*
X65894450Y-76053334D01*
X65920808Y-76050500D01*
X66575500Y-76050500D01*
X66642539Y-76070185D01*
G37*
%TD.AperFunction*%
%TA.AperFunction,Conductor*%
G36*
X71397232Y-70470185D02*
G01*
X71442987Y-70522989D01*
X71452931Y-70592147D01*
X71423906Y-70655703D01*
X71417874Y-70662181D01*
X69511680Y-72568372D01*
X69450357Y-72601857D01*
X69380665Y-72596873D01*
X69324732Y-72555001D01*
X69300315Y-72489537D01*
X69299999Y-72480691D01*
X69300000Y-72150000D01*
X66700001Y-72150000D01*
X66700001Y-73449986D01*
X66710494Y-73552697D01*
X66765641Y-73719119D01*
X66765643Y-73719124D01*
X66857684Y-73868345D01*
X66981654Y-73992315D01*
X67130875Y-74084356D01*
X67130880Y-74084358D01*
X67297302Y-74139505D01*
X67297309Y-74139506D01*
X67400019Y-74149999D01*
X67630690Y-74149999D01*
X67697730Y-74169683D01*
X67743485Y-74222487D01*
X67753429Y-74291646D01*
X67724404Y-74355201D01*
X67718372Y-74361680D01*
X67366873Y-74713181D01*
X67305550Y-74746666D01*
X67279192Y-74749500D01*
X65535929Y-74749500D01*
X65410261Y-74774497D01*
X65410255Y-74774499D01*
X65291874Y-74823534D01*
X65185326Y-74894726D01*
X65185325Y-74894727D01*
X64362181Y-75717872D01*
X64300858Y-75751357D01*
X64231166Y-75746373D01*
X64175233Y-75704501D01*
X64150816Y-75639037D01*
X64150500Y-75630191D01*
X64150500Y-73815351D01*
X64170185Y-73748312D01*
X64186814Y-73727675D01*
X66488321Y-71426168D01*
X66549642Y-71392685D01*
X66619334Y-71397669D01*
X66675267Y-71439541D01*
X66699684Y-71505005D01*
X66700000Y-71513851D01*
X66700000Y-71650000D01*
X69299999Y-71650000D01*
X69299999Y-70574500D01*
X69319684Y-70507461D01*
X69372488Y-70461706D01*
X69423999Y-70450500D01*
X71330193Y-70450500D01*
X71397232Y-70470185D01*
G37*
%TD.AperFunction*%
%TA.AperFunction,Conductor*%
G36*
X89542539Y-71045185D02*
G01*
X89588294Y-71097989D01*
X89599500Y-71149500D01*
X89599500Y-71486668D01*
X89599501Y-71486687D01*
X89609825Y-71587752D01*
X89640147Y-71679255D01*
X89664092Y-71751516D01*
X89749999Y-71890794D01*
X89754661Y-71898351D01*
X89800681Y-71944371D01*
X89834166Y-72005694D01*
X89837000Y-72032052D01*
X89837000Y-75147948D01*
X89817315Y-75214987D01*
X89800681Y-75235629D01*
X89754660Y-75281649D01*
X89754657Y-75281653D01*
X89664145Y-75428396D01*
X89612197Y-75475121D01*
X89543235Y-75486342D01*
X89479153Y-75458499D01*
X89470926Y-75450980D01*
X85361818Y-71341872D01*
X85328333Y-71280549D01*
X85325499Y-71254191D01*
X85325499Y-71149500D01*
X85345184Y-71082461D01*
X85397988Y-71036706D01*
X85449499Y-71025500D01*
X89475500Y-71025500D01*
X89542539Y-71045185D01*
G37*
%TD.AperFunction*%
%TA.AperFunction,Conductor*%
G36*
X104925578Y-68500457D02*
G01*
X104926213Y-68500500D01*
X104934108Y-68500500D01*
X104996764Y-68500500D01*
X105003254Y-68500670D01*
X105307046Y-68516592D01*
X105319953Y-68517949D01*
X105451089Y-68538718D01*
X105617209Y-68565028D01*
X105629896Y-68567724D01*
X105920625Y-68645625D01*
X105932965Y-68649635D01*
X106213938Y-68757490D01*
X106225790Y-68762767D01*
X106493968Y-68899411D01*
X106505199Y-68905896D01*
X106718911Y-69044682D01*
X106757608Y-69069812D01*
X106768109Y-69077441D01*
X107002010Y-69266850D01*
X107011655Y-69275535D01*
X107224464Y-69488344D01*
X107233149Y-69497989D01*
X107422558Y-69731890D01*
X107430187Y-69742391D01*
X107594101Y-69994796D01*
X107600591Y-70006036D01*
X107737231Y-70274206D01*
X107742510Y-70286064D01*
X107850363Y-70567033D01*
X107854374Y-70579376D01*
X107932273Y-70870097D01*
X107934971Y-70882794D01*
X107982050Y-71180046D01*
X107983407Y-71192953D01*
X107999330Y-71496756D01*
X107999500Y-71503246D01*
X107999500Y-71573737D01*
X107999523Y-71574098D01*
X108024624Y-149521854D01*
X108024454Y-149528385D01*
X108008531Y-149832169D01*
X108007174Y-149845076D01*
X107960093Y-150142328D01*
X107957395Y-150155024D01*
X107879496Y-150445740D01*
X107875485Y-150458084D01*
X107767628Y-150739059D01*
X107762349Y-150750916D01*
X107625710Y-151019082D01*
X107619220Y-151030322D01*
X107455306Y-151282727D01*
X107447677Y-151293228D01*
X107258267Y-151527129D01*
X107249582Y-151536774D01*
X107036774Y-151749582D01*
X107027129Y-151758267D01*
X106793228Y-151947677D01*
X106782727Y-151955306D01*
X106530322Y-152119220D01*
X106519082Y-152125710D01*
X106250916Y-152262349D01*
X106239059Y-152267628D01*
X105958084Y-152375485D01*
X105945740Y-152379496D01*
X105655024Y-152457395D01*
X105642328Y-152460093D01*
X105345076Y-152507174D01*
X105332169Y-152508531D01*
X105028397Y-152524454D01*
X105021835Y-152524624D01*
X61099384Y-152499541D01*
X61098736Y-152499499D01*
X61091014Y-152499499D01*
X61028355Y-152499499D01*
X61021867Y-152499329D01*
X61010979Y-152498758D01*
X60718074Y-152483410D01*
X60705167Y-152482054D01*
X60407897Y-152434973D01*
X60395215Y-152432277D01*
X60104494Y-152354381D01*
X60092150Y-152350370D01*
X59811174Y-152242514D01*
X59799317Y-152237235D01*
X59531153Y-152100601D01*
X59519912Y-152094111D01*
X59267496Y-151930191D01*
X59257005Y-151922569D01*
X59023088Y-151733149D01*
X59013462Y-151724481D01*
X58800637Y-151511657D01*
X58791952Y-151502012D01*
X58769156Y-151473862D01*
X58602546Y-151268116D01*
X58594917Y-151257615D01*
X58447311Y-151030322D01*
X58431000Y-151005205D01*
X58424512Y-150993969D01*
X58287867Y-150725790D01*
X58282597Y-150713955D01*
X58174734Y-150432963D01*
X58170725Y-150420624D01*
X58092827Y-150129904D01*
X58090129Y-150117209D01*
X58083984Y-150078413D01*
X58043049Y-149819956D01*
X58041692Y-149807048D01*
X58025796Y-149503757D01*
X58025626Y-149497267D01*
X58025626Y-149426000D01*
X58025601Y-149425632D01*
X58025565Y-149315131D01*
X58019945Y-131861128D01*
X62849499Y-131861128D01*
X62870955Y-131968984D01*
X62872251Y-131975499D01*
X62874499Y-131986801D01*
X62923535Y-132105184D01*
X62950911Y-132146155D01*
X62994726Y-132211730D01*
X62994727Y-132211731D01*
X65425034Y-134642037D01*
X65458519Y-134703360D01*
X65453535Y-134773052D01*
X65438928Y-134800841D01*
X65325965Y-134962169D01*
X65325964Y-134962171D01*
X65226098Y-135176335D01*
X65226094Y-135176344D01*
X65164938Y-135404586D01*
X65164936Y-135404596D01*
X65144341Y-135639999D01*
X65144341Y-135640000D01*
X65164936Y-135875403D01*
X65164938Y-135875413D01*
X65226094Y-136103655D01*
X65226096Y-136103659D01*
X65226097Y-136103663D01*
X65285491Y-136231034D01*
X65325965Y-136317830D01*
X65325967Y-136317834D01*
X65461501Y-136511395D01*
X65461506Y-136511402D01*
X65628597Y-136678493D01*
X65628603Y-136678498D01*
X65814158Y-136808425D01*
X65857783Y-136863002D01*
X65864977Y-136932500D01*
X65833454Y-136994855D01*
X65814158Y-137011575D01*
X65628597Y-137141505D01*
X65461505Y-137308597D01*
X65325965Y-137502169D01*
X65325964Y-137502171D01*
X65251141Y-137662630D01*
X65227503Y-137713323D01*
X65226098Y-137716335D01*
X65226094Y-137716344D01*
X65164938Y-137944586D01*
X65164936Y-137944596D01*
X65144341Y-138179999D01*
X65144341Y-138180000D01*
X65164936Y-138415403D01*
X65164938Y-138415413D01*
X65226094Y-138643655D01*
X65226096Y-138643659D01*
X65226097Y-138643663D01*
X65308300Y-138819947D01*
X65325965Y-138857830D01*
X65325967Y-138857834D01*
X65461501Y-139051395D01*
X65461506Y-139051402D01*
X65628597Y-139218493D01*
X65628603Y-139218498D01*
X65814158Y-139348425D01*
X65857783Y-139403002D01*
X65864977Y-139472500D01*
X65833454Y-139534855D01*
X65814158Y-139551575D01*
X65628597Y-139681505D01*
X65461505Y-139848597D01*
X65325965Y-140042169D01*
X65325964Y-140042171D01*
X65226098Y-140256335D01*
X65226094Y-140256344D01*
X65164938Y-140484586D01*
X65164936Y-140484596D01*
X65144341Y-140719999D01*
X65144341Y-140720000D01*
X65164936Y-140955403D01*
X65164938Y-140955413D01*
X65226094Y-141183655D01*
X65226096Y-141183659D01*
X65226097Y-141183663D01*
X65325965Y-141397830D01*
X65325967Y-141397834D01*
X65461501Y-141591395D01*
X65461506Y-141591402D01*
X65628597Y-141758493D01*
X65628603Y-141758498D01*
X65814158Y-141888425D01*
X65857783Y-141943002D01*
X65864977Y-142012500D01*
X65833454Y-142074855D01*
X65814158Y-142091575D01*
X65628597Y-142221505D01*
X65461505Y-142388597D01*
X65325965Y-142582169D01*
X65325964Y-142582171D01*
X65226098Y-142796335D01*
X65226094Y-142796344D01*
X65164938Y-143024586D01*
X65164936Y-143024596D01*
X65144341Y-143259999D01*
X65144341Y-143260000D01*
X65164936Y-143495403D01*
X65164938Y-143495413D01*
X65226094Y-143723655D01*
X65226096Y-143723659D01*
X65226097Y-143723663D01*
X65254289Y-143784121D01*
X65325965Y-143937830D01*
X65325967Y-143937834D01*
X65461501Y-144131395D01*
X65461506Y-144131402D01*
X65628597Y-144298493D01*
X65628603Y-144298498D01*
X65814158Y-144428425D01*
X65857783Y-144483002D01*
X65864977Y-144552500D01*
X65833454Y-144614855D01*
X65814158Y-144631575D01*
X65628597Y-144761505D01*
X65461505Y-144928597D01*
X65325965Y-145122169D01*
X65325964Y-145122171D01*
X65226098Y-145336335D01*
X65226094Y-145336344D01*
X65164938Y-145564586D01*
X65164936Y-145564596D01*
X65144341Y-145799999D01*
X65144341Y-145800000D01*
X65164936Y-146035403D01*
X65164938Y-146035413D01*
X65226094Y-146263655D01*
X65226096Y-146263659D01*
X65226097Y-146263663D01*
X65305991Y-146434996D01*
X65325965Y-146477830D01*
X65325967Y-146477834D01*
X65366863Y-146536239D01*
X65461505Y-146671401D01*
X65628599Y-146838495D01*
X65756162Y-146927816D01*
X65814594Y-146968730D01*
X65858219Y-147023307D01*
X65865413Y-147092805D01*
X65833890Y-147155160D01*
X65814595Y-147171880D01*
X65628922Y-147301890D01*
X65628920Y-147301891D01*
X65461891Y-147468920D01*
X65461886Y-147468926D01*
X65326400Y-147662420D01*
X65326399Y-147662422D01*
X65226570Y-147876507D01*
X65226567Y-147876513D01*
X65169364Y-148089999D01*
X65169364Y-148090000D01*
X66066988Y-148090000D01*
X66034075Y-148147007D01*
X66000000Y-148274174D01*
X66000000Y-148405826D01*
X66034075Y-148532993D01*
X66066988Y-148590000D01*
X65169364Y-148590000D01*
X65226567Y-148803486D01*
X65226570Y-148803492D01*
X65326399Y-149017578D01*
X65461894Y-149211082D01*
X65628917Y-149378105D01*
X65822421Y-149513600D01*
X66036507Y-149613429D01*
X66036516Y-149613433D01*
X66250000Y-149670634D01*
X66250000Y-148773012D01*
X66307007Y-148805925D01*
X66434174Y-148840000D01*
X66565826Y-148840000D01*
X66692993Y-148805925D01*
X66750000Y-148773012D01*
X66750000Y-149670633D01*
X66963483Y-149613433D01*
X66963492Y-149613429D01*
X67177578Y-149513600D01*
X67371082Y-149378105D01*
X67538105Y-149211082D01*
X67673600Y-149017578D01*
X67773429Y-148803492D01*
X67773432Y-148803486D01*
X67830636Y-148590000D01*
X66933012Y-148590000D01*
X66965925Y-148532993D01*
X67000000Y-148405826D01*
X67000000Y-148274174D01*
X66965925Y-148147007D01*
X66933012Y-148090000D01*
X67830636Y-148090000D01*
X67830635Y-148089999D01*
X67773432Y-147876513D01*
X67773429Y-147876507D01*
X67673600Y-147662422D01*
X67673599Y-147662420D01*
X67538113Y-147468926D01*
X67538108Y-147468920D01*
X67371078Y-147301890D01*
X67185405Y-147171879D01*
X67141780Y-147117302D01*
X67134588Y-147047804D01*
X67166110Y-146985449D01*
X67185406Y-146968730D01*
X67371401Y-146838495D01*
X67538495Y-146671401D01*
X67674035Y-146477830D01*
X67773903Y-146263663D01*
X67835063Y-146035408D01*
X67855659Y-145800000D01*
X67835063Y-145564592D01*
X67779038Y-145355500D01*
X67773905Y-145336344D01*
X67773904Y-145336343D01*
X67773903Y-145336337D01*
X67674035Y-145122171D01*
X67545102Y-144938034D01*
X67538494Y-144928597D01*
X67371402Y-144761506D01*
X67371396Y-144761501D01*
X67185842Y-144631575D01*
X67142217Y-144576998D01*
X67135023Y-144507500D01*
X67166546Y-144445145D01*
X67185842Y-144428425D01*
X67264840Y-144373110D01*
X67371401Y-144298495D01*
X67538495Y-144131401D01*
X67621136Y-144013376D01*
X67675713Y-143969752D01*
X67722711Y-143960500D01*
X70400501Y-143960500D01*
X70467540Y-143980185D01*
X70513295Y-144032989D01*
X70524501Y-144084500D01*
X70524501Y-144370018D01*
X70535000Y-144472796D01*
X70535001Y-144472799D01*
X70590185Y-144639331D01*
X70590187Y-144639336D01*
X70682289Y-144788657D01*
X70806344Y-144912712D01*
X70961120Y-145008178D01*
X71007845Y-145060126D01*
X71019068Y-145129088D01*
X70991224Y-145193171D01*
X70983706Y-145201398D01*
X70844889Y-145340215D01*
X70719951Y-145512179D01*
X70623444Y-145701585D01*
X70557753Y-145903760D01*
X70524500Y-146113713D01*
X70524500Y-146326286D01*
X70557753Y-146536239D01*
X70623444Y-146738414D01*
X70719951Y-146927820D01*
X70844890Y-147099786D01*
X70995209Y-147250105D01*
X70995214Y-147250109D01*
X71160218Y-147369991D01*
X71202884Y-147425320D01*
X71208863Y-147494934D01*
X71176258Y-147556729D01*
X71160218Y-147570627D01*
X70995540Y-147690272D01*
X70995535Y-147690276D01*
X70845276Y-147840535D01*
X70845272Y-147840540D01*
X70720379Y-148012442D01*
X70623904Y-148201782D01*
X70558242Y-148403870D01*
X70558242Y-148403873D01*
X70547769Y-148470000D01*
X71595854Y-148470000D01*
X71557370Y-148536657D01*
X71525000Y-148657465D01*
X71525000Y-148782535D01*
X71557370Y-148903343D01*
X71595854Y-148970000D01*
X70547769Y-148970000D01*
X70558242Y-149036126D01*
X70558242Y-149036129D01*
X70623904Y-149238217D01*
X70720379Y-149427557D01*
X70845272Y-149599459D01*
X70845276Y-149599464D01*
X70995535Y-149749723D01*
X70995540Y-149749727D01*
X71167442Y-149874620D01*
X71356782Y-149971095D01*
X71558872Y-150036757D01*
X71750000Y-150067029D01*
X71750000Y-149124145D01*
X71816657Y-149162630D01*
X71937465Y-149195000D01*
X72062535Y-149195000D01*
X72183343Y-149162630D01*
X72250000Y-149124145D01*
X72250000Y-150067028D01*
X72441127Y-150036757D01*
X72643217Y-149971095D01*
X72832557Y-149874620D01*
X73004459Y-149749727D01*
X73004464Y-149749723D01*
X73154723Y-149599464D01*
X73154727Y-149599459D01*
X73279620Y-149427557D01*
X73376095Y-149238217D01*
X73441757Y-149036129D01*
X73441757Y-149036126D01*
X73446425Y-149006654D01*
X76012501Y-149006654D01*
X76022819Y-149107652D01*
X76077046Y-149271300D01*
X76077051Y-149271311D01*
X76167552Y-149418034D01*
X76167555Y-149418038D01*
X76289461Y-149539944D01*
X76289465Y-149539947D01*
X76436188Y-149630448D01*
X76436199Y-149630453D01*
X76599847Y-149684680D01*
X76700851Y-149694999D01*
X76749999Y-149694998D01*
X76750000Y-149694998D01*
X76750000Y-148970000D01*
X76012501Y-148970000D01*
X76012501Y-149006654D01*
X73446425Y-149006654D01*
X73452231Y-148970000D01*
X72404146Y-148970000D01*
X72442630Y-148903343D01*
X72475000Y-148782535D01*
X72475000Y-148657465D01*
X72442630Y-148536657D01*
X72404146Y-148470000D01*
X73452231Y-148470000D01*
X73446425Y-148433345D01*
X76012500Y-148433345D01*
X76012500Y-148470000D01*
X76750000Y-148470000D01*
X76750000Y-147745000D01*
X76749999Y-147744999D01*
X76700861Y-147745000D01*
X76700843Y-147745001D01*
X76599847Y-147755319D01*
X76436199Y-147809546D01*
X76436188Y-147809551D01*
X76289465Y-147900052D01*
X76289461Y-147900055D01*
X76167555Y-148021961D01*
X76167552Y-148021965D01*
X76077051Y-148168688D01*
X76077046Y-148168699D01*
X76022819Y-148332347D01*
X76012500Y-148433345D01*
X73446425Y-148433345D01*
X73441757Y-148403873D01*
X73441757Y-148403870D01*
X73376095Y-148201782D01*
X73279620Y-148012442D01*
X73154727Y-147840540D01*
X73154723Y-147840535D01*
X73004464Y-147690276D01*
X73004459Y-147690272D01*
X72839781Y-147570627D01*
X72797115Y-147515297D01*
X72791136Y-147445684D01*
X72823741Y-147383889D01*
X72839776Y-147369994D01*
X73004792Y-147250104D01*
X73155104Y-147099792D01*
X73155106Y-147099788D01*
X73155109Y-147099786D01*
X73280048Y-146927820D01*
X73280047Y-146927820D01*
X73280051Y-146927816D01*
X73376557Y-146738412D01*
X73442246Y-146536243D01*
X73475500Y-146326287D01*
X73475500Y-146113713D01*
X73442246Y-145903757D01*
X73376557Y-145701588D01*
X73292080Y-145535793D01*
X73279185Y-145467126D01*
X73305461Y-145402385D01*
X73362568Y-145362128D01*
X73402566Y-145355500D01*
X77089365Y-145355500D01*
X77089366Y-145355500D01*
X77265897Y-145327540D01*
X77265900Y-145327539D01*
X77265901Y-145327539D01*
X77435878Y-145272310D01*
X77435878Y-145272309D01*
X77435881Y-145272309D01*
X77435883Y-145272307D01*
X77440384Y-145270444D01*
X77440983Y-145271891D01*
X77502870Y-145260267D01*
X77567611Y-145286541D01*
X77607870Y-145343646D01*
X77614500Y-145383648D01*
X77614500Y-147654626D01*
X77594815Y-147721665D01*
X77542011Y-147767420D01*
X77472853Y-147777364D01*
X77451497Y-147772332D01*
X77400153Y-147755319D01*
X77299154Y-147745000D01*
X77250000Y-147745000D01*
X77250000Y-149694999D01*
X77299140Y-149694999D01*
X77299154Y-149694998D01*
X77400152Y-149684680D01*
X77563800Y-149630453D01*
X77563811Y-149630448D01*
X77710534Y-149539947D01*
X77710538Y-149539944D01*
X77787141Y-149463342D01*
X77848464Y-149429857D01*
X77918156Y-149434841D01*
X77962503Y-149463342D01*
X78085272Y-149586111D01*
X78229869Y-149691167D01*
X78266994Y-149710083D01*
X78389115Y-149772307D01*
X78389117Y-149772307D01*
X78389120Y-149772309D01*
X78559103Y-149827541D01*
X78657175Y-149843073D01*
X78735630Y-149855500D01*
X78735634Y-149855500D01*
X78914370Y-149855500D01*
X78984978Y-149844316D01*
X79090897Y-149827541D01*
X79260880Y-149772309D01*
X79420131Y-149691167D01*
X79564728Y-149586111D01*
X79691111Y-149459728D01*
X79796167Y-149315131D01*
X79877309Y-149155880D01*
X79932541Y-148985897D01*
X79950765Y-148870835D01*
X79960500Y-148809370D01*
X79960500Y-148630629D01*
X79935059Y-148470000D01*
X79932541Y-148454103D01*
X79906635Y-148374375D01*
X79891569Y-148328005D01*
X79885500Y-148289687D01*
X79885500Y-144472135D01*
X82009500Y-144472135D01*
X82009500Y-148527870D01*
X82009501Y-148527876D01*
X82015908Y-148587483D01*
X82066202Y-148722328D01*
X82066206Y-148722335D01*
X82152452Y-148837544D01*
X82152455Y-148837547D01*
X82267664Y-148923793D01*
X82267671Y-148923797D01*
X82402517Y-148974091D01*
X82402516Y-148974091D01*
X82409444Y-148974835D01*
X82462127Y-148980500D01*
X84537872Y-148980499D01*
X84597483Y-148974091D01*
X84732331Y-148923796D01*
X84847546Y-148837546D01*
X84933796Y-148722331D01*
X84984091Y-148587483D01*
X84990500Y-148527873D01*
X84990499Y-145392695D01*
X87009500Y-145392695D01*
X87009500Y-147607304D01*
X87046201Y-147839027D01*
X87118697Y-148062150D01*
X87161934Y-148147007D01*
X87211864Y-148245000D01*
X87225212Y-148271195D01*
X87363104Y-148460989D01*
X87363108Y-148460994D01*
X87529005Y-148626891D01*
X87529010Y-148626895D01*
X87660364Y-148722328D01*
X87718808Y-148764790D01*
X87866416Y-148840000D01*
X87927849Y-148871302D01*
X88039410Y-148907550D01*
X88150974Y-148943799D01*
X88382695Y-148980500D01*
X88382696Y-148980500D01*
X88617304Y-148980500D01*
X88617305Y-148980500D01*
X88849026Y-148943799D01*
X89072153Y-148871301D01*
X89281192Y-148764790D01*
X89470996Y-148626890D01*
X89636890Y-148460996D01*
X89774790Y-148271192D01*
X89881301Y-148062153D01*
X89953799Y-147839026D01*
X89990500Y-147607305D01*
X89990500Y-145392734D01*
X92010000Y-145392734D01*
X92010000Y-146250000D01*
X92889175Y-146250000D01*
X92865364Y-146307485D01*
X92840000Y-146434996D01*
X92840000Y-146565004D01*
X92865364Y-146692515D01*
X92889175Y-146750000D01*
X92010000Y-146750000D01*
X92010000Y-147607265D01*
X92046689Y-147838909D01*
X92119164Y-148061965D01*
X92225638Y-148270930D01*
X92363494Y-148460672D01*
X92529327Y-148626505D01*
X92719069Y-148764361D01*
X92928036Y-148870835D01*
X93151089Y-148943310D01*
X93250000Y-148958976D01*
X93250000Y-147110824D01*
X93307485Y-147134636D01*
X93434996Y-147160000D01*
X93565004Y-147160000D01*
X93692515Y-147134636D01*
X93750000Y-147110824D01*
X93750000Y-148958975D01*
X93848909Y-148943310D01*
X93848912Y-148943310D01*
X94071963Y-148870835D01*
X94280930Y-148764361D01*
X94470672Y-148626505D01*
X94636505Y-148460672D01*
X94774361Y-148270930D01*
X94880835Y-148061965D01*
X94953310Y-147838909D01*
X94990000Y-147607265D01*
X94990000Y-146750000D01*
X94110825Y-146750000D01*
X94134636Y-146692515D01*
X94160000Y-146565004D01*
X94160000Y-146434996D01*
X94134636Y-146307485D01*
X94110825Y-146250000D01*
X94990000Y-146250000D01*
X94990000Y-145392734D01*
X94953310Y-145161090D01*
X94880835Y-144938034D01*
X94774361Y-144729069D01*
X94636505Y-144539327D01*
X94470672Y-144373494D01*
X94280930Y-144235638D01*
X94071963Y-144129164D01*
X93848905Y-144056688D01*
X93750000Y-144041022D01*
X93750000Y-145889175D01*
X93692515Y-145865364D01*
X93565004Y-145840000D01*
X93434996Y-145840000D01*
X93307485Y-145865364D01*
X93250000Y-145889175D01*
X93250000Y-144041022D01*
X93151094Y-144056688D01*
X93151093Y-144056688D01*
X92928036Y-144129164D01*
X92719069Y-144235638D01*
X92529327Y-144373494D01*
X92363494Y-144539327D01*
X92225638Y-144729069D01*
X92119164Y-144938034D01*
X92046689Y-145161090D01*
X92010000Y-145392734D01*
X89990500Y-145392734D01*
X89990500Y-145392695D01*
X89953799Y-145160974D01*
X89881301Y-144937847D01*
X89774790Y-144728808D01*
X89709784Y-144639334D01*
X89636895Y-144539010D01*
X89636891Y-144539005D01*
X89470994Y-144373108D01*
X89470989Y-144373104D01*
X89281195Y-144235212D01*
X89281194Y-144235211D01*
X89281192Y-144235210D01*
X89138397Y-144162452D01*
X89072150Y-144128697D01*
X88849027Y-144056201D01*
X88702471Y-144032989D01*
X88617305Y-144019500D01*
X88382695Y-144019500D01*
X88305454Y-144031733D01*
X88150972Y-144056201D01*
X87927849Y-144128697D01*
X87718804Y-144235212D01*
X87529010Y-144373104D01*
X87529005Y-144373108D01*
X87363108Y-144539005D01*
X87363104Y-144539010D01*
X87225212Y-144728804D01*
X87118697Y-144937849D01*
X87046201Y-145160972D01*
X87009500Y-145392695D01*
X84990499Y-145392695D01*
X84990499Y-144472128D01*
X84984091Y-144412517D01*
X84969536Y-144373494D01*
X84933797Y-144277671D01*
X84933793Y-144277664D01*
X84847547Y-144162455D01*
X84847544Y-144162452D01*
X84732335Y-144076206D01*
X84732328Y-144076202D01*
X84597482Y-144025908D01*
X84597483Y-144025908D01*
X84537883Y-144019501D01*
X84537881Y-144019500D01*
X84537873Y-144019500D01*
X84537864Y-144019500D01*
X82462129Y-144019500D01*
X82462123Y-144019501D01*
X82402516Y-144025908D01*
X82267671Y-144076202D01*
X82267664Y-144076206D01*
X82152455Y-144162452D01*
X82152452Y-144162455D01*
X82066206Y-144277664D01*
X82066202Y-144277671D01*
X82015908Y-144412517D01*
X82009501Y-144472116D01*
X82009501Y-144472123D01*
X82009500Y-144472135D01*
X79885500Y-144472135D01*
X79885500Y-144130634D01*
X79873711Y-144056201D01*
X79857540Y-143954103D01*
X79857539Y-143954099D01*
X79857539Y-143954098D01*
X79802310Y-143784121D01*
X79802308Y-143784118D01*
X79771506Y-143723664D01*
X79721167Y-143624868D01*
X79616111Y-143480272D01*
X79489728Y-143353889D01*
X79345132Y-143248833D01*
X79185881Y-143167691D01*
X79185878Y-143167689D01*
X79015899Y-143112460D01*
X78898209Y-143093820D01*
X78839366Y-143084500D01*
X78660634Y-143084500D01*
X78601790Y-143093820D01*
X78484101Y-143112460D01*
X78484098Y-143112460D01*
X78314121Y-143167689D01*
X78314118Y-143167691D01*
X78154867Y-143248833D01*
X78010270Y-143353890D01*
X77962680Y-143401480D01*
X77901357Y-143434964D01*
X77831665Y-143429979D01*
X77787320Y-143401480D01*
X77739731Y-143353892D01*
X77739729Y-143353890D01*
X77595132Y-143248833D01*
X77435881Y-143167691D01*
X77435878Y-143167689D01*
X77265899Y-143112460D01*
X77148209Y-143093820D01*
X77089366Y-143084500D01*
X77089365Y-143084500D01*
X73588960Y-143084500D01*
X73521921Y-143064815D01*
X73476166Y-143012011D01*
X73465602Y-142973106D01*
X73465600Y-142973086D01*
X73464999Y-142967203D01*
X73409814Y-142800666D01*
X73317712Y-142651344D01*
X73193656Y-142527288D01*
X73044334Y-142435186D01*
X72877797Y-142380001D01*
X72877795Y-142380000D01*
X72775010Y-142369500D01*
X71224998Y-142369500D01*
X71224981Y-142369501D01*
X71122203Y-142380000D01*
X71122200Y-142380001D01*
X70955668Y-142435185D01*
X70955663Y-142435187D01*
X70806341Y-142527290D01*
X70800681Y-142531766D01*
X70798886Y-142529495D01*
X70749128Y-142556666D01*
X70722770Y-142559500D01*
X67722711Y-142559500D01*
X67655672Y-142539815D01*
X67621136Y-142506623D01*
X67538494Y-142388597D01*
X67371402Y-142221506D01*
X67371396Y-142221501D01*
X67185842Y-142091575D01*
X67142217Y-142036998D01*
X67135023Y-141967500D01*
X67166546Y-141905145D01*
X67185842Y-141888425D01*
X67208026Y-141872891D01*
X67371401Y-141758495D01*
X67538495Y-141591401D01*
X67674035Y-141397830D01*
X67773903Y-141183663D01*
X67835063Y-140955408D01*
X67855659Y-140720000D01*
X67835063Y-140484592D01*
X67830558Y-140467779D01*
X67832219Y-140397932D01*
X67862649Y-140348006D01*
X70452099Y-137758557D01*
X70513418Y-137725075D01*
X70583110Y-137730059D01*
X70639043Y-137771931D01*
X70650260Y-137789945D01*
X70720377Y-137927555D01*
X70845272Y-138099459D01*
X70845276Y-138099464D01*
X70995535Y-138249723D01*
X70995540Y-138249727D01*
X71167442Y-138374620D01*
X71356782Y-138471095D01*
X71558872Y-138536757D01*
X71750000Y-138567029D01*
X71750000Y-137624145D01*
X71816657Y-137662630D01*
X71937465Y-137695000D01*
X72062535Y-137695000D01*
X72183343Y-137662630D01*
X72250000Y-137624145D01*
X72250000Y-138567028D01*
X72441127Y-138536757D01*
X72643217Y-138471095D01*
X72832557Y-138374620D01*
X72953633Y-138286654D01*
X81100001Y-138286654D01*
X81110319Y-138387652D01*
X81164546Y-138551300D01*
X81164551Y-138551311D01*
X81255052Y-138698034D01*
X81255055Y-138698038D01*
X81376961Y-138819944D01*
X81376965Y-138819947D01*
X81523688Y-138910448D01*
X81523699Y-138910453D01*
X81687347Y-138964680D01*
X81788351Y-138974999D01*
X81887500Y-138974998D01*
X81887500Y-138250000D01*
X81100001Y-138250000D01*
X81100001Y-138286654D01*
X72953633Y-138286654D01*
X73004459Y-138249727D01*
X73004464Y-138249723D01*
X73154723Y-138099464D01*
X73154727Y-138099459D01*
X73279620Y-137927557D01*
X73376095Y-137738217D01*
X73441757Y-137536129D01*
X73441757Y-137536126D01*
X73452231Y-137470000D01*
X72404146Y-137470000D01*
X72442630Y-137403343D01*
X72473896Y-137286654D01*
X75975001Y-137286654D01*
X75985319Y-137387652D01*
X76039546Y-137551300D01*
X76039551Y-137551311D01*
X76130052Y-137698034D01*
X76130055Y-137698038D01*
X76251961Y-137819944D01*
X76251965Y-137819947D01*
X76398688Y-137910448D01*
X76398699Y-137910453D01*
X76562347Y-137964680D01*
X76663351Y-137974999D01*
X76712499Y-137974998D01*
X76712500Y-137974998D01*
X76712500Y-137250000D01*
X75975001Y-137250000D01*
X75975001Y-137286654D01*
X72473896Y-137286654D01*
X72475000Y-137282535D01*
X72475000Y-137157465D01*
X72442630Y-137036657D01*
X72404146Y-136970000D01*
X73452231Y-136970000D01*
X73441757Y-136903873D01*
X73441757Y-136903870D01*
X73379852Y-136713345D01*
X75975000Y-136713345D01*
X75975000Y-136750000D01*
X76712500Y-136750000D01*
X76712500Y-136025000D01*
X76712499Y-136024999D01*
X76663361Y-136025000D01*
X76663343Y-136025001D01*
X76562347Y-136035319D01*
X76398699Y-136089546D01*
X76398688Y-136089551D01*
X76251965Y-136180052D01*
X76251961Y-136180055D01*
X76130055Y-136301961D01*
X76130052Y-136301965D01*
X76039551Y-136448688D01*
X76039546Y-136448699D01*
X75985319Y-136612347D01*
X75975000Y-136713345D01*
X73379852Y-136713345D01*
X73376095Y-136701782D01*
X73279620Y-136512442D01*
X73154727Y-136340540D01*
X73154723Y-136340535D01*
X73004464Y-136190276D01*
X73004459Y-136190272D01*
X72839781Y-136070627D01*
X72797115Y-136015297D01*
X72791136Y-135945684D01*
X72823741Y-135883889D01*
X72839776Y-135869994D01*
X73004792Y-135750104D01*
X73155104Y-135599792D01*
X73155106Y-135599788D01*
X73155109Y-135599786D01*
X73280048Y-135427820D01*
X73280047Y-135427820D01*
X73280051Y-135427816D01*
X73376557Y-135238412D01*
X73442246Y-135036243D01*
X73475500Y-134826287D01*
X73475500Y-134613713D01*
X73442246Y-134403757D01*
X73376557Y-134201588D01*
X73280051Y-134012184D01*
X73280049Y-134012181D01*
X73280048Y-134012179D01*
X73155111Y-133840216D01*
X73154957Y-133840036D01*
X73154919Y-133839953D01*
X73152241Y-133836266D01*
X73153015Y-133835703D01*
X73126384Y-133776276D01*
X73136818Y-133707190D01*
X73182946Y-133654712D01*
X73249244Y-133635500D01*
X77089365Y-133635500D01*
X77089366Y-133635500D01*
X77265897Y-133607540D01*
X77265900Y-133607539D01*
X77265901Y-133607539D01*
X77435878Y-133552310D01*
X77435878Y-133552309D01*
X77435881Y-133552309D01*
X77435883Y-133552307D01*
X77440384Y-133550444D01*
X77440983Y-133551891D01*
X77502870Y-133540267D01*
X77567611Y-133566541D01*
X77607870Y-133623646D01*
X77614500Y-133663648D01*
X77614500Y-135947052D01*
X77594815Y-136014091D01*
X77542011Y-136059846D01*
X77472853Y-136069790D01*
X77451497Y-136064758D01*
X77362653Y-136035319D01*
X77261654Y-136025000D01*
X77212500Y-136025000D01*
X77212500Y-137974999D01*
X77261640Y-137974999D01*
X77261654Y-137974998D01*
X77362652Y-137964680D01*
X77526300Y-137910453D01*
X77526311Y-137910448D01*
X77673034Y-137819947D01*
X77673038Y-137819944D01*
X77749641Y-137743342D01*
X77810964Y-137709857D01*
X77880656Y-137714841D01*
X77925003Y-137743342D01*
X78047772Y-137866111D01*
X78192369Y-137971167D01*
X78256319Y-138003751D01*
X78351615Y-138052307D01*
X78351617Y-138052307D01*
X78351620Y-138052309D01*
X78521603Y-138107541D01*
X78619675Y-138123073D01*
X78698130Y-138135500D01*
X78698134Y-138135500D01*
X78876870Y-138135500D01*
X78947478Y-138124316D01*
X79053397Y-138107541D01*
X79223380Y-138052309D01*
X79382631Y-137971167D01*
X79527228Y-137866111D01*
X79653611Y-137739728D01*
X79672779Y-137713345D01*
X81100000Y-137713345D01*
X81100000Y-137750000D01*
X81887500Y-137750000D01*
X81887500Y-137024999D01*
X81788360Y-137025000D01*
X81788344Y-137025001D01*
X81687347Y-137035319D01*
X81523699Y-137089546D01*
X81523688Y-137089551D01*
X81376965Y-137180052D01*
X81376961Y-137180055D01*
X81255055Y-137301961D01*
X81255052Y-137301965D01*
X81164551Y-137448688D01*
X81164546Y-137448699D01*
X81110319Y-137612347D01*
X81100000Y-137713345D01*
X79672779Y-137713345D01*
X79758667Y-137595131D01*
X79839809Y-137435880D01*
X79895041Y-137265897D01*
X79917998Y-137120950D01*
X79923000Y-137089370D01*
X79923000Y-136910629D01*
X79905453Y-136799843D01*
X79895041Y-136734103D01*
X79895039Y-136734098D01*
X79895039Y-136734095D01*
X79891570Y-136723418D01*
X79885500Y-136685098D01*
X79885500Y-132410634D01*
X79877710Y-132361452D01*
X79857540Y-132234103D01*
X79857539Y-132234099D01*
X79857539Y-132234098D01*
X79802310Y-132064121D01*
X79802308Y-132064118D01*
X79796192Y-132052113D01*
X79721167Y-131904868D01*
X79616111Y-131760272D01*
X79489728Y-131633889D01*
X79345132Y-131528833D01*
X79185881Y-131447691D01*
X79185878Y-131447689D01*
X79015899Y-131392460D01*
X78892635Y-131372937D01*
X78839366Y-131364500D01*
X78660634Y-131364500D01*
X78607365Y-131372937D01*
X78484101Y-131392460D01*
X78484098Y-131392460D01*
X78314121Y-131447689D01*
X78314118Y-131447691D01*
X78154867Y-131528833D01*
X78010270Y-131633890D01*
X77962680Y-131681480D01*
X77901357Y-131714964D01*
X77831665Y-131709979D01*
X77787320Y-131681480D01*
X77739731Y-131633892D01*
X77739729Y-131633890D01*
X77679814Y-131590359D01*
X77595132Y-131528833D01*
X77435881Y-131447691D01*
X77435878Y-131447689D01*
X77265899Y-131392460D01*
X77142635Y-131372937D01*
X77089366Y-131364500D01*
X77089365Y-131364500D01*
X73518394Y-131364500D01*
X73451355Y-131344815D01*
X73412855Y-131305597D01*
X73406664Y-131295559D01*
X73317712Y-131151344D01*
X73193656Y-131027288D01*
X73044334Y-130935186D01*
X72877797Y-130880001D01*
X72877795Y-130880000D01*
X72775010Y-130869500D01*
X71224998Y-130869500D01*
X71224981Y-130869501D01*
X71122203Y-130880000D01*
X71122200Y-130880001D01*
X70955668Y-130935185D01*
X70955663Y-130935187D01*
X70806342Y-131027289D01*
X70682289Y-131151342D01*
X70590187Y-131300663D01*
X70590186Y-131300666D01*
X70535001Y-131467203D01*
X70535001Y-131467204D01*
X70535000Y-131467204D01*
X70524500Y-131569983D01*
X70524500Y-132653480D01*
X70504815Y-132720519D01*
X70488181Y-132741161D01*
X70442181Y-132787161D01*
X70380858Y-132820646D01*
X70311166Y-132815662D01*
X70255233Y-132773790D01*
X70230816Y-132708326D01*
X70230500Y-132699480D01*
X70230500Y-123531518D01*
X70250185Y-123464479D01*
X70266813Y-123443842D01*
X70333259Y-123377396D01*
X70394578Y-123343914D01*
X70464270Y-123348898D01*
X70520204Y-123390769D01*
X70543410Y-123445682D01*
X70557753Y-123536239D01*
X70557754Y-123536243D01*
X70615716Y-123714632D01*
X70623444Y-123738414D01*
X70719951Y-123927820D01*
X70844890Y-124099786D01*
X70995209Y-124250105D01*
X70995214Y-124250109D01*
X71160218Y-124369991D01*
X71202884Y-124425320D01*
X71208863Y-124494934D01*
X71176258Y-124556729D01*
X71160218Y-124570627D01*
X70995540Y-124690272D01*
X70995535Y-124690276D01*
X70845276Y-124840535D01*
X70845272Y-124840540D01*
X70720379Y-125012442D01*
X70623904Y-125201782D01*
X70558242Y-125403870D01*
X70558242Y-125403873D01*
X70547769Y-125470000D01*
X71595854Y-125470000D01*
X71557370Y-125536657D01*
X71525000Y-125657465D01*
X71525000Y-125782535D01*
X71557370Y-125903343D01*
X71595854Y-125970000D01*
X70547769Y-125970000D01*
X70558242Y-126036126D01*
X70558242Y-126036129D01*
X70623904Y-126238217D01*
X70720379Y-126427557D01*
X70845272Y-126599459D01*
X70845276Y-126599464D01*
X70995535Y-126749723D01*
X70995540Y-126749727D01*
X71167442Y-126874620D01*
X71356782Y-126971095D01*
X71558872Y-127036757D01*
X71750000Y-127067029D01*
X71750000Y-126124145D01*
X71816657Y-126162630D01*
X71937465Y-126195000D01*
X72062535Y-126195000D01*
X72183343Y-126162630D01*
X72250000Y-126124145D01*
X72250000Y-127067028D01*
X72441127Y-127036757D01*
X72643217Y-126971095D01*
X72832557Y-126874620D01*
X73004459Y-126749727D01*
X73004464Y-126749723D01*
X73154723Y-126599464D01*
X73154727Y-126599459D01*
X73279620Y-126427557D01*
X73376095Y-126238217D01*
X73441757Y-126036129D01*
X73441757Y-126036126D01*
X73452231Y-125970000D01*
X72404146Y-125970000D01*
X72417625Y-125946654D01*
X76012501Y-125946654D01*
X76022819Y-126047652D01*
X76077046Y-126211300D01*
X76077051Y-126211311D01*
X76167552Y-126358034D01*
X76167555Y-126358038D01*
X76289461Y-126479944D01*
X76289465Y-126479947D01*
X76436188Y-126570448D01*
X76436199Y-126570453D01*
X76599847Y-126624680D01*
X76700851Y-126634999D01*
X76749999Y-126634998D01*
X76750000Y-126634998D01*
X76750000Y-125910000D01*
X76012501Y-125910000D01*
X76012501Y-125946654D01*
X72417625Y-125946654D01*
X72442630Y-125903343D01*
X72475000Y-125782535D01*
X72475000Y-125657465D01*
X72442630Y-125536657D01*
X72404146Y-125470000D01*
X73452231Y-125470000D01*
X73441757Y-125403873D01*
X73441757Y-125403870D01*
X73431839Y-125373345D01*
X76012500Y-125373345D01*
X76012500Y-125410000D01*
X76750000Y-125410000D01*
X76750000Y-124685000D01*
X76749999Y-124684999D01*
X76700861Y-124685000D01*
X76700843Y-124685001D01*
X76599847Y-124695319D01*
X76436199Y-124749546D01*
X76436188Y-124749551D01*
X76289465Y-124840052D01*
X76289461Y-124840055D01*
X76167555Y-124961961D01*
X76167552Y-124961965D01*
X76077051Y-125108688D01*
X76077046Y-125108699D01*
X76022819Y-125272347D01*
X76012500Y-125373345D01*
X73431839Y-125373345D01*
X73376095Y-125201782D01*
X73279620Y-125012442D01*
X73154727Y-124840540D01*
X73154723Y-124840535D01*
X73004464Y-124690276D01*
X73004459Y-124690272D01*
X72839781Y-124570627D01*
X72797115Y-124515297D01*
X72791136Y-124445684D01*
X72823741Y-124383889D01*
X72839776Y-124369994D01*
X73004792Y-124250104D01*
X73155104Y-124099792D01*
X73155106Y-124099788D01*
X73155109Y-124099786D01*
X73280048Y-123927820D01*
X73280047Y-123927820D01*
X73280051Y-123927816D01*
X73376557Y-123738412D01*
X73442246Y-123536243D01*
X73475500Y-123326287D01*
X73475500Y-123113713D01*
X73442246Y-122903757D01*
X73376557Y-122701588D01*
X73292080Y-122535793D01*
X73279185Y-122467126D01*
X73305461Y-122402385D01*
X73362568Y-122362128D01*
X73402566Y-122355500D01*
X77189365Y-122355500D01*
X77189366Y-122355500D01*
X77365897Y-122327540D01*
X77365900Y-122327539D01*
X77365901Y-122327539D01*
X77535878Y-122272310D01*
X77535878Y-122272309D01*
X77535881Y-122272309D01*
X77535883Y-122272307D01*
X77540384Y-122270444D01*
X77540983Y-122271891D01*
X77602870Y-122260267D01*
X77667611Y-122286541D01*
X77707870Y-122343646D01*
X77714500Y-122383648D01*
X77714500Y-124627763D01*
X77694815Y-124694802D01*
X77642011Y-124740557D01*
X77572853Y-124750501D01*
X77551496Y-124745469D01*
X77400152Y-124695319D01*
X77299154Y-124685000D01*
X77250000Y-124685000D01*
X77250000Y-126634999D01*
X77299140Y-126634999D01*
X77299154Y-126634998D01*
X77400152Y-126624680D01*
X77563800Y-126570453D01*
X77563811Y-126570448D01*
X77710534Y-126479947D01*
X77710538Y-126479944D01*
X77787141Y-126403342D01*
X77848464Y-126369857D01*
X77918156Y-126374841D01*
X77962503Y-126403342D01*
X78085272Y-126526111D01*
X78229869Y-126631167D01*
X78296555Y-126665145D01*
X78389115Y-126712307D01*
X78389117Y-126712307D01*
X78389120Y-126712309D01*
X78559103Y-126767541D01*
X78657175Y-126783073D01*
X78735630Y-126795500D01*
X78735634Y-126795500D01*
X78914370Y-126795500D01*
X78984978Y-126784316D01*
X79090897Y-126767541D01*
X79260880Y-126712309D01*
X79420131Y-126631167D01*
X79564728Y-126526111D01*
X79587819Y-126503019D01*
X79649142Y-126469535D01*
X79718834Y-126474519D01*
X79774767Y-126516391D01*
X79799184Y-126581855D01*
X79799500Y-126590701D01*
X79799500Y-127158481D01*
X79779815Y-127225520D01*
X79763181Y-127246162D01*
X78746162Y-128263181D01*
X78684839Y-128296666D01*
X78658481Y-128299500D01*
X71925494Y-128299500D01*
X71859523Y-128280494D01*
X71849525Y-128274212D01*
X71679254Y-128214631D01*
X71679249Y-128214630D01*
X71500004Y-128194435D01*
X71499996Y-128194435D01*
X71320750Y-128214630D01*
X71320745Y-128214631D01*
X71150476Y-128274211D01*
X70997737Y-128370184D01*
X70870184Y-128497737D01*
X70774211Y-128650476D01*
X70714631Y-128820745D01*
X70714630Y-128820750D01*
X70694435Y-128999996D01*
X70694435Y-129000003D01*
X70714630Y-129179249D01*
X70714631Y-129179254D01*
X70774211Y-129349523D01*
X70844658Y-129461638D01*
X70870184Y-129502262D01*
X70997738Y-129629816D01*
X71060904Y-129669506D01*
X71150474Y-129725787D01*
X71150478Y-129725789D01*
X71320739Y-129785366D01*
X71320745Y-129785368D01*
X71320750Y-129785369D01*
X71499996Y-129805565D01*
X71500000Y-129805565D01*
X71500004Y-129805565D01*
X71679249Y-129785369D01*
X71679252Y-129785368D01*
X71679255Y-129785368D01*
X71849522Y-129725789D01*
X71851591Y-129724489D01*
X71859523Y-129719506D01*
X71925494Y-129700500D01*
X79068996Y-129700500D01*
X79160040Y-129682389D01*
X79204328Y-129673580D01*
X79272279Y-129645434D01*
X79331807Y-129620777D01*
X79331808Y-129620776D01*
X79331811Y-129620775D01*
X79446543Y-129544114D01*
X80387819Y-128602836D01*
X80449142Y-128569352D01*
X80518833Y-128574336D01*
X80574767Y-128616207D01*
X80599184Y-128681672D01*
X80599500Y-128690518D01*
X80599500Y-135051503D01*
X80619192Y-135150497D01*
X80619192Y-135150498D01*
X80624497Y-135177169D01*
X80624498Y-135177173D01*
X80624499Y-135177176D01*
X80673535Y-135295559D01*
X80697891Y-135332011D01*
X80744726Y-135402105D01*
X81347893Y-136005272D01*
X81347900Y-136005278D01*
X81445513Y-136070500D01*
X81454442Y-136076466D01*
X81523789Y-136105189D01*
X81572824Y-136125501D01*
X81572827Y-136125501D01*
X81572828Y-136125502D01*
X81698496Y-136150500D01*
X81698499Y-136150500D01*
X84301503Y-136150500D01*
X84386047Y-136133682D01*
X84427176Y-136125501D01*
X84516802Y-136088376D01*
X84586268Y-136080908D01*
X84648747Y-136112183D01*
X84684400Y-136172271D01*
X84681907Y-136242096D01*
X84651933Y-136290619D01*
X83954371Y-136988181D01*
X83893048Y-137021666D01*
X83866690Y-137024500D01*
X83513330Y-137024500D01*
X83513312Y-137024501D01*
X83412247Y-137034825D01*
X83248484Y-137089092D01*
X83248481Y-137089093D01*
X83101648Y-137179661D01*
X83087325Y-137193984D01*
X83026001Y-137227468D01*
X82956309Y-137222482D01*
X82911965Y-137193982D01*
X82898038Y-137180055D01*
X82898034Y-137180052D01*
X82751311Y-137089551D01*
X82751300Y-137089546D01*
X82587652Y-137035319D01*
X82486654Y-137025000D01*
X82387500Y-137025000D01*
X82387500Y-138974999D01*
X82486640Y-138974999D01*
X82486654Y-138974998D01*
X82587652Y-138964680D01*
X82751300Y-138910453D01*
X82751311Y-138910448D01*
X82898035Y-138819947D01*
X82911960Y-138806021D01*
X82973282Y-138772533D01*
X83042973Y-138777514D01*
X83087327Y-138806017D01*
X83101650Y-138820340D01*
X83248484Y-138910908D01*
X83412247Y-138965174D01*
X83513323Y-138975500D01*
X84211676Y-138975499D01*
X84211684Y-138975498D01*
X84211687Y-138975498D01*
X84267030Y-138969844D01*
X84312753Y-138965174D01*
X84476516Y-138910908D01*
X84623350Y-138820340D01*
X84745340Y-138698350D01*
X84835908Y-138551516D01*
X84890174Y-138387753D01*
X84900500Y-138286677D01*
X84900499Y-137933306D01*
X84920183Y-137866268D01*
X84936813Y-137845631D01*
X89830277Y-132952169D01*
X89830282Y-132952161D01*
X89834143Y-132947458D01*
X89835951Y-132948941D01*
X89881592Y-132910794D01*
X89931089Y-132900487D01*
X90068943Y-132900487D01*
X90135982Y-132920172D01*
X90181737Y-132972976D01*
X90191681Y-133042134D01*
X90162656Y-133105690D01*
X90143254Y-133123754D01*
X90117809Y-133142802D01*
X90031649Y-133257895D01*
X90031645Y-133257902D01*
X89981403Y-133392609D01*
X89981401Y-133392616D01*
X89975000Y-133452144D01*
X89975000Y-133899989D01*
X91750000Y-133899989D01*
X91750000Y-132999989D01*
X90881224Y-132999989D01*
X90814185Y-132980304D01*
X90768430Y-132927500D01*
X90758486Y-132858342D01*
X90787511Y-132794786D01*
X90806908Y-132776726D01*
X90832546Y-132757534D01*
X90918796Y-132642319D01*
X90969091Y-132507471D01*
X90975500Y-132447861D01*
X90975499Y-132052116D01*
X90973954Y-132037743D01*
X90986361Y-131968984D01*
X91033971Y-131917847D01*
X91097244Y-131900489D01*
X91883738Y-131900489D01*
X91950777Y-131920174D01*
X91971419Y-131936808D01*
X92822919Y-132788308D01*
X92856404Y-132849631D01*
X92851420Y-132919323D01*
X92809548Y-132975256D01*
X92744084Y-132999673D01*
X92735238Y-132999989D01*
X92250000Y-132999989D01*
X92250000Y-134170500D01*
X92230315Y-134237539D01*
X92177511Y-134283294D01*
X92126000Y-134294500D01*
X90474997Y-134294500D01*
X90403059Y-134299644D01*
X90265005Y-134340182D01*
X90202576Y-134380304D01*
X90135537Y-134399989D01*
X89975000Y-134399989D01*
X89975000Y-134752877D01*
X89973738Y-134770523D01*
X89969500Y-134799998D01*
X89969500Y-135900002D01*
X89974644Y-135971940D01*
X90000457Y-136059846D01*
X90013320Y-136103655D01*
X90015182Y-136109994D01*
X90092967Y-136231030D01*
X90092971Y-136231034D01*
X90174829Y-136301965D01*
X90201706Y-136325254D01*
X90235167Y-136340535D01*
X90332580Y-136385023D01*
X90332583Y-136385023D01*
X90332584Y-136385024D01*
X90475000Y-136405500D01*
X90475003Y-136405500D01*
X92675000Y-136405500D01*
X92746940Y-136400355D01*
X92884992Y-136359819D01*
X93006032Y-136282031D01*
X93100254Y-136173294D01*
X93144476Y-136076462D01*
X93160023Y-136042419D01*
X93160024Y-136042414D01*
X93161044Y-136035319D01*
X93180500Y-135900000D01*
X93180500Y-135423989D01*
X93200185Y-135356950D01*
X93252989Y-135311195D01*
X93304500Y-135299989D01*
X93572828Y-135299989D01*
X93572844Y-135299988D01*
X93632372Y-135293587D01*
X93632379Y-135293585D01*
X93767086Y-135243343D01*
X93767093Y-135243339D01*
X93882187Y-135157179D01*
X93882190Y-135157176D01*
X93968350Y-135042082D01*
X93968354Y-135042075D01*
X94018596Y-134907368D01*
X94018598Y-134907361D01*
X94024999Y-134847833D01*
X94025000Y-134847816D01*
X94025000Y-134289751D01*
X94044685Y-134222712D01*
X94097489Y-134176957D01*
X94166647Y-134167013D01*
X94230203Y-134196038D01*
X94236681Y-134202070D01*
X97950681Y-137916070D01*
X97984166Y-137977393D01*
X97987000Y-138003751D01*
X97987000Y-138741128D01*
X98002757Y-138820340D01*
X98002757Y-138820341D01*
X98011996Y-138866794D01*
X98011998Y-138866799D01*
X98061034Y-138985182D01*
X98132226Y-139091730D01*
X98132227Y-139091731D01*
X98762534Y-139722037D01*
X98796019Y-139783360D01*
X98791035Y-139853051D01*
X98776428Y-139880841D01*
X98663465Y-140042169D01*
X98663464Y-140042171D01*
X98563598Y-140256335D01*
X98563594Y-140256344D01*
X98502438Y-140484586D01*
X98502436Y-140484596D01*
X98481841Y-140719999D01*
X98481841Y-140720000D01*
X98502436Y-140955403D01*
X98502438Y-140955413D01*
X98563594Y-141183655D01*
X98563596Y-141183659D01*
X98563597Y-141183663D01*
X98663465Y-141397830D01*
X98663467Y-141397834D01*
X98799001Y-141591395D01*
X98799006Y-141591402D01*
X98966097Y-141758493D01*
X98966103Y-141758498D01*
X99151658Y-141888425D01*
X99195283Y-141943002D01*
X99202477Y-142012500D01*
X99170954Y-142074855D01*
X99151658Y-142091575D01*
X98966097Y-142221505D01*
X98799005Y-142388597D01*
X98663465Y-142582169D01*
X98663464Y-142582171D01*
X98563598Y-142796335D01*
X98563594Y-142796344D01*
X98502438Y-143024586D01*
X98502436Y-143024596D01*
X98481841Y-143259999D01*
X98481841Y-143260000D01*
X98502436Y-143495403D01*
X98502438Y-143495413D01*
X98563594Y-143723655D01*
X98563596Y-143723659D01*
X98563597Y-143723663D01*
X98591789Y-143784121D01*
X98663465Y-143937830D01*
X98663467Y-143937834D01*
X98799001Y-144131395D01*
X98799006Y-144131402D01*
X98966097Y-144298493D01*
X98966103Y-144298498D01*
X99151658Y-144428425D01*
X99195283Y-144483002D01*
X99202477Y-144552500D01*
X99170954Y-144614855D01*
X99151658Y-144631575D01*
X98966097Y-144761505D01*
X98799005Y-144928597D01*
X98663465Y-145122169D01*
X98663464Y-145122171D01*
X98563598Y-145336335D01*
X98563594Y-145336344D01*
X98502438Y-145564586D01*
X98502436Y-145564596D01*
X98481841Y-145799999D01*
X98481841Y-145800000D01*
X98502436Y-146035403D01*
X98502438Y-146035413D01*
X98563594Y-146263655D01*
X98563596Y-146263659D01*
X98563597Y-146263663D01*
X98643491Y-146434996D01*
X98663465Y-146477830D01*
X98663467Y-146477834D01*
X98704363Y-146536239D01*
X98799005Y-146671401D01*
X98966099Y-146838495D01*
X99093662Y-146927816D01*
X99152094Y-146968730D01*
X99195719Y-147023307D01*
X99202913Y-147092805D01*
X99171390Y-147155160D01*
X99152095Y-147171880D01*
X98966422Y-147301890D01*
X98966420Y-147301891D01*
X98799391Y-147468920D01*
X98799386Y-147468926D01*
X98663900Y-147662420D01*
X98663899Y-147662422D01*
X98564070Y-147876507D01*
X98564067Y-147876513D01*
X98506864Y-148089999D01*
X98506864Y-148090000D01*
X99404488Y-148090000D01*
X99371575Y-148147007D01*
X99337500Y-148274174D01*
X99337500Y-148405826D01*
X99371575Y-148532993D01*
X99404488Y-148590000D01*
X98506864Y-148590000D01*
X98564067Y-148803486D01*
X98564070Y-148803492D01*
X98663899Y-149017578D01*
X98799394Y-149211082D01*
X98966417Y-149378105D01*
X99159921Y-149513600D01*
X99374007Y-149613429D01*
X99374016Y-149613433D01*
X99587500Y-149670634D01*
X99587500Y-148773012D01*
X99644507Y-148805925D01*
X99771674Y-148840000D01*
X99903326Y-148840000D01*
X100030493Y-148805925D01*
X100087500Y-148773012D01*
X100087500Y-149670633D01*
X100300983Y-149613433D01*
X100300992Y-149613429D01*
X100515078Y-149513600D01*
X100708582Y-149378105D01*
X100875605Y-149211082D01*
X101011100Y-149017578D01*
X101110929Y-148803492D01*
X101110932Y-148803486D01*
X101168136Y-148590000D01*
X100270512Y-148590000D01*
X100303425Y-148532993D01*
X100337500Y-148405826D01*
X100337500Y-148274174D01*
X100303425Y-148147007D01*
X100270512Y-148090000D01*
X101168136Y-148090000D01*
X101168135Y-148089999D01*
X101110932Y-147876513D01*
X101110929Y-147876507D01*
X101011100Y-147662422D01*
X101011099Y-147662420D01*
X100875613Y-147468926D01*
X100875608Y-147468920D01*
X100708578Y-147301890D01*
X100522905Y-147171879D01*
X100479280Y-147117302D01*
X100472088Y-147047804D01*
X100503610Y-146985449D01*
X100522906Y-146968730D01*
X100708901Y-146838495D01*
X100875995Y-146671401D01*
X101011535Y-146477830D01*
X101111403Y-146263663D01*
X101172563Y-146035408D01*
X101193159Y-145800000D01*
X101172563Y-145564592D01*
X101116538Y-145355500D01*
X101111405Y-145336344D01*
X101111404Y-145336343D01*
X101111403Y-145336337D01*
X101011535Y-145122171D01*
X100882602Y-144938034D01*
X100875994Y-144928597D01*
X100708902Y-144761506D01*
X100708896Y-144761501D01*
X100523342Y-144631575D01*
X100479717Y-144576998D01*
X100472523Y-144507500D01*
X100504046Y-144445145D01*
X100523342Y-144428425D01*
X100602340Y-144373110D01*
X100708901Y-144298495D01*
X100875995Y-144131401D01*
X101011535Y-143937830D01*
X101111403Y-143723663D01*
X101172563Y-143495408D01*
X101193159Y-143260000D01*
X101172563Y-143024592D01*
X101126126Y-142851285D01*
X101111405Y-142796344D01*
X101111404Y-142796343D01*
X101111403Y-142796337D01*
X101011535Y-142582171D01*
X100993677Y-142556666D01*
X100875994Y-142388597D01*
X100708902Y-142221506D01*
X100708896Y-142221501D01*
X100523342Y-142091575D01*
X100479717Y-142036998D01*
X100472523Y-141967500D01*
X100504046Y-141905145D01*
X100523342Y-141888425D01*
X100545526Y-141872891D01*
X100708901Y-141758495D01*
X100875995Y-141591401D01*
X101011535Y-141397830D01*
X101111403Y-141183663D01*
X101172563Y-140955408D01*
X101193159Y-140720000D01*
X101172563Y-140484592D01*
X101111403Y-140256337D01*
X101011535Y-140042171D01*
X101011534Y-140042169D01*
X100898571Y-139880840D01*
X100876244Y-139814634D01*
X100893254Y-139746867D01*
X100912461Y-139722040D01*
X107505277Y-133129226D01*
X107576465Y-133022684D01*
X107625501Y-132904301D01*
X107625501Y-132904297D01*
X107625503Y-132904294D01*
X107633400Y-132864593D01*
X107633400Y-132864592D01*
X107650500Y-132778628D01*
X107650500Y-109718428D01*
X107625502Y-109592761D01*
X107625501Y-109592760D01*
X107625501Y-109592756D01*
X107612997Y-109562569D01*
X107597723Y-109525693D01*
X107576469Y-109474381D01*
X107576468Y-109474380D01*
X107576466Y-109474374D01*
X107517776Y-109386538D01*
X107505278Y-109367832D01*
X107505272Y-109367825D01*
X101185209Y-103047763D01*
X101151724Y-102986440D01*
X101153115Y-102927989D01*
X101160547Y-102900251D01*
X101172563Y-102855408D01*
X101193159Y-102620000D01*
X101172563Y-102384592D01*
X101111403Y-102156337D01*
X101011535Y-101942171D01*
X101007204Y-101935986D01*
X100875996Y-101748600D01*
X100835564Y-101708168D01*
X100754067Y-101626671D01*
X100720584Y-101565351D01*
X100725568Y-101495659D01*
X100767439Y-101439725D01*
X100798415Y-101422810D01*
X100929831Y-101373796D01*
X101045046Y-101287546D01*
X101131296Y-101172331D01*
X101181591Y-101037483D01*
X101188000Y-100977873D01*
X101187999Y-99182128D01*
X101181591Y-99122517D01*
X101131296Y-98987669D01*
X101131295Y-98987668D01*
X101131293Y-98987664D01*
X101045047Y-98872455D01*
X101045044Y-98872452D01*
X100929835Y-98786206D01*
X100929828Y-98786202D01*
X100794982Y-98735908D01*
X100794983Y-98735908D01*
X100735383Y-98729501D01*
X100735381Y-98729500D01*
X100735373Y-98729500D01*
X100735364Y-98729500D01*
X98939629Y-98729500D01*
X98939623Y-98729501D01*
X98880016Y-98735908D01*
X98745171Y-98786202D01*
X98745164Y-98786206D01*
X98629955Y-98872452D01*
X98629952Y-98872455D01*
X98543706Y-98987664D01*
X98543702Y-98987671D01*
X98493408Y-99122517D01*
X98487001Y-99182116D01*
X98487001Y-99182123D01*
X98487000Y-99182135D01*
X98487000Y-100977870D01*
X98487001Y-100977876D01*
X98493408Y-101037483D01*
X98543702Y-101172328D01*
X98543706Y-101172335D01*
X98629952Y-101287544D01*
X98629955Y-101287547D01*
X98745164Y-101373793D01*
X98745171Y-101373797D01*
X98876581Y-101422810D01*
X98932515Y-101464681D01*
X98956932Y-101530145D01*
X98942080Y-101598418D01*
X98920930Y-101626673D01*
X98799003Y-101748600D01*
X98663465Y-101942169D01*
X98663464Y-101942171D01*
X98563598Y-102156335D01*
X98563594Y-102156344D01*
X98502438Y-102384586D01*
X98502436Y-102384596D01*
X98481841Y-102619999D01*
X98481841Y-102620000D01*
X98502436Y-102855403D01*
X98502438Y-102855413D01*
X98563594Y-103083655D01*
X98563596Y-103083659D01*
X98563597Y-103083663D01*
X98622906Y-103210851D01*
X98663465Y-103297830D01*
X98663467Y-103297834D01*
X98799001Y-103491395D01*
X98799006Y-103491402D01*
X98966097Y-103658493D01*
X98966103Y-103658498D01*
X99151658Y-103788425D01*
X99195283Y-103843002D01*
X99202477Y-103912500D01*
X99170954Y-103974855D01*
X99151658Y-103991575D01*
X98966097Y-104121505D01*
X98799005Y-104288597D01*
X98663465Y-104482169D01*
X98663464Y-104482171D01*
X98563598Y-104696335D01*
X98563594Y-104696344D01*
X98502438Y-104924586D01*
X98502436Y-104924596D01*
X98481841Y-105159999D01*
X98481841Y-105160000D01*
X98502436Y-105395403D01*
X98502438Y-105395413D01*
X98563594Y-105623655D01*
X98563597Y-105623664D01*
X98586648Y-105673095D01*
X98597140Y-105742172D01*
X98568621Y-105805956D01*
X98510144Y-105844196D01*
X98474266Y-105849500D01*
X98320808Y-105849500D01*
X98253769Y-105829815D01*
X98233127Y-105813181D01*
X96764674Y-104344727D01*
X96764673Y-104344726D01*
X96680669Y-104288597D01*
X96658127Y-104273535D01*
X96539744Y-104224499D01*
X96539738Y-104224497D01*
X96414071Y-104199500D01*
X96414069Y-104199500D01*
X95921843Y-104199500D01*
X95854804Y-104179815D01*
X95809049Y-104127011D01*
X95798623Y-104061617D01*
X95805565Y-104000003D01*
X95805565Y-103999996D01*
X95785369Y-103820750D01*
X95785366Y-103820737D01*
X95725790Y-103650479D01*
X95719506Y-103640478D01*
X95700500Y-103574507D01*
X95700500Y-101843505D01*
X95689687Y-101789148D01*
X95681621Y-101748599D01*
X95673580Y-101708172D01*
X95620775Y-101580689D01*
X95544114Y-101465957D01*
X95544112Y-101465954D01*
X94874318Y-100796160D01*
X94840833Y-100734837D01*
X94837999Y-100708479D01*
X94837999Y-100425830D01*
X94837998Y-100425813D01*
X94827674Y-100324747D01*
X94773408Y-100160984D01*
X94682840Y-100014150D01*
X94560850Y-99892160D01*
X94414016Y-99801592D01*
X94250253Y-99747326D01*
X94250251Y-99747325D01*
X94149178Y-99737000D01*
X93575830Y-99737000D01*
X93575812Y-99737001D01*
X93474747Y-99747325D01*
X93310984Y-99801592D01*
X93310981Y-99801593D01*
X93164148Y-99892161D01*
X93042161Y-100014148D01*
X93042160Y-100014150D01*
X93041266Y-100015598D01*
X93040395Y-100016382D01*
X93037679Y-100019817D01*
X93037092Y-100019352D01*
X92989320Y-100062321D01*
X92935729Y-100074500D01*
X90457611Y-100074500D01*
X90390572Y-100054815D01*
X90352072Y-100015596D01*
X90320340Y-99964150D01*
X90198351Y-99842161D01*
X90198350Y-99842160D01*
X90051516Y-99751592D01*
X89887753Y-99697326D01*
X89887751Y-99697325D01*
X89786684Y-99687000D01*
X89786677Y-99687000D01*
X89624730Y-99687000D01*
X89557691Y-99667315D01*
X89537049Y-99650681D01*
X84199319Y-94312951D01*
X84165834Y-94251628D01*
X84163000Y-94225270D01*
X84163000Y-88532052D01*
X84182685Y-88465013D01*
X84199319Y-88444371D01*
X84199801Y-88443889D01*
X84245340Y-88398350D01*
X84335908Y-88251516D01*
X84390174Y-88087753D01*
X84400500Y-87986677D01*
X84400499Y-87413324D01*
X84390174Y-87312247D01*
X84335908Y-87148484D01*
X84325000Y-87130799D01*
X84268961Y-87039944D01*
X84250500Y-86974848D01*
X84250500Y-84543797D01*
X84258317Y-84500466D01*
X84298891Y-84391683D01*
X84305300Y-84332073D01*
X84305299Y-83067928D01*
X84298891Y-83008317D01*
X84248596Y-82873469D01*
X84248595Y-82873468D01*
X84248593Y-82873464D01*
X84162347Y-82758255D01*
X84162344Y-82758252D01*
X84047135Y-82672006D01*
X84047128Y-82672002D01*
X83912282Y-82621708D01*
X83912283Y-82621708D01*
X83852683Y-82615301D01*
X83852681Y-82615300D01*
X83852673Y-82615300D01*
X83852665Y-82615300D01*
X83528030Y-82615300D01*
X83460991Y-82595615D01*
X83440349Y-82578981D01*
X83200053Y-82338685D01*
X83166568Y-82277362D01*
X83171552Y-82207670D01*
X83207246Y-82159989D01*
X83206074Y-82158817D01*
X83212341Y-82152548D01*
X83212345Y-82152546D01*
X83298595Y-82037331D01*
X83298595Y-82037328D01*
X83302843Y-82029551D01*
X83305198Y-82030837D01*
X83338729Y-81986039D01*
X83404191Y-81961617D01*
X83413047Y-81961300D01*
X88850500Y-81961300D01*
X88917539Y-81980985D01*
X88963294Y-82033789D01*
X88974500Y-82085300D01*
X88974500Y-89414281D01*
X88954815Y-89481320D01*
X88913621Y-89521013D01*
X88810638Y-89581916D01*
X88810629Y-89581923D01*
X88694423Y-89698129D01*
X88694417Y-89698137D01*
X88610755Y-89839603D01*
X88610754Y-89839606D01*
X88564902Y-89997426D01*
X88564901Y-89997432D01*
X88562000Y-90034298D01*
X88562000Y-90465701D01*
X88564901Y-90502567D01*
X88564902Y-90502573D01*
X88610754Y-90660393D01*
X88610755Y-90660396D01*
X88610756Y-90660398D01*
X88619391Y-90674999D01*
X88694417Y-90801862D01*
X88694423Y-90801870D01*
X88810629Y-90918076D01*
X88810633Y-90918079D01*
X88810635Y-90918081D01*
X88952102Y-91001744D01*
X88980402Y-91009965D01*
X89039288Y-91047571D01*
X89056532Y-91075399D01*
X89057046Y-91075125D01*
X89059920Y-91080502D01*
X89090375Y-91126080D01*
X89090376Y-91126083D01*
X89090377Y-91126083D01*
X89139886Y-91200181D01*
X89142051Y-91203420D01*
X89142052Y-91203421D01*
X89488181Y-91549548D01*
X89521666Y-91610871D01*
X89524500Y-91637229D01*
X89524500Y-95817948D01*
X89504815Y-95884987D01*
X89488181Y-95905629D01*
X89392161Y-96001648D01*
X89301593Y-96148481D01*
X89301591Y-96148486D01*
X89274219Y-96231088D01*
X89247326Y-96312247D01*
X89247326Y-96312248D01*
X89247325Y-96312248D01*
X89237000Y-96413315D01*
X89237000Y-96986669D01*
X89237001Y-96986687D01*
X89247325Y-97087752D01*
X89283609Y-97197249D01*
X89301592Y-97251516D01*
X89392160Y-97398350D01*
X89514150Y-97520340D01*
X89660984Y-97610908D01*
X89824747Y-97665174D01*
X89925823Y-97675500D01*
X90624176Y-97675499D01*
X90624184Y-97675498D01*
X90624187Y-97675498D01*
X90679530Y-97669844D01*
X90725253Y-97665174D01*
X90889016Y-97610908D01*
X91035850Y-97520340D01*
X91050171Y-97506018D01*
X91111489Y-97472533D01*
X91181181Y-97477514D01*
X91225534Y-97506017D01*
X91239461Y-97519944D01*
X91239465Y-97519947D01*
X91386188Y-97610448D01*
X91386199Y-97610453D01*
X91549847Y-97664680D01*
X91650851Y-97674999D01*
X92250000Y-97674999D01*
X92349140Y-97674999D01*
X92349154Y-97674998D01*
X92450152Y-97664680D01*
X92613800Y-97610453D01*
X92613811Y-97610448D01*
X92760534Y-97519947D01*
X92760538Y-97519944D01*
X92882444Y-97398038D01*
X92882447Y-97398034D01*
X92972948Y-97251311D01*
X92972953Y-97251300D01*
X93027180Y-97087652D01*
X93037499Y-96986654D01*
X93037500Y-96986641D01*
X93037500Y-96950000D01*
X92250000Y-96950000D01*
X92250000Y-97674999D01*
X91650851Y-97674999D01*
X91750000Y-97674998D01*
X91750000Y-96450000D01*
X92250000Y-96450000D01*
X93037499Y-96450000D01*
X93037499Y-96413360D01*
X93037498Y-96413345D01*
X93027180Y-96312347D01*
X92972953Y-96148699D01*
X92972948Y-96148688D01*
X92882447Y-96001965D01*
X92882444Y-96001961D01*
X92760538Y-95880055D01*
X92760534Y-95880052D01*
X92613811Y-95789551D01*
X92613800Y-95789546D01*
X92450152Y-95735319D01*
X92349154Y-95725000D01*
X92250000Y-95725000D01*
X92250000Y-96450000D01*
X91750000Y-96450000D01*
X91750000Y-95724999D01*
X91650860Y-95725000D01*
X91650844Y-95725001D01*
X91549847Y-95735319D01*
X91386199Y-95789546D01*
X91386188Y-95789551D01*
X91239465Y-95880052D01*
X91239458Y-95880058D01*
X91237175Y-95882341D01*
X91235224Y-95883406D01*
X91233799Y-95884533D01*
X91233606Y-95884289D01*
X91175850Y-95915822D01*
X91106159Y-95910833D01*
X91050228Y-95868958D01*
X91025815Y-95803492D01*
X91025500Y-95794654D01*
X91025500Y-92049331D01*
X91045185Y-91982292D01*
X91097989Y-91936537D01*
X91167147Y-91926593D01*
X91212623Y-91942600D01*
X91227305Y-91951283D01*
X91385004Y-91997099D01*
X91385010Y-91997100D01*
X91421850Y-91999999D01*
X91421866Y-92000000D01*
X91750000Y-92000000D01*
X92250000Y-92000000D01*
X92578134Y-92000000D01*
X92578149Y-91999999D01*
X92614989Y-91997100D01*
X92614995Y-91997099D01*
X92772693Y-91951283D01*
X92772696Y-91951282D01*
X92914052Y-91867685D01*
X92914061Y-91867678D01*
X93030178Y-91751561D01*
X93030185Y-91751552D01*
X93113781Y-91610198D01*
X93159600Y-91452486D01*
X93159795Y-91450001D01*
X93159795Y-91450000D01*
X92250000Y-91450000D01*
X92250000Y-92000000D01*
X91750000Y-92000000D01*
X91750000Y-90950000D01*
X92250000Y-90950000D01*
X93159795Y-90950000D01*
X93159795Y-90949998D01*
X93159600Y-90947513D01*
X93113781Y-90789801D01*
X93030185Y-90648447D01*
X93030178Y-90648438D01*
X92914061Y-90532321D01*
X92914052Y-90532314D01*
X92772696Y-90448717D01*
X92772693Y-90448716D01*
X92614995Y-90402900D01*
X92614989Y-90402899D01*
X92578149Y-90400000D01*
X92250000Y-90400000D01*
X92250000Y-90950000D01*
X91750000Y-90950000D01*
X91750000Y-90400000D01*
X91421850Y-90400000D01*
X91385010Y-90402899D01*
X91385004Y-90402900D01*
X91227306Y-90448716D01*
X91227303Y-90448717D01*
X91079229Y-90536288D01*
X91078211Y-90534566D01*
X91022955Y-90556257D01*
X90954438Y-90542572D01*
X90904197Y-90494017D01*
X90888000Y-90432742D01*
X90888000Y-90067895D01*
X90907685Y-90000856D01*
X90960489Y-89955101D01*
X91029647Y-89945157D01*
X91077996Y-89965671D01*
X91078920Y-89964110D01*
X91085635Y-89968081D01*
X91227102Y-90051744D01*
X91239769Y-90055424D01*
X91384926Y-90097597D01*
X91384929Y-90097597D01*
X91384931Y-90097598D01*
X91421806Y-90100500D01*
X91421814Y-90100500D01*
X92578186Y-90100500D01*
X92578194Y-90100500D01*
X92615069Y-90097598D01*
X92615071Y-90097597D01*
X92615073Y-90097597D01*
X92760233Y-90055424D01*
X92794828Y-90050500D01*
X96645440Y-90050500D01*
X96712479Y-90070185D01*
X96758234Y-90122989D01*
X96763146Y-90135495D01*
X96801520Y-90251300D01*
X96801592Y-90251515D01*
X96801593Y-90251518D01*
X96892161Y-90398351D01*
X96988181Y-90494371D01*
X97021666Y-90555694D01*
X97024500Y-90582052D01*
X97024500Y-91700028D01*
X97017542Y-91740982D01*
X96989631Y-91820747D01*
X96969435Y-91999996D01*
X96969435Y-92000000D01*
X96989630Y-92179249D01*
X96989631Y-92179254D01*
X97017542Y-92259017D01*
X97024500Y-92299972D01*
X97024500Y-93317948D01*
X97004815Y-93384987D01*
X96988181Y-93405629D01*
X96892161Y-93501648D01*
X96801593Y-93648481D01*
X96801591Y-93648486D01*
X96774219Y-93731088D01*
X96747326Y-93812247D01*
X96747326Y-93812248D01*
X96747325Y-93812248D01*
X96737000Y-93913315D01*
X96737000Y-94486669D01*
X96737001Y-94486687D01*
X96747325Y-94587752D01*
X96771736Y-94661418D01*
X96801592Y-94751516D01*
X96892160Y-94898350D01*
X97014150Y-95020340D01*
X97160984Y-95110908D01*
X97324747Y-95165174D01*
X97425823Y-95175500D01*
X98124176Y-95175499D01*
X98124184Y-95175498D01*
X98124187Y-95175498D01*
X98179530Y-95169844D01*
X98225253Y-95165174D01*
X98389016Y-95110908D01*
X98535850Y-95020340D01*
X98550171Y-95006018D01*
X98611489Y-94972533D01*
X98681181Y-94977514D01*
X98725534Y-95006017D01*
X98739461Y-95019944D01*
X98739465Y-95019947D01*
X98886188Y-95110448D01*
X98886199Y-95110453D01*
X99049847Y-95164680D01*
X99150851Y-95174999D01*
X99750000Y-95174999D01*
X99849140Y-95174999D01*
X99849154Y-95174998D01*
X99950152Y-95164680D01*
X100113800Y-95110453D01*
X100113811Y-95110448D01*
X100260534Y-95019947D01*
X100260538Y-95019944D01*
X100382444Y-94898038D01*
X100382447Y-94898034D01*
X100472948Y-94751311D01*
X100472953Y-94751300D01*
X100527180Y-94587652D01*
X100537499Y-94486654D01*
X100537500Y-94486641D01*
X100537500Y-94450000D01*
X99750000Y-94450000D01*
X99750000Y-95174999D01*
X99150851Y-95174999D01*
X99250000Y-95174998D01*
X99250000Y-93950000D01*
X99750000Y-93950000D01*
X100537499Y-93950000D01*
X100537499Y-93913360D01*
X100537498Y-93913345D01*
X100527180Y-93812347D01*
X100472953Y-93648699D01*
X100472948Y-93648688D01*
X100382447Y-93501965D01*
X100382444Y-93501961D01*
X100260538Y-93380055D01*
X100260534Y-93380052D01*
X100113811Y-93289551D01*
X100113800Y-93289546D01*
X99950152Y-93235319D01*
X99849154Y-93225000D01*
X99750000Y-93225000D01*
X99750000Y-93950000D01*
X99250000Y-93950000D01*
X99250000Y-93224999D01*
X99150860Y-93225000D01*
X99150844Y-93225001D01*
X99049847Y-93235319D01*
X98886199Y-93289546D01*
X98886188Y-93289551D01*
X98739465Y-93380052D01*
X98739458Y-93380058D01*
X98737175Y-93382341D01*
X98735224Y-93383406D01*
X98733799Y-93384533D01*
X98733606Y-93384289D01*
X98675850Y-93415822D01*
X98606159Y-93410833D01*
X98550228Y-93368958D01*
X98525815Y-93303492D01*
X98525500Y-93294654D01*
X98525500Y-92299972D01*
X98532458Y-92259017D01*
X98545530Y-92221659D01*
X98560368Y-92179255D01*
X98560792Y-92175499D01*
X98580565Y-92000000D01*
X98580565Y-91999996D01*
X98560368Y-91820747D01*
X98560368Y-91820745D01*
X98532458Y-91740982D01*
X98525500Y-91700028D01*
X98525500Y-90605345D01*
X98545185Y-90538306D01*
X98597989Y-90492551D01*
X98667147Y-90482607D01*
X98730703Y-90511632D01*
X98737181Y-90517664D01*
X98739461Y-90519944D01*
X98739465Y-90519947D01*
X98886188Y-90610448D01*
X98886199Y-90610453D01*
X99049847Y-90664680D01*
X99150851Y-90674999D01*
X99750000Y-90674999D01*
X99849140Y-90674999D01*
X99849154Y-90674998D01*
X99950152Y-90664680D01*
X100113800Y-90610453D01*
X100113811Y-90610448D01*
X100260534Y-90519947D01*
X100260538Y-90519944D01*
X100382444Y-90398038D01*
X100382447Y-90398034D01*
X100472948Y-90251311D01*
X100472953Y-90251300D01*
X100527180Y-90087652D01*
X100537499Y-89986654D01*
X100537500Y-89986641D01*
X100537500Y-89950000D01*
X99750000Y-89950000D01*
X99750000Y-90674999D01*
X99150851Y-90674999D01*
X99250000Y-90674998D01*
X99250000Y-89450000D01*
X99750000Y-89450000D01*
X100537499Y-89450000D01*
X100537499Y-89413360D01*
X100537498Y-89413345D01*
X100527180Y-89312347D01*
X100472953Y-89148699D01*
X100472948Y-89148688D01*
X100382447Y-89001965D01*
X100382444Y-89001961D01*
X100260538Y-88880055D01*
X100260534Y-88880052D01*
X100113811Y-88789551D01*
X100113800Y-88789546D01*
X99950152Y-88735319D01*
X99849154Y-88725000D01*
X99750000Y-88725000D01*
X99750000Y-89450000D01*
X99250000Y-89450000D01*
X99250000Y-88724999D01*
X99150860Y-88725000D01*
X99150844Y-88725001D01*
X99049847Y-88735319D01*
X98886199Y-88789546D01*
X98886188Y-88789551D01*
X98739465Y-88880052D01*
X98725532Y-88893985D01*
X98664208Y-88927468D01*
X98594516Y-88922482D01*
X98550172Y-88893982D01*
X98535851Y-88879661D01*
X98535850Y-88879660D01*
X98444629Y-88823395D01*
X98389018Y-88789093D01*
X98389013Y-88789091D01*
X98387569Y-88788612D01*
X98225253Y-88734826D01*
X98225251Y-88734825D01*
X98124184Y-88724500D01*
X98124177Y-88724500D01*
X97902184Y-88724500D01*
X97835145Y-88704815D01*
X97833296Y-88703604D01*
X97795473Y-88678333D01*
X97775779Y-88665174D01*
X97730495Y-88634916D01*
X97730494Y-88634915D01*
X97730492Y-88634914D01*
X97730490Y-88634913D01*
X97593917Y-88578343D01*
X97593907Y-88578340D01*
X97448920Y-88549500D01*
X97448918Y-88549500D01*
X92794828Y-88549500D01*
X92760233Y-88544576D01*
X92615073Y-88502402D01*
X92615067Y-88502401D01*
X92578201Y-88499500D01*
X92578194Y-88499500D01*
X91421806Y-88499500D01*
X91421798Y-88499500D01*
X91384932Y-88502401D01*
X91384926Y-88502402D01*
X91227106Y-88548254D01*
X91227103Y-88548255D01*
X91085637Y-88631917D01*
X91085629Y-88631923D01*
X90969423Y-88748129D01*
X90969417Y-88748137D01*
X90885755Y-88889603D01*
X90885754Y-88889606D01*
X90839902Y-89047426D01*
X90839901Y-89047432D01*
X90837000Y-89084298D01*
X90837000Y-89482104D01*
X90817315Y-89549143D01*
X90764511Y-89594898D01*
X90695353Y-89604842D01*
X90647002Y-89584330D01*
X90646080Y-89585890D01*
X90536379Y-89521013D01*
X90488695Y-89469944D01*
X90475500Y-89414281D01*
X90475500Y-81950001D01*
X90840204Y-81950001D01*
X90840399Y-81952486D01*
X90886218Y-82110198D01*
X90969814Y-82251552D01*
X90969821Y-82251561D01*
X91085938Y-82367678D01*
X91085947Y-82367685D01*
X91227303Y-82451282D01*
X91227306Y-82451283D01*
X91385004Y-82497099D01*
X91385010Y-82497100D01*
X91421850Y-82499999D01*
X91421866Y-82500000D01*
X91750000Y-82500000D01*
X92250000Y-82500000D01*
X92578134Y-82500000D01*
X92578149Y-82499999D01*
X92614989Y-82497100D01*
X92614995Y-82497099D01*
X92772693Y-82451283D01*
X92772696Y-82451282D01*
X92914052Y-82367685D01*
X92914061Y-82367678D01*
X93030178Y-82251561D01*
X93030185Y-82251552D01*
X93113781Y-82110198D01*
X93159600Y-81952486D01*
X93159795Y-81950001D01*
X93159795Y-81950000D01*
X92250000Y-81950000D01*
X92250000Y-82500000D01*
X91750000Y-82500000D01*
X91750000Y-81950000D01*
X90840205Y-81950000D01*
X90840204Y-81950001D01*
X90475500Y-81950001D01*
X90475500Y-81585718D01*
X90495185Y-81518679D01*
X90536380Y-81478986D01*
X90639358Y-81418085D01*
X90639357Y-81418085D01*
X90639365Y-81418081D01*
X90639371Y-81418074D01*
X90645531Y-81413298D01*
X90646839Y-81414984D01*
X90698509Y-81386761D01*
X90768201Y-81391735D01*
X90815941Y-81423752D01*
X90840204Y-81450000D01*
X91750000Y-81450000D01*
X92250000Y-81450000D01*
X93159795Y-81450000D01*
X93159795Y-81449998D01*
X93159600Y-81447513D01*
X93113781Y-81289801D01*
X93030185Y-81148447D01*
X93030178Y-81148438D01*
X92914061Y-81032321D01*
X92914052Y-81032314D01*
X92772696Y-80948717D01*
X92772693Y-80948716D01*
X92614995Y-80902900D01*
X92614989Y-80902899D01*
X92578149Y-80900000D01*
X92250000Y-80900000D01*
X92250000Y-81450000D01*
X91750000Y-81450000D01*
X91750000Y-80900000D01*
X91421850Y-80900000D01*
X91385010Y-80902899D01*
X91385004Y-80902900D01*
X91227306Y-80948716D01*
X91227303Y-80948717D01*
X91079229Y-81036288D01*
X91078211Y-81034566D01*
X91022955Y-81056257D01*
X90954438Y-81042572D01*
X90904197Y-80994017D01*
X90888000Y-80932742D01*
X90888000Y-80567895D01*
X90907685Y-80500856D01*
X90960489Y-80455101D01*
X91029647Y-80445157D01*
X91077996Y-80465671D01*
X91078920Y-80464110D01*
X91085635Y-80468081D01*
X91227102Y-80551744D01*
X91239769Y-80555424D01*
X91384926Y-80597597D01*
X91384929Y-80597597D01*
X91384931Y-80597598D01*
X91421806Y-80600500D01*
X91421814Y-80600500D01*
X92578186Y-80600500D01*
X92578194Y-80600500D01*
X92615069Y-80597598D01*
X92615071Y-80597597D01*
X92615073Y-80597597D01*
X92760233Y-80555424D01*
X92794828Y-80550500D01*
X96645440Y-80550500D01*
X96712479Y-80570185D01*
X96758234Y-80622989D01*
X96763146Y-80635495D01*
X96801592Y-80751516D01*
X96879306Y-80877511D01*
X96892161Y-80898351D01*
X96988181Y-80994371D01*
X97021666Y-81055694D01*
X97024500Y-81082052D01*
X97024500Y-83817948D01*
X97004815Y-83884987D01*
X96988181Y-83905629D01*
X96892160Y-84001649D01*
X96892159Y-84001650D01*
X96827620Y-84106284D01*
X96809763Y-84128867D01*
X96191937Y-84746693D01*
X96155876Y-84769362D01*
X96156756Y-84771188D01*
X96150478Y-84774211D01*
X95997737Y-84870184D01*
X95870184Y-84997737D01*
X95774211Y-85150476D01*
X95714631Y-85320745D01*
X95714630Y-85320750D01*
X95694435Y-85499996D01*
X95694435Y-85500003D01*
X95714630Y-85679249D01*
X95714631Y-85679254D01*
X95774211Y-85849523D01*
X95870184Y-86002262D01*
X95997738Y-86129816D01*
X96088080Y-86186582D01*
X96114045Y-86202897D01*
X96150478Y-86225789D01*
X96316753Y-86283971D01*
X96320745Y-86285368D01*
X96320750Y-86285369D01*
X96499996Y-86305565D01*
X96500000Y-86305565D01*
X96500004Y-86305565D01*
X96679249Y-86285369D01*
X96679252Y-86285368D01*
X96679255Y-86285368D01*
X96849522Y-86225789D01*
X97002262Y-86129816D01*
X97129816Y-86002262D01*
X97225789Y-85849522D01*
X97225790Y-85849518D01*
X97228811Y-85843246D01*
X97230655Y-85844134D01*
X97253305Y-85808061D01*
X97349550Y-85711816D01*
X97410871Y-85678333D01*
X97437219Y-85675499D01*
X98124176Y-85675499D01*
X98124184Y-85675498D01*
X98124187Y-85675498D01*
X98179530Y-85669844D01*
X98225253Y-85665174D01*
X98389016Y-85610908D01*
X98535850Y-85520340D01*
X98550171Y-85506018D01*
X98611489Y-85472533D01*
X98681181Y-85477514D01*
X98725534Y-85506017D01*
X98739461Y-85519944D01*
X98739465Y-85519947D01*
X98886188Y-85610448D01*
X98886199Y-85610453D01*
X99049847Y-85664680D01*
X99150851Y-85674999D01*
X99750000Y-85674999D01*
X99849140Y-85674999D01*
X99849154Y-85674998D01*
X99950152Y-85664680D01*
X100113800Y-85610453D01*
X100113811Y-85610448D01*
X100260534Y-85519947D01*
X100260538Y-85519944D01*
X100382444Y-85398038D01*
X100382447Y-85398034D01*
X100472948Y-85251311D01*
X100472953Y-85251300D01*
X100527180Y-85087652D01*
X100537499Y-84986654D01*
X100537500Y-84986641D01*
X100537500Y-84950000D01*
X99750000Y-84950000D01*
X99750000Y-85674999D01*
X99150851Y-85674999D01*
X99250000Y-85674998D01*
X99250000Y-84450000D01*
X99750000Y-84450000D01*
X100537499Y-84450000D01*
X100537499Y-84413360D01*
X100537498Y-84413345D01*
X100527180Y-84312347D01*
X100472953Y-84148699D01*
X100472948Y-84148688D01*
X100382447Y-84001965D01*
X100382444Y-84001961D01*
X100260538Y-83880055D01*
X100260534Y-83880052D01*
X100113811Y-83789551D01*
X100113800Y-83789546D01*
X99950152Y-83735319D01*
X99849154Y-83725000D01*
X99750000Y-83725000D01*
X99750000Y-84450000D01*
X99250000Y-84450000D01*
X99250000Y-83724999D01*
X99150860Y-83725000D01*
X99150844Y-83725001D01*
X99049847Y-83735319D01*
X98886199Y-83789546D01*
X98886188Y-83789551D01*
X98739465Y-83880052D01*
X98739458Y-83880058D01*
X98737175Y-83882341D01*
X98735224Y-83883406D01*
X98733799Y-83884533D01*
X98733606Y-83884289D01*
X98675850Y-83915822D01*
X98606159Y-83910833D01*
X98550228Y-83868958D01*
X98525815Y-83803492D01*
X98525500Y-83794654D01*
X98525500Y-81105345D01*
X98545185Y-81038306D01*
X98597989Y-80992551D01*
X98667147Y-80982607D01*
X98730703Y-81011632D01*
X98737181Y-81017664D01*
X98739461Y-81019944D01*
X98739465Y-81019947D01*
X98886188Y-81110448D01*
X98886199Y-81110453D01*
X99049847Y-81164680D01*
X99150851Y-81174999D01*
X99750000Y-81174999D01*
X99849140Y-81174999D01*
X99849154Y-81174998D01*
X99950152Y-81164680D01*
X100113800Y-81110453D01*
X100113811Y-81110448D01*
X100260534Y-81019947D01*
X100260538Y-81019944D01*
X100382444Y-80898038D01*
X100382447Y-80898034D01*
X100472948Y-80751311D01*
X100472953Y-80751300D01*
X100527180Y-80587652D01*
X100537499Y-80486654D01*
X100537500Y-80486641D01*
X100537500Y-80450000D01*
X99750000Y-80450000D01*
X99750000Y-81174999D01*
X99150851Y-81174999D01*
X99250000Y-81174998D01*
X99250000Y-79950000D01*
X99750000Y-79950000D01*
X100537499Y-79950000D01*
X100537499Y-79913360D01*
X100537498Y-79913345D01*
X100527180Y-79812347D01*
X100472953Y-79648699D01*
X100472948Y-79648688D01*
X100382447Y-79501965D01*
X100382444Y-79501961D01*
X100260538Y-79380055D01*
X100260534Y-79380052D01*
X100113811Y-79289551D01*
X100113800Y-79289546D01*
X99950152Y-79235319D01*
X99849154Y-79225000D01*
X99750000Y-79225000D01*
X99750000Y-79950000D01*
X99250000Y-79950000D01*
X99250000Y-79224999D01*
X99150860Y-79225000D01*
X99150844Y-79225001D01*
X99049847Y-79235319D01*
X98886199Y-79289546D01*
X98886188Y-79289551D01*
X98739465Y-79380052D01*
X98725532Y-79393985D01*
X98664208Y-79427468D01*
X98594516Y-79422482D01*
X98550172Y-79393982D01*
X98535851Y-79379661D01*
X98535850Y-79379660D01*
X98438041Y-79319331D01*
X98389018Y-79289093D01*
X98389013Y-79289091D01*
X98387569Y-79288612D01*
X98225253Y-79234826D01*
X98225251Y-79234825D01*
X98124184Y-79224500D01*
X98124177Y-79224500D01*
X97902183Y-79224500D01*
X97835144Y-79204815D01*
X97833327Y-79203625D01*
X97779729Y-79167813D01*
X97757256Y-79152797D01*
X97730491Y-79134913D01*
X97593917Y-79078343D01*
X97593907Y-79078340D01*
X97448920Y-79049500D01*
X97448918Y-79049500D01*
X92794828Y-79049500D01*
X92760233Y-79044576D01*
X92615073Y-79002402D01*
X92615067Y-79002401D01*
X92578201Y-78999500D01*
X92578194Y-78999500D01*
X91421806Y-78999500D01*
X91421798Y-78999500D01*
X91384932Y-79002401D01*
X91384926Y-79002402D01*
X91227106Y-79048254D01*
X91227103Y-79048255D01*
X91085637Y-79131917D01*
X91085629Y-79131923D01*
X90969423Y-79248129D01*
X90969417Y-79248137D01*
X90885755Y-79389603D01*
X90885754Y-79389606D01*
X90839902Y-79547426D01*
X90839901Y-79547432D01*
X90837000Y-79584298D01*
X90837000Y-79982104D01*
X90817315Y-80049143D01*
X90764511Y-80094898D01*
X90695353Y-80104842D01*
X90647002Y-80084330D01*
X90646080Y-80085890D01*
X90527384Y-80015694D01*
X90497898Y-79998256D01*
X90497897Y-79998255D01*
X90497896Y-79998255D01*
X90497893Y-79998254D01*
X90340073Y-79952402D01*
X90340067Y-79952401D01*
X90303201Y-79949500D01*
X90303194Y-79949500D01*
X89146806Y-79949500D01*
X89146798Y-79949500D01*
X89109932Y-79952401D01*
X89109926Y-79952402D01*
X88952106Y-79998254D01*
X88952103Y-79998255D01*
X88810637Y-80081917D01*
X88810629Y-80081923D01*
X88694423Y-80198129D01*
X88694417Y-80198137D01*
X88610756Y-80339600D01*
X88610754Y-80339607D01*
X88601664Y-80370895D01*
X88564058Y-80429781D01*
X88500585Y-80458987D01*
X88482588Y-80460300D01*
X83413047Y-80460300D01*
X83346008Y-80440615D01*
X83303577Y-80391647D01*
X83302843Y-80392049D01*
X83300999Y-80388672D01*
X83300253Y-80387811D01*
X83299385Y-80385716D01*
X83298593Y-80384265D01*
X83212346Y-80269055D01*
X83212343Y-80269052D01*
X83097134Y-80182806D01*
X83097127Y-80182802D01*
X82962285Y-80132510D01*
X82962284Y-80132509D01*
X82962282Y-80132509D01*
X82902672Y-80126100D01*
X82902662Y-80126100D01*
X82197328Y-80126100D01*
X82197322Y-80126101D01*
X82137715Y-80132508D01*
X82002870Y-80182802D01*
X82002863Y-80182806D01*
X81887654Y-80269052D01*
X81887651Y-80269055D01*
X81801405Y-80384264D01*
X81801401Y-80384271D01*
X81751107Y-80519117D01*
X81744700Y-80578716D01*
X81744699Y-80578735D01*
X81744700Y-81791300D01*
X81725015Y-81858339D01*
X81672212Y-81904094D01*
X81620700Y-81915300D01*
X76603030Y-81915300D01*
X76535991Y-81895615D01*
X76515349Y-81878981D01*
X76480312Y-81843944D01*
X76446827Y-81782621D01*
X76451811Y-81712929D01*
X76493683Y-81656996D01*
X76528989Y-81638557D01*
X76613800Y-81610453D01*
X76613811Y-81610448D01*
X76760534Y-81519947D01*
X76760538Y-81519944D01*
X76882444Y-81398038D01*
X76882447Y-81398034D01*
X76972948Y-81251311D01*
X76972953Y-81251300D01*
X77027180Y-81087652D01*
X77037499Y-80986654D01*
X77037500Y-80986641D01*
X77037500Y-80950000D01*
X75874000Y-80950000D01*
X75806961Y-80930315D01*
X75761206Y-80877511D01*
X75750000Y-80826000D01*
X75750000Y-80450000D01*
X76250000Y-80450000D01*
X77037499Y-80450000D01*
X77037499Y-80413360D01*
X77037498Y-80413345D01*
X77027180Y-80312347D01*
X76972953Y-80148699D01*
X76972948Y-80148688D01*
X76882447Y-80001965D01*
X76882444Y-80001961D01*
X76760538Y-79880055D01*
X76760534Y-79880052D01*
X76613811Y-79789551D01*
X76613800Y-79789546D01*
X76450152Y-79735319D01*
X76349154Y-79725000D01*
X76250000Y-79725000D01*
X76250000Y-80450000D01*
X75750000Y-80450000D01*
X75750000Y-79724999D01*
X75650860Y-79725000D01*
X75650844Y-79725001D01*
X75549847Y-79735319D01*
X75386199Y-79789546D01*
X75386188Y-79789551D01*
X75239465Y-79880052D01*
X75225532Y-79893985D01*
X75164208Y-79927468D01*
X75094516Y-79922482D01*
X75050172Y-79893982D01*
X75035851Y-79879661D01*
X75035850Y-79879660D01*
X74926556Y-79812247D01*
X74889018Y-79789093D01*
X74889013Y-79789091D01*
X74847998Y-79775500D01*
X74725253Y-79734826D01*
X74725251Y-79734825D01*
X74624178Y-79724500D01*
X73925830Y-79724500D01*
X73925812Y-79724501D01*
X73824747Y-79734825D01*
X73660984Y-79789092D01*
X73660981Y-79789093D01*
X73514148Y-79879661D01*
X73480629Y-79913181D01*
X73419306Y-79946666D01*
X73392948Y-79949500D01*
X69932458Y-79949500D01*
X69898347Y-79944716D01*
X69880656Y-79939654D01*
X69777418Y-79910114D01*
X69777415Y-79910113D01*
X69777413Y-79910113D01*
X69704631Y-79903642D01*
X69658037Y-79899500D01*
X69658033Y-79899500D01*
X69074500Y-79899500D01*
X69007461Y-79879815D01*
X68961706Y-79827011D01*
X68950500Y-79775500D01*
X68950500Y-79703957D01*
X68970185Y-79636918D01*
X69009407Y-79598416D01*
X69018656Y-79592712D01*
X69142712Y-79468656D01*
X69234814Y-79319334D01*
X69289999Y-79152797D01*
X69300500Y-79050009D01*
X69300499Y-75949992D01*
X69296755Y-75913345D01*
X69289999Y-75847203D01*
X69289998Y-75847200D01*
X69275459Y-75803324D01*
X69234814Y-75680666D01*
X69142712Y-75531344D01*
X69018656Y-75407288D01*
X68869334Y-75315186D01*
X68864439Y-75313564D01*
X68861431Y-75312567D01*
X68803988Y-75272791D01*
X68777169Y-75208273D01*
X68789488Y-75139498D01*
X68812758Y-75107185D01*
X72858126Y-71061819D01*
X72919449Y-71028334D01*
X72945807Y-71025500D01*
X73138000Y-71025500D01*
X73205039Y-71045185D01*
X73250794Y-71097989D01*
X73262000Y-71149500D01*
X73262000Y-71486668D01*
X73262001Y-71486687D01*
X73272325Y-71587752D01*
X73302647Y-71679255D01*
X73320129Y-71732013D01*
X73326592Y-71751515D01*
X73326596Y-71751524D01*
X73418538Y-71900584D01*
X73437000Y-71965681D01*
X73437000Y-75367948D01*
X73417315Y-75434987D01*
X73400681Y-75455629D01*
X73354661Y-75501648D01*
X73264093Y-75648481D01*
X73264091Y-75648486D01*
X73246276Y-75702248D01*
X73209826Y-75812247D01*
X73209826Y-75812248D01*
X73209825Y-75812248D01*
X73199500Y-75913315D01*
X73199500Y-76486669D01*
X73199501Y-76486687D01*
X73209825Y-76587752D01*
X73239742Y-76678034D01*
X73264020Y-76751300D01*
X73264092Y-76751515D01*
X73264093Y-76751518D01*
X73298395Y-76807129D01*
X73354660Y-76898350D01*
X73476650Y-77020340D01*
X73623484Y-77110908D01*
X73787247Y-77165174D01*
X73888323Y-77175500D01*
X74486676Y-77175499D01*
X74486684Y-77175498D01*
X74486687Y-77175498D01*
X74542030Y-77169844D01*
X74587753Y-77165174D01*
X74751516Y-77110908D01*
X74898350Y-77020340D01*
X75012675Y-76906014D01*
X75073994Y-76872532D01*
X75143686Y-76877516D01*
X75188034Y-76906017D01*
X75301961Y-77019944D01*
X75301965Y-77019947D01*
X75448688Y-77110448D01*
X75448699Y-77110453D01*
X75612347Y-77164680D01*
X75713351Y-77174999D01*
X76262500Y-77174999D01*
X76311640Y-77174999D01*
X76311654Y-77174998D01*
X76412652Y-77164680D01*
X76576300Y-77110453D01*
X76576311Y-77110448D01*
X76723034Y-77019947D01*
X76723038Y-77019944D01*
X76844944Y-76898038D01*
X76844947Y-76898034D01*
X76935448Y-76751311D01*
X76935453Y-76751300D01*
X76989680Y-76587652D01*
X76999999Y-76486654D01*
X77000000Y-76486641D01*
X77000000Y-76450000D01*
X76262500Y-76450000D01*
X76262500Y-77174999D01*
X75713351Y-77174999D01*
X75762499Y-77174998D01*
X75762500Y-77174998D01*
X75762500Y-75950000D01*
X76262500Y-75950000D01*
X76999999Y-75950000D01*
X76999999Y-75913360D01*
X76999998Y-75913345D01*
X76989680Y-75812347D01*
X76935453Y-75648699D01*
X76935448Y-75648688D01*
X76844947Y-75501965D01*
X76844944Y-75501961D01*
X76723038Y-75380055D01*
X76723034Y-75380052D01*
X76576311Y-75289551D01*
X76576300Y-75289546D01*
X76412652Y-75235319D01*
X76311654Y-75225000D01*
X76262500Y-75225000D01*
X76262500Y-75950000D01*
X75762500Y-75950000D01*
X75762500Y-75225000D01*
X75762499Y-75224999D01*
X75713361Y-75225000D01*
X75713343Y-75225001D01*
X75612347Y-75235319D01*
X75448699Y-75289546D01*
X75448688Y-75289551D01*
X75301965Y-75380052D01*
X75188034Y-75493983D01*
X75126711Y-75527467D01*
X75057019Y-75522483D01*
X75012672Y-75493982D01*
X74974319Y-75455629D01*
X74940834Y-75394306D01*
X74938000Y-75367948D01*
X74938000Y-72682240D01*
X74957685Y-72615201D01*
X75010489Y-72569446D01*
X75079647Y-72559502D01*
X75143203Y-72588527D01*
X75149681Y-72594559D01*
X77060393Y-74505272D01*
X77060396Y-74505275D01*
X77156847Y-74569721D01*
X77159412Y-74571434D01*
X77166941Y-74576465D01*
X77285324Y-74625501D01*
X77285328Y-74625501D01*
X77285329Y-74625502D01*
X77410996Y-74650500D01*
X77410999Y-74650500D01*
X78564071Y-74650500D01*
X78648615Y-74633682D01*
X78689744Y-74625501D01*
X78808127Y-74576465D01*
X78816508Y-74570864D01*
X78818221Y-74569721D01*
X78850948Y-74547853D01*
X78914669Y-74505277D01*
X81512948Y-71906996D01*
X81574269Y-71873513D01*
X81643960Y-71878497D01*
X81688308Y-71906998D01*
X81763181Y-71981871D01*
X81796666Y-72043194D01*
X81799500Y-72069552D01*
X81799500Y-75282948D01*
X81779815Y-75349987D01*
X81763181Y-75370629D01*
X81742161Y-75391648D01*
X81651593Y-75538481D01*
X81651591Y-75538486D01*
X81634366Y-75590469D01*
X81597326Y-75702247D01*
X81597326Y-75702248D01*
X81597325Y-75702248D01*
X81587000Y-75803315D01*
X81587000Y-76376669D01*
X81587001Y-76376687D01*
X81597325Y-76477752D01*
X81615073Y-76531311D01*
X81651592Y-76641516D01*
X81742160Y-76788350D01*
X81864150Y-76910340D01*
X82010984Y-77000908D01*
X82174747Y-77055174D01*
X82275823Y-77065500D01*
X82874176Y-77065499D01*
X82874184Y-77065498D01*
X82874187Y-77065498D01*
X82929530Y-77059844D01*
X82975253Y-77055174D01*
X83139016Y-77000908D01*
X83285850Y-76910340D01*
X83400175Y-76796014D01*
X83461494Y-76762532D01*
X83531186Y-76767516D01*
X83575534Y-76796017D01*
X83689461Y-76909944D01*
X83689465Y-76909947D01*
X83836188Y-77000448D01*
X83836199Y-77000453D01*
X83999847Y-77054680D01*
X84100851Y-77064999D01*
X84650000Y-77064999D01*
X84699140Y-77064999D01*
X84699154Y-77064998D01*
X84800152Y-77054680D01*
X84963800Y-77000453D01*
X84963811Y-77000448D01*
X85110534Y-76909947D01*
X85110538Y-76909944D01*
X85232444Y-76788038D01*
X85232447Y-76788034D01*
X85322948Y-76641311D01*
X85322953Y-76641300D01*
X85377180Y-76477652D01*
X85387499Y-76376654D01*
X85387500Y-76376641D01*
X85387500Y-76340000D01*
X84650000Y-76340000D01*
X84650000Y-77064999D01*
X84100851Y-77064999D01*
X84149999Y-77064998D01*
X84150000Y-77064998D01*
X84150000Y-75840000D01*
X84650000Y-75840000D01*
X85387499Y-75840000D01*
X85387499Y-75803360D01*
X85387498Y-75803345D01*
X85377180Y-75702347D01*
X85322953Y-75538699D01*
X85322948Y-75538688D01*
X85232447Y-75391965D01*
X85232444Y-75391961D01*
X85110538Y-75270055D01*
X85110534Y-75270052D01*
X84963811Y-75179551D01*
X84963800Y-75179546D01*
X84800152Y-75125319D01*
X84699154Y-75115000D01*
X84650000Y-75115000D01*
X84650000Y-75840000D01*
X84150000Y-75840000D01*
X84150000Y-75115000D01*
X84149999Y-75114999D01*
X84100861Y-75115000D01*
X84100843Y-75115001D01*
X83999847Y-75125319D01*
X83836199Y-75179546D01*
X83836188Y-75179551D01*
X83689465Y-75270052D01*
X83575534Y-75383983D01*
X83514211Y-75417467D01*
X83444519Y-75412483D01*
X83400172Y-75383982D01*
X83336819Y-75320629D01*
X83303334Y-75259306D01*
X83300500Y-75232948D01*
X83300500Y-72069552D01*
X83320185Y-72002513D01*
X83336819Y-71981871D01*
X83337319Y-71981371D01*
X83398642Y-71947886D01*
X83468334Y-71952870D01*
X83512681Y-71981371D01*
X83551650Y-72020340D01*
X83698484Y-72110908D01*
X83862247Y-72165174D01*
X83963323Y-72175500D01*
X84304191Y-72175499D01*
X84371230Y-72195183D01*
X84391872Y-72211818D01*
X89490325Y-77310272D01*
X89490326Y-77310273D01*
X89490329Y-77310275D01*
X89490331Y-77310277D01*
X89596873Y-77381465D01*
X89715256Y-77430501D01*
X89715260Y-77430501D01*
X89715261Y-77430502D01*
X89840928Y-77455500D01*
X89840931Y-77455500D01*
X91151503Y-77455500D01*
X91236047Y-77438682D01*
X91277176Y-77430501D01*
X91395559Y-77381465D01*
X91502101Y-77310277D01*
X91849621Y-76962756D01*
X91910938Y-76929275D01*
X91976302Y-76932735D01*
X92012350Y-76944680D01*
X92012354Y-76944681D01*
X92113351Y-76954999D01*
X92662500Y-76954999D01*
X92711640Y-76954999D01*
X92711654Y-76954998D01*
X92812652Y-76944680D01*
X92976300Y-76890453D01*
X92976311Y-76890448D01*
X93123034Y-76799947D01*
X93123038Y-76799944D01*
X93244944Y-76678038D01*
X93244947Y-76678034D01*
X93335448Y-76531311D01*
X93335453Y-76531300D01*
X93389680Y-76367652D01*
X93399999Y-76266654D01*
X93400000Y-76266641D01*
X93400000Y-76230000D01*
X92662500Y-76230000D01*
X92662500Y-76954999D01*
X92113351Y-76954999D01*
X92162499Y-76954998D01*
X92162500Y-76954998D01*
X92162500Y-75854000D01*
X92182185Y-75786961D01*
X92234989Y-75741206D01*
X92286500Y-75730000D01*
X93399999Y-75730000D01*
X93399999Y-75693360D01*
X93399998Y-75693345D01*
X93389680Y-75592347D01*
X93335453Y-75428699D01*
X93335448Y-75428688D01*
X93244947Y-75281965D01*
X93244944Y-75281961D01*
X93123038Y-75160055D01*
X93123034Y-75160052D01*
X92976311Y-75069551D01*
X92976300Y-75069546D01*
X92812652Y-75015319D01*
X92711654Y-75005000D01*
X92708499Y-75004840D01*
X92708507Y-75004679D01*
X92708506Y-75004679D01*
X92708508Y-75004655D01*
X92708576Y-75003317D01*
X92647268Y-74985315D01*
X92601513Y-74932511D01*
X92591569Y-74863353D01*
X92620594Y-74799797D01*
X92626612Y-74793333D01*
X94505277Y-72914669D01*
X94576465Y-72808127D01*
X94625501Y-72689744D01*
X94640329Y-72615201D01*
X94650500Y-72564071D01*
X94650500Y-71398496D01*
X94625502Y-71272829D01*
X94625501Y-71272828D01*
X94625501Y-71272824D01*
X94576465Y-71154441D01*
X94576464Y-71154440D01*
X94576461Y-71154434D01*
X94505277Y-71047900D01*
X94482877Y-71025500D01*
X94414669Y-70957292D01*
X93999283Y-70541906D01*
X92752106Y-69294727D01*
X92752105Y-69294726D01*
X92752101Y-69294723D01*
X92645559Y-69223535D01*
X92616815Y-69211629D01*
X92527176Y-69174499D01*
X92527170Y-69174497D01*
X92401503Y-69149500D01*
X92401501Y-69149500D01*
X67130475Y-69149500D01*
X67130473Y-69149500D01*
X67004805Y-69174497D01*
X67004799Y-69174499D01*
X66886414Y-69223535D01*
X66779875Y-69294722D01*
X66779868Y-69294728D01*
X62994725Y-73079872D01*
X62994724Y-73079873D01*
X62947535Y-73150499D01*
X62947533Y-73150501D01*
X62923539Y-73186408D01*
X62923533Y-73186419D01*
X62874499Y-73304799D01*
X62874497Y-73304805D01*
X62849500Y-73430472D01*
X62849500Y-73430475D01*
X62849500Y-131861126D01*
X62849500Y-131861128D01*
X62849499Y-131861128D01*
X58019945Y-131861128D01*
X58000501Y-71478131D01*
X58000671Y-71471603D01*
X58003944Y-71409143D01*
X58016591Y-71167824D01*
X58017948Y-71154918D01*
X58029424Y-71082461D01*
X58065031Y-70857644D01*
X58067721Y-70844987D01*
X58145626Y-70554239D01*
X58149628Y-70541923D01*
X58257494Y-70260920D01*
X58262762Y-70249088D01*
X58399418Y-69980886D01*
X58405884Y-69969687D01*
X58569823Y-69717243D01*
X58577425Y-69706780D01*
X58766857Y-69472850D01*
X58775524Y-69463225D01*
X58988353Y-69250396D01*
X58997979Y-69241729D01*
X59231898Y-69052303D01*
X59242370Y-69044695D01*
X59494823Y-68880750D01*
X59506013Y-68874289D01*
X59774220Y-68737632D01*
X59786042Y-68732368D01*
X60067045Y-68624501D01*
X60079367Y-68620497D01*
X60370106Y-68542593D01*
X60382785Y-68539899D01*
X60680046Y-68492819D01*
X60692951Y-68491462D01*
X60996658Y-68475544D01*
X61003171Y-68475375D01*
X104925578Y-68500457D01*
G37*
%TD.AperFunction*%
%TD*%
M02*
