%TF.GenerationSoftware,KiCad,Pcbnew,8.0.5*%
%TF.CreationDate,2024-10-31T16:18:24-07:00*%
%TF.ProjectId,CustomMotorshield,43757374-6f6d-44d6-9f74-6f7273686965,rev?*%
%TF.SameCoordinates,Original*%
%TF.FileFunction,Legend,Top*%
%TF.FilePolarity,Positive*%
%FSLAX46Y46*%
G04 Gerber Fmt 4.6, Leading zero omitted, Abs format (unit mm)*
G04 Created by KiCad (PCBNEW 8.0.5) date 2024-10-31 16:18:24*
%MOMM*%
%LPD*%
G01*
G04 APERTURE LIST*
%ADD10C,0.150000*%
%ADD11C,0.120000*%
%ADD12C,0.152400*%
G04 APERTURE END LIST*
D10*
X88166666Y-138854819D02*
X88166666Y-139569104D01*
X88166666Y-139569104D02*
X88119047Y-139711961D01*
X88119047Y-139711961D02*
X88023809Y-139807200D01*
X88023809Y-139807200D02*
X87880952Y-139854819D01*
X87880952Y-139854819D02*
X87785714Y-139854819D01*
X89071428Y-139188152D02*
X89071428Y-139854819D01*
X88833333Y-138807200D02*
X88595238Y-139521485D01*
X88595238Y-139521485D02*
X89214285Y-139521485D01*
X64009580Y-74866666D02*
X64057200Y-74914285D01*
X64057200Y-74914285D02*
X64104819Y-75057142D01*
X64104819Y-75057142D02*
X64104819Y-75152380D01*
X64104819Y-75152380D02*
X64057200Y-75295237D01*
X64057200Y-75295237D02*
X63961961Y-75390475D01*
X63961961Y-75390475D02*
X63866723Y-75438094D01*
X63866723Y-75438094D02*
X63676247Y-75485713D01*
X63676247Y-75485713D02*
X63533390Y-75485713D01*
X63533390Y-75485713D02*
X63342914Y-75438094D01*
X63342914Y-75438094D02*
X63247676Y-75390475D01*
X63247676Y-75390475D02*
X63152438Y-75295237D01*
X63152438Y-75295237D02*
X63104819Y-75152380D01*
X63104819Y-75152380D02*
X63104819Y-75057142D01*
X63104819Y-75057142D02*
X63152438Y-74914285D01*
X63152438Y-74914285D02*
X63200057Y-74866666D01*
X63533390Y-74295237D02*
X63485771Y-74390475D01*
X63485771Y-74390475D02*
X63438152Y-74438094D01*
X63438152Y-74438094D02*
X63342914Y-74485713D01*
X63342914Y-74485713D02*
X63295295Y-74485713D01*
X63295295Y-74485713D02*
X63200057Y-74438094D01*
X63200057Y-74438094D02*
X63152438Y-74390475D01*
X63152438Y-74390475D02*
X63104819Y-74295237D01*
X63104819Y-74295237D02*
X63104819Y-74104761D01*
X63104819Y-74104761D02*
X63152438Y-74009523D01*
X63152438Y-74009523D02*
X63200057Y-73961904D01*
X63200057Y-73961904D02*
X63295295Y-73914285D01*
X63295295Y-73914285D02*
X63342914Y-73914285D01*
X63342914Y-73914285D02*
X63438152Y-73961904D01*
X63438152Y-73961904D02*
X63485771Y-74009523D01*
X63485771Y-74009523D02*
X63533390Y-74104761D01*
X63533390Y-74104761D02*
X63533390Y-74295237D01*
X63533390Y-74295237D02*
X63581009Y-74390475D01*
X63581009Y-74390475D02*
X63628628Y-74438094D01*
X63628628Y-74438094D02*
X63723866Y-74485713D01*
X63723866Y-74485713D02*
X63914342Y-74485713D01*
X63914342Y-74485713D02*
X64009580Y-74438094D01*
X64009580Y-74438094D02*
X64057200Y-74390475D01*
X64057200Y-74390475D02*
X64104819Y-74295237D01*
X64104819Y-74295237D02*
X64104819Y-74104761D01*
X64104819Y-74104761D02*
X64057200Y-74009523D01*
X64057200Y-74009523D02*
X64009580Y-73961904D01*
X64009580Y-73961904D02*
X63914342Y-73914285D01*
X63914342Y-73914285D02*
X63723866Y-73914285D01*
X63723866Y-73914285D02*
X63628628Y-73961904D01*
X63628628Y-73961904D02*
X63581009Y-74009523D01*
X63581009Y-74009523D02*
X63533390Y-74104761D01*
X82454760Y-83005457D02*
X82359522Y-82957838D01*
X82359522Y-82957838D02*
X82264284Y-82862600D01*
X82264284Y-82862600D02*
X82121427Y-82719742D01*
X82121427Y-82719742D02*
X82026189Y-82672123D01*
X82026189Y-82672123D02*
X81930951Y-82672123D01*
X81978570Y-82910219D02*
X81883332Y-82862600D01*
X81883332Y-82862600D02*
X81788094Y-82767361D01*
X81788094Y-82767361D02*
X81740475Y-82576885D01*
X81740475Y-82576885D02*
X81740475Y-82243552D01*
X81740475Y-82243552D02*
X81788094Y-82053076D01*
X81788094Y-82053076D02*
X81883332Y-81957838D01*
X81883332Y-81957838D02*
X81978570Y-81910219D01*
X81978570Y-81910219D02*
X82169046Y-81910219D01*
X82169046Y-81910219D02*
X82264284Y-81957838D01*
X82264284Y-81957838D02*
X82359522Y-82053076D01*
X82359522Y-82053076D02*
X82407141Y-82243552D01*
X82407141Y-82243552D02*
X82407141Y-82576885D01*
X82407141Y-82576885D02*
X82359522Y-82767361D01*
X82359522Y-82767361D02*
X82264284Y-82862600D01*
X82264284Y-82862600D02*
X82169046Y-82910219D01*
X82169046Y-82910219D02*
X81978570Y-82910219D01*
X83359522Y-82910219D02*
X82788094Y-82910219D01*
X83073808Y-82910219D02*
X83073808Y-81910219D01*
X83073808Y-81910219D02*
X82978570Y-82053076D01*
X82978570Y-82053076D02*
X82883332Y-82148314D01*
X82883332Y-82148314D02*
X82788094Y-82195933D01*
X96954819Y-126833333D02*
X97669104Y-126833333D01*
X97669104Y-126833333D02*
X97811961Y-126880952D01*
X97811961Y-126880952D02*
X97907200Y-126976190D01*
X97907200Y-126976190D02*
X97954819Y-127119047D01*
X97954819Y-127119047D02*
X97954819Y-127214285D01*
X96954819Y-126452380D02*
X96954819Y-125833333D01*
X96954819Y-125833333D02*
X97335771Y-126166666D01*
X97335771Y-126166666D02*
X97335771Y-126023809D01*
X97335771Y-126023809D02*
X97383390Y-125928571D01*
X97383390Y-125928571D02*
X97431009Y-125880952D01*
X97431009Y-125880952D02*
X97526247Y-125833333D01*
X97526247Y-125833333D02*
X97764342Y-125833333D01*
X97764342Y-125833333D02*
X97859580Y-125880952D01*
X97859580Y-125880952D02*
X97907200Y-125928571D01*
X97907200Y-125928571D02*
X97954819Y-126023809D01*
X97954819Y-126023809D02*
X97954819Y-126309523D01*
X97954819Y-126309523D02*
X97907200Y-126404761D01*
X97907200Y-126404761D02*
X97859580Y-126452380D01*
X91263095Y-103459819D02*
X91263095Y-104269342D01*
X91263095Y-104269342D02*
X91310714Y-104364580D01*
X91310714Y-104364580D02*
X91358333Y-104412200D01*
X91358333Y-104412200D02*
X91453571Y-104459819D01*
X91453571Y-104459819D02*
X91644047Y-104459819D01*
X91644047Y-104459819D02*
X91739285Y-104412200D01*
X91739285Y-104412200D02*
X91786904Y-104364580D01*
X91786904Y-104364580D02*
X91834523Y-104269342D01*
X91834523Y-104269342D02*
X91834523Y-103459819D01*
X92739285Y-103793152D02*
X92739285Y-104459819D01*
X92501190Y-103412200D02*
X92263095Y-104126485D01*
X92263095Y-104126485D02*
X92882142Y-104126485D01*
X63154819Y-85311904D02*
X63964342Y-85311904D01*
X63964342Y-85311904D02*
X64059580Y-85264285D01*
X64059580Y-85264285D02*
X64107200Y-85216666D01*
X64107200Y-85216666D02*
X64154819Y-85121428D01*
X64154819Y-85121428D02*
X64154819Y-84930952D01*
X64154819Y-84930952D02*
X64107200Y-84835714D01*
X64107200Y-84835714D02*
X64059580Y-84788095D01*
X64059580Y-84788095D02*
X63964342Y-84740476D01*
X63964342Y-84740476D02*
X63154819Y-84740476D01*
X63154819Y-84359523D02*
X63154819Y-83740476D01*
X63154819Y-83740476D02*
X63535771Y-84073809D01*
X63535771Y-84073809D02*
X63535771Y-83930952D01*
X63535771Y-83930952D02*
X63583390Y-83835714D01*
X63583390Y-83835714D02*
X63631009Y-83788095D01*
X63631009Y-83788095D02*
X63726247Y-83740476D01*
X63726247Y-83740476D02*
X63964342Y-83740476D01*
X63964342Y-83740476D02*
X64059580Y-83788095D01*
X64059580Y-83788095D02*
X64107200Y-83835714D01*
X64107200Y-83835714D02*
X64154819Y-83930952D01*
X64154819Y-83930952D02*
X64154819Y-84216666D01*
X64154819Y-84216666D02*
X64107200Y-84311904D01*
X64107200Y-84311904D02*
X64059580Y-84359523D01*
X90100595Y-92104819D02*
X90100595Y-92914342D01*
X90100595Y-92914342D02*
X90148214Y-93009580D01*
X90148214Y-93009580D02*
X90195833Y-93057200D01*
X90195833Y-93057200D02*
X90291071Y-93104819D01*
X90291071Y-93104819D02*
X90481547Y-93104819D01*
X90481547Y-93104819D02*
X90576785Y-93057200D01*
X90576785Y-93057200D02*
X90624404Y-93009580D01*
X90624404Y-93009580D02*
X90672023Y-92914342D01*
X90672023Y-92914342D02*
X90672023Y-92104819D01*
X91100595Y-92200057D02*
X91148214Y-92152438D01*
X91148214Y-92152438D02*
X91243452Y-92104819D01*
X91243452Y-92104819D02*
X91481547Y-92104819D01*
X91481547Y-92104819D02*
X91576785Y-92152438D01*
X91576785Y-92152438D02*
X91624404Y-92200057D01*
X91624404Y-92200057D02*
X91672023Y-92295295D01*
X91672023Y-92295295D02*
X91672023Y-92390533D01*
X91672023Y-92390533D02*
X91624404Y-92533390D01*
X91624404Y-92533390D02*
X91052976Y-93104819D01*
X91052976Y-93104819D02*
X91672023Y-93104819D01*
X90100595Y-82604819D02*
X90100595Y-83414342D01*
X90100595Y-83414342D02*
X90148214Y-83509580D01*
X90148214Y-83509580D02*
X90195833Y-83557200D01*
X90195833Y-83557200D02*
X90291071Y-83604819D01*
X90291071Y-83604819D02*
X90481547Y-83604819D01*
X90481547Y-83604819D02*
X90576785Y-83557200D01*
X90576785Y-83557200D02*
X90624404Y-83509580D01*
X90624404Y-83509580D02*
X90672023Y-83414342D01*
X90672023Y-83414342D02*
X90672023Y-82604819D01*
X91672023Y-83604819D02*
X91100595Y-83604819D01*
X91386309Y-83604819D02*
X91386309Y-82604819D01*
X91386309Y-82604819D02*
X91291071Y-82747676D01*
X91291071Y-82747676D02*
X91195833Y-82842914D01*
X91195833Y-82842914D02*
X91100595Y-82890533D01*
X87444642Y-113024819D02*
X87111309Y-112548628D01*
X86873214Y-113024819D02*
X86873214Y-112024819D01*
X86873214Y-112024819D02*
X87254166Y-112024819D01*
X87254166Y-112024819D02*
X87349404Y-112072438D01*
X87349404Y-112072438D02*
X87397023Y-112120057D01*
X87397023Y-112120057D02*
X87444642Y-112215295D01*
X87444642Y-112215295D02*
X87444642Y-112358152D01*
X87444642Y-112358152D02*
X87397023Y-112453390D01*
X87397023Y-112453390D02*
X87349404Y-112501009D01*
X87349404Y-112501009D02*
X87254166Y-112548628D01*
X87254166Y-112548628D02*
X86873214Y-112548628D01*
X88397023Y-113024819D02*
X87825595Y-113024819D01*
X88111309Y-113024819D02*
X88111309Y-112024819D01*
X88111309Y-112024819D02*
X88016071Y-112167676D01*
X88016071Y-112167676D02*
X87920833Y-112262914D01*
X87920833Y-112262914D02*
X87825595Y-112310533D01*
X89301785Y-112024819D02*
X88825595Y-112024819D01*
X88825595Y-112024819D02*
X88777976Y-112501009D01*
X88777976Y-112501009D02*
X88825595Y-112453390D01*
X88825595Y-112453390D02*
X88920833Y-112405771D01*
X88920833Y-112405771D02*
X89158928Y-112405771D01*
X89158928Y-112405771D02*
X89254166Y-112453390D01*
X89254166Y-112453390D02*
X89301785Y-112501009D01*
X89301785Y-112501009D02*
X89349404Y-112596247D01*
X89349404Y-112596247D02*
X89349404Y-112834342D01*
X89349404Y-112834342D02*
X89301785Y-112929580D01*
X89301785Y-112929580D02*
X89254166Y-112977200D01*
X89254166Y-112977200D02*
X89158928Y-113024819D01*
X89158928Y-113024819D02*
X88920833Y-113024819D01*
X88920833Y-113024819D02*
X88825595Y-112977200D01*
X88825595Y-112977200D02*
X88777976Y-112929580D01*
X82357142Y-132384819D02*
X82023809Y-131908628D01*
X81785714Y-132384819D02*
X81785714Y-131384819D01*
X81785714Y-131384819D02*
X82166666Y-131384819D01*
X82166666Y-131384819D02*
X82261904Y-131432438D01*
X82261904Y-131432438D02*
X82309523Y-131480057D01*
X82309523Y-131480057D02*
X82357142Y-131575295D01*
X82357142Y-131575295D02*
X82357142Y-131718152D01*
X82357142Y-131718152D02*
X82309523Y-131813390D01*
X82309523Y-131813390D02*
X82261904Y-131861009D01*
X82261904Y-131861009D02*
X82166666Y-131908628D01*
X82166666Y-131908628D02*
X81785714Y-131908628D01*
X83309523Y-132384819D02*
X82738095Y-132384819D01*
X83023809Y-132384819D02*
X83023809Y-131384819D01*
X83023809Y-131384819D02*
X82928571Y-131527676D01*
X82928571Y-131527676D02*
X82833333Y-131622914D01*
X82833333Y-131622914D02*
X82738095Y-131670533D01*
X84166666Y-131718152D02*
X84166666Y-132384819D01*
X83928571Y-131337200D02*
X83690476Y-132051485D01*
X83690476Y-132051485D02*
X84309523Y-132051485D01*
X88524819Y-102230357D02*
X88048628Y-102563690D01*
X88524819Y-102801785D02*
X87524819Y-102801785D01*
X87524819Y-102801785D02*
X87524819Y-102420833D01*
X87524819Y-102420833D02*
X87572438Y-102325595D01*
X87572438Y-102325595D02*
X87620057Y-102277976D01*
X87620057Y-102277976D02*
X87715295Y-102230357D01*
X87715295Y-102230357D02*
X87858152Y-102230357D01*
X87858152Y-102230357D02*
X87953390Y-102277976D01*
X87953390Y-102277976D02*
X88001009Y-102325595D01*
X88001009Y-102325595D02*
X88048628Y-102420833D01*
X88048628Y-102420833D02*
X88048628Y-102801785D01*
X88524819Y-101277976D02*
X88524819Y-101849404D01*
X88524819Y-101563690D02*
X87524819Y-101563690D01*
X87524819Y-101563690D02*
X87667676Y-101658928D01*
X87667676Y-101658928D02*
X87762914Y-101754166D01*
X87762914Y-101754166D02*
X87810533Y-101849404D01*
X87524819Y-100944642D02*
X87524819Y-100325595D01*
X87524819Y-100325595D02*
X87905771Y-100658928D01*
X87905771Y-100658928D02*
X87905771Y-100516071D01*
X87905771Y-100516071D02*
X87953390Y-100420833D01*
X87953390Y-100420833D02*
X88001009Y-100373214D01*
X88001009Y-100373214D02*
X88096247Y-100325595D01*
X88096247Y-100325595D02*
X88334342Y-100325595D01*
X88334342Y-100325595D02*
X88429580Y-100373214D01*
X88429580Y-100373214D02*
X88477200Y-100420833D01*
X88477200Y-100420833D02*
X88524819Y-100516071D01*
X88524819Y-100516071D02*
X88524819Y-100801785D01*
X88524819Y-100801785D02*
X88477200Y-100897023D01*
X88477200Y-100897023D02*
X88429580Y-100944642D01*
X82357142Y-115884819D02*
X82023809Y-115408628D01*
X81785714Y-115884819D02*
X81785714Y-114884819D01*
X81785714Y-114884819D02*
X82166666Y-114884819D01*
X82166666Y-114884819D02*
X82261904Y-114932438D01*
X82261904Y-114932438D02*
X82309523Y-114980057D01*
X82309523Y-114980057D02*
X82357142Y-115075295D01*
X82357142Y-115075295D02*
X82357142Y-115218152D01*
X82357142Y-115218152D02*
X82309523Y-115313390D01*
X82309523Y-115313390D02*
X82261904Y-115361009D01*
X82261904Y-115361009D02*
X82166666Y-115408628D01*
X82166666Y-115408628D02*
X81785714Y-115408628D01*
X83309523Y-115884819D02*
X82738095Y-115884819D01*
X83023809Y-115884819D02*
X83023809Y-114884819D01*
X83023809Y-114884819D02*
X82928571Y-115027676D01*
X82928571Y-115027676D02*
X82833333Y-115122914D01*
X82833333Y-115122914D02*
X82738095Y-115170533D01*
X83690476Y-114980057D02*
X83738095Y-114932438D01*
X83738095Y-114932438D02*
X83833333Y-114884819D01*
X83833333Y-114884819D02*
X84071428Y-114884819D01*
X84071428Y-114884819D02*
X84166666Y-114932438D01*
X84166666Y-114932438D02*
X84214285Y-114980057D01*
X84214285Y-114980057D02*
X84261904Y-115075295D01*
X84261904Y-115075295D02*
X84261904Y-115170533D01*
X84261904Y-115170533D02*
X84214285Y-115313390D01*
X84214285Y-115313390D02*
X83642857Y-115884819D01*
X83642857Y-115884819D02*
X84261904Y-115884819D01*
X82357142Y-119884819D02*
X82023809Y-119408628D01*
X81785714Y-119884819D02*
X81785714Y-118884819D01*
X81785714Y-118884819D02*
X82166666Y-118884819D01*
X82166666Y-118884819D02*
X82261904Y-118932438D01*
X82261904Y-118932438D02*
X82309523Y-118980057D01*
X82309523Y-118980057D02*
X82357142Y-119075295D01*
X82357142Y-119075295D02*
X82357142Y-119218152D01*
X82357142Y-119218152D02*
X82309523Y-119313390D01*
X82309523Y-119313390D02*
X82261904Y-119361009D01*
X82261904Y-119361009D02*
X82166666Y-119408628D01*
X82166666Y-119408628D02*
X81785714Y-119408628D01*
X83309523Y-119884819D02*
X82738095Y-119884819D01*
X83023809Y-119884819D02*
X83023809Y-118884819D01*
X83023809Y-118884819D02*
X82928571Y-119027676D01*
X82928571Y-119027676D02*
X82833333Y-119122914D01*
X82833333Y-119122914D02*
X82738095Y-119170533D01*
X84261904Y-119884819D02*
X83690476Y-119884819D01*
X83976190Y-119884819D02*
X83976190Y-118884819D01*
X83976190Y-118884819D02*
X83880952Y-119027676D01*
X83880952Y-119027676D02*
X83785714Y-119122914D01*
X83785714Y-119122914D02*
X83690476Y-119170533D01*
X82357142Y-128384819D02*
X82023809Y-127908628D01*
X81785714Y-128384819D02*
X81785714Y-127384819D01*
X81785714Y-127384819D02*
X82166666Y-127384819D01*
X82166666Y-127384819D02*
X82261904Y-127432438D01*
X82261904Y-127432438D02*
X82309523Y-127480057D01*
X82309523Y-127480057D02*
X82357142Y-127575295D01*
X82357142Y-127575295D02*
X82357142Y-127718152D01*
X82357142Y-127718152D02*
X82309523Y-127813390D01*
X82309523Y-127813390D02*
X82261904Y-127861009D01*
X82261904Y-127861009D02*
X82166666Y-127908628D01*
X82166666Y-127908628D02*
X81785714Y-127908628D01*
X83309523Y-128384819D02*
X82738095Y-128384819D01*
X83023809Y-128384819D02*
X83023809Y-127384819D01*
X83023809Y-127384819D02*
X82928571Y-127527676D01*
X82928571Y-127527676D02*
X82833333Y-127622914D01*
X82833333Y-127622914D02*
X82738095Y-127670533D01*
X83928571Y-127384819D02*
X84023809Y-127384819D01*
X84023809Y-127384819D02*
X84119047Y-127432438D01*
X84119047Y-127432438D02*
X84166666Y-127480057D01*
X84166666Y-127480057D02*
X84214285Y-127575295D01*
X84214285Y-127575295D02*
X84261904Y-127765771D01*
X84261904Y-127765771D02*
X84261904Y-128003866D01*
X84261904Y-128003866D02*
X84214285Y-128194342D01*
X84214285Y-128194342D02*
X84166666Y-128289580D01*
X84166666Y-128289580D02*
X84119047Y-128337200D01*
X84119047Y-128337200D02*
X84023809Y-128384819D01*
X84023809Y-128384819D02*
X83928571Y-128384819D01*
X83928571Y-128384819D02*
X83833333Y-128337200D01*
X83833333Y-128337200D02*
X83785714Y-128289580D01*
X83785714Y-128289580D02*
X83738095Y-128194342D01*
X83738095Y-128194342D02*
X83690476Y-128003866D01*
X83690476Y-128003866D02*
X83690476Y-127765771D01*
X83690476Y-127765771D02*
X83738095Y-127575295D01*
X83738095Y-127575295D02*
X83785714Y-127480057D01*
X83785714Y-127480057D02*
X83833333Y-127432438D01*
X83833333Y-127432438D02*
X83928571Y-127384819D01*
X76384819Y-91279166D02*
X75908628Y-91612499D01*
X76384819Y-91850594D02*
X75384819Y-91850594D01*
X75384819Y-91850594D02*
X75384819Y-91469642D01*
X75384819Y-91469642D02*
X75432438Y-91374404D01*
X75432438Y-91374404D02*
X75480057Y-91326785D01*
X75480057Y-91326785D02*
X75575295Y-91279166D01*
X75575295Y-91279166D02*
X75718152Y-91279166D01*
X75718152Y-91279166D02*
X75813390Y-91326785D01*
X75813390Y-91326785D02*
X75861009Y-91374404D01*
X75861009Y-91374404D02*
X75908628Y-91469642D01*
X75908628Y-91469642D02*
X75908628Y-91850594D01*
X76384819Y-90802975D02*
X76384819Y-90612499D01*
X76384819Y-90612499D02*
X76337200Y-90517261D01*
X76337200Y-90517261D02*
X76289580Y-90469642D01*
X76289580Y-90469642D02*
X76146723Y-90374404D01*
X76146723Y-90374404D02*
X75956247Y-90326785D01*
X75956247Y-90326785D02*
X75575295Y-90326785D01*
X75575295Y-90326785D02*
X75480057Y-90374404D01*
X75480057Y-90374404D02*
X75432438Y-90422023D01*
X75432438Y-90422023D02*
X75384819Y-90517261D01*
X75384819Y-90517261D02*
X75384819Y-90707737D01*
X75384819Y-90707737D02*
X75432438Y-90802975D01*
X75432438Y-90802975D02*
X75480057Y-90850594D01*
X75480057Y-90850594D02*
X75575295Y-90898213D01*
X75575295Y-90898213D02*
X75813390Y-90898213D01*
X75813390Y-90898213D02*
X75908628Y-90850594D01*
X75908628Y-90850594D02*
X75956247Y-90802975D01*
X75956247Y-90802975D02*
X76003866Y-90707737D01*
X76003866Y-90707737D02*
X76003866Y-90517261D01*
X76003866Y-90517261D02*
X75956247Y-90422023D01*
X75956247Y-90422023D02*
X75908628Y-90374404D01*
X75908628Y-90374404D02*
X75813390Y-90326785D01*
X82333333Y-88154819D02*
X82000000Y-87678628D01*
X81761905Y-88154819D02*
X81761905Y-87154819D01*
X81761905Y-87154819D02*
X82142857Y-87154819D01*
X82142857Y-87154819D02*
X82238095Y-87202438D01*
X82238095Y-87202438D02*
X82285714Y-87250057D01*
X82285714Y-87250057D02*
X82333333Y-87345295D01*
X82333333Y-87345295D02*
X82333333Y-87488152D01*
X82333333Y-87488152D02*
X82285714Y-87583390D01*
X82285714Y-87583390D02*
X82238095Y-87631009D01*
X82238095Y-87631009D02*
X82142857Y-87678628D01*
X82142857Y-87678628D02*
X81761905Y-87678628D01*
X82904762Y-87583390D02*
X82809524Y-87535771D01*
X82809524Y-87535771D02*
X82761905Y-87488152D01*
X82761905Y-87488152D02*
X82714286Y-87392914D01*
X82714286Y-87392914D02*
X82714286Y-87345295D01*
X82714286Y-87345295D02*
X82761905Y-87250057D01*
X82761905Y-87250057D02*
X82809524Y-87202438D01*
X82809524Y-87202438D02*
X82904762Y-87154819D01*
X82904762Y-87154819D02*
X83095238Y-87154819D01*
X83095238Y-87154819D02*
X83190476Y-87202438D01*
X83190476Y-87202438D02*
X83238095Y-87250057D01*
X83238095Y-87250057D02*
X83285714Y-87345295D01*
X83285714Y-87345295D02*
X83285714Y-87392914D01*
X83285714Y-87392914D02*
X83238095Y-87488152D01*
X83238095Y-87488152D02*
X83190476Y-87535771D01*
X83190476Y-87535771D02*
X83095238Y-87583390D01*
X83095238Y-87583390D02*
X82904762Y-87583390D01*
X82904762Y-87583390D02*
X82809524Y-87631009D01*
X82809524Y-87631009D02*
X82761905Y-87678628D01*
X82761905Y-87678628D02*
X82714286Y-87773866D01*
X82714286Y-87773866D02*
X82714286Y-87964342D01*
X82714286Y-87964342D02*
X82761905Y-88059580D01*
X82761905Y-88059580D02*
X82809524Y-88107200D01*
X82809524Y-88107200D02*
X82904762Y-88154819D01*
X82904762Y-88154819D02*
X83095238Y-88154819D01*
X83095238Y-88154819D02*
X83190476Y-88107200D01*
X83190476Y-88107200D02*
X83238095Y-88059580D01*
X83238095Y-88059580D02*
X83285714Y-87964342D01*
X83285714Y-87964342D02*
X83285714Y-87773866D01*
X83285714Y-87773866D02*
X83238095Y-87678628D01*
X83238095Y-87678628D02*
X83190476Y-87631009D01*
X83190476Y-87631009D02*
X83095238Y-87583390D01*
X91208333Y-74284819D02*
X90875000Y-73808628D01*
X90636905Y-74284819D02*
X90636905Y-73284819D01*
X90636905Y-73284819D02*
X91017857Y-73284819D01*
X91017857Y-73284819D02*
X91113095Y-73332438D01*
X91113095Y-73332438D02*
X91160714Y-73380057D01*
X91160714Y-73380057D02*
X91208333Y-73475295D01*
X91208333Y-73475295D02*
X91208333Y-73618152D01*
X91208333Y-73618152D02*
X91160714Y-73713390D01*
X91160714Y-73713390D02*
X91113095Y-73761009D01*
X91113095Y-73761009D02*
X91017857Y-73808628D01*
X91017857Y-73808628D02*
X90636905Y-73808628D01*
X91541667Y-73284819D02*
X92208333Y-73284819D01*
X92208333Y-73284819D02*
X91779762Y-74284819D01*
X83320833Y-75114819D02*
X82987500Y-74638628D01*
X82749405Y-75114819D02*
X82749405Y-74114819D01*
X82749405Y-74114819D02*
X83130357Y-74114819D01*
X83130357Y-74114819D02*
X83225595Y-74162438D01*
X83225595Y-74162438D02*
X83273214Y-74210057D01*
X83273214Y-74210057D02*
X83320833Y-74305295D01*
X83320833Y-74305295D02*
X83320833Y-74448152D01*
X83320833Y-74448152D02*
X83273214Y-74543390D01*
X83273214Y-74543390D02*
X83225595Y-74591009D01*
X83225595Y-74591009D02*
X83130357Y-74638628D01*
X83130357Y-74638628D02*
X82749405Y-74638628D01*
X84177976Y-74114819D02*
X83987500Y-74114819D01*
X83987500Y-74114819D02*
X83892262Y-74162438D01*
X83892262Y-74162438D02*
X83844643Y-74210057D01*
X83844643Y-74210057D02*
X83749405Y-74352914D01*
X83749405Y-74352914D02*
X83701786Y-74543390D01*
X83701786Y-74543390D02*
X83701786Y-74924342D01*
X83701786Y-74924342D02*
X83749405Y-75019580D01*
X83749405Y-75019580D02*
X83797024Y-75067200D01*
X83797024Y-75067200D02*
X83892262Y-75114819D01*
X83892262Y-75114819D02*
X84082738Y-75114819D01*
X84082738Y-75114819D02*
X84177976Y-75067200D01*
X84177976Y-75067200D02*
X84225595Y-75019580D01*
X84225595Y-75019580D02*
X84273214Y-74924342D01*
X84273214Y-74924342D02*
X84273214Y-74686247D01*
X84273214Y-74686247D02*
X84225595Y-74591009D01*
X84225595Y-74591009D02*
X84177976Y-74543390D01*
X84177976Y-74543390D02*
X84082738Y-74495771D01*
X84082738Y-74495771D02*
X83892262Y-74495771D01*
X83892262Y-74495771D02*
X83797024Y-74543390D01*
X83797024Y-74543390D02*
X83749405Y-74591009D01*
X83749405Y-74591009D02*
X83701786Y-74686247D01*
X74933333Y-75224819D02*
X74600000Y-74748628D01*
X74361905Y-75224819D02*
X74361905Y-74224819D01*
X74361905Y-74224819D02*
X74742857Y-74224819D01*
X74742857Y-74224819D02*
X74838095Y-74272438D01*
X74838095Y-74272438D02*
X74885714Y-74320057D01*
X74885714Y-74320057D02*
X74933333Y-74415295D01*
X74933333Y-74415295D02*
X74933333Y-74558152D01*
X74933333Y-74558152D02*
X74885714Y-74653390D01*
X74885714Y-74653390D02*
X74838095Y-74701009D01*
X74838095Y-74701009D02*
X74742857Y-74748628D01*
X74742857Y-74748628D02*
X74361905Y-74748628D01*
X75838095Y-74224819D02*
X75361905Y-74224819D01*
X75361905Y-74224819D02*
X75314286Y-74701009D01*
X75314286Y-74701009D02*
X75361905Y-74653390D01*
X75361905Y-74653390D02*
X75457143Y-74605771D01*
X75457143Y-74605771D02*
X75695238Y-74605771D01*
X75695238Y-74605771D02*
X75790476Y-74653390D01*
X75790476Y-74653390D02*
X75838095Y-74701009D01*
X75838095Y-74701009D02*
X75885714Y-74796247D01*
X75885714Y-74796247D02*
X75885714Y-75034342D01*
X75885714Y-75034342D02*
X75838095Y-75129580D01*
X75838095Y-75129580D02*
X75790476Y-75177200D01*
X75790476Y-75177200D02*
X75695238Y-75224819D01*
X75695238Y-75224819D02*
X75457143Y-75224819D01*
X75457143Y-75224819D02*
X75361905Y-75177200D01*
X75361905Y-75177200D02*
X75314286Y-75129580D01*
X77745833Y-115934819D02*
X77412500Y-115458628D01*
X77174405Y-115934819D02*
X77174405Y-114934819D01*
X77174405Y-114934819D02*
X77555357Y-114934819D01*
X77555357Y-114934819D02*
X77650595Y-114982438D01*
X77650595Y-114982438D02*
X77698214Y-115030057D01*
X77698214Y-115030057D02*
X77745833Y-115125295D01*
X77745833Y-115125295D02*
X77745833Y-115268152D01*
X77745833Y-115268152D02*
X77698214Y-115363390D01*
X77698214Y-115363390D02*
X77650595Y-115411009D01*
X77650595Y-115411009D02*
X77555357Y-115458628D01*
X77555357Y-115458628D02*
X77174405Y-115458628D01*
X78602976Y-115268152D02*
X78602976Y-115934819D01*
X78364881Y-114887200D02*
X78126786Y-115601485D01*
X78126786Y-115601485D02*
X78745833Y-115601485D01*
X77745833Y-127544819D02*
X77412500Y-127068628D01*
X77174405Y-127544819D02*
X77174405Y-126544819D01*
X77174405Y-126544819D02*
X77555357Y-126544819D01*
X77555357Y-126544819D02*
X77650595Y-126592438D01*
X77650595Y-126592438D02*
X77698214Y-126640057D01*
X77698214Y-126640057D02*
X77745833Y-126735295D01*
X77745833Y-126735295D02*
X77745833Y-126878152D01*
X77745833Y-126878152D02*
X77698214Y-126973390D01*
X77698214Y-126973390D02*
X77650595Y-127021009D01*
X77650595Y-127021009D02*
X77555357Y-127068628D01*
X77555357Y-127068628D02*
X77174405Y-127068628D01*
X78079167Y-126544819D02*
X78698214Y-126544819D01*
X78698214Y-126544819D02*
X78364881Y-126925771D01*
X78364881Y-126925771D02*
X78507738Y-126925771D01*
X78507738Y-126925771D02*
X78602976Y-126973390D01*
X78602976Y-126973390D02*
X78650595Y-127021009D01*
X78650595Y-127021009D02*
X78698214Y-127116247D01*
X78698214Y-127116247D02*
X78698214Y-127354342D01*
X78698214Y-127354342D02*
X78650595Y-127449580D01*
X78650595Y-127449580D02*
X78602976Y-127497200D01*
X78602976Y-127497200D02*
X78507738Y-127544819D01*
X78507738Y-127544819D02*
X78222024Y-127544819D01*
X78222024Y-127544819D02*
X78126786Y-127497200D01*
X78126786Y-127497200D02*
X78079167Y-127449580D01*
X77708333Y-138884819D02*
X77375000Y-138408628D01*
X77136905Y-138884819D02*
X77136905Y-137884819D01*
X77136905Y-137884819D02*
X77517857Y-137884819D01*
X77517857Y-137884819D02*
X77613095Y-137932438D01*
X77613095Y-137932438D02*
X77660714Y-137980057D01*
X77660714Y-137980057D02*
X77708333Y-138075295D01*
X77708333Y-138075295D02*
X77708333Y-138218152D01*
X77708333Y-138218152D02*
X77660714Y-138313390D01*
X77660714Y-138313390D02*
X77613095Y-138361009D01*
X77613095Y-138361009D02*
X77517857Y-138408628D01*
X77517857Y-138408628D02*
X77136905Y-138408628D01*
X78089286Y-137980057D02*
X78136905Y-137932438D01*
X78136905Y-137932438D02*
X78232143Y-137884819D01*
X78232143Y-137884819D02*
X78470238Y-137884819D01*
X78470238Y-137884819D02*
X78565476Y-137932438D01*
X78565476Y-137932438D02*
X78613095Y-137980057D01*
X78613095Y-137980057D02*
X78660714Y-138075295D01*
X78660714Y-138075295D02*
X78660714Y-138170533D01*
X78660714Y-138170533D02*
X78613095Y-138313390D01*
X78613095Y-138313390D02*
X78041667Y-138884819D01*
X78041667Y-138884819D02*
X78660714Y-138884819D01*
X77745833Y-150604819D02*
X77412500Y-150128628D01*
X77174405Y-150604819D02*
X77174405Y-149604819D01*
X77174405Y-149604819D02*
X77555357Y-149604819D01*
X77555357Y-149604819D02*
X77650595Y-149652438D01*
X77650595Y-149652438D02*
X77698214Y-149700057D01*
X77698214Y-149700057D02*
X77745833Y-149795295D01*
X77745833Y-149795295D02*
X77745833Y-149938152D01*
X77745833Y-149938152D02*
X77698214Y-150033390D01*
X77698214Y-150033390D02*
X77650595Y-150081009D01*
X77650595Y-150081009D02*
X77555357Y-150128628D01*
X77555357Y-150128628D02*
X77174405Y-150128628D01*
X78698214Y-150604819D02*
X78126786Y-150604819D01*
X78412500Y-150604819D02*
X78412500Y-149604819D01*
X78412500Y-149604819D02*
X78317262Y-149747676D01*
X78317262Y-149747676D02*
X78222024Y-149842914D01*
X78222024Y-149842914D02*
X78126786Y-149890533D01*
X95652080Y-102280357D02*
X95699700Y-102327976D01*
X95699700Y-102327976D02*
X95747319Y-102470833D01*
X95747319Y-102470833D02*
X95747319Y-102566071D01*
X95747319Y-102566071D02*
X95699700Y-102708928D01*
X95699700Y-102708928D02*
X95604461Y-102804166D01*
X95604461Y-102804166D02*
X95509223Y-102851785D01*
X95509223Y-102851785D02*
X95318747Y-102899404D01*
X95318747Y-102899404D02*
X95175890Y-102899404D01*
X95175890Y-102899404D02*
X94985414Y-102851785D01*
X94985414Y-102851785D02*
X94890176Y-102804166D01*
X94890176Y-102804166D02*
X94794938Y-102708928D01*
X94794938Y-102708928D02*
X94747319Y-102566071D01*
X94747319Y-102566071D02*
X94747319Y-102470833D01*
X94747319Y-102470833D02*
X94794938Y-102327976D01*
X94794938Y-102327976D02*
X94842557Y-102280357D01*
X95747319Y-101327976D02*
X95747319Y-101899404D01*
X95747319Y-101613690D02*
X94747319Y-101613690D01*
X94747319Y-101613690D02*
X94890176Y-101708928D01*
X94890176Y-101708928D02*
X94985414Y-101804166D01*
X94985414Y-101804166D02*
X95033033Y-101899404D01*
X94842557Y-100947023D02*
X94794938Y-100899404D01*
X94794938Y-100899404D02*
X94747319Y-100804166D01*
X94747319Y-100804166D02*
X94747319Y-100566071D01*
X94747319Y-100566071D02*
X94794938Y-100470833D01*
X94794938Y-100470833D02*
X94842557Y-100423214D01*
X94842557Y-100423214D02*
X94937795Y-100375595D01*
X94937795Y-100375595D02*
X95033033Y-100375595D01*
X95033033Y-100375595D02*
X95175890Y-100423214D01*
X95175890Y-100423214D02*
X95747319Y-100994642D01*
X95747319Y-100994642D02*
X95747319Y-100375595D01*
X82357142Y-123789580D02*
X82309523Y-123837200D01*
X82309523Y-123837200D02*
X82166666Y-123884819D01*
X82166666Y-123884819D02*
X82071428Y-123884819D01*
X82071428Y-123884819D02*
X81928571Y-123837200D01*
X81928571Y-123837200D02*
X81833333Y-123741961D01*
X81833333Y-123741961D02*
X81785714Y-123646723D01*
X81785714Y-123646723D02*
X81738095Y-123456247D01*
X81738095Y-123456247D02*
X81738095Y-123313390D01*
X81738095Y-123313390D02*
X81785714Y-123122914D01*
X81785714Y-123122914D02*
X81833333Y-123027676D01*
X81833333Y-123027676D02*
X81928571Y-122932438D01*
X81928571Y-122932438D02*
X82071428Y-122884819D01*
X82071428Y-122884819D02*
X82166666Y-122884819D01*
X82166666Y-122884819D02*
X82309523Y-122932438D01*
X82309523Y-122932438D02*
X82357142Y-122980057D01*
X83309523Y-123884819D02*
X82738095Y-123884819D01*
X83023809Y-123884819D02*
X83023809Y-122884819D01*
X83023809Y-122884819D02*
X82928571Y-123027676D01*
X82928571Y-123027676D02*
X82833333Y-123122914D01*
X82833333Y-123122914D02*
X82738095Y-123170533D01*
X84261904Y-123884819D02*
X83690476Y-123884819D01*
X83976190Y-123884819D02*
X83976190Y-122884819D01*
X83976190Y-122884819D02*
X83880952Y-123027676D01*
X83880952Y-123027676D02*
X83785714Y-123122914D01*
X83785714Y-123122914D02*
X83690476Y-123170533D01*
X90494642Y-95629580D02*
X90447023Y-95677200D01*
X90447023Y-95677200D02*
X90304166Y-95724819D01*
X90304166Y-95724819D02*
X90208928Y-95724819D01*
X90208928Y-95724819D02*
X90066071Y-95677200D01*
X90066071Y-95677200D02*
X89970833Y-95581961D01*
X89970833Y-95581961D02*
X89923214Y-95486723D01*
X89923214Y-95486723D02*
X89875595Y-95296247D01*
X89875595Y-95296247D02*
X89875595Y-95153390D01*
X89875595Y-95153390D02*
X89923214Y-94962914D01*
X89923214Y-94962914D02*
X89970833Y-94867676D01*
X89970833Y-94867676D02*
X90066071Y-94772438D01*
X90066071Y-94772438D02*
X90208928Y-94724819D01*
X90208928Y-94724819D02*
X90304166Y-94724819D01*
X90304166Y-94724819D02*
X90447023Y-94772438D01*
X90447023Y-94772438D02*
X90494642Y-94820057D01*
X91447023Y-95724819D02*
X90875595Y-95724819D01*
X91161309Y-95724819D02*
X91161309Y-94724819D01*
X91161309Y-94724819D02*
X91066071Y-94867676D01*
X91066071Y-94867676D02*
X90970833Y-94962914D01*
X90970833Y-94962914D02*
X90875595Y-95010533D01*
X92066071Y-94724819D02*
X92161309Y-94724819D01*
X92161309Y-94724819D02*
X92256547Y-94772438D01*
X92256547Y-94772438D02*
X92304166Y-94820057D01*
X92304166Y-94820057D02*
X92351785Y-94915295D01*
X92351785Y-94915295D02*
X92399404Y-95105771D01*
X92399404Y-95105771D02*
X92399404Y-95343866D01*
X92399404Y-95343866D02*
X92351785Y-95534342D01*
X92351785Y-95534342D02*
X92304166Y-95629580D01*
X92304166Y-95629580D02*
X92256547Y-95677200D01*
X92256547Y-95677200D02*
X92161309Y-95724819D01*
X92161309Y-95724819D02*
X92066071Y-95724819D01*
X92066071Y-95724819D02*
X91970833Y-95677200D01*
X91970833Y-95677200D02*
X91923214Y-95629580D01*
X91923214Y-95629580D02*
X91875595Y-95534342D01*
X91875595Y-95534342D02*
X91827976Y-95343866D01*
X91827976Y-95343866D02*
X91827976Y-95105771D01*
X91827976Y-95105771D02*
X91875595Y-94915295D01*
X91875595Y-94915295D02*
X91923214Y-94820057D01*
X91923214Y-94820057D02*
X91970833Y-94772438D01*
X91970833Y-94772438D02*
X92066071Y-94724819D01*
X74970833Y-79629580D02*
X74923214Y-79677200D01*
X74923214Y-79677200D02*
X74780357Y-79724819D01*
X74780357Y-79724819D02*
X74685119Y-79724819D01*
X74685119Y-79724819D02*
X74542262Y-79677200D01*
X74542262Y-79677200D02*
X74447024Y-79581961D01*
X74447024Y-79581961D02*
X74399405Y-79486723D01*
X74399405Y-79486723D02*
X74351786Y-79296247D01*
X74351786Y-79296247D02*
X74351786Y-79153390D01*
X74351786Y-79153390D02*
X74399405Y-78962914D01*
X74399405Y-78962914D02*
X74447024Y-78867676D01*
X74447024Y-78867676D02*
X74542262Y-78772438D01*
X74542262Y-78772438D02*
X74685119Y-78724819D01*
X74685119Y-78724819D02*
X74780357Y-78724819D01*
X74780357Y-78724819D02*
X74923214Y-78772438D01*
X74923214Y-78772438D02*
X74970833Y-78820057D01*
X75447024Y-79724819D02*
X75637500Y-79724819D01*
X75637500Y-79724819D02*
X75732738Y-79677200D01*
X75732738Y-79677200D02*
X75780357Y-79629580D01*
X75780357Y-79629580D02*
X75875595Y-79486723D01*
X75875595Y-79486723D02*
X75923214Y-79296247D01*
X75923214Y-79296247D02*
X75923214Y-78915295D01*
X75923214Y-78915295D02*
X75875595Y-78820057D01*
X75875595Y-78820057D02*
X75827976Y-78772438D01*
X75827976Y-78772438D02*
X75732738Y-78724819D01*
X75732738Y-78724819D02*
X75542262Y-78724819D01*
X75542262Y-78724819D02*
X75447024Y-78772438D01*
X75447024Y-78772438D02*
X75399405Y-78820057D01*
X75399405Y-78820057D02*
X75351786Y-78915295D01*
X75351786Y-78915295D02*
X75351786Y-79153390D01*
X75351786Y-79153390D02*
X75399405Y-79248628D01*
X75399405Y-79248628D02*
X75447024Y-79296247D01*
X75447024Y-79296247D02*
X75542262Y-79343866D01*
X75542262Y-79343866D02*
X75732738Y-79343866D01*
X75732738Y-79343866D02*
X75827976Y-79296247D01*
X75827976Y-79296247D02*
X75875595Y-79248628D01*
X75875595Y-79248628D02*
X75923214Y-79153390D01*
X66470833Y-92989580D02*
X66423214Y-93037200D01*
X66423214Y-93037200D02*
X66280357Y-93084819D01*
X66280357Y-93084819D02*
X66185119Y-93084819D01*
X66185119Y-93084819D02*
X66042262Y-93037200D01*
X66042262Y-93037200D02*
X65947024Y-92941961D01*
X65947024Y-92941961D02*
X65899405Y-92846723D01*
X65899405Y-92846723D02*
X65851786Y-92656247D01*
X65851786Y-92656247D02*
X65851786Y-92513390D01*
X65851786Y-92513390D02*
X65899405Y-92322914D01*
X65899405Y-92322914D02*
X65947024Y-92227676D01*
X65947024Y-92227676D02*
X66042262Y-92132438D01*
X66042262Y-92132438D02*
X66185119Y-92084819D01*
X66185119Y-92084819D02*
X66280357Y-92084819D01*
X66280357Y-92084819D02*
X66423214Y-92132438D01*
X66423214Y-92132438D02*
X66470833Y-92180057D01*
X66804167Y-92084819D02*
X67470833Y-92084819D01*
X67470833Y-92084819D02*
X67042262Y-93084819D01*
X98470833Y-93129580D02*
X98423214Y-93177200D01*
X98423214Y-93177200D02*
X98280357Y-93224819D01*
X98280357Y-93224819D02*
X98185119Y-93224819D01*
X98185119Y-93224819D02*
X98042262Y-93177200D01*
X98042262Y-93177200D02*
X97947024Y-93081961D01*
X97947024Y-93081961D02*
X97899405Y-92986723D01*
X97899405Y-92986723D02*
X97851786Y-92796247D01*
X97851786Y-92796247D02*
X97851786Y-92653390D01*
X97851786Y-92653390D02*
X97899405Y-92462914D01*
X97899405Y-92462914D02*
X97947024Y-92367676D01*
X97947024Y-92367676D02*
X98042262Y-92272438D01*
X98042262Y-92272438D02*
X98185119Y-92224819D01*
X98185119Y-92224819D02*
X98280357Y-92224819D01*
X98280357Y-92224819D02*
X98423214Y-92272438D01*
X98423214Y-92272438D02*
X98470833Y-92320057D01*
X99327976Y-92224819D02*
X99137500Y-92224819D01*
X99137500Y-92224819D02*
X99042262Y-92272438D01*
X99042262Y-92272438D02*
X98994643Y-92320057D01*
X98994643Y-92320057D02*
X98899405Y-92462914D01*
X98899405Y-92462914D02*
X98851786Y-92653390D01*
X98851786Y-92653390D02*
X98851786Y-93034342D01*
X98851786Y-93034342D02*
X98899405Y-93129580D01*
X98899405Y-93129580D02*
X98947024Y-93177200D01*
X98947024Y-93177200D02*
X99042262Y-93224819D01*
X99042262Y-93224819D02*
X99232738Y-93224819D01*
X99232738Y-93224819D02*
X99327976Y-93177200D01*
X99327976Y-93177200D02*
X99375595Y-93129580D01*
X99375595Y-93129580D02*
X99423214Y-93034342D01*
X99423214Y-93034342D02*
X99423214Y-92796247D01*
X99423214Y-92796247D02*
X99375595Y-92701009D01*
X99375595Y-92701009D02*
X99327976Y-92653390D01*
X99327976Y-92653390D02*
X99232738Y-92605771D01*
X99232738Y-92605771D02*
X99042262Y-92605771D01*
X99042262Y-92605771D02*
X98947024Y-92653390D01*
X98947024Y-92653390D02*
X98899405Y-92701009D01*
X98899405Y-92701009D02*
X98851786Y-92796247D01*
X98470833Y-88629580D02*
X98423214Y-88677200D01*
X98423214Y-88677200D02*
X98280357Y-88724819D01*
X98280357Y-88724819D02*
X98185119Y-88724819D01*
X98185119Y-88724819D02*
X98042262Y-88677200D01*
X98042262Y-88677200D02*
X97947024Y-88581961D01*
X97947024Y-88581961D02*
X97899405Y-88486723D01*
X97899405Y-88486723D02*
X97851786Y-88296247D01*
X97851786Y-88296247D02*
X97851786Y-88153390D01*
X97851786Y-88153390D02*
X97899405Y-87962914D01*
X97899405Y-87962914D02*
X97947024Y-87867676D01*
X97947024Y-87867676D02*
X98042262Y-87772438D01*
X98042262Y-87772438D02*
X98185119Y-87724819D01*
X98185119Y-87724819D02*
X98280357Y-87724819D01*
X98280357Y-87724819D02*
X98423214Y-87772438D01*
X98423214Y-87772438D02*
X98470833Y-87820057D01*
X99375595Y-87724819D02*
X98899405Y-87724819D01*
X98899405Y-87724819D02*
X98851786Y-88201009D01*
X98851786Y-88201009D02*
X98899405Y-88153390D01*
X98899405Y-88153390D02*
X98994643Y-88105771D01*
X98994643Y-88105771D02*
X99232738Y-88105771D01*
X99232738Y-88105771D02*
X99327976Y-88153390D01*
X99327976Y-88153390D02*
X99375595Y-88201009D01*
X99375595Y-88201009D02*
X99423214Y-88296247D01*
X99423214Y-88296247D02*
X99423214Y-88534342D01*
X99423214Y-88534342D02*
X99375595Y-88629580D01*
X99375595Y-88629580D02*
X99327976Y-88677200D01*
X99327976Y-88677200D02*
X99232738Y-88724819D01*
X99232738Y-88724819D02*
X98994643Y-88724819D01*
X98994643Y-88724819D02*
X98899405Y-88677200D01*
X98899405Y-88677200D02*
X98851786Y-88629580D01*
X98470833Y-83629580D02*
X98423214Y-83677200D01*
X98423214Y-83677200D02*
X98280357Y-83724819D01*
X98280357Y-83724819D02*
X98185119Y-83724819D01*
X98185119Y-83724819D02*
X98042262Y-83677200D01*
X98042262Y-83677200D02*
X97947024Y-83581961D01*
X97947024Y-83581961D02*
X97899405Y-83486723D01*
X97899405Y-83486723D02*
X97851786Y-83296247D01*
X97851786Y-83296247D02*
X97851786Y-83153390D01*
X97851786Y-83153390D02*
X97899405Y-82962914D01*
X97899405Y-82962914D02*
X97947024Y-82867676D01*
X97947024Y-82867676D02*
X98042262Y-82772438D01*
X98042262Y-82772438D02*
X98185119Y-82724819D01*
X98185119Y-82724819D02*
X98280357Y-82724819D01*
X98280357Y-82724819D02*
X98423214Y-82772438D01*
X98423214Y-82772438D02*
X98470833Y-82820057D01*
X99327976Y-83058152D02*
X99327976Y-83724819D01*
X99089881Y-82677200D02*
X98851786Y-83391485D01*
X98851786Y-83391485D02*
X99470833Y-83391485D01*
X98470833Y-79129580D02*
X98423214Y-79177200D01*
X98423214Y-79177200D02*
X98280357Y-79224819D01*
X98280357Y-79224819D02*
X98185119Y-79224819D01*
X98185119Y-79224819D02*
X98042262Y-79177200D01*
X98042262Y-79177200D02*
X97947024Y-79081961D01*
X97947024Y-79081961D02*
X97899405Y-78986723D01*
X97899405Y-78986723D02*
X97851786Y-78796247D01*
X97851786Y-78796247D02*
X97851786Y-78653390D01*
X97851786Y-78653390D02*
X97899405Y-78462914D01*
X97899405Y-78462914D02*
X97947024Y-78367676D01*
X97947024Y-78367676D02*
X98042262Y-78272438D01*
X98042262Y-78272438D02*
X98185119Y-78224819D01*
X98185119Y-78224819D02*
X98280357Y-78224819D01*
X98280357Y-78224819D02*
X98423214Y-78272438D01*
X98423214Y-78272438D02*
X98470833Y-78320057D01*
X98804167Y-78224819D02*
X99423214Y-78224819D01*
X99423214Y-78224819D02*
X99089881Y-78605771D01*
X99089881Y-78605771D02*
X99232738Y-78605771D01*
X99232738Y-78605771D02*
X99327976Y-78653390D01*
X99327976Y-78653390D02*
X99375595Y-78701009D01*
X99375595Y-78701009D02*
X99423214Y-78796247D01*
X99423214Y-78796247D02*
X99423214Y-79034342D01*
X99423214Y-79034342D02*
X99375595Y-79129580D01*
X99375595Y-79129580D02*
X99327976Y-79177200D01*
X99327976Y-79177200D02*
X99232738Y-79224819D01*
X99232738Y-79224819D02*
X98947024Y-79224819D01*
X98947024Y-79224819D02*
X98851786Y-79177200D01*
X98851786Y-79177200D02*
X98804167Y-79129580D01*
X82833333Y-136289580D02*
X82785714Y-136337200D01*
X82785714Y-136337200D02*
X82642857Y-136384819D01*
X82642857Y-136384819D02*
X82547619Y-136384819D01*
X82547619Y-136384819D02*
X82404762Y-136337200D01*
X82404762Y-136337200D02*
X82309524Y-136241961D01*
X82309524Y-136241961D02*
X82261905Y-136146723D01*
X82261905Y-136146723D02*
X82214286Y-135956247D01*
X82214286Y-135956247D02*
X82214286Y-135813390D01*
X82214286Y-135813390D02*
X82261905Y-135622914D01*
X82261905Y-135622914D02*
X82309524Y-135527676D01*
X82309524Y-135527676D02*
X82404762Y-135432438D01*
X82404762Y-135432438D02*
X82547619Y-135384819D01*
X82547619Y-135384819D02*
X82642857Y-135384819D01*
X82642857Y-135384819D02*
X82785714Y-135432438D01*
X82785714Y-135432438D02*
X82833333Y-135480057D01*
X83214286Y-135480057D02*
X83261905Y-135432438D01*
X83261905Y-135432438D02*
X83357143Y-135384819D01*
X83357143Y-135384819D02*
X83595238Y-135384819D01*
X83595238Y-135384819D02*
X83690476Y-135432438D01*
X83690476Y-135432438D02*
X83738095Y-135480057D01*
X83738095Y-135480057D02*
X83785714Y-135575295D01*
X83785714Y-135575295D02*
X83785714Y-135670533D01*
X83785714Y-135670533D02*
X83738095Y-135813390D01*
X83738095Y-135813390D02*
X83166667Y-136384819D01*
X83166667Y-136384819D02*
X83785714Y-136384819D01*
X82833333Y-139789580D02*
X82785714Y-139837200D01*
X82785714Y-139837200D02*
X82642857Y-139884819D01*
X82642857Y-139884819D02*
X82547619Y-139884819D01*
X82547619Y-139884819D02*
X82404762Y-139837200D01*
X82404762Y-139837200D02*
X82309524Y-139741961D01*
X82309524Y-139741961D02*
X82261905Y-139646723D01*
X82261905Y-139646723D02*
X82214286Y-139456247D01*
X82214286Y-139456247D02*
X82214286Y-139313390D01*
X82214286Y-139313390D02*
X82261905Y-139122914D01*
X82261905Y-139122914D02*
X82309524Y-139027676D01*
X82309524Y-139027676D02*
X82404762Y-138932438D01*
X82404762Y-138932438D02*
X82547619Y-138884819D01*
X82547619Y-138884819D02*
X82642857Y-138884819D01*
X82642857Y-138884819D02*
X82785714Y-138932438D01*
X82785714Y-138932438D02*
X82833333Y-138980057D01*
X83785714Y-139884819D02*
X83214286Y-139884819D01*
X83500000Y-139884819D02*
X83500000Y-138884819D01*
X83500000Y-138884819D02*
X83404762Y-139027676D01*
X83404762Y-139027676D02*
X83309524Y-139122914D01*
X83309524Y-139122914D02*
X83214286Y-139170533D01*
X75254819Y-114029523D02*
X74254819Y-114029523D01*
X74254819Y-114029523D02*
X74969104Y-113696190D01*
X74969104Y-113696190D02*
X74254819Y-113362857D01*
X74254819Y-113362857D02*
X75254819Y-113362857D01*
X75254819Y-112743809D02*
X75207200Y-112839047D01*
X75207200Y-112839047D02*
X75159580Y-112886666D01*
X75159580Y-112886666D02*
X75064342Y-112934285D01*
X75064342Y-112934285D02*
X74778628Y-112934285D01*
X74778628Y-112934285D02*
X74683390Y-112886666D01*
X74683390Y-112886666D02*
X74635771Y-112839047D01*
X74635771Y-112839047D02*
X74588152Y-112743809D01*
X74588152Y-112743809D02*
X74588152Y-112600952D01*
X74588152Y-112600952D02*
X74635771Y-112505714D01*
X74635771Y-112505714D02*
X74683390Y-112458095D01*
X74683390Y-112458095D02*
X74778628Y-112410476D01*
X74778628Y-112410476D02*
X75064342Y-112410476D01*
X75064342Y-112410476D02*
X75159580Y-112458095D01*
X75159580Y-112458095D02*
X75207200Y-112505714D01*
X75207200Y-112505714D02*
X75254819Y-112600952D01*
X75254819Y-112600952D02*
X75254819Y-112743809D01*
X74588152Y-112124761D02*
X74588152Y-111743809D01*
X74254819Y-111981904D02*
X75111961Y-111981904D01*
X75111961Y-111981904D02*
X75207200Y-111934285D01*
X75207200Y-111934285D02*
X75254819Y-111839047D01*
X75254819Y-111839047D02*
X75254819Y-111743809D01*
X75254819Y-111267618D02*
X75207200Y-111362856D01*
X75207200Y-111362856D02*
X75159580Y-111410475D01*
X75159580Y-111410475D02*
X75064342Y-111458094D01*
X75064342Y-111458094D02*
X74778628Y-111458094D01*
X74778628Y-111458094D02*
X74683390Y-111410475D01*
X74683390Y-111410475D02*
X74635771Y-111362856D01*
X74635771Y-111362856D02*
X74588152Y-111267618D01*
X74588152Y-111267618D02*
X74588152Y-111124761D01*
X74588152Y-111124761D02*
X74635771Y-111029523D01*
X74635771Y-111029523D02*
X74683390Y-110981904D01*
X74683390Y-110981904D02*
X74778628Y-110934285D01*
X74778628Y-110934285D02*
X75064342Y-110934285D01*
X75064342Y-110934285D02*
X75159580Y-110981904D01*
X75159580Y-110981904D02*
X75207200Y-111029523D01*
X75207200Y-111029523D02*
X75254819Y-111124761D01*
X75254819Y-111124761D02*
X75254819Y-111267618D01*
X75254819Y-110505713D02*
X74588152Y-110505713D01*
X74778628Y-110505713D02*
X74683390Y-110458094D01*
X74683390Y-110458094D02*
X74635771Y-110410475D01*
X74635771Y-110410475D02*
X74588152Y-110315237D01*
X74588152Y-110315237D02*
X74588152Y-110219999D01*
X74588152Y-109458094D02*
X75254819Y-109458094D01*
X74207200Y-109696189D02*
X74921485Y-109934284D01*
X74921485Y-109934284D02*
X74921485Y-109315237D01*
X75254819Y-137029523D02*
X74254819Y-137029523D01*
X74254819Y-137029523D02*
X74969104Y-136696190D01*
X74969104Y-136696190D02*
X74254819Y-136362857D01*
X74254819Y-136362857D02*
X75254819Y-136362857D01*
X75254819Y-135743809D02*
X75207200Y-135839047D01*
X75207200Y-135839047D02*
X75159580Y-135886666D01*
X75159580Y-135886666D02*
X75064342Y-135934285D01*
X75064342Y-135934285D02*
X74778628Y-135934285D01*
X74778628Y-135934285D02*
X74683390Y-135886666D01*
X74683390Y-135886666D02*
X74635771Y-135839047D01*
X74635771Y-135839047D02*
X74588152Y-135743809D01*
X74588152Y-135743809D02*
X74588152Y-135600952D01*
X74588152Y-135600952D02*
X74635771Y-135505714D01*
X74635771Y-135505714D02*
X74683390Y-135458095D01*
X74683390Y-135458095D02*
X74778628Y-135410476D01*
X74778628Y-135410476D02*
X75064342Y-135410476D01*
X75064342Y-135410476D02*
X75159580Y-135458095D01*
X75159580Y-135458095D02*
X75207200Y-135505714D01*
X75207200Y-135505714D02*
X75254819Y-135600952D01*
X75254819Y-135600952D02*
X75254819Y-135743809D01*
X74588152Y-135124761D02*
X74588152Y-134743809D01*
X74254819Y-134981904D02*
X75111961Y-134981904D01*
X75111961Y-134981904D02*
X75207200Y-134934285D01*
X75207200Y-134934285D02*
X75254819Y-134839047D01*
X75254819Y-134839047D02*
X75254819Y-134743809D01*
X75254819Y-134267618D02*
X75207200Y-134362856D01*
X75207200Y-134362856D02*
X75159580Y-134410475D01*
X75159580Y-134410475D02*
X75064342Y-134458094D01*
X75064342Y-134458094D02*
X74778628Y-134458094D01*
X74778628Y-134458094D02*
X74683390Y-134410475D01*
X74683390Y-134410475D02*
X74635771Y-134362856D01*
X74635771Y-134362856D02*
X74588152Y-134267618D01*
X74588152Y-134267618D02*
X74588152Y-134124761D01*
X74588152Y-134124761D02*
X74635771Y-134029523D01*
X74635771Y-134029523D02*
X74683390Y-133981904D01*
X74683390Y-133981904D02*
X74778628Y-133934285D01*
X74778628Y-133934285D02*
X75064342Y-133934285D01*
X75064342Y-133934285D02*
X75159580Y-133981904D01*
X75159580Y-133981904D02*
X75207200Y-134029523D01*
X75207200Y-134029523D02*
X75254819Y-134124761D01*
X75254819Y-134124761D02*
X75254819Y-134267618D01*
X75254819Y-133505713D02*
X74588152Y-133505713D01*
X74778628Y-133505713D02*
X74683390Y-133458094D01*
X74683390Y-133458094D02*
X74635771Y-133410475D01*
X74635771Y-133410475D02*
X74588152Y-133315237D01*
X74588152Y-133315237D02*
X74588152Y-133219999D01*
X74350057Y-132934284D02*
X74302438Y-132886665D01*
X74302438Y-132886665D02*
X74254819Y-132791427D01*
X74254819Y-132791427D02*
X74254819Y-132553332D01*
X74254819Y-132553332D02*
X74302438Y-132458094D01*
X74302438Y-132458094D02*
X74350057Y-132410475D01*
X74350057Y-132410475D02*
X74445295Y-132362856D01*
X74445295Y-132362856D02*
X74540533Y-132362856D01*
X74540533Y-132362856D02*
X74683390Y-132410475D01*
X74683390Y-132410475D02*
X75254819Y-132981903D01*
X75254819Y-132981903D02*
X75254819Y-132362856D01*
X75254819Y-148529523D02*
X74254819Y-148529523D01*
X74254819Y-148529523D02*
X74969104Y-148196190D01*
X74969104Y-148196190D02*
X74254819Y-147862857D01*
X74254819Y-147862857D02*
X75254819Y-147862857D01*
X75254819Y-147243809D02*
X75207200Y-147339047D01*
X75207200Y-147339047D02*
X75159580Y-147386666D01*
X75159580Y-147386666D02*
X75064342Y-147434285D01*
X75064342Y-147434285D02*
X74778628Y-147434285D01*
X74778628Y-147434285D02*
X74683390Y-147386666D01*
X74683390Y-147386666D02*
X74635771Y-147339047D01*
X74635771Y-147339047D02*
X74588152Y-147243809D01*
X74588152Y-147243809D02*
X74588152Y-147100952D01*
X74588152Y-147100952D02*
X74635771Y-147005714D01*
X74635771Y-147005714D02*
X74683390Y-146958095D01*
X74683390Y-146958095D02*
X74778628Y-146910476D01*
X74778628Y-146910476D02*
X75064342Y-146910476D01*
X75064342Y-146910476D02*
X75159580Y-146958095D01*
X75159580Y-146958095D02*
X75207200Y-147005714D01*
X75207200Y-147005714D02*
X75254819Y-147100952D01*
X75254819Y-147100952D02*
X75254819Y-147243809D01*
X74588152Y-146624761D02*
X74588152Y-146243809D01*
X74254819Y-146481904D02*
X75111961Y-146481904D01*
X75111961Y-146481904D02*
X75207200Y-146434285D01*
X75207200Y-146434285D02*
X75254819Y-146339047D01*
X75254819Y-146339047D02*
X75254819Y-146243809D01*
X75254819Y-145767618D02*
X75207200Y-145862856D01*
X75207200Y-145862856D02*
X75159580Y-145910475D01*
X75159580Y-145910475D02*
X75064342Y-145958094D01*
X75064342Y-145958094D02*
X74778628Y-145958094D01*
X74778628Y-145958094D02*
X74683390Y-145910475D01*
X74683390Y-145910475D02*
X74635771Y-145862856D01*
X74635771Y-145862856D02*
X74588152Y-145767618D01*
X74588152Y-145767618D02*
X74588152Y-145624761D01*
X74588152Y-145624761D02*
X74635771Y-145529523D01*
X74635771Y-145529523D02*
X74683390Y-145481904D01*
X74683390Y-145481904D02*
X74778628Y-145434285D01*
X74778628Y-145434285D02*
X75064342Y-145434285D01*
X75064342Y-145434285D02*
X75159580Y-145481904D01*
X75159580Y-145481904D02*
X75207200Y-145529523D01*
X75207200Y-145529523D02*
X75254819Y-145624761D01*
X75254819Y-145624761D02*
X75254819Y-145767618D01*
X75254819Y-145005713D02*
X74588152Y-145005713D01*
X74778628Y-145005713D02*
X74683390Y-144958094D01*
X74683390Y-144958094D02*
X74635771Y-144910475D01*
X74635771Y-144910475D02*
X74588152Y-144815237D01*
X74588152Y-144815237D02*
X74588152Y-144719999D01*
X75254819Y-143862856D02*
X75254819Y-144434284D01*
X75254819Y-144148570D02*
X74254819Y-144148570D01*
X74254819Y-144148570D02*
X74397676Y-144243808D01*
X74397676Y-144243808D02*
X74492914Y-144339046D01*
X74492914Y-144339046D02*
X74540533Y-144434284D01*
X90761905Y-70224819D02*
X90761905Y-69224819D01*
X90761905Y-69224819D02*
X91000000Y-69224819D01*
X91000000Y-69224819D02*
X91142857Y-69272438D01*
X91142857Y-69272438D02*
X91238095Y-69367676D01*
X91238095Y-69367676D02*
X91285714Y-69462914D01*
X91285714Y-69462914D02*
X91333333Y-69653390D01*
X91333333Y-69653390D02*
X91333333Y-69796247D01*
X91333333Y-69796247D02*
X91285714Y-69986723D01*
X91285714Y-69986723D02*
X91238095Y-70081961D01*
X91238095Y-70081961D02*
X91142857Y-70177200D01*
X91142857Y-70177200D02*
X91000000Y-70224819D01*
X91000000Y-70224819D02*
X90761905Y-70224819D01*
X91666667Y-69224819D02*
X92333333Y-69224819D01*
X92333333Y-69224819D02*
X91904762Y-70224819D01*
X82686905Y-70224819D02*
X82686905Y-69224819D01*
X82686905Y-69224819D02*
X82925000Y-69224819D01*
X82925000Y-69224819D02*
X83067857Y-69272438D01*
X83067857Y-69272438D02*
X83163095Y-69367676D01*
X83163095Y-69367676D02*
X83210714Y-69462914D01*
X83210714Y-69462914D02*
X83258333Y-69653390D01*
X83258333Y-69653390D02*
X83258333Y-69796247D01*
X83258333Y-69796247D02*
X83210714Y-69986723D01*
X83210714Y-69986723D02*
X83163095Y-70081961D01*
X83163095Y-70081961D02*
X83067857Y-70177200D01*
X83067857Y-70177200D02*
X82925000Y-70224819D01*
X82925000Y-70224819D02*
X82686905Y-70224819D01*
X84115476Y-69224819D02*
X83925000Y-69224819D01*
X83925000Y-69224819D02*
X83829762Y-69272438D01*
X83829762Y-69272438D02*
X83782143Y-69320057D01*
X83782143Y-69320057D02*
X83686905Y-69462914D01*
X83686905Y-69462914D02*
X83639286Y-69653390D01*
X83639286Y-69653390D02*
X83639286Y-70034342D01*
X83639286Y-70034342D02*
X83686905Y-70129580D01*
X83686905Y-70129580D02*
X83734524Y-70177200D01*
X83734524Y-70177200D02*
X83829762Y-70224819D01*
X83829762Y-70224819D02*
X84020238Y-70224819D01*
X84020238Y-70224819D02*
X84115476Y-70177200D01*
X84115476Y-70177200D02*
X84163095Y-70129580D01*
X84163095Y-70129580D02*
X84210714Y-70034342D01*
X84210714Y-70034342D02*
X84210714Y-69796247D01*
X84210714Y-69796247D02*
X84163095Y-69701009D01*
X84163095Y-69701009D02*
X84115476Y-69653390D01*
X84115476Y-69653390D02*
X84020238Y-69605771D01*
X84020238Y-69605771D02*
X83829762Y-69605771D01*
X83829762Y-69605771D02*
X83734524Y-69653390D01*
X83734524Y-69653390D02*
X83686905Y-69701009D01*
X83686905Y-69701009D02*
X83639286Y-69796247D01*
X77236905Y-111604819D02*
X77236905Y-110604819D01*
X77236905Y-110604819D02*
X77475000Y-110604819D01*
X77475000Y-110604819D02*
X77617857Y-110652438D01*
X77617857Y-110652438D02*
X77713095Y-110747676D01*
X77713095Y-110747676D02*
X77760714Y-110842914D01*
X77760714Y-110842914D02*
X77808333Y-111033390D01*
X77808333Y-111033390D02*
X77808333Y-111176247D01*
X77808333Y-111176247D02*
X77760714Y-111366723D01*
X77760714Y-111366723D02*
X77713095Y-111461961D01*
X77713095Y-111461961D02*
X77617857Y-111557200D01*
X77617857Y-111557200D02*
X77475000Y-111604819D01*
X77475000Y-111604819D02*
X77236905Y-111604819D01*
X78665476Y-110938152D02*
X78665476Y-111604819D01*
X78427381Y-110557200D02*
X78189286Y-111271485D01*
X78189286Y-111271485D02*
X78808333Y-111271485D01*
X75254819Y-125529523D02*
X74254819Y-125529523D01*
X74254819Y-125529523D02*
X74969104Y-125196190D01*
X74969104Y-125196190D02*
X74254819Y-124862857D01*
X74254819Y-124862857D02*
X75254819Y-124862857D01*
X75254819Y-124243809D02*
X75207200Y-124339047D01*
X75207200Y-124339047D02*
X75159580Y-124386666D01*
X75159580Y-124386666D02*
X75064342Y-124434285D01*
X75064342Y-124434285D02*
X74778628Y-124434285D01*
X74778628Y-124434285D02*
X74683390Y-124386666D01*
X74683390Y-124386666D02*
X74635771Y-124339047D01*
X74635771Y-124339047D02*
X74588152Y-124243809D01*
X74588152Y-124243809D02*
X74588152Y-124100952D01*
X74588152Y-124100952D02*
X74635771Y-124005714D01*
X74635771Y-124005714D02*
X74683390Y-123958095D01*
X74683390Y-123958095D02*
X74778628Y-123910476D01*
X74778628Y-123910476D02*
X75064342Y-123910476D01*
X75064342Y-123910476D02*
X75159580Y-123958095D01*
X75159580Y-123958095D02*
X75207200Y-124005714D01*
X75207200Y-124005714D02*
X75254819Y-124100952D01*
X75254819Y-124100952D02*
X75254819Y-124243809D01*
X74588152Y-123624761D02*
X74588152Y-123243809D01*
X74254819Y-123481904D02*
X75111961Y-123481904D01*
X75111961Y-123481904D02*
X75207200Y-123434285D01*
X75207200Y-123434285D02*
X75254819Y-123339047D01*
X75254819Y-123339047D02*
X75254819Y-123243809D01*
X75254819Y-122767618D02*
X75207200Y-122862856D01*
X75207200Y-122862856D02*
X75159580Y-122910475D01*
X75159580Y-122910475D02*
X75064342Y-122958094D01*
X75064342Y-122958094D02*
X74778628Y-122958094D01*
X74778628Y-122958094D02*
X74683390Y-122910475D01*
X74683390Y-122910475D02*
X74635771Y-122862856D01*
X74635771Y-122862856D02*
X74588152Y-122767618D01*
X74588152Y-122767618D02*
X74588152Y-122624761D01*
X74588152Y-122624761D02*
X74635771Y-122529523D01*
X74635771Y-122529523D02*
X74683390Y-122481904D01*
X74683390Y-122481904D02*
X74778628Y-122434285D01*
X74778628Y-122434285D02*
X75064342Y-122434285D01*
X75064342Y-122434285D02*
X75159580Y-122481904D01*
X75159580Y-122481904D02*
X75207200Y-122529523D01*
X75207200Y-122529523D02*
X75254819Y-122624761D01*
X75254819Y-122624761D02*
X75254819Y-122767618D01*
X75254819Y-122005713D02*
X74588152Y-122005713D01*
X74778628Y-122005713D02*
X74683390Y-121958094D01*
X74683390Y-121958094D02*
X74635771Y-121910475D01*
X74635771Y-121910475D02*
X74588152Y-121815237D01*
X74588152Y-121815237D02*
X74588152Y-121719999D01*
X74254819Y-121481903D02*
X74254819Y-120862856D01*
X74254819Y-120862856D02*
X74635771Y-121196189D01*
X74635771Y-121196189D02*
X74635771Y-121053332D01*
X74635771Y-121053332D02*
X74683390Y-120958094D01*
X74683390Y-120958094D02*
X74731009Y-120910475D01*
X74731009Y-120910475D02*
X74826247Y-120862856D01*
X74826247Y-120862856D02*
X75064342Y-120862856D01*
X75064342Y-120862856D02*
X75159580Y-120910475D01*
X75159580Y-120910475D02*
X75207200Y-120958094D01*
X75207200Y-120958094D02*
X75254819Y-121053332D01*
X75254819Y-121053332D02*
X75254819Y-121339046D01*
X75254819Y-121339046D02*
X75207200Y-121434284D01*
X75207200Y-121434284D02*
X75159580Y-121481903D01*
X77136905Y-146104819D02*
X77136905Y-145104819D01*
X77136905Y-145104819D02*
X77375000Y-145104819D01*
X77375000Y-145104819D02*
X77517857Y-145152438D01*
X77517857Y-145152438D02*
X77613095Y-145247676D01*
X77613095Y-145247676D02*
X77660714Y-145342914D01*
X77660714Y-145342914D02*
X77708333Y-145533390D01*
X77708333Y-145533390D02*
X77708333Y-145676247D01*
X77708333Y-145676247D02*
X77660714Y-145866723D01*
X77660714Y-145866723D02*
X77613095Y-145961961D01*
X77613095Y-145961961D02*
X77517857Y-146057200D01*
X77517857Y-146057200D02*
X77375000Y-146104819D01*
X77375000Y-146104819D02*
X77136905Y-146104819D01*
X78660714Y-146104819D02*
X78089286Y-146104819D01*
X78375000Y-146104819D02*
X78375000Y-145104819D01*
X78375000Y-145104819D02*
X78279762Y-145247676D01*
X78279762Y-145247676D02*
X78184524Y-145342914D01*
X78184524Y-145342914D02*
X78089286Y-145390533D01*
X77236905Y-123104819D02*
X77236905Y-122104819D01*
X77236905Y-122104819D02*
X77475000Y-122104819D01*
X77475000Y-122104819D02*
X77617857Y-122152438D01*
X77617857Y-122152438D02*
X77713095Y-122247676D01*
X77713095Y-122247676D02*
X77760714Y-122342914D01*
X77760714Y-122342914D02*
X77808333Y-122533390D01*
X77808333Y-122533390D02*
X77808333Y-122676247D01*
X77808333Y-122676247D02*
X77760714Y-122866723D01*
X77760714Y-122866723D02*
X77713095Y-122961961D01*
X77713095Y-122961961D02*
X77617857Y-123057200D01*
X77617857Y-123057200D02*
X77475000Y-123104819D01*
X77475000Y-123104819D02*
X77236905Y-123104819D01*
X78141667Y-122104819D02*
X78760714Y-122104819D01*
X78760714Y-122104819D02*
X78427381Y-122485771D01*
X78427381Y-122485771D02*
X78570238Y-122485771D01*
X78570238Y-122485771D02*
X78665476Y-122533390D01*
X78665476Y-122533390D02*
X78713095Y-122581009D01*
X78713095Y-122581009D02*
X78760714Y-122676247D01*
X78760714Y-122676247D02*
X78760714Y-122914342D01*
X78760714Y-122914342D02*
X78713095Y-123009580D01*
X78713095Y-123009580D02*
X78665476Y-123057200D01*
X78665476Y-123057200D02*
X78570238Y-123104819D01*
X78570238Y-123104819D02*
X78284524Y-123104819D01*
X78284524Y-123104819D02*
X78189286Y-123057200D01*
X78189286Y-123057200D02*
X78141667Y-123009580D01*
X77136905Y-134384819D02*
X77136905Y-133384819D01*
X77136905Y-133384819D02*
X77375000Y-133384819D01*
X77375000Y-133384819D02*
X77517857Y-133432438D01*
X77517857Y-133432438D02*
X77613095Y-133527676D01*
X77613095Y-133527676D02*
X77660714Y-133622914D01*
X77660714Y-133622914D02*
X77708333Y-133813390D01*
X77708333Y-133813390D02*
X77708333Y-133956247D01*
X77708333Y-133956247D02*
X77660714Y-134146723D01*
X77660714Y-134146723D02*
X77613095Y-134241961D01*
X77613095Y-134241961D02*
X77517857Y-134337200D01*
X77517857Y-134337200D02*
X77375000Y-134384819D01*
X77375000Y-134384819D02*
X77136905Y-134384819D01*
X78089286Y-133480057D02*
X78136905Y-133432438D01*
X78136905Y-133432438D02*
X78232143Y-133384819D01*
X78232143Y-133384819D02*
X78470238Y-133384819D01*
X78470238Y-133384819D02*
X78565476Y-133432438D01*
X78565476Y-133432438D02*
X78613095Y-133480057D01*
X78613095Y-133480057D02*
X78660714Y-133575295D01*
X78660714Y-133575295D02*
X78660714Y-133670533D01*
X78660714Y-133670533D02*
X78613095Y-133813390D01*
X78613095Y-133813390D02*
X78041667Y-134384819D01*
X78041667Y-134384819D02*
X78660714Y-134384819D01*
X74424405Y-70224819D02*
X74424405Y-69224819D01*
X74424405Y-69224819D02*
X74662500Y-69224819D01*
X74662500Y-69224819D02*
X74805357Y-69272438D01*
X74805357Y-69272438D02*
X74900595Y-69367676D01*
X74900595Y-69367676D02*
X74948214Y-69462914D01*
X74948214Y-69462914D02*
X74995833Y-69653390D01*
X74995833Y-69653390D02*
X74995833Y-69796247D01*
X74995833Y-69796247D02*
X74948214Y-69986723D01*
X74948214Y-69986723D02*
X74900595Y-70081961D01*
X74900595Y-70081961D02*
X74805357Y-70177200D01*
X74805357Y-70177200D02*
X74662500Y-70224819D01*
X74662500Y-70224819D02*
X74424405Y-70224819D01*
X75900595Y-69224819D02*
X75424405Y-69224819D01*
X75424405Y-69224819D02*
X75376786Y-69701009D01*
X75376786Y-69701009D02*
X75424405Y-69653390D01*
X75424405Y-69653390D02*
X75519643Y-69605771D01*
X75519643Y-69605771D02*
X75757738Y-69605771D01*
X75757738Y-69605771D02*
X75852976Y-69653390D01*
X75852976Y-69653390D02*
X75900595Y-69701009D01*
X75900595Y-69701009D02*
X75948214Y-69796247D01*
X75948214Y-69796247D02*
X75948214Y-70034342D01*
X75948214Y-70034342D02*
X75900595Y-70129580D01*
X75900595Y-70129580D02*
X75852976Y-70177200D01*
X75852976Y-70177200D02*
X75757738Y-70224819D01*
X75757738Y-70224819D02*
X75519643Y-70224819D01*
X75519643Y-70224819D02*
X75424405Y-70177200D01*
X75424405Y-70177200D02*
X75376786Y-70129580D01*
D11*
%TO.C,J4*%
X96750000Y-152150000D02*
X96750000Y-150150000D01*
X96750000Y-150150000D02*
X96250000Y-150400000D01*
X96750000Y-145250000D02*
X96750000Y-140200000D01*
X96750000Y-140200000D02*
X80850000Y-140200000D01*
X96250000Y-152800000D02*
X96250000Y-151850000D01*
X96250000Y-151850000D02*
X96750000Y-152150000D01*
X96250000Y-150400000D02*
X96250000Y-145000000D01*
X96250000Y-145000000D02*
X96750000Y-145250000D01*
X80850000Y-152800000D02*
X96250000Y-152800000D01*
X80850000Y-140200000D02*
X80850000Y-152800000D01*
%TO.C,C8*%
X66152500Y-79137500D02*
X66152500Y-78350000D01*
X65758750Y-78743750D02*
X66546250Y-78743750D01*
X65654437Y-78110000D02*
X66940000Y-78110000D01*
X65654437Y-78110000D02*
X64590000Y-77045563D01*
X70345563Y-78110000D02*
X69060000Y-78110000D01*
X70345563Y-78110000D02*
X71410000Y-77045563D01*
X64590000Y-77045563D02*
X64590000Y-71290000D01*
X71410000Y-77045563D02*
X71410000Y-71290000D01*
X64590000Y-71290000D02*
X66940000Y-71290000D01*
X71410000Y-71290000D02*
X69060000Y-71290000D01*
D12*
%TO.C,Q1*%
X81676199Y-85046200D02*
G75*
G02*
X81523799Y-85046200I-76200J0D01*
G01*
X81523799Y-85046200D02*
G75*
G02*
X81676199Y-85046200I76200J0D01*
G01*
X82237538Y-83280900D02*
X82862460Y-83280900D01*
X84175599Y-83280900D02*
X84175599Y-81629900D01*
X84175599Y-81629900D02*
X83187539Y-81629900D01*
X80924399Y-81629900D02*
X80924399Y-83280900D01*
X81912459Y-81629900D02*
X80924399Y-81629900D01*
%TO.C,J3*%
X88043000Y-133259981D02*
X88043000Y-131227982D01*
X88043000Y-131227982D02*
X89236800Y-132243982D01*
X88043000Y-133259981D02*
X89236800Y-132243982D01*
X92992501Y-135799981D02*
X95175000Y-135799981D01*
X95175000Y-135799981D02*
X95175000Y-117200019D01*
X95175000Y-117200019D02*
X92992501Y-117200019D01*
X89975000Y-117200019D02*
X89975000Y-120282489D01*
X89975000Y-132717488D02*
X89975000Y-135799981D01*
D11*
%TO.C,U4*%
X92025000Y-104845000D02*
X90075000Y-104845000D01*
X92025000Y-104845000D02*
X93975000Y-104845000D01*
X92025000Y-109965000D02*
X90075000Y-109965000D01*
X92025000Y-109965000D02*
X93975000Y-109965000D01*
X89325000Y-104940000D02*
X89085000Y-104610000D01*
X89565000Y-104610000D01*
X89325000Y-104940000D01*
G36*
X89325000Y-104940000D02*
G01*
X89085000Y-104610000D01*
X89565000Y-104610000D01*
X89325000Y-104940000D01*
G37*
%TO.C,U3*%
X64890000Y-87680000D02*
X64560000Y-87920000D01*
X64560000Y-87440000D01*
X64890000Y-87680000D01*
G36*
X64890000Y-87680000D02*
G01*
X64560000Y-87920000D01*
X64560000Y-87440000D01*
X64890000Y-87680000D01*
G37*
X71610000Y-82640000D02*
X70350000Y-82640000D01*
X64790000Y-82640000D02*
X66050000Y-82640000D01*
X71610000Y-86400000D02*
X71610000Y-82640000D01*
X64790000Y-86400000D02*
X64790000Y-82640000D01*
%TO.C,U2*%
X92402500Y-92090000D02*
X91922500Y-92090000D01*
X92162500Y-91760000D01*
X92402500Y-92090000D01*
G36*
X92402500Y-92090000D02*
G01*
X91922500Y-92090000D01*
X92162500Y-91760000D01*
X92402500Y-92090000D01*
G37*
X90862500Y-88690000D02*
X90062500Y-88690000D01*
X90862500Y-88690000D02*
X91662500Y-88690000D01*
X90862500Y-91810000D02*
X90062500Y-91810000D01*
X90862500Y-91810000D02*
X91662500Y-91810000D01*
%TO.C,U1*%
X92402500Y-82590000D02*
X91922500Y-82590000D01*
X92162500Y-82260000D01*
X92402500Y-82590000D01*
G36*
X92402500Y-82590000D02*
G01*
X91922500Y-82590000D01*
X92162500Y-82260000D01*
X92402500Y-82590000D01*
G37*
X90862500Y-79190000D02*
X90062500Y-79190000D01*
X90862500Y-79190000D02*
X91662500Y-79190000D01*
X90862500Y-82310000D02*
X90062500Y-82310000D01*
X90862500Y-82310000D02*
X91662500Y-82310000D01*
%TO.C,R15*%
X87832776Y-114522500D02*
X88342224Y-114522500D01*
X87832776Y-113477500D02*
X88342224Y-113477500D01*
%TO.C,R14*%
X83254724Y-129977500D02*
X82745276Y-129977500D01*
X83254724Y-131022500D02*
X82745276Y-131022500D01*
%TO.C,R13*%
X88977500Y-101842224D02*
X88977500Y-101332776D01*
X90022500Y-101842224D02*
X90022500Y-101332776D01*
%TO.C,R12*%
X83254724Y-114522500D02*
X82745276Y-114522500D01*
X83254724Y-113477500D02*
X82745276Y-113477500D01*
%TO.C,R11*%
X83254724Y-118522500D02*
X82745276Y-118522500D01*
X83254724Y-117477500D02*
X82745276Y-117477500D01*
%TO.C,R10*%
X83254724Y-127022500D02*
X82745276Y-127022500D01*
X83254724Y-125977500D02*
X82745276Y-125977500D01*
%TO.C,R9*%
X73977500Y-90857776D02*
X73977500Y-91367224D01*
X75022500Y-90857776D02*
X75022500Y-91367224D01*
%TO.C,R8*%
X82754724Y-87177500D02*
X82245276Y-87177500D01*
X82754724Y-88222500D02*
X82245276Y-88222500D01*
%TO.C,R7*%
X91245276Y-76502500D02*
X91754724Y-76502500D01*
X91245276Y-75457500D02*
X91754724Y-75457500D01*
%TO.C,R6*%
X83232776Y-76612500D02*
X83742224Y-76612500D01*
X83232776Y-75567500D02*
X83742224Y-75567500D01*
%TO.C,R5*%
X74845276Y-76722500D02*
X75354724Y-76722500D01*
X74845276Y-75677500D02*
X75354724Y-75677500D01*
%TO.C,R4*%
X78167224Y-114572500D02*
X77657776Y-114572500D01*
X78167224Y-113527500D02*
X77657776Y-113527500D01*
%TO.C,R3*%
X78167224Y-125137500D02*
X77657776Y-125137500D01*
X78167224Y-126182500D02*
X77657776Y-126182500D01*
%TO.C,R2*%
X78129724Y-136477500D02*
X77620276Y-136477500D01*
X78129724Y-137522500D02*
X77620276Y-137522500D01*
%TO.C,R1*%
X78167224Y-148197500D02*
X77657776Y-148197500D01*
X78167224Y-149242500D02*
X77657776Y-149242500D01*
%TO.C,C12*%
X93352500Y-101491233D02*
X93352500Y-101783767D01*
X94372500Y-101491233D02*
X94372500Y-101783767D01*
%TO.C,C11*%
X83146267Y-121490000D02*
X82853733Y-121490000D01*
X83146267Y-122510000D02*
X82853733Y-122510000D01*
%TO.C,C10*%
X90991233Y-96190000D02*
X91283767Y-96190000D01*
X90991233Y-97210000D02*
X91283767Y-97210000D01*
%TO.C,C9*%
X74991233Y-81210000D02*
X75283767Y-81210000D01*
X74991233Y-80190000D02*
X75283767Y-80190000D01*
%TO.C,C7*%
X66783767Y-90690000D02*
X66491233Y-90690000D01*
X66783767Y-91710000D02*
X66491233Y-91710000D01*
%TO.C,C6*%
X98491233Y-94710000D02*
X98783767Y-94710000D01*
X98491233Y-93690000D02*
X98783767Y-93690000D01*
%TO.C,C5*%
X98491233Y-90210000D02*
X98783767Y-90210000D01*
X98491233Y-89190000D02*
X98783767Y-89190000D01*
%TO.C,C4*%
X98491233Y-85210000D02*
X98783767Y-85210000D01*
X98491233Y-84190000D02*
X98783767Y-84190000D01*
%TO.C,C3*%
X98491233Y-79690000D02*
X98783767Y-79690000D01*
X98491233Y-80710000D02*
X98783767Y-80710000D01*
%TO.C,C2*%
X83146267Y-133990000D02*
X82853733Y-133990000D01*
X83146267Y-135010000D02*
X82853733Y-135010000D01*
%TO.C,C1*%
X83146267Y-138510000D02*
X82853733Y-138510000D01*
X83146267Y-137490000D02*
X82853733Y-137490000D01*
%TO.C,Motor4*%
X73710000Y-116830000D02*
X73710000Y-106610000D01*
X73710000Y-106610000D02*
X69690000Y-106610000D01*
X73210000Y-116330000D02*
X72000000Y-116330000D01*
X73210000Y-107110000D02*
X73210000Y-116330000D01*
X72000000Y-116330000D02*
X72000000Y-116830000D01*
X72000000Y-107110000D02*
X73210000Y-107110000D01*
X72000000Y-106610000D02*
X72000000Y-107110000D01*
X71890000Y-106310000D02*
X69390000Y-106310000D01*
X71190000Y-116830000D02*
X71190000Y-115830000D01*
X71190000Y-115830000D02*
X69690000Y-115830000D01*
X71190000Y-107610000D02*
X69690000Y-107610000D01*
X71190000Y-106610000D02*
X71190000Y-107610000D01*
X69690000Y-116830000D02*
X73710000Y-116830000D01*
X69690000Y-106610000D02*
X69690000Y-116830000D01*
X69390000Y-106310000D02*
X69390000Y-108810000D01*
%TO.C,Motor2*%
X73710000Y-139830000D02*
X73710000Y-129610000D01*
X73710000Y-129610000D02*
X69690000Y-129610000D01*
X73210000Y-139330000D02*
X72000000Y-139330000D01*
X73210000Y-130110000D02*
X73210000Y-139330000D01*
X72000000Y-139330000D02*
X72000000Y-139830000D01*
X72000000Y-130110000D02*
X73210000Y-130110000D01*
X72000000Y-129610000D02*
X72000000Y-130110000D01*
X71890000Y-129310000D02*
X69390000Y-129310000D01*
X71190000Y-139830000D02*
X71190000Y-138830000D01*
X71190000Y-138830000D02*
X69690000Y-138830000D01*
X71190000Y-130610000D02*
X69690000Y-130610000D01*
X71190000Y-129610000D02*
X71190000Y-130610000D01*
X69690000Y-139830000D02*
X73710000Y-139830000D01*
X69690000Y-129610000D02*
X69690000Y-139830000D01*
X69390000Y-129310000D02*
X69390000Y-131810000D01*
%TO.C,Motor1*%
X73710000Y-151330000D02*
X73710000Y-141110000D01*
X73710000Y-141110000D02*
X69690000Y-141110000D01*
X73210000Y-150830000D02*
X72000000Y-150830000D01*
X73210000Y-141610000D02*
X73210000Y-150830000D01*
X72000000Y-150830000D02*
X72000000Y-151330000D01*
X72000000Y-141610000D02*
X73210000Y-141610000D01*
X72000000Y-141110000D02*
X72000000Y-141610000D01*
X71890000Y-140810000D02*
X69390000Y-140810000D01*
X71190000Y-151330000D02*
X71190000Y-150330000D01*
X71190000Y-150330000D02*
X69690000Y-150330000D01*
X71190000Y-142110000D02*
X69690000Y-142110000D01*
X71190000Y-141110000D02*
X71190000Y-142110000D01*
X69690000Y-151330000D02*
X73710000Y-151330000D01*
X69690000Y-141110000D02*
X69690000Y-151330000D01*
X69390000Y-140810000D02*
X69390000Y-143310000D01*
%TO.C,D7*%
X92300000Y-70465000D02*
X89840000Y-70465000D01*
X89840000Y-71935000D02*
X92300000Y-71935000D01*
X89840000Y-70465000D02*
X89840000Y-71935000D01*
%TO.C,D6*%
X84225000Y-70465000D02*
X81765000Y-70465000D01*
X81765000Y-71935000D02*
X84225000Y-71935000D01*
X81765000Y-70465000D02*
X81765000Y-71935000D01*
%TO.C,D4*%
X79635000Y-110455000D02*
X79635000Y-108985000D01*
X79635000Y-108985000D02*
X77175000Y-108985000D01*
X77175000Y-110455000D02*
X79635000Y-110455000D01*
%TO.C,Motor3*%
X73710000Y-128330000D02*
X73710000Y-118110000D01*
X73710000Y-118110000D02*
X69690000Y-118110000D01*
X73210000Y-127830000D02*
X72000000Y-127830000D01*
X73210000Y-118610000D02*
X73210000Y-127830000D01*
X72000000Y-127830000D02*
X72000000Y-128330000D01*
X72000000Y-118610000D02*
X73210000Y-118610000D01*
X72000000Y-118110000D02*
X72000000Y-118610000D01*
X71890000Y-117810000D02*
X69390000Y-117810000D01*
X71190000Y-128330000D02*
X71190000Y-127330000D01*
X71190000Y-127330000D02*
X69690000Y-127330000D01*
X71190000Y-119110000D02*
X69690000Y-119110000D01*
X71190000Y-118110000D02*
X71190000Y-119110000D01*
X69690000Y-128330000D02*
X73710000Y-128330000D01*
X69690000Y-118110000D02*
X69690000Y-128330000D01*
X69390000Y-117810000D02*
X69390000Y-120310000D01*
%TO.C,D1*%
X77075000Y-144955000D02*
X79535000Y-144955000D01*
X79535000Y-143485000D02*
X77075000Y-143485000D01*
X79535000Y-144955000D02*
X79535000Y-143485000D01*
%TO.C,D3*%
X77175000Y-121955000D02*
X79635000Y-121955000D01*
X79635000Y-120485000D02*
X77175000Y-120485000D01*
X79635000Y-121955000D02*
X79635000Y-120485000D01*
%TO.C,D2*%
X77075000Y-133235000D02*
X79535000Y-133235000D01*
X79535000Y-131765000D02*
X77075000Y-131765000D01*
X79535000Y-133235000D02*
X79535000Y-131765000D01*
%TO.C,D5*%
X75962500Y-70465000D02*
X73502500Y-70465000D01*
X73502500Y-71935000D02*
X75962500Y-71935000D01*
X73502500Y-70465000D02*
X73502500Y-71935000D01*
%TD*%
M02*
