%TF.GenerationSoftware,KiCad,Pcbnew,8.0.5*%
%TF.CreationDate,2024-10-31T16:18:24-07:00*%
%TF.ProjectId,CustomMotorshield,43757374-6f6d-44d6-9f74-6f7273686965,rev?*%
%TF.SameCoordinates,Original*%
%TF.FileFunction,Legend,Bot*%
%TF.FilePolarity,Positive*%
%FSLAX46Y46*%
G04 Gerber Fmt 4.6, Leading zero omitted, Abs format (unit mm)*
G04 Created by KiCad (PCBNEW 8.0.5) date 2024-10-31 16:18:24*
%MOMM*%
%LPD*%
G01*
G04 APERTURE LIST*
%ADD10C,0.150000*%
%ADD11C,0.120000*%
G04 APERTURE END LIST*
D10*
X100170833Y-97204819D02*
X100170833Y-97919104D01*
X100170833Y-97919104D02*
X100218452Y-98061961D01*
X100218452Y-98061961D02*
X100313690Y-98157200D01*
X100313690Y-98157200D02*
X100456547Y-98204819D01*
X100456547Y-98204819D02*
X100551785Y-98204819D01*
X99170833Y-98204819D02*
X99742261Y-98204819D01*
X99456547Y-98204819D02*
X99456547Y-97204819D01*
X99456547Y-97204819D02*
X99551785Y-97347676D01*
X99551785Y-97347676D02*
X99647023Y-97442914D01*
X99647023Y-97442914D02*
X99742261Y-97490533D01*
X66833333Y-97204819D02*
X66833333Y-97919104D01*
X66833333Y-97919104D02*
X66880952Y-98061961D01*
X66880952Y-98061961D02*
X66976190Y-98157200D01*
X66976190Y-98157200D02*
X67119047Y-98204819D01*
X67119047Y-98204819D02*
X67214285Y-98204819D01*
X66404761Y-97300057D02*
X66357142Y-97252438D01*
X66357142Y-97252438D02*
X66261904Y-97204819D01*
X66261904Y-97204819D02*
X66023809Y-97204819D01*
X66023809Y-97204819D02*
X65928571Y-97252438D01*
X65928571Y-97252438D02*
X65880952Y-97300057D01*
X65880952Y-97300057D02*
X65833333Y-97395295D01*
X65833333Y-97395295D02*
X65833333Y-97490533D01*
X65833333Y-97490533D02*
X65880952Y-97633390D01*
X65880952Y-97633390D02*
X66452380Y-98204819D01*
X66452380Y-98204819D02*
X65833333Y-98204819D01*
D11*
%TO.C,J1*%
X98507500Y-101350000D02*
X101167500Y-101350000D01*
X98507500Y-149670000D02*
X98507500Y-101350000D01*
X98507500Y-149670000D02*
X101167500Y-149670000D01*
X99837500Y-98750000D02*
X101167500Y-98750000D01*
X101167500Y-98750000D02*
X101167500Y-100080000D01*
X101167500Y-149670000D02*
X101167500Y-101350000D01*
%TO.C,J2*%
X65170000Y-101350000D02*
X67830000Y-101350000D01*
X65170000Y-149670000D02*
X65170000Y-101350000D01*
X65170000Y-149670000D02*
X67830000Y-149670000D01*
X66500000Y-98750000D02*
X67830000Y-98750000D01*
X67830000Y-98750000D02*
X67830000Y-100080000D01*
X67830000Y-149670000D02*
X67830000Y-101350000D01*
%TD*%
M02*
