%TF.GenerationSoftware,KiCad,Pcbnew,8.0.5*%
%TF.CreationDate,2024-10-31T16:18:24-07:00*%
%TF.ProjectId,CustomMotorshield,43757374-6f6d-44d6-9f74-6f7273686965,rev?*%
%TF.SameCoordinates,Original*%
%TF.FileFunction,Soldermask,Bot*%
%TF.FilePolarity,Negative*%
%FSLAX46Y46*%
G04 Gerber Fmt 4.6, Leading zero omitted, Abs format (unit mm)*
G04 Created by KiCad (PCBNEW 8.0.5) date 2024-10-31 16:18:24*
%MOMM*%
%LPD*%
G01*
G04 APERTURE LIST*
G04 Aperture macros list*
%AMRoundRect*
0 Rectangle with rounded corners*
0 $1 Rounding radius*
0 $2 $3 $4 $5 $6 $7 $8 $9 X,Y pos of 4 corners*
0 Add a 4 corners polygon primitive as box body*
4,1,4,$2,$3,$4,$5,$6,$7,$8,$9,$2,$3,0*
0 Add four circle primitives for the rounded corners*
1,1,$1+$1,$2,$3*
1,1,$1+$1,$4,$5*
1,1,$1+$1,$6,$7*
1,1,$1+$1,$8,$9*
0 Add four rect primitives between the rounded corners*
20,1,$1+$1,$2,$3,$4,$5,0*
20,1,$1+$1,$4,$5,$6,$7,0*
20,1,$1+$1,$6,$7,$8,$9,0*
20,1,$1+$1,$8,$9,$2,$3,0*%
G04 Aperture macros list end*
%ADD10O,1.980000X3.960000*%
%ADD11R,1.980000X3.960000*%
%ADD12O,1.950000X1.700000*%
%ADD13RoundRect,0.250000X-0.725000X0.600000X-0.725000X-0.600000X0.725000X-0.600000X0.725000X0.600000X0*%
%ADD14R,1.700000X1.700000*%
%ADD15O,1.700000X1.700000*%
G04 APERTURE END LIST*
D10*
%TO.C,J4*%
X93500000Y-146500000D03*
X88500000Y-146500000D03*
D11*
X83500000Y-146500000D03*
%TD*%
D12*
%TO.C,Motor4*%
X72000000Y-114220000D03*
X72000000Y-111720000D03*
D13*
X72000000Y-109220000D03*
%TD*%
D12*
%TO.C,Motor2*%
X72000000Y-137220000D03*
X72000000Y-134720000D03*
D13*
X72000000Y-132220000D03*
%TD*%
D12*
%TO.C,Motor1*%
X72000000Y-148720000D03*
X72000000Y-146220000D03*
D13*
X72000000Y-143720000D03*
%TD*%
D14*
%TO.C,J1*%
X99837500Y-100080000D03*
D15*
X99837500Y-102620000D03*
X99837500Y-105160000D03*
X99837500Y-107700000D03*
X99837500Y-110240000D03*
X99837500Y-112780000D03*
X99837500Y-115320000D03*
X99837500Y-117860000D03*
X99837500Y-120400000D03*
X99837500Y-122940000D03*
X99837500Y-125480000D03*
X99837500Y-128020000D03*
X99837500Y-130560000D03*
X99837500Y-133100000D03*
X99837500Y-135640000D03*
X99837500Y-138180000D03*
X99837500Y-140720000D03*
X99837500Y-143260000D03*
X99837500Y-145800000D03*
X99837500Y-148340000D03*
%TD*%
D12*
%TO.C,Motor3*%
X72000000Y-125720000D03*
X72000000Y-123220000D03*
D13*
X72000000Y-120720000D03*
%TD*%
D14*
%TO.C,J2*%
X66500000Y-100080000D03*
D15*
X66500000Y-102620000D03*
X66500000Y-105160000D03*
X66500000Y-107700000D03*
X66500000Y-110240000D03*
X66500000Y-112780000D03*
X66500000Y-115320000D03*
X66500000Y-117860000D03*
X66500000Y-120400000D03*
X66500000Y-122940000D03*
X66500000Y-125480000D03*
X66500000Y-128020000D03*
X66500000Y-130560000D03*
X66500000Y-133100000D03*
X66500000Y-135640000D03*
X66500000Y-138180000D03*
X66500000Y-140720000D03*
X66500000Y-143260000D03*
X66500000Y-145800000D03*
X66500000Y-148340000D03*
%TD*%
M02*
