M48
; DRILL file {KiCad 8.0.5} date 2024-10-31T16:18:57-0700
; FORMAT={-:-/ absolute / inch / decimal}
; #@! TF.CreationDate,2024-10-31T16:18:57-07:00
; #@! TF.GenerationSoftware,Kicad,Pcbnew,8.0.5
; #@! TF.FileFunction,Plated,1,2,PTH
FMAT,2
INCH
; #@! TA.AperFunction,Plated,PTH,ViaDrill
T1C0.0118
; #@! TA.AperFunction,Plated,PTH,ComponentDrill
T2C0.0374
; #@! TA.AperFunction,Plated,PTH,ComponentDrill
T3C0.0394
; #@! TA.AperFunction,Plated,PTH,ComponentDrill
T4C0.0520
%
G90
G05
T1
X2.4213Y-3.0906
X2.5787Y-2.8937
X2.5787Y-3.1299
X2.7362Y-3.6024
X2.7756Y-2.9921
X2.815Y-5.0787
X2.9331Y-4.252
X2.9528Y-5.0
X2.9921Y-4.3898
X3.002Y-4.2618
X3.0315Y-3.9961
X3.0512Y-4.0354
X3.0709Y-2.815
X3.0709Y-3.937
X3.0906Y-4.0551
X3.1102Y-4.7047
X3.1299Y-4.0551
X3.1496Y-3.937
X3.1693Y-4.0354
X3.1693Y-4.5472
X3.1693Y-4.6063
X3.189Y-3.9961
X3.2087Y-4.685
X3.2283Y-4.311
X3.2283Y-4.5669
X3.2283Y-4.7441
X3.2283Y-4.9016
X3.248Y-4.8622
X3.2677Y-5.2362
X3.3661Y-4.5472
X3.3661Y-4.7638
X3.3661Y-4.8425
X3.3661Y-5.0
X3.3661Y-5.1378
X3.4055Y-5.0787
X3.4449Y-4.9016
X3.4646Y-2.874
X3.4843Y-5.1378
X3.5039Y-4.7638
X3.5236Y-4.6457
X3.5827Y-4.9606
X3.5827Y-5.0394
X3.6024Y-4.0551
X3.622Y-4.2717
X3.622Y-4.7835
X3.622Y-5.0787
X3.622Y-5.2165
X3.6417Y-4.1535
X3.6417Y-4.8622
X3.6417Y-4.9213
X3.6614Y-4.311
X3.6811Y-4.7638
X3.6811Y-4.8228
X3.6811Y-5.0787
X3.7008Y-4.6063
X3.7008Y-5.374
X3.7205Y-4.685
X3.7402Y-4.0945
X3.7402Y-5.0197
X3.7402Y-5.0787
X3.7992Y-3.3661
X3.7992Y-4.2126
X3.7992Y-4.8228
X3.7992Y-5.0197
X3.8189Y-4.8819
X3.8494Y-3.622
X3.8583Y-5.3346
X4.0157Y-4.7244
X4.0354Y-4.5276
X4.0354Y-5.0197
X4.0748Y-4.3898
X4.0748Y-5.2165
X4.1535Y-4.4094
T2
X2.8346Y-4.3
X2.8346Y-4.3984
X2.8346Y-4.4969
X2.8346Y-4.7528
X2.8346Y-4.8512
X2.8346Y-4.9496
X2.8346Y-5.2055
X2.8346Y-5.3039
X2.8346Y-5.4024
X2.8346Y-5.6583
X2.8346Y-5.7567
X2.8346Y-5.8551
T3
X2.6181Y-3.9402
X2.6181Y-4.0402
X2.6181Y-4.1402
X2.6181Y-4.2402
X2.6181Y-4.3402
X2.6181Y-4.4402
X2.6181Y-4.5402
X2.6181Y-4.6402
X2.6181Y-4.7402
X2.6181Y-4.8402
X2.6181Y-4.9402
X2.6181Y-5.0402
X2.6181Y-5.1402
X2.6181Y-5.2402
X2.6181Y-5.3402
X2.6181Y-5.4402
X2.6181Y-5.5402
X2.6181Y-5.6402
X2.6181Y-5.7402
X2.6181Y-5.8402
X3.9306Y-3.9402
X3.9306Y-4.0402
X3.9306Y-4.1402
X3.9306Y-4.2402
X3.9306Y-4.3402
X3.9306Y-4.4402
X3.9306Y-4.5402
X3.9306Y-4.6402
X3.9306Y-4.7402
X3.9306Y-4.8402
X3.9306Y-4.9402
X3.9306Y-5.0402
X3.9306Y-5.1402
X3.9306Y-5.2402
X3.9306Y-5.3402
X3.9306Y-5.4402
X3.9306Y-5.5402
X3.9306Y-5.6402
X3.9306Y-5.7402
X3.9306Y-5.8402
T4
X3.2874Y-5.7677
X3.4843Y-5.7677
X3.6811Y-5.7677
M30
