%TF.GenerationSoftware,KiCad,Pcbnew,8.0.5*%
%TF.CreationDate,2024-10-31T16:18:24-07:00*%
%TF.ProjectId,CustomMotorshield,43757374-6f6d-44d6-9f74-6f7273686965,rev?*%
%TF.SameCoordinates,Original*%
%TF.FileFunction,Copper,L2,Bot*%
%TF.FilePolarity,Positive*%
%FSLAX46Y46*%
G04 Gerber Fmt 4.6, Leading zero omitted, Abs format (unit mm)*
G04 Created by KiCad (PCBNEW 8.0.5) date 2024-10-31 16:18:24*
%MOMM*%
%LPD*%
G01*
G04 APERTURE LIST*
G04 Aperture macros list*
%AMRoundRect*
0 Rectangle with rounded corners*
0 $1 Rounding radius*
0 $2 $3 $4 $5 $6 $7 $8 $9 X,Y pos of 4 corners*
0 Add a 4 corners polygon primitive as box body*
4,1,4,$2,$3,$4,$5,$6,$7,$8,$9,$2,$3,0*
0 Add four circle primitives for the rounded corners*
1,1,$1+$1,$2,$3*
1,1,$1+$1,$4,$5*
1,1,$1+$1,$6,$7*
1,1,$1+$1,$8,$9*
0 Add four rect primitives between the rounded corners*
20,1,$1+$1,$2,$3,$4,$5,0*
20,1,$1+$1,$4,$5,$6,$7,0*
20,1,$1+$1,$6,$7,$8,$9,0*
20,1,$1+$1,$8,$9,$2,$3,0*%
G04 Aperture macros list end*
%TA.AperFunction,ComponentPad*%
%ADD10O,1.980000X3.960000*%
%TD*%
%TA.AperFunction,ComponentPad*%
%ADD11R,1.980000X3.960000*%
%TD*%
%TA.AperFunction,ComponentPad*%
%ADD12O,1.950000X1.700000*%
%TD*%
%TA.AperFunction,ComponentPad*%
%ADD13RoundRect,0.250000X-0.725000X0.600000X-0.725000X-0.600000X0.725000X-0.600000X0.725000X0.600000X0*%
%TD*%
%TA.AperFunction,ComponentPad*%
%ADD14R,1.700000X1.700000*%
%TD*%
%TA.AperFunction,ComponentPad*%
%ADD15O,1.700000X1.700000*%
%TD*%
%TA.AperFunction,ViaPad*%
%ADD16C,0.600000*%
%TD*%
%TA.AperFunction,Conductor*%
%ADD17C,0.300000*%
%TD*%
%TA.AperFunction,Conductor*%
%ADD18C,0.400000*%
%TD*%
%TA.AperFunction,Conductor*%
%ADD19C,0.500000*%
%TD*%
G04 APERTURE END LIST*
D10*
%TO.P,J4,3,Pin_3*%
%TO.N,GND*%
X93500000Y-146500000D03*
%TO.P,J4,2,Pin_2*%
%TO.N,3V3*%
X88500000Y-146500000D03*
D11*
%TO.P,J4,1,Pin_1*%
%TO.N,5V*%
X83500000Y-146500000D03*
%TD*%
D12*
%TO.P,Motor4,3,Pin_3*%
%TO.N,GND*%
X72000000Y-114220000D03*
%TO.P,Motor4,2,Pin_2*%
%TO.N,5V*%
X72000000Y-111720000D03*
D13*
%TO.P,Motor4,1,Pin_1*%
%TO.N,IO33*%
X72000000Y-109220000D03*
%TD*%
D12*
%TO.P,Motor2,3,Pin_3*%
%TO.N,GND*%
X72000000Y-137220000D03*
%TO.P,Motor2,2,Pin_2*%
%TO.N,5V*%
X72000000Y-134720000D03*
D13*
%TO.P,Motor2,1,Pin_1*%
%TO.N,IO26*%
X72000000Y-132220000D03*
%TD*%
D12*
%TO.P,Motor1,3,Pin_3*%
%TO.N,GND*%
X72000000Y-148720000D03*
%TO.P,Motor1,2,Pin_2*%
%TO.N,5V*%
X72000000Y-146220000D03*
D13*
%TO.P,Motor1,1,Pin_1*%
%TO.N,IO21*%
X72000000Y-143720000D03*
%TD*%
D14*
%TO.P,J1,1,Pin_1*%
%TO.N,CSI_D1*%
X99837500Y-100080000D03*
D15*
%TO.P,J1,2,Pin_2*%
%TO.N,CSI_D2*%
X99837500Y-102620000D03*
%TO.P,J1,3,Pin_3*%
%TO.N,CSI_D3*%
X99837500Y-105160000D03*
%TO.P,J1,4,Pin_4*%
%TO.N,CSI_D4*%
X99837500Y-107700000D03*
%TO.P,J1,5,Pin_5*%
%TO.N,CSI_D5*%
X99837500Y-110240000D03*
%TO.P,J1,6,Pin_6*%
%TO.N,CSI_D6*%
X99837500Y-112780000D03*
%TO.P,J1,7,Pin_7*%
%TO.N,CSI_D7*%
X99837500Y-115320000D03*
%TO.P,J1,8,Pin_8*%
%TO.N,CSI_D0*%
X99837500Y-117860000D03*
%TO.P,J1,9,Pin_9*%
%TO.N,CSI_MCLK*%
X99837500Y-120400000D03*
%TO.P,J1,10,Pin_10*%
%TO.N,CSI_PCLK*%
X99837500Y-122940000D03*
%TO.P,J1,11,Pin_11*%
%TO.N,TWI_SDA*%
X99837500Y-125480000D03*
%TO.P,J1,12,Pin_12*%
%TO.N,TWI_SCK*%
X99837500Y-128020000D03*
%TO.P,J1,13,Pin_13*%
%TO.N,CSI_VSYNC*%
X99837500Y-130560000D03*
%TO.P,J1,14,Pin_14*%
%TO.N,PSRAM_CLK*%
X99837500Y-133100000D03*
%TO.P,J1,15,Pin_15*%
%TO.N,unconnected-(J1-Pin_15-Pad15)*%
X99837500Y-135640000D03*
%TO.P,J1,16,Pin_16*%
%TO.N,IO16*%
X99837500Y-138180000D03*
%TO.P,J1,17,Pin_17*%
%TO.N,unconnected-(J1-Pin_17-Pad17)*%
X99837500Y-140720000D03*
%TO.P,J1,18,Pin_18*%
%TO.N,unconnected-(J1-Pin_18-Pad18)*%
X99837500Y-143260000D03*
%TO.P,J1,19,Pin_19*%
%TO.N,3V3*%
X99837500Y-145800000D03*
%TO.P,J1,20,Pin_20*%
%TO.N,GND*%
X99837500Y-148340000D03*
%TD*%
D12*
%TO.P,Motor3,3,Pin_3*%
%TO.N,GND*%
X72000000Y-125720000D03*
%TO.P,Motor3,2,Pin_2*%
%TO.N,5V*%
X72000000Y-123220000D03*
D13*
%TO.P,Motor3,1,Pin_1*%
%TO.N,IO47*%
X72000000Y-120720000D03*
%TD*%
D14*
%TO.P,J2,1,Pin_1*%
%TO.N,unconnected-(J2-Pin_1-Pad1)*%
X66500000Y-100080000D03*
D15*
%TO.P,J2,2,Pin_2*%
%TO.N,unconnected-(J2-Pin_2-Pad2)*%
X66500000Y-102620000D03*
%TO.P,J2,3,Pin_3*%
%TO.N,unconnected-(J2-Pin_3-Pad3)*%
X66500000Y-105160000D03*
%TO.P,J2,4,Pin_4*%
%TO.N,unconnected-(J2-Pin_4-Pad4)*%
X66500000Y-107700000D03*
%TO.P,J2,5,Pin_5*%
%TO.N,unconnected-(J2-Pin_5-Pad5)*%
X66500000Y-110240000D03*
%TO.P,J2,6,Pin_6*%
%TO.N,unconnected-(J2-Pin_6-Pad6)*%
X66500000Y-112780000D03*
%TO.P,J2,7,Pin_7*%
%TO.N,SD3*%
X66500000Y-115320000D03*
%TO.P,J2,8,Pin_8*%
%TO.N,SD2*%
X66500000Y-117860000D03*
%TO.P,J2,9,Pin_9*%
%TO.N,SD1*%
X66500000Y-120400000D03*
%TO.P,J2,10,Pin_10*%
%TO.N,SD0*%
X66500000Y-122940000D03*
%TO.P,J2,11,Pin_11*%
%TO.N,CAM_PWR*%
X66500000Y-125480000D03*
%TO.P,J2,12,Pin_12*%
%TO.N,IO35*%
X66500000Y-128020000D03*
%TO.P,J2,13,Pin_13*%
%TO.N,IO48*%
X66500000Y-130560000D03*
%TO.P,J2,14,Pin_14*%
%TO.N,IO34*%
X66500000Y-133100000D03*
%TO.P,J2,15,Pin_15*%
%TO.N,IO33*%
X66500000Y-135640000D03*
%TO.P,J2,16,Pin_16*%
%TO.N,IO47*%
X66500000Y-138180000D03*
%TO.P,J2,17,Pin_17*%
%TO.N,IO26*%
X66500000Y-140720000D03*
%TO.P,J2,18,Pin_18*%
%TO.N,IO21*%
X66500000Y-143260000D03*
%TO.P,J2,19,Pin_19*%
%TO.N,5V*%
X66500000Y-145800000D03*
%TO.P,J2,20,Pin_20*%
%TO.N,GND*%
X66500000Y-148340000D03*
%TD*%
D16*
%TO.N,GND*%
X88500000Y-130500000D03*
X94000000Y-117000000D03*
X75000000Y-127000000D03*
X85500000Y-121000000D03*
X87500000Y-124500000D03*
X65500000Y-73500000D03*
X61500000Y-78500000D03*
X65500000Y-79500000D03*
X92000000Y-108500000D03*
X92000000Y-132500000D03*
X89000000Y-121000000D03*
X74500000Y-108000000D03*
X76000000Y-111500000D03*
X103500000Y-132500000D03*
X102500000Y-115000000D03*
X79000000Y-119500000D03*
%TO.N,3V3*%
X85500000Y-115500000D03*
%TO.N,GND*%
X70500000Y-76000000D03*
X82500000Y-123500000D03*
X94500000Y-119000000D03*
X94000000Y-136500000D03*
X82000000Y-109500000D03*
X89500000Y-118000000D03*
%TO.N,CSI_MCLK*%
X97000000Y-124000000D03*
X96500000Y-122500000D03*
X96500000Y-127500000D03*
X102000000Y-120000000D03*
%TO.N,GND*%
X91500000Y-103000000D03*
X88000000Y-73000000D03*
%TO.N,3V3*%
X81500000Y-119000000D03*
X82000000Y-124500000D03*
X82000000Y-116000000D03*
%TO.N,GND*%
X86500000Y-129000000D03*
%TO.N,CSI_PCLK*%
X93500000Y-129000000D03*
%TO.N,CSI_D7*%
X91000000Y-126000000D03*
X91000000Y-128000000D03*
X95000000Y-127500000D03*
X95000000Y-129000000D03*
%TO.N,SD1*%
X93000000Y-109500000D03*
X80500000Y-117000000D03*
X71500000Y-129000000D03*
%TO.N,GND*%
X80000000Y-100000000D03*
X78000000Y-100000000D03*
X81000000Y-101500000D03*
X77000000Y-101500000D03*
X80500000Y-102500000D03*
X79500000Y-103000000D03*
X78500000Y-103000000D03*
X98000000Y-135500000D03*
X85500000Y-127000000D03*
X85500000Y-123000000D03*
X93500000Y-121000000D03*
X102500000Y-127500000D03*
X77500000Y-102500000D03*
X83000000Y-133000000D03*
%TO.N,IO33*%
X76250000Y-108250000D03*
X80500000Y-115500000D03*
%TO.N,IO35*%
X78000000Y-71500000D03*
%TO.N,TWI_SDA*%
X92000000Y-121500000D03*
%TO.N,3V3*%
X92500000Y-105500000D03*
X95000000Y-104000000D03*
X85500000Y-130500000D03*
%TO.N,CSI_D1*%
X105500000Y-112000000D03*
%TO.N,CSI_D3*%
X103500000Y-111500000D03*
%TO.N,TWI_SCK*%
X82000000Y-120500000D03*
%TO.N,CSI_2.8V*%
X96500000Y-85500000D03*
X93500000Y-122500000D03*
%TO.N,CSI_D4*%
X92000000Y-129000000D03*
%TO.N,CSI_VSYNC*%
X92500000Y-123500000D03*
%TO.N,CSI_1.2V*%
X97775000Y-92000000D03*
X92500000Y-125000000D03*
%TO.N,5V*%
X69500000Y-91500000D03*
%TO.N,SD2*%
X96500000Y-107000000D03*
%TD*%
D17*
%TO.N,GND*%
X94000000Y-117000000D02*
X94000000Y-120419239D01*
X94000000Y-120419239D02*
X88150000Y-126269239D01*
X88150000Y-126269239D02*
X88150000Y-130150000D01*
X88150000Y-130150000D02*
X88500000Y-130500000D01*
%TO.N,TWI_SCK*%
X87650000Y-126150000D02*
X87650000Y-129476345D01*
X87000000Y-130126345D02*
X87000000Y-131000000D01*
X87650000Y-129476345D02*
X87000000Y-130126345D01*
X87000000Y-131000000D02*
X87760000Y-131760000D01*
X82000000Y-120500000D02*
X87650000Y-126150000D01*
X101037500Y-131057057D02*
X101037500Y-129220000D01*
X101037500Y-129220000D02*
X99837500Y-128020000D01*
X87760000Y-131760000D02*
X100334557Y-131760000D01*
X100334557Y-131760000D02*
X101037500Y-131057057D01*
%TO.N,TWI_SDA*%
X101537500Y-127180000D02*
X101537500Y-133097057D01*
X100334557Y-134300000D02*
X89300000Y-134300000D01*
X86150000Y-130269239D02*
X87150000Y-129269239D01*
X81350000Y-120230761D02*
X81730761Y-119850000D01*
X87150000Y-127230761D02*
X81350000Y-121430761D01*
X101537500Y-133097057D02*
X100334557Y-134300000D01*
X99837500Y-125480000D02*
X101537500Y-127180000D01*
X89300000Y-134300000D02*
X86050000Y-131050000D01*
X86050000Y-131050000D02*
X86050000Y-130869239D01*
X86150000Y-130769239D02*
X86150000Y-130269239D01*
X86050000Y-130869239D02*
X86150000Y-130769239D01*
X87150000Y-129269239D02*
X87150000Y-127230761D01*
X81350000Y-121430761D02*
X81350000Y-120230761D01*
X81730761Y-119850000D02*
X90350000Y-119850000D01*
X90350000Y-119850000D02*
X92000000Y-121500000D01*
%TO.N,3V3*%
X85500000Y-115500000D02*
X82500000Y-115500000D01*
X82500000Y-115500000D02*
X82000000Y-116000000D01*
D18*
X99837500Y-145800000D02*
X98300000Y-145800000D01*
X85500000Y-133000000D02*
X85500000Y-130500000D01*
X98300000Y-145800000D02*
X85500000Y-133000000D01*
D17*
%TO.N,CSI_D4*%
X96080761Y-125500000D02*
X96500000Y-125500000D01*
X92850000Y-129000000D02*
X92850000Y-128730761D01*
X92850000Y-128730761D02*
X96080761Y-125500000D01*
X98375000Y-123625000D02*
X98375000Y-109162500D01*
X96500000Y-125500000D02*
X98375000Y-123625000D01*
X92000000Y-129000000D02*
X92850000Y-129000000D01*
X98375000Y-109162500D02*
X99837500Y-107700000D01*
%TO.N,CSI_MCLK*%
X97000000Y-123000000D02*
X97000000Y-124000000D01*
X96500000Y-122500000D02*
X97000000Y-123000000D01*
X101037500Y-123437057D02*
X100334557Y-124140000D01*
X101037500Y-120962500D02*
X101037500Y-123437057D01*
X100334557Y-124140000D02*
X99360000Y-124140000D01*
X96500000Y-127000000D02*
X96500000Y-127500000D01*
X99360000Y-124140000D02*
X96500000Y-127000000D01*
X102000000Y-120000000D02*
X101037500Y-120962500D01*
%TO.N,3V3*%
X80850000Y-119650000D02*
X81500000Y-119000000D01*
X80850000Y-123350000D02*
X80850000Y-119650000D01*
X82000000Y-124500000D02*
X80850000Y-123350000D01*
D18*
X92500000Y-105500000D02*
X82000000Y-116000000D01*
D17*
%TO.N,CSI_PCLK*%
X99837500Y-122940000D02*
X95650000Y-127127500D01*
X95650000Y-127127500D02*
X95650000Y-129269239D01*
X94150000Y-129650000D02*
X93500000Y-129000000D01*
X95650000Y-129269239D02*
X95269239Y-129650000D01*
X95269239Y-129650000D02*
X94150000Y-129650000D01*
%TO.N,CSI_D7*%
X91000000Y-128000000D02*
X91000000Y-126000000D01*
%TO.N,CSI_VSYNC*%
X92500000Y-123500000D02*
X91850000Y-124150000D01*
X91350000Y-129269239D02*
X92640761Y-130560000D01*
X91850000Y-124150000D02*
X91850000Y-125269239D01*
X92000000Y-128292894D02*
X91942894Y-128350000D01*
X92640761Y-130560000D02*
X99837500Y-130560000D01*
X91850000Y-125269239D02*
X92000000Y-125419239D01*
X92000000Y-125419239D02*
X92000000Y-128292894D01*
X91942894Y-128350000D02*
X91730761Y-128350000D01*
X91730761Y-128350000D02*
X91350000Y-128730761D01*
X91350000Y-128730761D02*
X91350000Y-129269239D01*
%TO.N,CSI_D7*%
X95000000Y-129000000D02*
X95000000Y-127500000D01*
D18*
%TO.N,SD1*%
X85500000Y-117000000D02*
X93000000Y-109500000D01*
X80500000Y-117000000D02*
X85500000Y-117000000D01*
X67750000Y-125250000D02*
X71500000Y-129000000D01*
X67750000Y-121650000D02*
X67750000Y-125250000D01*
X66500000Y-120400000D02*
X67750000Y-121650000D01*
D17*
%TO.N,IO33*%
X80500000Y-115500000D02*
X80500000Y-112500000D01*
X80500000Y-112500000D02*
X76250000Y-108250000D01*
%TO.N,IO35*%
X78000000Y-71500000D02*
X64700000Y-84800000D01*
X64700000Y-84800000D02*
X64700000Y-126220000D01*
X64700000Y-126220000D02*
X66500000Y-128020000D01*
D18*
%TO.N,3V3*%
X94000000Y-104000000D02*
X92500000Y-105500000D01*
X95000000Y-104000000D02*
X94000000Y-104000000D01*
X88500000Y-146500000D02*
X90880000Y-144120000D01*
X90880000Y-144120000D02*
X98157500Y-144120000D01*
X98157500Y-144120000D02*
X99837500Y-145800000D01*
%TO.N,5V*%
X83500000Y-146500000D02*
X67200000Y-146500000D01*
X67200000Y-146500000D02*
X66500000Y-145800000D01*
X72000000Y-146220000D02*
X66920000Y-146220000D01*
X66920000Y-146220000D02*
X66500000Y-145800000D01*
X72000000Y-146220000D02*
X72000000Y-145971166D01*
X72000000Y-145971166D02*
X70625000Y-144596166D01*
X70625000Y-144596166D02*
X70625000Y-136095000D01*
X70625000Y-136095000D02*
X72000000Y-134720000D01*
X72000000Y-123220000D02*
X73375000Y-124595000D01*
X73375000Y-124595000D02*
X73375000Y-133345000D01*
X73375000Y-133345000D02*
X72000000Y-134720000D01*
X72000000Y-123220000D02*
X67890000Y-119110000D01*
X67890000Y-119110000D02*
X65982233Y-119110000D01*
X65982233Y-119110000D02*
X65250000Y-118377767D01*
X65250000Y-118377767D02*
X65250000Y-117342233D01*
X65250000Y-117342233D02*
X65982233Y-116610000D01*
X65982233Y-116610000D02*
X67110000Y-116610000D01*
X67110000Y-116610000D02*
X72000000Y-111720000D01*
D17*
%TO.N,CSI_D1*%
X105500000Y-112000000D02*
X105500000Y-105742500D01*
X105500000Y-105742500D02*
X99837500Y-100080000D01*
%TO.N,CSI_D3*%
X103500000Y-111500000D02*
X103500000Y-108822500D01*
X103500000Y-108822500D02*
X99837500Y-105160000D01*
%TO.N,CSI_2.8V*%
X97150000Y-118850000D02*
X97150000Y-93150000D01*
X93500000Y-122500000D02*
X97150000Y-118850000D01*
X96500000Y-92500000D02*
X96500000Y-85500000D01*
X97150000Y-93150000D02*
X96500000Y-92500000D01*
D19*
%TO.N,5V*%
X70575000Y-110295000D02*
X70575000Y-92575000D01*
X72000000Y-111720000D02*
X70575000Y-110295000D01*
X70575000Y-92575000D02*
X69500000Y-91500000D01*
D18*
%TO.N,SD2*%
X85640000Y-117860000D02*
X96500000Y-107000000D01*
X66500000Y-117860000D02*
X85640000Y-117860000D01*
D19*
%TO.N,CSI_1.2V*%
X97775000Y-92000000D02*
X97775000Y-119725000D01*
X97775000Y-119725000D02*
X92500000Y-125000000D01*
%TD*%
%TA.AperFunction,Conductor*%
%TO.N,GND*%
G36*
X68049612Y-120262472D02*
G01*
X68064568Y-120275225D01*
X70537214Y-122747871D01*
X70570699Y-122809194D01*
X70567465Y-122873866D01*
X70557754Y-122903754D01*
X70557753Y-122903759D01*
X70542152Y-123002262D01*
X70524500Y-123113713D01*
X70524500Y-123326287D01*
X70531597Y-123371095D01*
X70538403Y-123414070D01*
X70557754Y-123536243D01*
X70615716Y-123714632D01*
X70623444Y-123738414D01*
X70719951Y-123927820D01*
X70844890Y-124099786D01*
X70995209Y-124250105D01*
X70995214Y-124250109D01*
X71160218Y-124369991D01*
X71202884Y-124425320D01*
X71208863Y-124494934D01*
X71176258Y-124556729D01*
X71160218Y-124570627D01*
X70995540Y-124690272D01*
X70995535Y-124690276D01*
X70845276Y-124840535D01*
X70845272Y-124840540D01*
X70720379Y-125012442D01*
X70623904Y-125201782D01*
X70558242Y-125403870D01*
X70558242Y-125403873D01*
X70547769Y-125470000D01*
X71595854Y-125470000D01*
X71557370Y-125536657D01*
X71525000Y-125657465D01*
X71525000Y-125782535D01*
X71557370Y-125903343D01*
X71595854Y-125970000D01*
X70547769Y-125970000D01*
X70558242Y-126036126D01*
X70558242Y-126036129D01*
X70623904Y-126238217D01*
X70720379Y-126427557D01*
X70845272Y-126599459D01*
X70845276Y-126599464D01*
X70995535Y-126749723D01*
X70995540Y-126749727D01*
X71167442Y-126874620D01*
X71356782Y-126971095D01*
X71558872Y-127036757D01*
X71750000Y-127067029D01*
X71750000Y-126124145D01*
X71816657Y-126162630D01*
X71937465Y-126195000D01*
X72062535Y-126195000D01*
X72183343Y-126162630D01*
X72250000Y-126124145D01*
X72250000Y-127067028D01*
X72441124Y-127036758D01*
X72512181Y-127013670D01*
X72582022Y-127011674D01*
X72641855Y-127047754D01*
X72672684Y-127110455D01*
X72674500Y-127131601D01*
X72674500Y-130745500D01*
X72654815Y-130812539D01*
X72602011Y-130858294D01*
X72550500Y-130869500D01*
X71224998Y-130869500D01*
X71224981Y-130869501D01*
X71122203Y-130880000D01*
X71122200Y-130880001D01*
X70955668Y-130935185D01*
X70955663Y-130935187D01*
X70806342Y-131027289D01*
X70682289Y-131151342D01*
X70590187Y-131300663D01*
X70590186Y-131300666D01*
X70535001Y-131467203D01*
X70535001Y-131467204D01*
X70535000Y-131467204D01*
X70524500Y-131569983D01*
X70524500Y-132870001D01*
X70524501Y-132870018D01*
X70535000Y-132972796D01*
X70535001Y-132972799D01*
X70577152Y-133100000D01*
X70590186Y-133139334D01*
X70674485Y-133276006D01*
X70682289Y-133288657D01*
X70806344Y-133412712D01*
X70961120Y-133508178D01*
X71007845Y-133560126D01*
X71019068Y-133629088D01*
X70991224Y-133693171D01*
X70983706Y-133701398D01*
X70844889Y-133840215D01*
X70719951Y-134012179D01*
X70623444Y-134201585D01*
X70557753Y-134403760D01*
X70526434Y-134601501D01*
X70524500Y-134613713D01*
X70524500Y-134826287D01*
X70538872Y-134917028D01*
X70544173Y-134950500D01*
X70557754Y-135036243D01*
X70567238Y-135065434D01*
X70567465Y-135066130D01*
X70569459Y-135135971D01*
X70537214Y-135192127D01*
X70080888Y-135648453D01*
X70074505Y-135658008D01*
X70074502Y-135658012D01*
X70004228Y-135763182D01*
X70004221Y-135763195D01*
X69951421Y-135890667D01*
X69951418Y-135890677D01*
X69924500Y-136026004D01*
X69924500Y-136026007D01*
X69924500Y-144527172D01*
X69924500Y-144665160D01*
X69924500Y-144665162D01*
X69924499Y-144665162D01*
X69951418Y-144800488D01*
X69951421Y-144800498D01*
X70004222Y-144927973D01*
X70080887Y-145042711D01*
X70080888Y-145042712D01*
X70345996Y-145307819D01*
X70379481Y-145369142D01*
X70374497Y-145438833D01*
X70332626Y-145494767D01*
X70267161Y-145519184D01*
X70258315Y-145519500D01*
X67918130Y-145519500D01*
X67851091Y-145499815D01*
X67805336Y-145447011D01*
X67798355Y-145427593D01*
X67773905Y-145336344D01*
X67773904Y-145336343D01*
X67773903Y-145336337D01*
X67674035Y-145122171D01*
X67618398Y-145042712D01*
X67538494Y-144928597D01*
X67371402Y-144761506D01*
X67371396Y-144761501D01*
X67185842Y-144631575D01*
X67142217Y-144576998D01*
X67135023Y-144507500D01*
X67166546Y-144445145D01*
X67185842Y-144428425D01*
X67224068Y-144401659D01*
X67371401Y-144298495D01*
X67538495Y-144131401D01*
X67674035Y-143937830D01*
X67773903Y-143723663D01*
X67835063Y-143495408D01*
X67855659Y-143260000D01*
X67835063Y-143024592D01*
X67788626Y-142851285D01*
X67773905Y-142796344D01*
X67773904Y-142796343D01*
X67773903Y-142796337D01*
X67674035Y-142582171D01*
X67635607Y-142527289D01*
X67538494Y-142388597D01*
X67371402Y-142221506D01*
X67371396Y-142221501D01*
X67185842Y-142091575D01*
X67142217Y-142036998D01*
X67135023Y-141967500D01*
X67166546Y-141905145D01*
X67185842Y-141888425D01*
X67208026Y-141872891D01*
X67371401Y-141758495D01*
X67538495Y-141591401D01*
X67674035Y-141397830D01*
X67773903Y-141183663D01*
X67835063Y-140955408D01*
X67855659Y-140720000D01*
X67835063Y-140484592D01*
X67773903Y-140256337D01*
X67674035Y-140042171D01*
X67538495Y-139848599D01*
X67538494Y-139848597D01*
X67371402Y-139681506D01*
X67371396Y-139681501D01*
X67185842Y-139551575D01*
X67142217Y-139496998D01*
X67135023Y-139427500D01*
X67166546Y-139365145D01*
X67185842Y-139348425D01*
X67208026Y-139332891D01*
X67371401Y-139218495D01*
X67538495Y-139051401D01*
X67674035Y-138857830D01*
X67773903Y-138643663D01*
X67835063Y-138415408D01*
X67855659Y-138180000D01*
X67835063Y-137944592D01*
X67773903Y-137716337D01*
X67674035Y-137502171D01*
X67604836Y-137403343D01*
X67538494Y-137308597D01*
X67371402Y-137141506D01*
X67371396Y-137141501D01*
X67185842Y-137011575D01*
X67142217Y-136956998D01*
X67135023Y-136887500D01*
X67166546Y-136825145D01*
X67185842Y-136808425D01*
X67276422Y-136745000D01*
X67371401Y-136678495D01*
X67538495Y-136511401D01*
X67674035Y-136317830D01*
X67773903Y-136103663D01*
X67835063Y-135875408D01*
X67855659Y-135640000D01*
X67835063Y-135404592D01*
X67773903Y-135176337D01*
X67674035Y-134962171D01*
X67648360Y-134925502D01*
X67538494Y-134768597D01*
X67371402Y-134601506D01*
X67371396Y-134601501D01*
X67185842Y-134471575D01*
X67142217Y-134416998D01*
X67135023Y-134347500D01*
X67166546Y-134285145D01*
X67185842Y-134268425D01*
X67281299Y-134201585D01*
X67371401Y-134138495D01*
X67538495Y-133971401D01*
X67674035Y-133777830D01*
X67773903Y-133563663D01*
X67835063Y-133335408D01*
X67855659Y-133100000D01*
X67835063Y-132864592D01*
X67773903Y-132636337D01*
X67674035Y-132422171D01*
X67672381Y-132419808D01*
X67538494Y-132228597D01*
X67371402Y-132061506D01*
X67371396Y-132061501D01*
X67185842Y-131931575D01*
X67142217Y-131876998D01*
X67135023Y-131807500D01*
X67166546Y-131745145D01*
X67185842Y-131728425D01*
X67208026Y-131712891D01*
X67371401Y-131598495D01*
X67538495Y-131431401D01*
X67674035Y-131237830D01*
X67773903Y-131023663D01*
X67835063Y-130795408D01*
X67855659Y-130560000D01*
X67835063Y-130324592D01*
X67773903Y-130096337D01*
X67674035Y-129882171D01*
X67656147Y-129856623D01*
X67538494Y-129688597D01*
X67371402Y-129521506D01*
X67371396Y-129521501D01*
X67185842Y-129391575D01*
X67142217Y-129336998D01*
X67135023Y-129267500D01*
X67166546Y-129205145D01*
X67185842Y-129188425D01*
X67208026Y-129172891D01*
X67371401Y-129058495D01*
X67538495Y-128891401D01*
X67674035Y-128697830D01*
X67773903Y-128483663D01*
X67835063Y-128255408D01*
X67855659Y-128020000D01*
X67835063Y-127784592D01*
X67783522Y-127592236D01*
X67773905Y-127556344D01*
X67773904Y-127556343D01*
X67773903Y-127556337D01*
X67674035Y-127342171D01*
X67659033Y-127320745D01*
X67538494Y-127148597D01*
X67371402Y-126981506D01*
X67371396Y-126981501D01*
X67185842Y-126851575D01*
X67142217Y-126796998D01*
X67135023Y-126727500D01*
X67166546Y-126665145D01*
X67185842Y-126648425D01*
X67255765Y-126599464D01*
X67371401Y-126518495D01*
X67538495Y-126351401D01*
X67586447Y-126282917D01*
X67641020Y-126239293D01*
X67710519Y-126232098D01*
X67772874Y-126263619D01*
X67775702Y-126266359D01*
X70708630Y-129199287D01*
X70737990Y-129246013D01*
X70774209Y-129349519D01*
X70774211Y-129349522D01*
X70870184Y-129502262D01*
X70997738Y-129629816D01*
X71055458Y-129666084D01*
X71132721Y-129714632D01*
X71150478Y-129725789D01*
X71270690Y-129767853D01*
X71320745Y-129785368D01*
X71320750Y-129785369D01*
X71499996Y-129805565D01*
X71500000Y-129805565D01*
X71500004Y-129805565D01*
X71679249Y-129785369D01*
X71679252Y-129785368D01*
X71679255Y-129785368D01*
X71849522Y-129725789D01*
X72002262Y-129629816D01*
X72129816Y-129502262D01*
X72225789Y-129349522D01*
X72285368Y-129179255D01*
X72298974Y-129058498D01*
X72305565Y-129000003D01*
X72305565Y-128999996D01*
X72285369Y-128820750D01*
X72285368Y-128820745D01*
X72268473Y-128772463D01*
X72225789Y-128650478D01*
X72129816Y-128497738D01*
X72002262Y-128370184D01*
X71849522Y-128274211D01*
X71849519Y-128274209D01*
X71746013Y-128237990D01*
X71699287Y-128208630D01*
X68486819Y-124996162D01*
X68453334Y-124934839D01*
X68450500Y-124908481D01*
X68450500Y-121581004D01*
X68423581Y-121445677D01*
X68423580Y-121445676D01*
X68423580Y-121445672D01*
X68423578Y-121445667D01*
X68370778Y-121318195D01*
X68370774Y-121318188D01*
X68338995Y-121270627D01*
X68338995Y-121270626D01*
X68294115Y-121203458D01*
X68294109Y-121203451D01*
X67862651Y-120771994D01*
X67829166Y-120710671D01*
X67830558Y-120652217D01*
X67835063Y-120635408D01*
X67855659Y-120400000D01*
X67853359Y-120373713D01*
X67867125Y-120305215D01*
X67915740Y-120255031D01*
X67983768Y-120239097D01*
X68049612Y-120262472D01*
G37*
%TD.AperFunction*%
%TA.AperFunction,Conductor*%
G36*
X86405703Y-132326095D02*
G01*
X86412181Y-132332127D01*
X88885325Y-134805272D01*
X88885332Y-134805278D01*
X88971512Y-134862861D01*
X88985116Y-134871950D01*
X88991873Y-134876465D01*
X89110256Y-134925501D01*
X89110260Y-134925501D01*
X89110261Y-134925502D01*
X89235928Y-134950500D01*
X89235931Y-134950500D01*
X98474266Y-134950500D01*
X98541305Y-134970185D01*
X98587060Y-135022989D01*
X98597004Y-135092147D01*
X98586648Y-135126905D01*
X98563597Y-135176335D01*
X98563594Y-135176344D01*
X98502438Y-135404586D01*
X98502436Y-135404596D01*
X98481841Y-135639999D01*
X98481841Y-135640000D01*
X98502436Y-135875403D01*
X98502438Y-135875413D01*
X98563594Y-136103655D01*
X98563596Y-136103659D01*
X98563597Y-136103663D01*
X98663465Y-136317830D01*
X98663467Y-136317834D01*
X98799001Y-136511395D01*
X98799006Y-136511402D01*
X98966097Y-136678493D01*
X98966103Y-136678498D01*
X99151658Y-136808425D01*
X99195283Y-136863002D01*
X99202477Y-136932500D01*
X99170954Y-136994855D01*
X99151658Y-137011575D01*
X98966097Y-137141505D01*
X98799005Y-137308597D01*
X98663465Y-137502169D01*
X98663464Y-137502171D01*
X98563598Y-137716335D01*
X98563594Y-137716344D01*
X98502438Y-137944586D01*
X98502436Y-137944596D01*
X98481841Y-138179999D01*
X98481841Y-138180000D01*
X98502436Y-138415403D01*
X98502438Y-138415413D01*
X98563594Y-138643655D01*
X98563596Y-138643659D01*
X98563597Y-138643663D01*
X98663465Y-138857830D01*
X98663467Y-138857834D01*
X98799001Y-139051395D01*
X98799006Y-139051402D01*
X98966097Y-139218493D01*
X98966103Y-139218498D01*
X99151658Y-139348425D01*
X99195283Y-139403002D01*
X99202477Y-139472500D01*
X99170954Y-139534855D01*
X99151658Y-139551575D01*
X98966097Y-139681505D01*
X98799005Y-139848597D01*
X98663465Y-140042169D01*
X98663464Y-140042171D01*
X98563598Y-140256335D01*
X98563594Y-140256344D01*
X98502438Y-140484586D01*
X98502436Y-140484596D01*
X98481841Y-140719999D01*
X98481841Y-140720000D01*
X98502436Y-140955403D01*
X98502438Y-140955413D01*
X98563594Y-141183655D01*
X98563596Y-141183659D01*
X98563597Y-141183663D01*
X98663465Y-141397830D01*
X98663467Y-141397834D01*
X98799001Y-141591395D01*
X98799006Y-141591402D01*
X98966097Y-141758493D01*
X98966103Y-141758498D01*
X99151658Y-141888425D01*
X99195283Y-141943002D01*
X99202477Y-142012500D01*
X99170954Y-142074855D01*
X99151658Y-142091575D01*
X98966097Y-142221505D01*
X98799005Y-142388597D01*
X98663465Y-142582169D01*
X98663464Y-142582171D01*
X98563598Y-142796335D01*
X98563594Y-142796344D01*
X98502438Y-143024586D01*
X98502436Y-143024596D01*
X98481841Y-143259999D01*
X98481841Y-143260003D01*
X98486157Y-143309344D01*
X98472390Y-143377844D01*
X98423774Y-143428026D01*
X98355745Y-143443959D01*
X98338437Y-143441767D01*
X98226496Y-143419500D01*
X98226494Y-143419500D01*
X98226493Y-143419500D01*
X96961519Y-143419500D01*
X96894480Y-143399815D01*
X96873838Y-143383181D01*
X86236819Y-132746162D01*
X86203334Y-132684839D01*
X86200500Y-132658481D01*
X86200500Y-132419808D01*
X86220185Y-132352769D01*
X86272989Y-132307014D01*
X86342147Y-132297070D01*
X86405703Y-132326095D01*
G37*
%TD.AperFunction*%
%TA.AperFunction,Conductor*%
G36*
X98541305Y-132430185D02*
G01*
X98587060Y-132482989D01*
X98597004Y-132552147D01*
X98586648Y-132586905D01*
X98563597Y-132636335D01*
X98563594Y-132636344D01*
X98502438Y-132864586D01*
X98502436Y-132864596D01*
X98481841Y-133099999D01*
X98481841Y-133100000D01*
X98502436Y-133335403D01*
X98502438Y-133335413D01*
X98544772Y-133493407D01*
X98543109Y-133563257D01*
X98503946Y-133621119D01*
X98439718Y-133648623D01*
X98424997Y-133649500D01*
X89620808Y-133649500D01*
X89553769Y-133629815D01*
X89533127Y-133613181D01*
X88542127Y-132622181D01*
X88508642Y-132560858D01*
X88513626Y-132491166D01*
X88555498Y-132435233D01*
X88620962Y-132410816D01*
X88629808Y-132410500D01*
X98474266Y-132410500D01*
X98541305Y-132430185D01*
G37*
%TD.AperFunction*%
%TA.AperFunction,Conductor*%
G36*
X90096231Y-120520185D02*
G01*
X90116873Y-120536819D01*
X91178277Y-121598223D01*
X91211762Y-121659546D01*
X91213815Y-121672012D01*
X91214630Y-121679246D01*
X91214632Y-121679255D01*
X91274210Y-121849521D01*
X91293513Y-121880241D01*
X91370184Y-122002262D01*
X91497738Y-122129816D01*
X91650478Y-122225789D01*
X91820745Y-122285368D01*
X91820750Y-122285369D01*
X91999996Y-122305565D01*
X92000000Y-122305565D01*
X92000004Y-122305565D01*
X92179249Y-122285369D01*
X92179252Y-122285368D01*
X92179255Y-122285368D01*
X92349522Y-122225789D01*
X92502262Y-122129816D01*
X92547555Y-122084522D01*
X92608876Y-122051038D01*
X92678567Y-122056022D01*
X92734501Y-122097893D01*
X92758919Y-122163357D01*
X92752277Y-122213158D01*
X92714632Y-122320742D01*
X92714630Y-122320750D01*
X92694435Y-122499996D01*
X92694435Y-122500004D01*
X92701714Y-122564611D01*
X92689659Y-122633433D01*
X92642310Y-122684812D01*
X92574699Y-122702436D01*
X92564611Y-122701714D01*
X92500004Y-122694435D01*
X92499996Y-122694435D01*
X92320750Y-122714630D01*
X92320745Y-122714631D01*
X92150476Y-122774211D01*
X91997737Y-122870184D01*
X91870184Y-122997737D01*
X91774210Y-123150478D01*
X91714632Y-123320744D01*
X91714630Y-123320752D01*
X91713815Y-123327988D01*
X91686743Y-123392400D01*
X91678278Y-123401775D01*
X91453258Y-123626796D01*
X91344723Y-123735331D01*
X91318746Y-123774210D01*
X91291663Y-123814743D01*
X91291661Y-123814745D01*
X91273539Y-123841865D01*
X91273533Y-123841875D01*
X91224499Y-123960255D01*
X91224497Y-123960261D01*
X91199500Y-124085928D01*
X91199500Y-125078156D01*
X91179815Y-125145195D01*
X91127011Y-125190950D01*
X91061618Y-125201377D01*
X91021815Y-125196892D01*
X91000000Y-125194435D01*
X90999998Y-125194435D01*
X90999997Y-125194435D01*
X90999996Y-125194435D01*
X90820750Y-125214630D01*
X90820745Y-125214631D01*
X90650476Y-125274211D01*
X90497737Y-125370184D01*
X90370184Y-125497737D01*
X90274211Y-125650476D01*
X90214631Y-125820745D01*
X90214630Y-125820750D01*
X90194435Y-125999996D01*
X90194435Y-126000003D01*
X90214630Y-126179249D01*
X90214631Y-126179254D01*
X90274211Y-126349524D01*
X90330493Y-126439094D01*
X90349500Y-126505067D01*
X90349500Y-127494931D01*
X90330494Y-127560903D01*
X90274211Y-127650477D01*
X90274209Y-127650481D01*
X90214633Y-127820737D01*
X90214630Y-127820750D01*
X90194435Y-127999996D01*
X90194435Y-128000003D01*
X90214630Y-128179249D01*
X90214631Y-128179254D01*
X90274211Y-128349523D01*
X90327489Y-128434314D01*
X90370184Y-128502262D01*
X90497738Y-128629816D01*
X90641474Y-128720131D01*
X90687763Y-128772463D01*
X90699500Y-128825123D01*
X90699500Y-129333309D01*
X90722116Y-129447001D01*
X90722116Y-129447006D01*
X90722117Y-129447006D01*
X90724499Y-129458985D01*
X90773533Y-129577364D01*
X90808580Y-129629815D01*
X90844722Y-129683907D01*
X90844726Y-129683912D01*
X92058633Y-130897819D01*
X92092118Y-130959142D01*
X92087134Y-131028834D01*
X92045262Y-131084767D01*
X91979798Y-131109184D01*
X91970952Y-131109500D01*
X88080808Y-131109500D01*
X88013769Y-131089815D01*
X87993127Y-131073181D01*
X87686819Y-130766873D01*
X87653334Y-130705550D01*
X87650500Y-130679192D01*
X87650500Y-130447153D01*
X87670185Y-130380114D01*
X87686819Y-130359472D01*
X88155273Y-129891018D01*
X88155277Y-129891014D01*
X88226465Y-129784472D01*
X88261247Y-129700500D01*
X88275501Y-129666089D01*
X88282717Y-129629815D01*
X88300500Y-129540416D01*
X88300500Y-126085928D01*
X88275502Y-125960261D01*
X88275501Y-125960260D01*
X88275501Y-125960256D01*
X88228052Y-125845704D01*
X88226466Y-125841874D01*
X88226463Y-125841868D01*
X88155275Y-125735328D01*
X88155272Y-125735325D01*
X83132127Y-120712181D01*
X83098642Y-120650858D01*
X83103626Y-120581166D01*
X83145498Y-120525233D01*
X83210962Y-120500816D01*
X83219808Y-120500500D01*
X90029192Y-120500500D01*
X90096231Y-120520185D01*
G37*
%TD.AperFunction*%
%TA.AperFunction,Conductor*%
G36*
X96418834Y-108174337D02*
G01*
X96474767Y-108216209D01*
X96499184Y-108281673D01*
X96499500Y-108290519D01*
X96499500Y-118529191D01*
X96479815Y-118596230D01*
X96463181Y-118616872D01*
X93401775Y-121678277D01*
X93340452Y-121711762D01*
X93327988Y-121713815D01*
X93320752Y-121714630D01*
X93320744Y-121714632D01*
X93150478Y-121774210D01*
X92997737Y-121870184D01*
X92952444Y-121915477D01*
X92891121Y-121948961D01*
X92821429Y-121943976D01*
X92765496Y-121902104D01*
X92741080Y-121836640D01*
X92747723Y-121786840D01*
X92785366Y-121679262D01*
X92785369Y-121679249D01*
X92805565Y-121500003D01*
X92805565Y-121499996D01*
X92785369Y-121320750D01*
X92785368Y-121320745D01*
X92748810Y-121216268D01*
X92725789Y-121150478D01*
X92711277Y-121127383D01*
X92661742Y-121048548D01*
X92629816Y-120997738D01*
X92502262Y-120870184D01*
X92349521Y-120774210D01*
X92179255Y-120714632D01*
X92179246Y-120714630D01*
X92172012Y-120713815D01*
X92107600Y-120686744D01*
X92098223Y-120678277D01*
X90764674Y-119344727D01*
X90764673Y-119344726D01*
X90764669Y-119344723D01*
X90658127Y-119273535D01*
X90539744Y-119224499D01*
X90539738Y-119224497D01*
X90414071Y-119199500D01*
X90414069Y-119199500D01*
X82421843Y-119199500D01*
X82354804Y-119179815D01*
X82309049Y-119127011D01*
X82298623Y-119061617D01*
X82305565Y-119000003D01*
X82305565Y-118999996D01*
X82285369Y-118820750D01*
X82285367Y-118820742D01*
X82252025Y-118725454D01*
X82248464Y-118655675D01*
X82283193Y-118595048D01*
X82345186Y-118562821D01*
X82369067Y-118560500D01*
X85708996Y-118560500D01*
X85822962Y-118537830D01*
X85844328Y-118533580D01*
X85908069Y-118507177D01*
X85971807Y-118480777D01*
X85971808Y-118480776D01*
X85971811Y-118480775D01*
X86086543Y-118404114D01*
X96287819Y-108202838D01*
X96349142Y-108169353D01*
X96418834Y-108174337D01*
G37*
%TD.AperFunction*%
%TA.AperFunction,Conductor*%
G36*
X104925578Y-68500457D02*
G01*
X104926213Y-68500500D01*
X104934108Y-68500500D01*
X104996764Y-68500500D01*
X105003254Y-68500670D01*
X105307046Y-68516592D01*
X105319953Y-68517949D01*
X105451089Y-68538718D01*
X105617209Y-68565028D01*
X105629896Y-68567724D01*
X105920625Y-68645625D01*
X105932965Y-68649635D01*
X106213938Y-68757490D01*
X106225790Y-68762767D01*
X106493968Y-68899411D01*
X106505199Y-68905896D01*
X106718911Y-69044682D01*
X106757608Y-69069812D01*
X106768109Y-69077441D01*
X107002010Y-69266850D01*
X107011655Y-69275535D01*
X107224464Y-69488344D01*
X107233149Y-69497989D01*
X107422558Y-69731890D01*
X107430187Y-69742391D01*
X107594101Y-69994796D01*
X107600591Y-70006036D01*
X107737231Y-70274206D01*
X107742510Y-70286064D01*
X107850363Y-70567033D01*
X107854374Y-70579376D01*
X107932273Y-70870097D01*
X107934971Y-70882794D01*
X107982050Y-71180046D01*
X107983407Y-71192953D01*
X107999330Y-71496756D01*
X107999500Y-71503246D01*
X107999500Y-71573737D01*
X107999523Y-71574098D01*
X108024624Y-149521854D01*
X108024454Y-149528385D01*
X108008531Y-149832169D01*
X108007174Y-149845076D01*
X107960093Y-150142328D01*
X107957395Y-150155024D01*
X107879496Y-150445740D01*
X107875485Y-150458084D01*
X107767628Y-150739059D01*
X107762349Y-150750916D01*
X107625710Y-151019082D01*
X107619220Y-151030322D01*
X107455306Y-151282727D01*
X107447677Y-151293228D01*
X107258267Y-151527129D01*
X107249582Y-151536774D01*
X107036774Y-151749582D01*
X107027129Y-151758267D01*
X106793228Y-151947677D01*
X106782727Y-151955306D01*
X106530322Y-152119220D01*
X106519082Y-152125710D01*
X106250916Y-152262349D01*
X106239059Y-152267628D01*
X105958084Y-152375485D01*
X105945740Y-152379496D01*
X105655024Y-152457395D01*
X105642328Y-152460093D01*
X105345076Y-152507174D01*
X105332169Y-152508531D01*
X105028397Y-152524454D01*
X105021835Y-152524624D01*
X61099384Y-152499541D01*
X61098736Y-152499499D01*
X61091014Y-152499499D01*
X61028355Y-152499499D01*
X61021867Y-152499329D01*
X61010979Y-152498758D01*
X60718074Y-152483410D01*
X60705167Y-152482054D01*
X60407897Y-152434973D01*
X60395215Y-152432277D01*
X60104494Y-152354381D01*
X60092150Y-152350370D01*
X59811174Y-152242514D01*
X59799317Y-152237235D01*
X59531153Y-152100601D01*
X59519912Y-152094111D01*
X59267496Y-151930191D01*
X59257005Y-151922569D01*
X59023088Y-151733149D01*
X59013462Y-151724481D01*
X58800637Y-151511657D01*
X58791952Y-151502012D01*
X58769156Y-151473862D01*
X58602546Y-151268116D01*
X58594917Y-151257615D01*
X58447311Y-151030322D01*
X58431000Y-151005205D01*
X58424512Y-150993969D01*
X58287867Y-150725790D01*
X58282597Y-150713955D01*
X58174734Y-150432963D01*
X58170725Y-150420624D01*
X58092827Y-150129904D01*
X58090129Y-150117209D01*
X58083984Y-150078413D01*
X58043049Y-149819956D01*
X58041692Y-149807048D01*
X58025796Y-149503757D01*
X58025626Y-149497267D01*
X58025626Y-149426000D01*
X58025601Y-149425632D01*
X58025516Y-149162630D01*
X58004770Y-84735928D01*
X64049500Y-84735928D01*
X64049500Y-126284071D01*
X64067488Y-126374499D01*
X64067488Y-126374500D01*
X64074497Y-126409737D01*
X64074498Y-126409742D01*
X64123534Y-126528125D01*
X64194726Y-126634673D01*
X64194727Y-126634674D01*
X65152290Y-127592236D01*
X65185775Y-127653559D01*
X65184384Y-127712008D01*
X65164937Y-127784589D01*
X65164937Y-127784590D01*
X65144341Y-128019999D01*
X65144341Y-128020000D01*
X65164936Y-128255403D01*
X65164938Y-128255413D01*
X65226094Y-128483655D01*
X65226096Y-128483659D01*
X65226097Y-128483663D01*
X65303884Y-128650478D01*
X65325965Y-128697830D01*
X65325967Y-128697834D01*
X65461501Y-128891395D01*
X65461506Y-128891402D01*
X65628597Y-129058493D01*
X65628603Y-129058498D01*
X65814158Y-129188425D01*
X65857783Y-129243002D01*
X65864977Y-129312500D01*
X65833454Y-129374855D01*
X65814158Y-129391575D01*
X65628597Y-129521505D01*
X65461505Y-129688597D01*
X65325965Y-129882169D01*
X65325964Y-129882171D01*
X65226098Y-130096335D01*
X65226094Y-130096344D01*
X65164938Y-130324586D01*
X65164936Y-130324596D01*
X65144341Y-130559999D01*
X65144341Y-130560000D01*
X65164936Y-130795403D01*
X65164938Y-130795413D01*
X65226094Y-131023655D01*
X65226096Y-131023659D01*
X65226097Y-131023663D01*
X65266124Y-131109500D01*
X65325965Y-131237830D01*
X65325967Y-131237834D01*
X65461501Y-131431395D01*
X65461506Y-131431402D01*
X65628597Y-131598493D01*
X65628603Y-131598498D01*
X65814158Y-131728425D01*
X65857783Y-131783002D01*
X65864977Y-131852500D01*
X65833454Y-131914855D01*
X65814158Y-131931575D01*
X65628597Y-132061505D01*
X65461505Y-132228597D01*
X65325965Y-132422169D01*
X65325964Y-132422171D01*
X65226098Y-132636335D01*
X65226094Y-132636344D01*
X65164938Y-132864586D01*
X65164936Y-132864596D01*
X65144341Y-133099999D01*
X65144341Y-133100000D01*
X65164936Y-133335403D01*
X65164938Y-133335413D01*
X65226094Y-133563655D01*
X65226096Y-133563659D01*
X65226097Y-133563663D01*
X65265715Y-133648623D01*
X65325965Y-133777830D01*
X65325967Y-133777834D01*
X65461501Y-133971395D01*
X65461506Y-133971402D01*
X65628597Y-134138493D01*
X65628603Y-134138498D01*
X65814158Y-134268425D01*
X65857783Y-134323002D01*
X65864977Y-134392500D01*
X65833454Y-134454855D01*
X65814158Y-134471575D01*
X65628597Y-134601505D01*
X65461505Y-134768597D01*
X65325965Y-134962169D01*
X65325964Y-134962171D01*
X65226098Y-135176335D01*
X65226094Y-135176344D01*
X65164938Y-135404586D01*
X65164936Y-135404596D01*
X65144341Y-135639999D01*
X65144341Y-135640000D01*
X65164936Y-135875403D01*
X65164938Y-135875413D01*
X65226094Y-136103655D01*
X65226096Y-136103659D01*
X65226097Y-136103663D01*
X65325965Y-136317830D01*
X65325967Y-136317834D01*
X65461501Y-136511395D01*
X65461506Y-136511402D01*
X65628597Y-136678493D01*
X65628603Y-136678498D01*
X65814158Y-136808425D01*
X65857783Y-136863002D01*
X65864977Y-136932500D01*
X65833454Y-136994855D01*
X65814158Y-137011575D01*
X65628597Y-137141505D01*
X65461505Y-137308597D01*
X65325965Y-137502169D01*
X65325964Y-137502171D01*
X65226098Y-137716335D01*
X65226094Y-137716344D01*
X65164938Y-137944586D01*
X65164936Y-137944596D01*
X65144341Y-138179999D01*
X65144341Y-138180000D01*
X65164936Y-138415403D01*
X65164938Y-138415413D01*
X65226094Y-138643655D01*
X65226096Y-138643659D01*
X65226097Y-138643663D01*
X65325965Y-138857830D01*
X65325967Y-138857834D01*
X65461501Y-139051395D01*
X65461506Y-139051402D01*
X65628597Y-139218493D01*
X65628603Y-139218498D01*
X65814158Y-139348425D01*
X65857783Y-139403002D01*
X65864977Y-139472500D01*
X65833454Y-139534855D01*
X65814158Y-139551575D01*
X65628597Y-139681505D01*
X65461505Y-139848597D01*
X65325965Y-140042169D01*
X65325964Y-140042171D01*
X65226098Y-140256335D01*
X65226094Y-140256344D01*
X65164938Y-140484586D01*
X65164936Y-140484596D01*
X65144341Y-140719999D01*
X65144341Y-140720000D01*
X65164936Y-140955403D01*
X65164938Y-140955413D01*
X65226094Y-141183655D01*
X65226096Y-141183659D01*
X65226097Y-141183663D01*
X65325965Y-141397830D01*
X65325967Y-141397834D01*
X65461501Y-141591395D01*
X65461506Y-141591402D01*
X65628597Y-141758493D01*
X65628603Y-141758498D01*
X65814158Y-141888425D01*
X65857783Y-141943002D01*
X65864977Y-142012500D01*
X65833454Y-142074855D01*
X65814158Y-142091575D01*
X65628597Y-142221505D01*
X65461505Y-142388597D01*
X65325965Y-142582169D01*
X65325964Y-142582171D01*
X65226098Y-142796335D01*
X65226094Y-142796344D01*
X65164938Y-143024586D01*
X65164936Y-143024596D01*
X65144341Y-143259999D01*
X65144341Y-143260000D01*
X65164936Y-143495403D01*
X65164938Y-143495413D01*
X65226094Y-143723655D01*
X65226096Y-143723659D01*
X65226097Y-143723663D01*
X65325965Y-143937830D01*
X65325967Y-143937834D01*
X65461501Y-144131395D01*
X65461506Y-144131402D01*
X65628597Y-144298493D01*
X65628603Y-144298498D01*
X65814158Y-144428425D01*
X65857783Y-144483002D01*
X65864977Y-144552500D01*
X65833454Y-144614855D01*
X65814158Y-144631575D01*
X65628597Y-144761505D01*
X65461505Y-144928597D01*
X65325965Y-145122169D01*
X65325964Y-145122171D01*
X65226098Y-145336335D01*
X65226094Y-145336344D01*
X65164938Y-145564586D01*
X65164936Y-145564596D01*
X65144341Y-145799999D01*
X65144341Y-145800000D01*
X65164936Y-146035403D01*
X65164938Y-146035413D01*
X65226094Y-146263655D01*
X65226096Y-146263659D01*
X65226097Y-146263663D01*
X65246532Y-146307485D01*
X65325965Y-146477830D01*
X65325967Y-146477834D01*
X65461501Y-146671395D01*
X65461506Y-146671402D01*
X65628597Y-146838493D01*
X65628603Y-146838498D01*
X65814594Y-146968730D01*
X65858219Y-147023307D01*
X65865413Y-147092805D01*
X65833890Y-147155160D01*
X65814595Y-147171880D01*
X65628922Y-147301890D01*
X65628920Y-147301891D01*
X65461891Y-147468920D01*
X65461886Y-147468926D01*
X65326400Y-147662420D01*
X65326399Y-147662422D01*
X65226570Y-147876507D01*
X65226567Y-147876513D01*
X65169364Y-148089999D01*
X65169364Y-148090000D01*
X66066988Y-148090000D01*
X66034075Y-148147007D01*
X66000000Y-148274174D01*
X66000000Y-148405826D01*
X66034075Y-148532993D01*
X66066988Y-148590000D01*
X65169364Y-148590000D01*
X65226567Y-148803486D01*
X65226570Y-148803492D01*
X65326399Y-149017578D01*
X65461894Y-149211082D01*
X65628917Y-149378105D01*
X65822421Y-149513600D01*
X66036507Y-149613429D01*
X66036516Y-149613433D01*
X66250000Y-149670634D01*
X66250000Y-148773012D01*
X66307007Y-148805925D01*
X66434174Y-148840000D01*
X66565826Y-148840000D01*
X66692993Y-148805925D01*
X66750000Y-148773012D01*
X66750000Y-149670633D01*
X66963483Y-149613433D01*
X66963492Y-149613429D01*
X67177578Y-149513600D01*
X67371082Y-149378105D01*
X67538105Y-149211082D01*
X67673600Y-149017578D01*
X67773429Y-148803492D01*
X67773432Y-148803486D01*
X67830636Y-148590000D01*
X66933012Y-148590000D01*
X66965925Y-148532993D01*
X67000000Y-148405826D01*
X67000000Y-148274174D01*
X66965925Y-148147007D01*
X66933012Y-148090000D01*
X67830636Y-148090000D01*
X67830635Y-148089999D01*
X67773432Y-147876513D01*
X67773429Y-147876507D01*
X67673600Y-147662422D01*
X67673599Y-147662420D01*
X67538113Y-147468926D01*
X67538108Y-147468920D01*
X67481369Y-147412181D01*
X67447884Y-147350858D01*
X67452868Y-147281166D01*
X67494740Y-147225233D01*
X67560204Y-147200816D01*
X67569050Y-147200500D01*
X70894242Y-147200500D01*
X70961281Y-147220185D01*
X70981923Y-147236819D01*
X70995209Y-147250105D01*
X70995214Y-147250109D01*
X71160218Y-147369991D01*
X71202884Y-147425320D01*
X71208863Y-147494934D01*
X71176258Y-147556729D01*
X71160218Y-147570627D01*
X70995540Y-147690272D01*
X70995535Y-147690276D01*
X70845276Y-147840535D01*
X70845272Y-147840540D01*
X70720379Y-148012442D01*
X70623904Y-148201782D01*
X70558242Y-148403870D01*
X70558242Y-148403873D01*
X70547769Y-148470000D01*
X71595854Y-148470000D01*
X71557370Y-148536657D01*
X71525000Y-148657465D01*
X71525000Y-148782535D01*
X71557370Y-148903343D01*
X71595854Y-148970000D01*
X70547769Y-148970000D01*
X70558242Y-149036126D01*
X70558242Y-149036129D01*
X70623904Y-149238217D01*
X70720379Y-149427557D01*
X70845272Y-149599459D01*
X70845276Y-149599464D01*
X70995535Y-149749723D01*
X70995540Y-149749727D01*
X71167442Y-149874620D01*
X71356782Y-149971095D01*
X71558872Y-150036757D01*
X71750000Y-150067029D01*
X71750000Y-149124145D01*
X71816657Y-149162630D01*
X71937465Y-149195000D01*
X72062535Y-149195000D01*
X72183343Y-149162630D01*
X72250000Y-149124145D01*
X72250000Y-150067028D01*
X72441127Y-150036757D01*
X72643217Y-149971095D01*
X72832557Y-149874620D01*
X73004459Y-149749727D01*
X73004464Y-149749723D01*
X73154723Y-149599464D01*
X73154727Y-149599459D01*
X73279620Y-149427557D01*
X73376095Y-149238217D01*
X73441757Y-149036129D01*
X73441757Y-149036126D01*
X73452231Y-148970000D01*
X72404146Y-148970000D01*
X72442630Y-148903343D01*
X72475000Y-148782535D01*
X72475000Y-148657465D01*
X72442630Y-148536657D01*
X72404146Y-148470000D01*
X73452231Y-148470000D01*
X73441757Y-148403873D01*
X73441757Y-148403870D01*
X73376095Y-148201782D01*
X73279620Y-148012442D01*
X73154727Y-147840540D01*
X73154723Y-147840535D01*
X73004464Y-147690276D01*
X73004459Y-147690272D01*
X72839781Y-147570627D01*
X72797115Y-147515297D01*
X72791136Y-147445684D01*
X72823741Y-147383889D01*
X72839776Y-147369994D01*
X73004792Y-147250104D01*
X73018077Y-147236819D01*
X73079400Y-147203334D01*
X73105758Y-147200500D01*
X81885501Y-147200500D01*
X81952540Y-147220185D01*
X81998295Y-147272989D01*
X82009501Y-147324500D01*
X82009501Y-148527876D01*
X82015908Y-148587483D01*
X82066202Y-148722328D01*
X82066206Y-148722335D01*
X82152452Y-148837544D01*
X82152455Y-148837547D01*
X82267664Y-148923793D01*
X82267671Y-148923797D01*
X82402517Y-148974091D01*
X82402516Y-148974091D01*
X82409444Y-148974835D01*
X82462127Y-148980500D01*
X84537872Y-148980499D01*
X84597483Y-148974091D01*
X84732331Y-148923796D01*
X84847546Y-148837546D01*
X84933796Y-148722331D01*
X84984091Y-148587483D01*
X84990500Y-148527873D01*
X84990499Y-144472128D01*
X84984091Y-144412517D01*
X84980041Y-144401659D01*
X84933797Y-144277671D01*
X84933793Y-144277664D01*
X84847547Y-144162455D01*
X84847544Y-144162452D01*
X84732335Y-144076206D01*
X84732328Y-144076202D01*
X84597482Y-144025908D01*
X84597483Y-144025908D01*
X84537883Y-144019501D01*
X84537881Y-144019500D01*
X84537873Y-144019500D01*
X84537864Y-144019500D01*
X82462129Y-144019500D01*
X82462123Y-144019501D01*
X82402516Y-144025908D01*
X82267671Y-144076202D01*
X82267664Y-144076206D01*
X82152455Y-144162452D01*
X82152452Y-144162455D01*
X82066206Y-144277664D01*
X82066202Y-144277671D01*
X82015908Y-144412517D01*
X82011263Y-144455728D01*
X82009501Y-144472123D01*
X82009500Y-144472135D01*
X82009500Y-145675500D01*
X81989815Y-145742539D01*
X81937011Y-145788294D01*
X81885500Y-145799500D01*
X73498462Y-145799500D01*
X73431423Y-145779815D01*
X73385668Y-145727011D01*
X73380532Y-145713822D01*
X73376557Y-145701588D01*
X73280051Y-145512184D01*
X73280049Y-145512181D01*
X73280048Y-145512179D01*
X73155109Y-145340213D01*
X73016294Y-145201398D01*
X72982809Y-145140075D01*
X72987793Y-145070383D01*
X73029665Y-145014450D01*
X73038879Y-145008178D01*
X73044331Y-145004814D01*
X73044334Y-145004814D01*
X73193656Y-144912712D01*
X73317712Y-144788656D01*
X73409814Y-144639334D01*
X73464999Y-144472797D01*
X73475500Y-144370009D01*
X73475499Y-143069992D01*
X73464999Y-142967203D01*
X73409814Y-142800666D01*
X73317712Y-142651344D01*
X73193656Y-142527288D01*
X73044334Y-142435186D01*
X72877797Y-142380001D01*
X72877795Y-142380000D01*
X72775016Y-142369500D01*
X72775009Y-142369500D01*
X71449500Y-142369500D01*
X71382461Y-142349815D01*
X71336706Y-142297011D01*
X71325500Y-142245500D01*
X71325500Y-138631601D01*
X71345185Y-138564562D01*
X71397989Y-138518807D01*
X71467147Y-138508863D01*
X71487819Y-138513670D01*
X71558875Y-138536758D01*
X71750000Y-138567029D01*
X71750000Y-137624145D01*
X71816657Y-137662630D01*
X71937465Y-137695000D01*
X72062535Y-137695000D01*
X72183343Y-137662630D01*
X72250000Y-137624145D01*
X72250000Y-138567028D01*
X72441127Y-138536757D01*
X72643217Y-138471095D01*
X72832557Y-138374620D01*
X73004459Y-138249727D01*
X73004464Y-138249723D01*
X73154723Y-138099464D01*
X73154727Y-138099459D01*
X73279620Y-137927557D01*
X73376095Y-137738217D01*
X73441757Y-137536129D01*
X73441757Y-137536126D01*
X73452231Y-137470000D01*
X72404146Y-137470000D01*
X72442630Y-137403343D01*
X72475000Y-137282535D01*
X72475000Y-137157465D01*
X72442630Y-137036657D01*
X72404146Y-136970000D01*
X73452231Y-136970000D01*
X73441757Y-136903873D01*
X73441757Y-136903870D01*
X73376095Y-136701782D01*
X73279620Y-136512442D01*
X73154727Y-136340540D01*
X73154723Y-136340535D01*
X73004464Y-136190276D01*
X73004459Y-136190272D01*
X72839781Y-136070627D01*
X72797115Y-136015297D01*
X72791136Y-135945684D01*
X72823741Y-135883889D01*
X72839776Y-135869994D01*
X73004792Y-135750104D01*
X73155104Y-135599792D01*
X73155106Y-135599788D01*
X73155109Y-135599786D01*
X73280048Y-135427820D01*
X73280047Y-135427820D01*
X73280051Y-135427816D01*
X73376557Y-135238412D01*
X73442246Y-135036243D01*
X73475500Y-134826287D01*
X73475500Y-134613713D01*
X73442246Y-134403757D01*
X73432534Y-134373870D01*
X73430538Y-134304032D01*
X73462781Y-134247874D01*
X73919114Y-133791543D01*
X73995775Y-133676811D01*
X74015543Y-133629088D01*
X74022177Y-133613069D01*
X74048580Y-133549328D01*
X74075500Y-133413994D01*
X74075500Y-133276006D01*
X74075500Y-124526007D01*
X74075500Y-124526004D01*
X74048581Y-124390677D01*
X74048580Y-124390676D01*
X74048580Y-124390672D01*
X74031535Y-124349522D01*
X73995778Y-124263195D01*
X73995774Y-124263188D01*
X73987035Y-124250109D01*
X73962843Y-124213903D01*
X73962843Y-124213902D01*
X73919115Y-124148458D01*
X73919109Y-124148451D01*
X73462785Y-123692128D01*
X73429300Y-123630805D01*
X73432535Y-123566128D01*
X73434233Y-123560903D01*
X73442246Y-123536243D01*
X73475500Y-123326287D01*
X73475500Y-123113713D01*
X73442246Y-122903757D01*
X73376557Y-122701588D01*
X73280051Y-122512184D01*
X73280049Y-122512181D01*
X73280048Y-122512179D01*
X73155109Y-122340213D01*
X73016294Y-122201398D01*
X72982809Y-122140075D01*
X72987793Y-122070383D01*
X73029665Y-122014450D01*
X73038879Y-122008178D01*
X73044331Y-122004814D01*
X73044334Y-122004814D01*
X73193656Y-121912712D01*
X73317712Y-121788656D01*
X73409814Y-121639334D01*
X73464999Y-121472797D01*
X73475500Y-121370009D01*
X73475499Y-120069992D01*
X73464999Y-119967203D01*
X73409814Y-119800666D01*
X73317712Y-119651344D01*
X73193656Y-119527288D01*
X73044334Y-119435186D01*
X72877797Y-119380001D01*
X72877795Y-119380000D01*
X72775010Y-119369500D01*
X71224998Y-119369500D01*
X71224981Y-119369501D01*
X71122203Y-119380000D01*
X71122200Y-119380001D01*
X70955668Y-119435185D01*
X70955663Y-119435187D01*
X70806342Y-119527289D01*
X70682289Y-119651342D01*
X70590187Y-119800663D01*
X70590185Y-119800668D01*
X70583532Y-119820745D01*
X70535001Y-119967203D01*
X70535001Y-119967204D01*
X70535000Y-119967204D01*
X70524500Y-120069983D01*
X70524500Y-120454481D01*
X70504815Y-120521520D01*
X70452011Y-120567275D01*
X70382853Y-120577219D01*
X70319297Y-120548194D01*
X70312819Y-120542162D01*
X68542838Y-118772181D01*
X68509353Y-118710858D01*
X68514337Y-118641166D01*
X68556209Y-118585233D01*
X68621673Y-118560816D01*
X68630519Y-118560500D01*
X80630934Y-118560500D01*
X80697973Y-118580185D01*
X80743728Y-118632989D01*
X80753672Y-118702147D01*
X80747976Y-118725451D01*
X80731625Y-118772181D01*
X80714632Y-118820745D01*
X80714630Y-118820752D01*
X80713815Y-118827988D01*
X80686743Y-118892400D01*
X80678278Y-118901775D01*
X80344720Y-119235334D01*
X80331734Y-119254771D01*
X80318745Y-119274211D01*
X80300636Y-119301313D01*
X80273534Y-119341873D01*
X80224499Y-119460255D01*
X80224497Y-119460261D01*
X80199500Y-119585928D01*
X80199500Y-119585931D01*
X80199500Y-123414069D01*
X80216817Y-123501126D01*
X80223800Y-123536227D01*
X80223802Y-123536248D01*
X80223804Y-123536248D01*
X80224499Y-123539745D01*
X80273533Y-123658124D01*
X80273534Y-123658126D01*
X80273535Y-123658127D01*
X80325120Y-123735331D01*
X80344726Y-123764673D01*
X80344727Y-123764674D01*
X81178277Y-124598223D01*
X81211762Y-124659546D01*
X81213815Y-124672012D01*
X81214630Y-124679246D01*
X81214632Y-124679255D01*
X81274210Y-124849521D01*
X81289904Y-124874497D01*
X81370184Y-125002262D01*
X81497738Y-125129816D01*
X81522214Y-125145195D01*
X81643995Y-125221716D01*
X81650478Y-125225789D01*
X81705380Y-125245000D01*
X81820745Y-125285368D01*
X81820750Y-125285369D01*
X81999996Y-125305565D01*
X82000000Y-125305565D01*
X82000004Y-125305565D01*
X82179249Y-125285369D01*
X82179252Y-125285368D01*
X82179255Y-125285368D01*
X82349522Y-125225789D01*
X82502262Y-125129816D01*
X82629816Y-125002262D01*
X82725789Y-124849522D01*
X82785368Y-124679255D01*
X82788732Y-124649400D01*
X82805565Y-124500003D01*
X82805565Y-124499996D01*
X82785369Y-124320750D01*
X82785368Y-124320745D01*
X82747982Y-124213902D01*
X82725789Y-124150478D01*
X82724515Y-124148451D01*
X82685231Y-124085931D01*
X82629816Y-123997738D01*
X82502262Y-123870184D01*
X82457209Y-123841875D01*
X82349521Y-123774210D01*
X82179255Y-123714632D01*
X82179246Y-123714630D01*
X82172012Y-123713815D01*
X82107600Y-123686744D01*
X82098223Y-123678277D01*
X81536819Y-123116873D01*
X81503334Y-123055550D01*
X81500500Y-123029192D01*
X81500500Y-122800569D01*
X81520185Y-122733530D01*
X81572989Y-122687775D01*
X81642147Y-122677831D01*
X81705703Y-122706856D01*
X81712181Y-122712888D01*
X86463181Y-127463888D01*
X86496666Y-127525211D01*
X86499500Y-127551569D01*
X86499500Y-128948430D01*
X86479815Y-129015469D01*
X86463181Y-129036111D01*
X85812431Y-129686860D01*
X85751108Y-129720345D01*
X85683795Y-129716220D01*
X85679254Y-129714631D01*
X85500004Y-129694435D01*
X85499996Y-129694435D01*
X85320750Y-129714630D01*
X85320745Y-129714631D01*
X85150476Y-129774211D01*
X84997737Y-129870184D01*
X84870184Y-129997737D01*
X84774211Y-130150476D01*
X84714631Y-130320745D01*
X84714630Y-130320750D01*
X84694435Y-130499996D01*
X84694435Y-130500003D01*
X84714630Y-130679249D01*
X84714631Y-130679254D01*
X84774212Y-130849525D01*
X84780492Y-130859519D01*
X84799500Y-130925493D01*
X84799500Y-132931006D01*
X84799500Y-133068994D01*
X84799500Y-133068996D01*
X84799499Y-133068996D01*
X84826418Y-133204322D01*
X84826421Y-133204332D01*
X84879222Y-133331807D01*
X84955887Y-133446545D01*
X84955888Y-133446546D01*
X94717162Y-143207819D01*
X94750647Y-143269142D01*
X94745663Y-143338834D01*
X94703791Y-143394767D01*
X94638327Y-143419184D01*
X94629481Y-143419500D01*
X90811003Y-143419500D01*
X90702590Y-143441065D01*
X90702589Y-143441065D01*
X90675671Y-143446420D01*
X90548190Y-143499224D01*
X90433454Y-143575887D01*
X89641167Y-144368174D01*
X89579844Y-144401659D01*
X89510152Y-144396675D01*
X89474951Y-144375954D01*
X89474938Y-144375973D01*
X89474748Y-144375835D01*
X89472942Y-144374772D01*
X89470992Y-144373106D01*
X89281195Y-144235212D01*
X89281194Y-144235211D01*
X89281192Y-144235210D01*
X89138397Y-144162452D01*
X89072150Y-144128697D01*
X88849027Y-144056201D01*
X88733165Y-144037850D01*
X88617305Y-144019500D01*
X88382695Y-144019500D01*
X88305454Y-144031733D01*
X88150972Y-144056201D01*
X87927849Y-144128697D01*
X87718804Y-144235212D01*
X87529010Y-144373104D01*
X87529005Y-144373108D01*
X87363108Y-144539005D01*
X87363104Y-144539010D01*
X87225212Y-144728804D01*
X87118697Y-144937849D01*
X87046201Y-145160972D01*
X87009500Y-145392695D01*
X87009500Y-147607304D01*
X87046201Y-147839027D01*
X87118697Y-148062150D01*
X87161934Y-148147007D01*
X87211864Y-148245000D01*
X87225212Y-148271195D01*
X87363104Y-148460989D01*
X87363108Y-148460994D01*
X87529005Y-148626891D01*
X87529010Y-148626895D01*
X87660364Y-148722328D01*
X87718808Y-148764790D01*
X87866416Y-148840000D01*
X87927849Y-148871302D01*
X88039410Y-148907550D01*
X88150974Y-148943799D01*
X88382695Y-148980500D01*
X88382696Y-148980500D01*
X88617304Y-148980500D01*
X88617305Y-148980500D01*
X88849026Y-148943799D01*
X89072153Y-148871301D01*
X89281192Y-148764790D01*
X89470996Y-148626890D01*
X89636890Y-148460996D01*
X89774790Y-148271192D01*
X89881301Y-148062153D01*
X89953799Y-147839026D01*
X89990500Y-147607305D01*
X89990500Y-146051519D01*
X90010185Y-145984480D01*
X90026819Y-145963838D01*
X91133838Y-144856819D01*
X91195161Y-144823334D01*
X91221519Y-144820500D01*
X91986683Y-144820500D01*
X92053722Y-144840185D01*
X92099477Y-144892989D01*
X92109421Y-144962147D01*
X92104614Y-144982819D01*
X92046688Y-145161090D01*
X92010000Y-145392734D01*
X92010000Y-146250000D01*
X92889175Y-146250000D01*
X92865364Y-146307485D01*
X92840000Y-146434996D01*
X92840000Y-146565004D01*
X92865364Y-146692515D01*
X92889175Y-146750000D01*
X92010000Y-146750000D01*
X92010000Y-147607265D01*
X92046689Y-147838909D01*
X92119164Y-148061965D01*
X92225638Y-148270930D01*
X92363494Y-148460672D01*
X92529327Y-148626505D01*
X92719069Y-148764361D01*
X92928036Y-148870835D01*
X93151089Y-148943310D01*
X93250000Y-148958976D01*
X93250000Y-147110824D01*
X93307485Y-147134636D01*
X93434996Y-147160000D01*
X93565004Y-147160000D01*
X93692515Y-147134636D01*
X93750000Y-147110824D01*
X93750000Y-148958975D01*
X93848909Y-148943310D01*
X93848912Y-148943310D01*
X94071963Y-148870835D01*
X94280930Y-148764361D01*
X94470672Y-148626505D01*
X94636505Y-148460672D01*
X94774361Y-148270930D01*
X94880835Y-148061965D01*
X94953310Y-147838909D01*
X94990000Y-147607265D01*
X94990000Y-146750000D01*
X94110825Y-146750000D01*
X94134636Y-146692515D01*
X94160000Y-146565004D01*
X94160000Y-146434996D01*
X94134636Y-146307485D01*
X94110825Y-146250000D01*
X94990000Y-146250000D01*
X94990000Y-145392734D01*
X94953311Y-145161090D01*
X94895386Y-144982819D01*
X94893391Y-144912978D01*
X94929471Y-144853145D01*
X94992172Y-144822316D01*
X95013317Y-144820500D01*
X96278481Y-144820500D01*
X96345520Y-144840185D01*
X96366162Y-144856819D01*
X97853453Y-146344111D01*
X97853454Y-146344112D01*
X97968192Y-146420777D01*
X98095667Y-146473578D01*
X98095672Y-146473580D01*
X98095676Y-146473580D01*
X98095677Y-146473581D01*
X98231003Y-146500500D01*
X98231006Y-146500500D01*
X98231007Y-146500500D01*
X98614789Y-146500500D01*
X98681828Y-146520185D01*
X98716364Y-146553377D01*
X98799005Y-146671402D01*
X98966097Y-146838493D01*
X98966103Y-146838498D01*
X99152094Y-146968730D01*
X99195719Y-147023307D01*
X99202913Y-147092805D01*
X99171390Y-147155160D01*
X99152095Y-147171880D01*
X98966422Y-147301890D01*
X98966420Y-147301891D01*
X98799391Y-147468920D01*
X98799386Y-147468926D01*
X98663900Y-147662420D01*
X98663899Y-147662422D01*
X98564070Y-147876507D01*
X98564067Y-147876513D01*
X98506864Y-148089999D01*
X98506864Y-148090000D01*
X99404488Y-148090000D01*
X99371575Y-148147007D01*
X99337500Y-148274174D01*
X99337500Y-148405826D01*
X99371575Y-148532993D01*
X99404488Y-148590000D01*
X98506864Y-148590000D01*
X98564067Y-148803486D01*
X98564070Y-148803492D01*
X98663899Y-149017578D01*
X98799394Y-149211082D01*
X98966417Y-149378105D01*
X99159921Y-149513600D01*
X99374007Y-149613429D01*
X99374016Y-149613433D01*
X99587500Y-149670634D01*
X99587500Y-148773012D01*
X99644507Y-148805925D01*
X99771674Y-148840000D01*
X99903326Y-148840000D01*
X100030493Y-148805925D01*
X100087500Y-148773012D01*
X100087500Y-149670633D01*
X100300983Y-149613433D01*
X100300992Y-149613429D01*
X100515078Y-149513600D01*
X100708582Y-149378105D01*
X100875605Y-149211082D01*
X101011100Y-149017578D01*
X101110929Y-148803492D01*
X101110932Y-148803486D01*
X101168136Y-148590000D01*
X100270512Y-148590000D01*
X100303425Y-148532993D01*
X100337500Y-148405826D01*
X100337500Y-148274174D01*
X100303425Y-148147007D01*
X100270512Y-148090000D01*
X101168136Y-148090000D01*
X101168135Y-148089999D01*
X101110932Y-147876513D01*
X101110929Y-147876507D01*
X101011100Y-147662422D01*
X101011099Y-147662420D01*
X100875613Y-147468926D01*
X100875608Y-147468920D01*
X100708578Y-147301890D01*
X100522905Y-147171879D01*
X100479280Y-147117302D01*
X100472088Y-147047804D01*
X100503610Y-146985449D01*
X100522906Y-146968730D01*
X100591464Y-146920725D01*
X100708901Y-146838495D01*
X100875995Y-146671401D01*
X101011535Y-146477830D01*
X101111403Y-146263663D01*
X101172563Y-146035408D01*
X101193159Y-145800000D01*
X101172563Y-145564592D01*
X101111403Y-145336337D01*
X101011535Y-145122171D01*
X100955898Y-145042712D01*
X100875994Y-144928597D01*
X100708902Y-144761506D01*
X100708896Y-144761501D01*
X100523342Y-144631575D01*
X100479717Y-144576998D01*
X100472523Y-144507500D01*
X100504046Y-144445145D01*
X100523342Y-144428425D01*
X100561568Y-144401659D01*
X100708901Y-144298495D01*
X100875995Y-144131401D01*
X101011535Y-143937830D01*
X101111403Y-143723663D01*
X101172563Y-143495408D01*
X101193159Y-143260000D01*
X101172563Y-143024592D01*
X101126126Y-142851285D01*
X101111405Y-142796344D01*
X101111404Y-142796343D01*
X101111403Y-142796337D01*
X101011535Y-142582171D01*
X100973107Y-142527289D01*
X100875994Y-142388597D01*
X100708902Y-142221506D01*
X100708896Y-142221501D01*
X100523342Y-142091575D01*
X100479717Y-142036998D01*
X100472523Y-141967500D01*
X100504046Y-141905145D01*
X100523342Y-141888425D01*
X100545526Y-141872891D01*
X100708901Y-141758495D01*
X100875995Y-141591401D01*
X101011535Y-141397830D01*
X101111403Y-141183663D01*
X101172563Y-140955408D01*
X101193159Y-140720000D01*
X101172563Y-140484592D01*
X101111403Y-140256337D01*
X101011535Y-140042171D01*
X100875995Y-139848599D01*
X100875994Y-139848597D01*
X100708902Y-139681506D01*
X100708896Y-139681501D01*
X100523342Y-139551575D01*
X100479717Y-139496998D01*
X100472523Y-139427500D01*
X100504046Y-139365145D01*
X100523342Y-139348425D01*
X100545526Y-139332891D01*
X100708901Y-139218495D01*
X100875995Y-139051401D01*
X101011535Y-138857830D01*
X101111403Y-138643663D01*
X101172563Y-138415408D01*
X101193159Y-138180000D01*
X101172563Y-137944592D01*
X101111403Y-137716337D01*
X101011535Y-137502171D01*
X100942336Y-137403343D01*
X100875994Y-137308597D01*
X100708902Y-137141506D01*
X100708896Y-137141501D01*
X100523342Y-137011575D01*
X100479717Y-136956998D01*
X100472523Y-136887500D01*
X100504046Y-136825145D01*
X100523342Y-136808425D01*
X100613922Y-136745000D01*
X100708901Y-136678495D01*
X100875995Y-136511401D01*
X101011535Y-136317830D01*
X101111403Y-136103663D01*
X101172563Y-135875408D01*
X101193159Y-135640000D01*
X101172563Y-135404592D01*
X101111403Y-135176337D01*
X101011535Y-134962171D01*
X101003363Y-134950500D01*
X100898571Y-134800840D01*
X100876244Y-134734634D01*
X100893254Y-134666867D01*
X100912461Y-134642040D01*
X102042776Y-133511727D01*
X102108077Y-133413996D01*
X102113964Y-133405186D01*
X102144357Y-133331811D01*
X102163001Y-133286801D01*
X102181162Y-133195500D01*
X102188000Y-133161126D01*
X102188000Y-127115931D01*
X102188000Y-127115928D01*
X102163002Y-126990261D01*
X102163001Y-126990260D01*
X102163001Y-126990256D01*
X102113965Y-126871873D01*
X102078886Y-126819373D01*
X102078886Y-126819372D01*
X102042775Y-126765328D01*
X102042772Y-126765325D01*
X101185209Y-125907763D01*
X101151724Y-125846440D01*
X101153115Y-125787989D01*
X101154576Y-125782535D01*
X101172563Y-125715408D01*
X101193159Y-125480000D01*
X101172563Y-125244592D01*
X101111403Y-125016337D01*
X101011535Y-124802171D01*
X100987000Y-124767131D01*
X100898571Y-124640840D01*
X100876244Y-124574634D01*
X100893254Y-124506867D01*
X100912461Y-124482040D01*
X101542777Y-123851726D01*
X101613966Y-123745183D01*
X101650025Y-123658127D01*
X101663001Y-123626801D01*
X101681015Y-123536241D01*
X101688000Y-123501128D01*
X101688000Y-121283307D01*
X101707685Y-121216268D01*
X101724315Y-121195630D01*
X102098224Y-120821720D01*
X102159545Y-120788237D01*
X102172019Y-120786183D01*
X102179255Y-120785368D01*
X102349522Y-120725789D01*
X102502262Y-120629816D01*
X102629816Y-120502262D01*
X102725789Y-120349522D01*
X102785368Y-120179255D01*
X102787020Y-120164592D01*
X102805565Y-120000003D01*
X102805565Y-119999996D01*
X102785369Y-119820750D01*
X102785368Y-119820745D01*
X102725788Y-119650476D01*
X102685231Y-119585931D01*
X102629816Y-119497738D01*
X102502262Y-119370184D01*
X102488451Y-119361506D01*
X102349523Y-119274211D01*
X102179254Y-119214631D01*
X102179249Y-119214630D01*
X102000004Y-119194435D01*
X101999996Y-119194435D01*
X101820750Y-119214630D01*
X101820745Y-119214631D01*
X101650476Y-119274211D01*
X101497737Y-119370184D01*
X101370184Y-119497737D01*
X101274210Y-119650478D01*
X101247913Y-119725633D01*
X101207191Y-119782409D01*
X101142238Y-119808157D01*
X101073677Y-119794701D01*
X101023274Y-119746314D01*
X101018494Y-119737095D01*
X101011535Y-119722171D01*
X101011534Y-119722170D01*
X101011533Y-119722167D01*
X100875994Y-119528597D01*
X100708902Y-119361506D01*
X100708896Y-119361501D01*
X100523342Y-119231575D01*
X100479717Y-119176998D01*
X100472523Y-119107500D01*
X100504046Y-119045145D01*
X100523342Y-119028425D01*
X100649500Y-118940088D01*
X100708901Y-118898495D01*
X100875995Y-118731401D01*
X101011535Y-118537830D01*
X101111403Y-118323663D01*
X101172563Y-118095408D01*
X101193159Y-117860000D01*
X101172563Y-117624592D01*
X101111403Y-117396337D01*
X101011535Y-117182171D01*
X100981878Y-117139815D01*
X100875994Y-116988597D01*
X100708902Y-116821506D01*
X100708896Y-116821501D01*
X100523342Y-116691575D01*
X100479717Y-116636998D01*
X100472523Y-116567500D01*
X100504046Y-116505145D01*
X100523342Y-116488425D01*
X100692207Y-116370184D01*
X100708901Y-116358495D01*
X100875995Y-116191401D01*
X101011535Y-115997830D01*
X101111403Y-115783663D01*
X101172563Y-115555408D01*
X101193159Y-115320000D01*
X101172563Y-115084592D01*
X101111403Y-114856337D01*
X101011535Y-114642171D01*
X100982074Y-114600095D01*
X100875994Y-114448597D01*
X100708902Y-114281506D01*
X100708896Y-114281501D01*
X100523342Y-114151575D01*
X100479717Y-114096998D01*
X100472523Y-114027500D01*
X100504046Y-113965145D01*
X100523342Y-113948425D01*
X100678534Y-113839758D01*
X100708901Y-113818495D01*
X100875995Y-113651401D01*
X101011535Y-113457830D01*
X101111403Y-113243663D01*
X101172563Y-113015408D01*
X101193159Y-112780000D01*
X101172563Y-112544592D01*
X101111403Y-112316337D01*
X101011535Y-112102171D01*
X100999742Y-112085328D01*
X100875994Y-111908597D01*
X100708902Y-111741506D01*
X100708896Y-111741501D01*
X100523342Y-111611575D01*
X100479717Y-111556998D01*
X100472523Y-111487500D01*
X100504046Y-111425145D01*
X100523342Y-111408425D01*
X100585923Y-111364605D01*
X100708901Y-111278495D01*
X100875995Y-111111401D01*
X101011535Y-110917830D01*
X101111403Y-110703663D01*
X101172563Y-110475408D01*
X101193159Y-110240000D01*
X101172563Y-110004592D01*
X101111403Y-109776337D01*
X101011535Y-109562171D01*
X100875995Y-109368599D01*
X100875994Y-109368597D01*
X100708902Y-109201506D01*
X100708896Y-109201501D01*
X100523342Y-109071575D01*
X100479717Y-109016998D01*
X100472523Y-108947500D01*
X100504046Y-108885145D01*
X100523342Y-108868425D01*
X100680429Y-108758431D01*
X100708901Y-108738495D01*
X100875995Y-108571401D01*
X101011535Y-108377830D01*
X101111403Y-108163663D01*
X101172563Y-107935408D01*
X101191253Y-107721781D01*
X101216705Y-107656713D01*
X101273296Y-107615734D01*
X101343058Y-107611856D01*
X101402462Y-107644908D01*
X102813181Y-109055626D01*
X102846666Y-109116949D01*
X102849500Y-109143307D01*
X102849500Y-110994931D01*
X102830494Y-111060903D01*
X102774211Y-111150477D01*
X102774209Y-111150481D01*
X102714633Y-111320737D01*
X102714630Y-111320750D01*
X102694435Y-111499996D01*
X102694435Y-111500003D01*
X102714630Y-111679249D01*
X102714631Y-111679254D01*
X102774211Y-111849523D01*
X102868760Y-111999996D01*
X102870184Y-112002262D01*
X102997738Y-112129816D01*
X103007537Y-112135973D01*
X103106912Y-112198415D01*
X103150478Y-112225789D01*
X103320745Y-112285368D01*
X103320750Y-112285369D01*
X103499996Y-112305565D01*
X103500000Y-112305565D01*
X103500004Y-112305565D01*
X103679249Y-112285369D01*
X103679252Y-112285368D01*
X103679255Y-112285368D01*
X103849522Y-112225789D01*
X104002262Y-112129816D01*
X104129816Y-112002262D01*
X104225789Y-111849522D01*
X104285368Y-111679255D01*
X104288610Y-111650481D01*
X104305565Y-111500003D01*
X104305565Y-111499996D01*
X104285369Y-111320750D01*
X104285366Y-111320737D01*
X104225790Y-111150481D01*
X104225789Y-111150478D01*
X104201232Y-111111395D01*
X104169506Y-111060903D01*
X104150500Y-110994931D01*
X104150500Y-108758428D01*
X104125502Y-108632761D01*
X104125501Y-108632760D01*
X104125501Y-108632756D01*
X104076465Y-108514373D01*
X104076464Y-108514372D01*
X104076461Y-108514366D01*
X104005277Y-108407832D01*
X103975275Y-108377830D01*
X103914669Y-108317224D01*
X102584576Y-106987131D01*
X101185209Y-105587763D01*
X101151724Y-105526440D01*
X101153115Y-105467989D01*
X101162123Y-105434370D01*
X101172563Y-105395408D01*
X101193159Y-105160000D01*
X101172563Y-104924592D01*
X101113278Y-104703334D01*
X101111405Y-104696344D01*
X101111404Y-104696343D01*
X101111403Y-104696337D01*
X101011535Y-104482171D01*
X100954472Y-104400675D01*
X100875994Y-104288597D01*
X100708902Y-104121506D01*
X100708896Y-104121501D01*
X100523342Y-103991575D01*
X100479717Y-103936998D01*
X100472523Y-103867500D01*
X100504046Y-103805145D01*
X100523342Y-103788425D01*
X100678534Y-103679758D01*
X100708901Y-103658495D01*
X100875995Y-103491401D01*
X101011535Y-103297830D01*
X101111403Y-103083663D01*
X101172563Y-102855408D01*
X101191253Y-102641781D01*
X101216705Y-102576713D01*
X101273296Y-102535734D01*
X101343058Y-102531856D01*
X101402462Y-102564908D01*
X104813181Y-105975627D01*
X104846666Y-106036950D01*
X104849500Y-106063308D01*
X104849500Y-111494931D01*
X104830494Y-111560903D01*
X104774211Y-111650477D01*
X104774209Y-111650481D01*
X104714633Y-111820737D01*
X104714630Y-111820750D01*
X104694435Y-111999996D01*
X104694435Y-112000003D01*
X104714630Y-112179249D01*
X104714631Y-112179254D01*
X104774211Y-112349523D01*
X104828505Y-112435931D01*
X104870184Y-112502262D01*
X104997738Y-112629816D01*
X105150478Y-112725789D01*
X105275243Y-112769446D01*
X105320745Y-112785368D01*
X105320750Y-112785369D01*
X105499996Y-112805565D01*
X105500000Y-112805565D01*
X105500004Y-112805565D01*
X105679249Y-112785369D01*
X105679252Y-112785368D01*
X105679255Y-112785368D01*
X105849522Y-112725789D01*
X106002262Y-112629816D01*
X106129816Y-112502262D01*
X106225789Y-112349522D01*
X106285368Y-112179255D01*
X106290245Y-112135973D01*
X106305565Y-112000003D01*
X106305565Y-111999996D01*
X106285369Y-111820750D01*
X106285366Y-111820737D01*
X106225790Y-111650481D01*
X106225789Y-111650478D01*
X106190839Y-111594855D01*
X106169506Y-111560903D01*
X106150500Y-111494931D01*
X106150500Y-105678428D01*
X106125502Y-105552761D01*
X106125501Y-105552760D01*
X106125501Y-105552756D01*
X106076465Y-105434373D01*
X106074215Y-105431006D01*
X106005276Y-105327830D01*
X106005274Y-105327827D01*
X101224318Y-100546871D01*
X101190833Y-100485548D01*
X101187999Y-100459190D01*
X101187999Y-99182129D01*
X101187998Y-99182123D01*
X101181591Y-99122516D01*
X101131297Y-98987671D01*
X101131293Y-98987664D01*
X101045047Y-98872455D01*
X101045044Y-98872452D01*
X100929835Y-98786206D01*
X100929828Y-98786202D01*
X100794982Y-98735908D01*
X100794983Y-98735908D01*
X100735383Y-98729501D01*
X100735381Y-98729500D01*
X100735373Y-98729500D01*
X100735364Y-98729500D01*
X98939629Y-98729500D01*
X98939623Y-98729501D01*
X98880016Y-98735908D01*
X98745171Y-98786202D01*
X98745169Y-98786203D01*
X98723810Y-98802193D01*
X98658345Y-98826609D01*
X98590072Y-98811757D01*
X98540667Y-98762351D01*
X98525500Y-98702925D01*
X98525500Y-92299972D01*
X98532458Y-92259017D01*
X98541459Y-92233294D01*
X98560368Y-92179255D01*
X98560369Y-92179249D01*
X98580565Y-92000003D01*
X98580565Y-91999996D01*
X98560369Y-91820750D01*
X98560368Y-91820745D01*
X98500789Y-91650478D01*
X98404816Y-91497738D01*
X98277262Y-91370184D01*
X98209527Y-91327623D01*
X98124523Y-91274211D01*
X97954254Y-91214631D01*
X97954249Y-91214630D01*
X97775004Y-91194435D01*
X97774996Y-91194435D01*
X97595750Y-91214630D01*
X97595745Y-91214631D01*
X97425476Y-91274211D01*
X97340472Y-91327623D01*
X97273235Y-91346623D01*
X97206400Y-91326255D01*
X97161186Y-91272987D01*
X97150500Y-91222629D01*
X97150500Y-86005067D01*
X97169507Y-85939094D01*
X97225788Y-85849524D01*
X97285368Y-85679254D01*
X97285369Y-85679249D01*
X97305565Y-85500003D01*
X97305565Y-85499996D01*
X97285369Y-85320750D01*
X97285368Y-85320745D01*
X97225788Y-85150476D01*
X97129815Y-84997737D01*
X97002262Y-84870184D01*
X96849523Y-84774211D01*
X96679254Y-84714631D01*
X96679249Y-84714630D01*
X96500004Y-84694435D01*
X96499996Y-84694435D01*
X96320750Y-84714630D01*
X96320745Y-84714631D01*
X96150476Y-84774211D01*
X95997737Y-84870184D01*
X95870184Y-84997737D01*
X95774211Y-85150476D01*
X95714631Y-85320745D01*
X95714630Y-85320750D01*
X95694435Y-85499996D01*
X95694435Y-85500003D01*
X95714630Y-85679249D01*
X95714631Y-85679254D01*
X95774211Y-85849524D01*
X95830493Y-85939094D01*
X95849500Y-86005067D01*
X95849500Y-92564069D01*
X95865544Y-92644724D01*
X95874499Y-92689744D01*
X95923535Y-92808127D01*
X95994723Y-92914669D01*
X95994726Y-92914673D01*
X95994727Y-92914674D01*
X96463181Y-93383127D01*
X96496666Y-93444450D01*
X96499500Y-93470808D01*
X96499500Y-106083677D01*
X96479815Y-106150716D01*
X96427011Y-106196471D01*
X96389384Y-106206897D01*
X96320750Y-106214630D01*
X96150478Y-106274210D01*
X95997737Y-106370184D01*
X95870184Y-106497737D01*
X95774212Y-106650475D01*
X95774211Y-106650476D01*
X95737992Y-106753984D01*
X95708632Y-106800709D01*
X93656256Y-108853085D01*
X93594933Y-108886570D01*
X93525241Y-108881586D01*
X93502603Y-108870398D01*
X93349523Y-108774211D01*
X93179254Y-108714631D01*
X93179249Y-108714630D01*
X93000004Y-108694435D01*
X92999996Y-108694435D01*
X92820750Y-108714630D01*
X92820745Y-108714631D01*
X92650476Y-108774211D01*
X92497737Y-108870184D01*
X92370184Y-108997737D01*
X92274212Y-109150475D01*
X92274211Y-109150476D01*
X92237992Y-109253984D01*
X92208632Y-109300709D01*
X86387088Y-115122253D01*
X86325765Y-115155738D01*
X86256073Y-115150754D01*
X86200140Y-115108882D01*
X86194413Y-115100544D01*
X86129816Y-114997738D01*
X86002262Y-114870184D01*
X85980225Y-114856337D01*
X85849523Y-114774211D01*
X85679254Y-114714631D01*
X85679249Y-114714630D01*
X85500004Y-114694435D01*
X85499996Y-114694435D01*
X85320750Y-114714630D01*
X85320737Y-114714633D01*
X85150481Y-114774209D01*
X85150477Y-114774210D01*
X85060904Y-114830494D01*
X84994932Y-114849500D01*
X84440519Y-114849500D01*
X84373480Y-114829815D01*
X84327725Y-114777011D01*
X84317781Y-114707853D01*
X84346806Y-114644297D01*
X84352838Y-114637819D01*
X85650122Y-113340535D01*
X92699288Y-106291366D01*
X92746012Y-106262008D01*
X92849522Y-106225789D01*
X93002262Y-106129816D01*
X93129816Y-106002262D01*
X93225789Y-105849522D01*
X93262008Y-105746011D01*
X93291366Y-105699289D01*
X94253837Y-104736819D01*
X94315160Y-104703334D01*
X94341518Y-104700500D01*
X94574506Y-104700500D01*
X94640477Y-104719506D01*
X94650474Y-104725787D01*
X94650475Y-104725787D01*
X94650478Y-104725789D01*
X94788860Y-104774211D01*
X94820745Y-104785368D01*
X94820750Y-104785369D01*
X94999996Y-104805565D01*
X95000000Y-104805565D01*
X95000004Y-104805565D01*
X95179249Y-104785369D01*
X95179252Y-104785368D01*
X95179255Y-104785368D01*
X95349522Y-104725789D01*
X95502262Y-104629816D01*
X95629816Y-104502262D01*
X95725789Y-104349522D01*
X95785368Y-104179255D01*
X95791875Y-104121505D01*
X95805565Y-104000003D01*
X95805565Y-103999996D01*
X95785369Y-103820750D01*
X95785368Y-103820745D01*
X95774059Y-103788425D01*
X95725789Y-103650478D01*
X95702063Y-103612719D01*
X95629815Y-103497737D01*
X95502262Y-103370184D01*
X95349523Y-103274211D01*
X95179254Y-103214631D01*
X95179249Y-103214630D01*
X95000004Y-103194435D01*
X94999996Y-103194435D01*
X94820750Y-103214630D01*
X94820745Y-103214631D01*
X94650474Y-103274212D01*
X94640477Y-103280494D01*
X94574506Y-103299500D01*
X93931003Y-103299500D01*
X93822590Y-103321065D01*
X93822589Y-103321065D01*
X93809131Y-103323742D01*
X93795673Y-103326419D01*
X93742866Y-103348291D01*
X93742866Y-103348292D01*
X93695774Y-103367798D01*
X93668186Y-103379226D01*
X93658034Y-103386010D01*
X93657923Y-103386084D01*
X93553457Y-103455886D01*
X93553453Y-103455889D01*
X92300710Y-104708631D01*
X92253985Y-104737991D01*
X92150476Y-104774211D01*
X92150475Y-104774212D01*
X91997737Y-104870184D01*
X91870184Y-104997737D01*
X91774212Y-105150475D01*
X91774211Y-105150476D01*
X91737991Y-105253986D01*
X91708631Y-105300711D01*
X81800709Y-115208632D01*
X81753984Y-115237992D01*
X81650476Y-115274211D01*
X81650475Y-115274212D01*
X81497738Y-115370183D01*
X81492663Y-115375259D01*
X81431338Y-115408741D01*
X81361647Y-115403753D01*
X81305715Y-115361878D01*
X81289436Y-115326699D01*
X81287669Y-115327318D01*
X81225790Y-115150481D01*
X81225789Y-115150478D01*
X81199653Y-115108882D01*
X81169506Y-115060903D01*
X81150500Y-114994931D01*
X81150500Y-112435928D01*
X81125502Y-112310261D01*
X81125501Y-112310260D01*
X81125501Y-112310256D01*
X81079175Y-112198415D01*
X81076466Y-112191874D01*
X81005277Y-112085331D01*
X81005275Y-112085328D01*
X81005272Y-112085325D01*
X77071722Y-108151776D01*
X77038237Y-108090453D01*
X77036182Y-108077973D01*
X77035368Y-108070745D01*
X76975789Y-107900478D01*
X76962922Y-107880001D01*
X76879815Y-107747737D01*
X76752262Y-107620184D01*
X76599523Y-107524211D01*
X76429254Y-107464631D01*
X76429249Y-107464630D01*
X76250004Y-107444435D01*
X76249996Y-107444435D01*
X76070750Y-107464630D01*
X76070745Y-107464631D01*
X75900476Y-107524211D01*
X75747737Y-107620184D01*
X75620184Y-107747737D01*
X75524211Y-107900476D01*
X75464631Y-108070745D01*
X75464630Y-108070750D01*
X75444435Y-108249996D01*
X75444435Y-108250003D01*
X75464630Y-108429249D01*
X75464631Y-108429254D01*
X75524211Y-108599523D01*
X75583849Y-108694435D01*
X75620184Y-108752262D01*
X75747738Y-108879816D01*
X75900478Y-108975789D01*
X76070745Y-109035368D01*
X76077974Y-109036182D01*
X76142388Y-109063246D01*
X76151776Y-109071722D01*
X79813181Y-112733127D01*
X79846666Y-112794450D01*
X79849500Y-112820808D01*
X79849500Y-114994931D01*
X79830494Y-115060903D01*
X79774211Y-115150477D01*
X79774209Y-115150481D01*
X79714633Y-115320737D01*
X79714630Y-115320750D01*
X79694435Y-115499996D01*
X79694435Y-115500003D01*
X79714630Y-115679249D01*
X79714631Y-115679254D01*
X79774211Y-115849523D01*
X79791756Y-115877445D01*
X79870184Y-116002262D01*
X79997738Y-116129816D01*
X80021913Y-116145006D01*
X80068204Y-116197341D01*
X80078852Y-116266395D01*
X80050477Y-116330243D01*
X80021913Y-116354994D01*
X79997737Y-116370184D01*
X79870184Y-116497737D01*
X79774211Y-116650476D01*
X79714631Y-116820745D01*
X79714630Y-116820750D01*
X79694435Y-116999996D01*
X79694435Y-117000004D01*
X79696870Y-117021617D01*
X79684815Y-117090439D01*
X79637466Y-117141818D01*
X79573650Y-117159500D01*
X67850518Y-117159500D01*
X67783479Y-117139815D01*
X67737724Y-117087011D01*
X67727780Y-117017853D01*
X67756805Y-116954297D01*
X67762837Y-116947819D01*
X68380413Y-116330243D01*
X70333695Y-114376959D01*
X70395016Y-114343476D01*
X70464708Y-114348460D01*
X70520641Y-114390332D01*
X70543847Y-114445243D01*
X70558242Y-114536129D01*
X70558242Y-114536130D01*
X70623904Y-114738217D01*
X70720379Y-114927557D01*
X70845272Y-115099459D01*
X70845276Y-115099464D01*
X70995535Y-115249723D01*
X70995540Y-115249727D01*
X71167442Y-115374620D01*
X71356782Y-115471095D01*
X71558872Y-115536757D01*
X71750000Y-115567029D01*
X71750000Y-114624145D01*
X71816657Y-114662630D01*
X71937465Y-114695000D01*
X72062535Y-114695000D01*
X72183343Y-114662630D01*
X72250000Y-114624145D01*
X72250000Y-115567028D01*
X72441127Y-115536757D01*
X72643217Y-115471095D01*
X72832557Y-115374620D01*
X73004459Y-115249727D01*
X73004464Y-115249723D01*
X73154723Y-115099464D01*
X73154727Y-115099459D01*
X73279620Y-114927557D01*
X73376095Y-114738217D01*
X73441757Y-114536129D01*
X73441757Y-114536126D01*
X73452231Y-114470000D01*
X72404146Y-114470000D01*
X72442630Y-114403343D01*
X72475000Y-114282535D01*
X72475000Y-114157465D01*
X72442630Y-114036657D01*
X72404146Y-113970000D01*
X73452231Y-113970000D01*
X73441757Y-113903873D01*
X73441757Y-113903870D01*
X73376095Y-113701782D01*
X73279620Y-113512442D01*
X73154727Y-113340540D01*
X73154723Y-113340535D01*
X73004464Y-113190276D01*
X73004459Y-113190272D01*
X72839781Y-113070627D01*
X72797115Y-113015297D01*
X72791136Y-112945684D01*
X72823741Y-112883889D01*
X72839776Y-112869994D01*
X73004792Y-112750104D01*
X73155104Y-112599792D01*
X73155106Y-112599788D01*
X73155109Y-112599786D01*
X73280048Y-112427820D01*
X73280047Y-112427820D01*
X73280051Y-112427816D01*
X73376557Y-112238412D01*
X73442246Y-112036243D01*
X73475500Y-111826287D01*
X73475500Y-111613713D01*
X73442246Y-111403757D01*
X73376557Y-111201588D01*
X73280051Y-111012184D01*
X73280049Y-111012181D01*
X73280048Y-111012179D01*
X73155109Y-110840213D01*
X73016294Y-110701398D01*
X72982809Y-110640075D01*
X72987793Y-110570383D01*
X73029665Y-110514450D01*
X73038879Y-110508178D01*
X73044331Y-110504814D01*
X73044334Y-110504814D01*
X73193656Y-110412712D01*
X73317712Y-110288656D01*
X73409814Y-110139334D01*
X73464999Y-109972797D01*
X73475500Y-109870009D01*
X73475499Y-108569992D01*
X73469817Y-108514373D01*
X73464999Y-108467203D01*
X73464998Y-108467200D01*
X73435385Y-108377834D01*
X73409814Y-108300666D01*
X73317712Y-108151344D01*
X73193656Y-108027288D01*
X73044686Y-107935403D01*
X73044336Y-107935187D01*
X73044331Y-107935185D01*
X73042862Y-107934698D01*
X72877797Y-107880001D01*
X72877795Y-107880000D01*
X72775016Y-107869500D01*
X72775009Y-107869500D01*
X71449500Y-107869500D01*
X71382461Y-107849815D01*
X71336706Y-107797011D01*
X71325500Y-107745500D01*
X71325500Y-92501081D01*
X71319763Y-92472242D01*
X71319763Y-92472240D01*
X71296660Y-92356095D01*
X71296659Y-92356088D01*
X71242408Y-92225117D01*
X71240764Y-92220522D01*
X71157954Y-92096588D01*
X71157953Y-92096587D01*
X71157951Y-92096584D01*
X71053416Y-91992049D01*
X70253308Y-91191940D01*
X70230643Y-91155870D01*
X70228812Y-91156753D01*
X70225792Y-91150483D01*
X70129815Y-90997737D01*
X70002262Y-90870184D01*
X69849523Y-90774211D01*
X69679254Y-90714631D01*
X69679249Y-90714630D01*
X69500004Y-90694435D01*
X69499996Y-90694435D01*
X69320750Y-90714630D01*
X69320745Y-90714631D01*
X69150476Y-90774211D01*
X68997737Y-90870184D01*
X68870184Y-90997737D01*
X68774211Y-91150476D01*
X68714631Y-91320745D01*
X68714630Y-91320750D01*
X68694435Y-91499996D01*
X68694435Y-91500003D01*
X68714630Y-91679249D01*
X68714631Y-91679254D01*
X68774211Y-91849523D01*
X68863767Y-91992049D01*
X68870184Y-92002262D01*
X68997738Y-92129816D01*
X69076410Y-92179249D01*
X69150483Y-92225792D01*
X69156753Y-92228812D01*
X69155870Y-92230643D01*
X69191940Y-92253308D01*
X69788181Y-92849548D01*
X69821666Y-92910871D01*
X69824500Y-92937229D01*
X69824500Y-110368918D01*
X69824500Y-110368920D01*
X69824499Y-110368920D01*
X69853340Y-110513907D01*
X69853343Y-110513917D01*
X69909912Y-110650488D01*
X69909920Y-110650502D01*
X69936241Y-110689893D01*
X69936242Y-110689896D01*
X69936243Y-110689896D01*
X69992051Y-110773420D01*
X69992052Y-110773421D01*
X70521915Y-111303282D01*
X70555400Y-111364605D01*
X70556707Y-111410360D01*
X70524500Y-111613712D01*
X70524500Y-111613713D01*
X70524500Y-111826287D01*
X70526895Y-111841407D01*
X70557753Y-112036240D01*
X70557753Y-112036241D01*
X70567465Y-112066132D01*
X70569458Y-112135973D01*
X70537214Y-112192128D01*
X67930640Y-114798701D01*
X67869317Y-114832186D01*
X67799625Y-114827202D01*
X67743692Y-114785330D01*
X67730577Y-114763425D01*
X67674035Y-114642171D01*
X67674034Y-114642169D01*
X67538494Y-114448597D01*
X67371402Y-114281506D01*
X67371396Y-114281501D01*
X67185842Y-114151575D01*
X67142217Y-114096998D01*
X67135023Y-114027500D01*
X67166546Y-113965145D01*
X67185842Y-113948425D01*
X67341034Y-113839758D01*
X67371401Y-113818495D01*
X67538495Y-113651401D01*
X67674035Y-113457830D01*
X67773903Y-113243663D01*
X67835063Y-113015408D01*
X67855659Y-112780000D01*
X67835063Y-112544592D01*
X67773903Y-112316337D01*
X67674035Y-112102171D01*
X67662242Y-112085328D01*
X67538494Y-111908597D01*
X67371402Y-111741506D01*
X67371396Y-111741501D01*
X67185842Y-111611575D01*
X67142217Y-111556998D01*
X67135023Y-111487500D01*
X67166546Y-111425145D01*
X67185842Y-111408425D01*
X67248423Y-111364605D01*
X67371401Y-111278495D01*
X67538495Y-111111401D01*
X67674035Y-110917830D01*
X67773903Y-110703663D01*
X67835063Y-110475408D01*
X67855659Y-110240000D01*
X67835063Y-110004592D01*
X67773903Y-109776337D01*
X67674035Y-109562171D01*
X67538495Y-109368599D01*
X67538494Y-109368597D01*
X67371402Y-109201506D01*
X67371396Y-109201501D01*
X67185842Y-109071575D01*
X67142217Y-109016998D01*
X67135023Y-108947500D01*
X67166546Y-108885145D01*
X67185842Y-108868425D01*
X67342929Y-108758431D01*
X67371401Y-108738495D01*
X67538495Y-108571401D01*
X67674035Y-108377830D01*
X67773903Y-108163663D01*
X67835063Y-107935408D01*
X67855659Y-107700000D01*
X67835063Y-107464592D01*
X67773903Y-107236337D01*
X67674035Y-107022171D01*
X67616972Y-106940675D01*
X67538494Y-106828597D01*
X67371402Y-106661506D01*
X67371396Y-106661501D01*
X67185842Y-106531575D01*
X67142217Y-106476998D01*
X67135023Y-106407500D01*
X67166546Y-106345145D01*
X67185842Y-106328425D01*
X67267346Y-106271355D01*
X67371401Y-106198495D01*
X67538495Y-106031401D01*
X67674035Y-105837830D01*
X67773903Y-105623663D01*
X67835063Y-105395408D01*
X67855659Y-105160000D01*
X67835063Y-104924592D01*
X67775778Y-104703334D01*
X67773905Y-104696344D01*
X67773904Y-104696343D01*
X67773903Y-104696337D01*
X67674035Y-104482171D01*
X67616972Y-104400675D01*
X67538494Y-104288597D01*
X67371402Y-104121506D01*
X67371396Y-104121501D01*
X67185842Y-103991575D01*
X67142217Y-103936998D01*
X67135023Y-103867500D01*
X67166546Y-103805145D01*
X67185842Y-103788425D01*
X67341034Y-103679758D01*
X67371401Y-103658495D01*
X67538495Y-103491401D01*
X67674035Y-103297830D01*
X67773903Y-103083663D01*
X67835063Y-102855408D01*
X67855659Y-102620000D01*
X67835063Y-102384592D01*
X67773903Y-102156337D01*
X67674035Y-101942171D01*
X67538495Y-101748599D01*
X67416567Y-101626671D01*
X67383084Y-101565351D01*
X67388068Y-101495659D01*
X67429939Y-101439725D01*
X67460915Y-101422810D01*
X67592331Y-101373796D01*
X67707546Y-101287546D01*
X67793796Y-101172331D01*
X67844091Y-101037483D01*
X67850500Y-100977873D01*
X67850499Y-99182128D01*
X67844091Y-99122517D01*
X67793796Y-98987669D01*
X67793795Y-98987668D01*
X67793793Y-98987664D01*
X67707547Y-98872455D01*
X67707544Y-98872452D01*
X67592335Y-98786206D01*
X67592328Y-98786202D01*
X67457482Y-98735908D01*
X67457483Y-98735908D01*
X67397883Y-98729501D01*
X67397881Y-98729500D01*
X67397873Y-98729500D01*
X67397864Y-98729500D01*
X65602129Y-98729500D01*
X65602123Y-98729501D01*
X65542514Y-98735909D01*
X65517832Y-98745115D01*
X65448140Y-98750099D01*
X65386818Y-98716613D01*
X65353333Y-98655289D01*
X65350500Y-98628933D01*
X65350500Y-85120807D01*
X65370185Y-85053768D01*
X65386814Y-85033131D01*
X78098224Y-72321720D01*
X78159545Y-72288237D01*
X78172019Y-72286183D01*
X78179255Y-72285368D01*
X78349522Y-72225789D01*
X78502262Y-72129816D01*
X78629816Y-72002262D01*
X78725789Y-71849522D01*
X78785368Y-71679255D01*
X78785369Y-71679249D01*
X78805565Y-71500003D01*
X78805565Y-71499996D01*
X78785369Y-71320750D01*
X78785368Y-71320745D01*
X78774582Y-71289920D01*
X78725789Y-71150478D01*
X78629816Y-70997738D01*
X78502262Y-70870184D01*
X78462131Y-70844968D01*
X78349523Y-70774211D01*
X78179254Y-70714631D01*
X78179249Y-70714630D01*
X78000004Y-70694435D01*
X77999996Y-70694435D01*
X77820750Y-70714630D01*
X77820745Y-70714631D01*
X77650476Y-70774211D01*
X77497737Y-70870184D01*
X77370184Y-70997737D01*
X77274210Y-71150478D01*
X77214632Y-71320744D01*
X77214630Y-71320752D01*
X77213815Y-71327988D01*
X77186743Y-71392400D01*
X77178277Y-71401775D01*
X64194726Y-84385326D01*
X64123534Y-84491874D01*
X64074499Y-84610255D01*
X64074497Y-84610261D01*
X64049500Y-84735928D01*
X58004770Y-84735928D01*
X58000501Y-71478131D01*
X58000671Y-71471603D01*
X58003944Y-71409143D01*
X58016591Y-71167824D01*
X58017948Y-71154918D01*
X58050924Y-70946715D01*
X58065031Y-70857644D01*
X58067721Y-70844987D01*
X58145626Y-70554239D01*
X58149628Y-70541923D01*
X58257494Y-70260920D01*
X58262762Y-70249088D01*
X58399418Y-69980886D01*
X58405884Y-69969687D01*
X58569823Y-69717243D01*
X58577425Y-69706780D01*
X58766857Y-69472850D01*
X58775524Y-69463225D01*
X58988353Y-69250396D01*
X58997979Y-69241729D01*
X59231898Y-69052303D01*
X59242370Y-69044695D01*
X59494823Y-68880750D01*
X59506013Y-68874289D01*
X59774220Y-68737632D01*
X59786042Y-68732368D01*
X60067045Y-68624501D01*
X60079367Y-68620497D01*
X60370106Y-68542593D01*
X60382785Y-68539899D01*
X60680046Y-68492819D01*
X60692951Y-68491462D01*
X60996658Y-68475544D01*
X61003171Y-68475375D01*
X104925578Y-68500457D01*
G37*
%TD.AperFunction*%
%TD*%
M02*
